<?xml version="1.0" encoding="utf-8" standalone="no"?>
<!DOCTYPE svg PUBLIC "-//W3C//DTD SVG 1.1//EN"
  "http://www.w3.org/Graphics/SVG/1.1/DTD/svg11.dtd">
<svg xmlns:xlink="http://www.w3.org/1999/xlink" width="206.880687pt" height="216.317404pt" viewBox="0 0 206.880687 216.317404" xmlns="http://www.w3.org/2000/svg" version="1.1">
 <metadata>
  <rdf:RDF xmlns:dc="http://purl.org/dc/elements/1.1/" xmlns:cc="http://creativecommons.org/ns#" xmlns:rdf="http://www.w3.org/1999/02/22-rdf-syntax-ns#">
   <cc:Work>
    <dc:type rdf:resource="http://purl.org/dc/dcmitype/StillImage"/>
    <dc:date>2024-10-23T21:08:02.874002</dc:date>
    <dc:format>image/svg+xml</dc:format>
    <dc:creator>
     <cc:Agent>
      <dc:title>Matplotlib v3.8.3, https://matplotlib.org/</dc:title>
     </cc:Agent>
    </dc:creator>
   </cc:Work>
  </rdf:RDF>
 </metadata>
 <defs>
  <style type="text/css">*{stroke-linejoin: round; stroke-linecap: butt}</style>
 </defs>
 <g id="figure_1">
  <g id="patch_1">
   <path d="M 0 216.317404 
L 206.880687 216.317404 
L 206.880687 0 
L 0 0 
z
" style="fill: #ffffff"/>
  </g>
  <g id="axes_1">
   <g id="patch_2">
    <path d="M 48.840687 174.296563 
L 203.280687 174.296563 
L 203.280687 34.112563 
L 48.840687 34.112563 
z
" style="fill: #ececec"/>
   </g>
   <g id="matplotlib.axis_1">
    <g id="xtick_1">
     <g id="text_1">
      <!-- $\sgfs\leq\qty{100}{\byte}$ -->
      <g transform="translate(104.615776 10.164238) scale(0.09 -0.09)">
       <defs>
        <path id="NotoMathMI-41" d="M 1094 -64 
C 1466 -64 1754 20 1971 200 
C 2176 379 2285 609 2285 892 
C 2285 1116 2227 1290 2099 1431 
C 1978 1571 1805 1688 1594 1784 
C 1389 1873 1242 1963 1152 2046 
C 1056 2136 1011 2245 1011 2380 
C 1011 2521 1062 2643 1158 2733 
C 1254 2829 1395 2874 1568 2874 
C 1702 2874 1792 2848 1875 2778 
C 1946 2720 2010 2630 2042 2533 
C 2067 2437 2086 2329 2086 2233 
C 2221 2233 2317 2265 2394 2322 
C 2477 2380 2515 2469 2515 2591 
C 2515 2681 2490 2765 2419 2854 
C 2362 2944 2266 3008 2131 3059 
C 1997 3110 1830 3136 1619 3136 
C 1280 3136 1011 3059 806 2893 
C 602 2732 506 2527 506 2276 
C 506 2046 570 1866 698 1738 
C 826 1597 992 1482 1203 1385 
C 1414 1289 1562 1193 1651 1097 
C 1741 1001 1786 885 1786 750 
C 1786 571 1728 436 1619 346 
C 1510 256 1357 212 1165 212 
C 1005 212 877 244 781 313 
C 685 383 608 478 570 593 
C 531 708 506 828 506 962 
C 461 962 410 962 352 943 
C 294 918 237 879 205 828 
C 160 777 141 693 141 590 
C 141 385 230 225 403 109 
C 576 -6 806 -64 1094 -64 
z
" transform="scale(0.015625)"/>
        <path id="NotoSerif-Italic-66" d="M -525 -1536 
C -294 -1536 -90 -1491 90 -1401 
C 269 -1312 422 -1157 550 -944 
C 678 -726 781 -424 864 -45 
L 1530 3088 
L 2246 3088 
L 2317 3456 
L 1606 3456 
L 1690 3870 
C 1741 4141 1811 4342 1894 4478 
C 1978 4608 2099 4672 2259 4672 
C 2394 4672 2483 4614 2522 4491 
C 2566 4374 2586 4233 2586 4070 
C 2758 4070 2886 4103 2982 4174 
C 3072 4245 3117 4349 3117 4491 
C 3117 4632 3046 4749 2906 4840 
C 2771 4924 2566 4969 2291 4969 
C 1939 4969 1670 4866 1472 4671 
C 1280 4465 1146 4180 1075 3813 
L 1005 3457 
L 390 3321 
L 352 3088 
L 934 3088 
L 262 -50 
C 166 -481 64 -783 -51 -964 
C -173 -1143 -333 -1233 -544 -1233 
C -589 -1233 -640 -1233 -704 -1220 
C -755 -1214 -806 -1201 -838 -1194 
L -896 -1486 
C -851 -1499 -794 -1511 -730 -1524 
C -653 -1530 -589 -1536 -525 -1536 
z
" transform="scale(0.015625)"/>
        <path id="NotoSerif-Italic-73" d="M 1216 -64 
C 1626 -64 1946 32 2189 233 
C 2419 433 2541 684 2541 1001 
C 2541 1253 2470 1454 2330 1608 
C 2195 1763 2010 1893 1773 2003 
C 1549 2106 1389 2209 1280 2299 
C 1171 2404 1120 2520 1120 2668 
C 1120 2829 1178 2965 1286 3069 
C 1395 3172 1549 3223 1741 3223 
C 1888 3223 1997 3191 2086 3114 
C 2163 3049 2227 2959 2266 2842 
C 2298 2739 2317 2623 2317 2507 
C 2464 2507 2586 2539 2669 2610 
C 2752 2674 2797 2771 2797 2906 
C 2797 3003 2765 3101 2688 3198 
C 2624 3294 2515 3372 2368 3430 
C 2221 3488 2035 3520 1798 3520 
C 1421 3520 1126 3430 896 3248 
C 678 3068 563 2836 563 2557 
C 563 2299 634 2092 774 1950 
C 915 1795 1101 1666 1338 1556 
C 1574 1446 1741 1343 1837 1233 
C 1933 1124 1984 994 1984 846 
C 1984 646 1920 496 1798 400 
C 1677 297 1504 245 1293 245 
C 1120 245 973 284 870 361 
C 755 438 678 543 634 672 
C 589 801 563 943 563 1092 
C 512 1092 454 1079 397 1059 
C 333 1040 275 995 230 930 
C 186 872 160 781 160 665 
C 160 439 256 265 448 129 
C 640 0 896 -64 1216 -64 
z
" transform="scale(0.015625)"/>
        <path id="txsys-14" d="M 3673 451 
L 3673 809 
L 1010 2057 
L 3673 3305 
L 3673 3664 
L 396 2115 
L 396 1987 
L 3673 451 
z
M 3673 -381 
L 3673 -42 
L 396 -42 
L 396 -381 
L 3673 -381 
z
" transform="scale(0.015625)"/>
        <path id="NotoSerif-Regular-31" d="M 614 0 
L 3053 0 
L 3053 271 
L 2739 271 
C 2592 271 2470 297 2368 348 
C 2266 406 2214 536 2214 736 
L 2214 4640 
L 1805 4640 
L 1357 4303 
C 1146 4142 973 4031 832 3960 
C 685 3888 550 3837 422 3805 
C 422 3701 454 3618 512 3553 
C 570 3489 646 3456 742 3456 
C 870 3456 998 3521 1126 3644 
C 1261 3767 1408 3928 1568 4129 
L 1568 736 
C 1568 536 1517 406 1414 348 
C 1312 297 1190 271 1043 271 
L 614 271 
L 614 0 
z
" transform="scale(0.015625)"/>
        <path id="NotoSerif-Regular-30" d="M 1792 -64 
C 2131 -64 2406 32 2624 232 
C 2848 432 3014 710 3123 1058 
C 3232 1419 3290 1833 3290 2310 
C 3290 2787 3238 3201 3123 3562 
C 3021 3910 2854 4189 2630 4382 
C 2406 4575 2131 4672 1798 4672 
C 1446 4672 1158 4575 934 4382 
C 710 4189 550 3917 448 3562 
C 339 3207 288 2794 288 2317 
C 288 1840 339 1419 448 1065 
C 550 710 710 432 934 232 
C 1158 32 1440 -64 1792 -64 
z
M 1792 284 
C 1478 284 1261 464 1139 820 
C 1018 1174 954 1671 954 2310 
C 954 2950 1018 3446 1139 3794 
C 1267 4150 1485 4324 1798 4324 
C 2106 4324 2317 4150 2445 3794 
C 2560 3446 2624 2950 2624 2310 
C 2624 1671 2560 1174 2445 820 
C 2317 464 2106 284 1792 284 
z
" transform="scale(0.015625)"/>
        <path id="NotoSerif-Regular-42" d="M 243 0 
L 2150 0 
C 3245 0 3795 411 3795 1239 
C 3795 1580 3706 1850 3520 2042 
C 3334 2229 3098 2351 2810 2402 
L 2810 2428 
C 3034 2500 3226 2616 3379 2778 
C 3526 2934 3603 3154 3603 3446 
C 3603 3842 3469 4140 3200 4322 
C 2925 4516 2515 4608 1958 4608 
L 243 4608 
L 243 4337 
L 326 4337 
C 467 4337 589 4311 691 4259 
C 800 4208 851 4085 851 3898 
L 851 735 
C 851 535 800 406 698 348 
C 595 297 474 271 326 271 
L 243 271 
L 243 0 
z
M 1939 2563 
L 1498 2563 
L 1498 4285 
L 1926 4285 
C 2291 4285 2547 4227 2694 4104 
C 2842 3987 2918 3765 2918 3446 
C 2918 3135 2848 2907 2714 2771 
C 2573 2635 2317 2563 1939 2563 
z
M 2118 322 
L 1498 322 
L 1498 2240 
L 2131 2240 
C 2509 2240 2765 2156 2906 2003 
C 3040 1836 3110 1592 3110 1259 
C 3110 919 3034 675 2886 534 
C 2739 393 2483 322 2118 322 
z
" transform="scale(0.015625)"/>
       </defs>
       <use xlink:href="#NotoMathMI-41" transform="scale(1.01519)"/>
       <use xlink:href="#NotoMathMI-41" transform="translate(36.868305 0) scale(1.01519)"/>
       <use xlink:href="#NotoSerif-Italic-66" transform="translate(86.341776 36.851386) scale(0.666977)"/>
       <use xlink:href="#NotoSerif-Italic-73" transform="translate(107.551637 36.851386) scale(0.666977)"/>
       <use xlink:href="#txsys-14" transform="translate(161.284678 0) scale(1.01519)"/>
       <use xlink:href="#NotoSerif-Regular-31" transform="translate(251.456133 0) scale(0.913673)"/>
       <use xlink:href="#NotoSerif-Regular-30" transform="translate(302.530428 0) scale(0.913673)"/>
       <use xlink:href="#NotoSerif-Regular-30" transform="translate(353.604723 0) scale(0.913673)"/>
       <use xlink:href="#NotoSerif-Regular-42" transform="translate(410.318955 0) scale(0.913673)"/>
      </g>
      <!-- {\scalefont{.88}avg. net. load: $\qty{0.69}{\percent}$} -->
      <g transform="translate(93.390499 19.532343) scale(0.09 -0.09)">
       <defs>
        <path id="RobotoCondensed-Regular-61" d="M 2150 0 
L 2726 0 
L 2726 51 
C 2656 244 2624 469 2624 732 
L 2624 2441 
C 2618 2775 2528 3026 2349 3199 
C 2163 3373 1901 3456 1555 3456 
C 1344 3456 1152 3411 979 3321 
C 806 3231 666 3109 563 2954 
C 461 2794 410 2626 410 2453 
L 966 2453 
C 966 2601 1018 2730 1126 2833 
C 1229 2929 1363 2981 1530 2981 
C 1715 2981 1850 2936 1939 2851 
C 2029 2760 2074 2612 2074 2410 
L 2074 2048 
L 1664 2048 
C 1261 2048 941 1946 710 1746 
C 474 1547 358 1271 358 925 
C 358 610 442 373 614 199 
C 787 26 1024 -64 1331 -64 
C 1632 -64 1882 80 2080 372 
C 2093 198 2118 71 2150 0 
z
M 1414 443 
C 1229 443 1101 488 1024 572 
C 947 655 909 797 909 989 
C 909 1194 986 1354 1139 1470 
C 1286 1579 1498 1637 1760 1637 
L 2074 1637 
L 2074 835 
C 2016 726 1926 630 1805 559 
C 1683 482 1549 443 1414 443 
z
" transform="scale(0.015625)"/>
        <path id="RobotoCondensed-Regular-76" d="M 1370 842 
L 704 3392 
L 141 3392 
L 1158 0 
L 1574 0 
L 2573 3392 
L 2010 3392 
L 1370 842 
z
" transform="scale(0.015625)"/>
        <path id="RobotoCondensed-Regular-67" d="M 301 1850 
L 301 1471 
C 307 976 410 597 608 334 
C 806 71 1075 -64 1427 -64 
C 1754 -64 2010 71 2189 334 
L 2189 -114 
C 2176 -621 1939 -875 1478 -875 
C 1203 -875 954 -759 723 -531 
L 499 -914 
C 602 -1036 755 -1132 966 -1216 
C 1171 -1299 1357 -1344 1523 -1344 
C 1907 -1344 2208 -1229 2426 -1003 
C 2637 -778 2746 -456 2746 -38 
L 2746 3392 
L 2246 3392 
L 2214 3013 
C 2042 3308 1779 3456 1434 3456 
C 1062 3456 781 3321 589 3051 
C 397 2782 301 2383 301 1850 
z
M 858 1535 
L 858 1876 
C 858 2242 915 2518 1030 2698 
C 1139 2872 1325 2962 1581 2962 
C 1843 2962 2042 2820 2189 2544 
L 2189 848 
C 2054 565 1850 424 1574 424 
C 1318 424 1133 514 1024 694 
C 915 874 858 1156 858 1535 
z
" transform="scale(0.015625)"/>
        <path id="RobotoCondensed-Regular-2e" d="M 448 334 
C 448 238 480 160 538 96 
C 595 32 685 0 806 0 
C 928 0 1018 32 1082 96 
C 1139 160 1171 238 1171 334 
C 1171 437 1139 520 1082 591 
C 1018 655 928 687 806 687 
C 685 687 595 655 538 584 
C 480 514 448 430 448 334 
z
" transform="scale(0.015625)"/>
        <path id="RobotoCondensed-Regular-6e" d="M 934 3392 
L 410 3392 
L 410 0 
L 966 0 
L 966 2467 
C 1037 2615 1126 2730 1235 2827 
C 1344 2917 1466 2962 1600 2962 
C 1779 2962 1914 2904 2003 2795 
C 2086 2685 2131 2493 2131 2229 
L 2131 0 
L 2682 0 
L 2682 2255 
C 2675 3058 2368 3456 1773 3456 
C 1434 3456 1158 3315 947 3026 
L 934 3392 
z
" transform="scale(0.015625)"/>
        <path id="RobotoCondensed-Regular-65" d="M 1619 -64 
C 2112 -64 2477 103 2720 443 
L 2432 799 
C 2323 663 2202 566 2080 509 
C 1958 443 1811 411 1651 411 
C 1395 411 1197 496 1062 664 
C 928 825 858 1090 858 1459 
L 858 1536 
L 2746 1536 
L 2746 1901 
C 2739 2432 2643 2829 2451 3078 
C 2253 3328 1958 3456 1562 3456 
C 1165 3456 858 3315 640 3026 
C 416 2737 307 2345 307 1837 
L 307 1426 
C 314 938 429 565 653 315 
C 877 64 1197 -64 1619 -64 
z
M 1562 2981 
C 1766 2981 1920 2911 2022 2776 
C 2125 2636 2182 2407 2195 2087 
L 2195 2011 
L 864 2011 
C 877 2343 941 2586 1050 2745 
C 1158 2905 1331 2981 1562 2981 
z
" transform="scale(0.015625)"/>
        <path id="RobotoCondensed-Regular-74" d="M 1139 4224 
L 589 4224 
L 589 3392 
L 70 3392 
L 70 2942 
L 589 2942 
L 589 835 
C 589 546 646 328 762 173 
C 877 13 1043 -64 1261 -64 
C 1395 -64 1523 -45 1645 0 
L 1651 469 
C 1574 443 1498 430 1427 430 
C 1318 430 1248 469 1203 540 
C 1158 610 1139 707 1139 842 
L 1139 2942 
L 1645 2942 
L 1645 3392 
L 1139 3392 
L 1139 4224 
z
" transform="scale(0.015625)"/>
        <path id="RobotoCondensed-Regular-6c" d="M 1011 0 
L 1011 4818 
L 454 4818 
L 454 0 
L 1011 0 
z
" transform="scale(0.015625)"/>
        <path id="RobotoCondensed-Regular-6f" d="M 294 1857 
L 294 1484 
C 301 1009 429 630 666 353 
C 902 77 1216 -64 1606 -64 
C 2003 -64 2323 77 2560 366 
C 2797 655 2912 1041 2912 1535 
L 2912 1889 
C 2906 2371 2784 2756 2547 3039 
C 2310 3315 1990 3456 1600 3456 
C 1210 3456 890 3315 653 3026 
C 416 2737 294 2351 294 1857 
z
M 851 1535 
L 851 1857 
C 851 2203 922 2480 1056 2679 
C 1190 2878 1376 2981 1600 2981 
C 1830 2981 2016 2878 2157 2679 
C 2291 2480 2362 2203 2362 1857 
L 2362 1471 
C 2342 764 2093 411 1606 411 
C 1376 411 1190 514 1056 713 
C 922 912 851 1182 851 1535 
z
" transform="scale(0.015625)"/>
        <path id="RobotoCondensed-Regular-64" d="M 294 1850 
L 294 1503 
C 301 1009 403 623 602 347 
C 800 71 1075 -64 1427 -64 
C 1766 -64 2022 80 2202 366 
L 2234 0 
L 2739 0 
L 2739 4818 
L 2182 4818 
L 2182 3065 
C 2003 3328 1754 3456 1427 3456 
C 1062 3456 787 3321 589 3045 
C 390 2769 294 2371 294 1850 
z
M 851 1535 
L 851 1876 
C 851 2242 909 2518 1024 2698 
C 1133 2872 1318 2962 1574 2962 
C 1837 2962 2042 2827 2182 2557 
L 2182 842 
C 2048 565 1843 424 1568 424 
C 1318 424 1133 514 1024 694 
C 909 874 851 1156 851 1535 
z
" transform="scale(0.015625)"/>
        <path id="RobotoCondensed-Regular-3a" d="M 429 334 
C 429 238 461 160 518 96 
C 576 32 666 0 787 0 
C 909 0 998 32 1062 96 
C 1120 160 1152 238 1152 334 
C 1152 437 1120 520 1062 591 
C 998 655 909 687 787 687 
C 666 687 576 655 518 584 
C 461 514 429 430 429 334 
z
M 435 3103 
C 435 3006 467 2929 525 2865 
C 582 2801 672 2769 794 2769 
C 915 2769 1005 2801 1069 2865 
C 1126 2929 1158 3006 1158 3103 
C 1158 3206 1126 3289 1069 3360 
C 1005 3424 915 3456 794 3456 
C 672 3456 582 3424 525 3353 
C 467 3283 435 3199 435 3103 
z
" transform="scale(0.015625)"/>
        <path id="NotoMathMI-93" d="M 717 -64 
C 813 -64 896 -39 973 19 
C 1050 76 1082 185 1082 326 
C 1082 473 1050 582 973 633 
C 896 691 813 716 717 716 
C 621 716 538 691 461 633 
C 390 582 358 473 358 326 
C 358 185 390 76 461 19 
C 538 -39 621 -64 717 -64 
z
" transform="scale(0.015625)"/>
        <path id="NotoSerif-Regular-36" d="M 1875 -64 
C 2163 -64 2413 0 2618 130 
C 2822 266 2982 448 3085 682 
C 3200 915 3251 1181 3251 1487 
C 3251 1901 3136 2226 2906 2466 
C 2669 2699 2355 2816 1965 2816 
C 1754 2816 1574 2784 1434 2713 
C 1280 2642 1158 2565 1050 2481 
C 1069 3101 1165 3569 1331 3889 
C 1498 4202 1741 4363 2061 4363 
C 2266 4363 2413 4293 2496 4145 
C 2579 3998 2624 3826 2624 3615 
C 2950 3615 3117 3743 3117 3999 
C 3117 4172 3027 4332 2854 4467 
C 2682 4601 2413 4672 2061 4672 
C 1779 4672 1536 4608 1318 4479 
C 1114 4356 934 4182 800 3962 
C 666 3736 563 3485 493 3201 
C 422 2924 390 2626 390 2323 
C 390 1756 454 1297 589 942 
C 717 594 896 335 1114 181 
C 1344 13 1594 -64 1875 -64 
z
M 1894 290 
C 1638 290 1434 433 1280 712 
C 1133 992 1050 1461 1043 2110 
C 1126 2202 1242 2286 1382 2364 
C 1517 2449 1670 2487 1837 2487 
C 2086 2487 2272 2403 2406 2234 
C 2534 2065 2598 1792 2598 1421 
C 2598 1025 2534 739 2419 556 
C 2291 381 2118 290 1894 290 
z
" transform="scale(0.015625)"/>
        <path id="NotoSerif-Regular-39" d="M 1453 -64 
C 1766 -64 2029 7 2253 149 
C 2470 284 2650 478 2790 716 
C 2925 954 3027 1231 3091 1541 
C 3155 1844 3187 2166 3187 2507 
C 3187 3016 3123 3429 2995 3745 
C 2867 4060 2688 4298 2470 4446 
C 2240 4595 1984 4672 1696 4672 
C 1408 4672 1165 4608 960 4467 
C 755 4339 602 4146 486 3915 
C 384 3671 326 3402 326 3094 
C 326 2664 442 2337 678 2119 
C 915 1901 1216 1792 1587 1792 
C 1811 1792 2003 1837 2157 1927 
C 2310 2018 2432 2121 2528 2231 
C 2509 1575 2413 1089 2240 771 
C 2074 453 1811 291 1459 291 
C 1261 291 1101 342 986 446 
C 864 551 774 668 717 804 
C 672 785 627 752 589 693 
C 544 642 525 577 525 494 
C 525 402 550 318 602 227 
C 659 150 755 79 890 20 
C 1024 -38 1216 -64 1453 -64 
z
M 1728 2173 
C 1478 2173 1293 2249 1171 2403 
C 1050 2556 986 2807 986 3158 
C 986 3536 1050 3824 1178 4016 
C 1299 4222 1472 4317 1696 4317 
C 1946 4317 2144 4190 2291 3934 
C 2445 3677 2528 3261 2534 2691 
C 2477 2556 2381 2435 2246 2326 
C 2112 2224 1939 2173 1728 2173 
z
" transform="scale(0.015625)"/>
        <path id="NotoSerif-Regular-25" d="M 1338 1792 
C 1690 1792 1958 1922 2125 2194 
C 2304 2454 2387 2804 2387 3239 
C 2387 3673 2304 4023 2125 4283 
C 1958 4542 1696 4672 1344 4672 
C 973 4672 704 4542 538 4283 
C 371 4023 288 3673 288 3239 
C 288 2804 371 2454 538 2194 
C 704 1922 973 1792 1338 1792 
z
M 1504 0 
L 1926 0 
L 4205 4608 
L 3789 4608 
L 1504 0 
z
M 1338 2057 
C 1165 2057 1043 2161 973 2368 
C 902 2576 864 2869 864 3239 
C 864 3609 902 3894 973 4096 
C 1043 4297 1171 4401 1344 4401 
C 1517 4401 1638 4297 1702 4096 
C 1773 3894 1805 3609 1805 3239 
C 1805 2869 1773 2576 1702 2368 
C 1632 2161 1510 2057 1338 2057 
z
M 4397 -64 
C 4749 -64 5018 65 5184 338 
C 5363 597 5446 947 5446 1382 
C 5446 1817 5363 2168 5184 2427 
C 5018 2686 4755 2816 4403 2816 
C 4032 2816 3763 2686 3597 2427 
C 3430 2168 3347 1817 3347 1382 
C 3347 947 3430 597 3597 338 
C 3763 65 4032 -64 4397 -64 
z
M 4397 200 
C 4224 200 4102 304 4032 511 
C 3962 720 3923 1012 3923 1382 
C 3923 1753 3962 2039 4032 2240 
C 4102 2441 4230 2545 4403 2545 
C 4576 2545 4698 2441 4762 2240 
C 4832 2039 4864 1753 4864 1382 
C 4864 1012 4832 720 4762 511 
C 4691 304 4570 200 4397 200 
z
" transform="scale(0.015625)"/>
       </defs>
       <use xlink:href="#RobotoCondensed-Regular-61" transform="scale(0.832879)"/>
       <use xlink:href="#RobotoCondensed-Regular-76" transform="translate(39.31187 0) scale(0.832879)"/>
       <use xlink:href="#RobotoCondensed-Regular-67" transform="translate(74.376088 0) scale(0.832879)"/>
       <use xlink:href="#RobotoCondensed-Regular-2e" transform="translate(115.353679 0) scale(0.832879)"/>
       <use xlink:href="#RobotoCondensed-Regular-6e" transform="translate(159.51288 0) scale(0.832879)"/>
       <use xlink:href="#RobotoCondensed-Regular-65" transform="translate(199.740886 0) scale(0.832879)"/>
       <use xlink:href="#RobotoCondensed-Regular-74" transform="translate(238.719624 0) scale(0.832879)"/>
       <use xlink:href="#RobotoCondensed-Regular-2e" transform="translate(263.289535 0) scale(0.832879)"/>
       <use xlink:href="#RobotoCondensed-Regular-6c" transform="translate(307.448737 0) scale(0.832879)"/>
       <use xlink:href="#RobotoCondensed-Regular-6f" transform="translate(326.521653 0) scale(0.832879)"/>
       <use xlink:href="#RobotoCondensed-Regular-61" transform="translate(368.248904 0) scale(0.832879)"/>
       <use xlink:href="#RobotoCondensed-Regular-64" transform="translate(408.143792 0) scale(0.832879)"/>
       <use xlink:href="#RobotoCondensed-Regular-3a" transform="translate(449.45459 0) scale(0.832879)"/>
       <use xlink:href="#NotoSerif-Regular-30" transform="translate(491.115181 0) scale(0.804036)"/>
       <use xlink:href="#NotoMathMI-93" transform="translate(537.49018 0) scale(0.893372)"/>
       <use xlink:href="#NotoSerif-Regular-36" transform="translate(559.109851 0) scale(0.804036)"/>
       <use xlink:href="#NotoSerif-Regular-39" transform="translate(604.055486 0) scale(0.804036)"/>
       <use xlink:href="#NotoSerif-Regular-25" transform="translate(653.96429 0) scale(0.804036)"/>
      </g>
      <!-- {\scalefont{.88}c.s.i.: $978$} -->
      <g transform="translate(110.869805 28.900447) scale(0.09 -0.09)">
       <defs>
        <path id="RobotoCondensed-Regular-63" d="M 1587 411 
C 1331 411 1146 495 1030 662 
C 909 822 851 1105 851 1503 
L 851 1940 
C 858 2306 915 2576 1037 2737 
C 1158 2897 1338 2981 1587 2981 
C 1773 2981 1920 2917 2029 2795 
C 2138 2672 2195 2480 2208 2229 
L 2733 2229 
C 2720 2608 2611 2910 2413 3129 
C 2208 3347 1933 3456 1587 3456 
C 1165 3456 845 3321 627 3058 
C 410 2795 301 2403 301 1889 
L 301 1516 
C 301 996 410 597 634 334 
C 851 71 1171 -64 1587 -64 
C 1901 -64 2170 45 2387 263 
C 2605 475 2720 745 2733 1073 
L 2208 1073 
C 2202 861 2138 694 2029 585 
C 1920 469 1773 411 1587 411 
z
" transform="scale(0.015625)"/>
        <path id="RobotoCondensed-Regular-73" d="M 2054 867 
C 2054 726 2010 617 1914 533 
C 1818 450 1677 411 1491 411 
C 1299 411 1146 463 1037 572 
C 928 681 870 829 864 1015 
L 307 1015 
C 307 700 416 443 634 244 
C 851 39 1139 -64 1491 -64 
C 1830 -64 2106 26 2310 206 
C 2509 379 2611 617 2611 912 
C 2611 1150 2534 1343 2387 1497 
C 2240 1645 1958 1805 1549 1966 
C 1293 2081 1133 2171 1062 2242 
C 992 2313 960 2403 960 2512 
C 960 2653 1005 2769 1101 2852 
C 1190 2936 1318 2981 1478 2981 
C 1638 2981 1773 2929 1875 2820 
C 1971 2711 2022 2583 2022 2428 
L 2573 2428 
C 2573 2730 2470 2974 2272 3167 
C 2074 3360 1805 3456 1478 3456 
C 1165 3456 909 3366 710 3180 
C 512 2994 410 2769 410 2493 
C 410 2338 442 2203 499 2094 
C 557 1985 653 1882 774 1799 
C 896 1709 1101 1600 1402 1478 
C 1658 1362 1830 1259 1920 1176 
C 2010 1092 2054 989 2054 867 
z
" transform="scale(0.015625)"/>
        <path id="RobotoCondensed-Regular-69" d="M 1011 0 
L 1011 3392 
L 454 3392 
L 454 0 
L 1011 0 
z
M 1056 4295 
C 1056 4385 1030 4462 979 4533 
C 922 4604 845 4636 742 4636 
C 634 4636 557 4604 506 4539 
C 448 4469 422 4392 422 4295 
C 422 4199 448 4122 506 4064 
C 557 4000 634 3968 736 3968 
C 845 3968 922 4000 979 4064 
C 1030 4122 1056 4199 1056 4295 
z
" transform="scale(0.015625)"/>
        <path id="NotoSerif-Regular-37" d="M 1126 0 
L 1696 0 
L 3270 4425 
L 3270 4612 
L 410 4612 
L 378 3444 
L 646 3444 
L 672 3766 
C 691 3986 819 4096 1043 4096 
L 2637 4096 
L 1126 0 
z
" transform="scale(0.015625)"/>
        <path id="NotoSerif-Regular-38" d="M 1747 -64 
C 2214 -64 2592 52 2867 277 
C 3142 504 3283 826 3283 1233 
C 3283 1511 3187 1749 2989 1949 
C 2790 2150 2534 2324 2221 2472 
C 2483 2601 2688 2743 2848 2904 
C 3008 3059 3085 3278 3085 3562 
C 3085 3885 2976 4150 2752 4363 
C 2534 4569 2227 4672 1824 4672 
C 1498 4672 1229 4620 1024 4504 
C 826 4401 678 4253 582 4078 
C 486 3904 442 3717 442 3517 
C 442 3246 518 3014 672 2826 
C 826 2639 1024 2471 1267 2336 
C 1082 2246 922 2149 768 2046 
C 627 1943 506 1820 422 1677 
C 339 1536 294 1361 294 1155 
C 294 929 346 730 461 543 
C 563 355 730 206 947 103 
C 1158 -13 1427 -64 1747 -64 
z
M 1907 2622 
C 1619 2757 1408 2893 1261 3034 
C 1114 3176 1043 3363 1043 3595 
C 1043 3821 1107 4002 1235 4150 
C 1363 4298 1549 4369 1786 4369 
C 1965 4369 2106 4330 2214 4253 
C 2323 4176 2400 4079 2445 3956 
C 2490 3834 2515 3711 2515 3576 
C 2515 3350 2470 3170 2394 3021 
C 2304 2873 2144 2744 1907 2622 
z
M 1779 232 
C 1491 232 1280 316 1133 477 
C 986 645 915 865 915 1129 
C 915 1368 973 1581 1094 1756 
C 1216 1930 1376 2072 1574 2181 
C 1990 2001 2278 1827 2445 1664 
C 2618 1503 2701 1310 2701 1091 
C 2701 839 2618 632 2445 477 
C 2278 309 2054 232 1779 232 
z
" transform="scale(0.015625)"/>
       </defs>
       <use xlink:href="#RobotoCondensed-Regular-63" transform="scale(0.832879)"/>
       <use xlink:href="#RobotoCondensed-Regular-2e" transform="translate(38.395735 0) scale(0.832879)"/>
       <use xlink:href="#RobotoCondensed-Regular-73" transform="translate(60.300393 0) scale(0.832879)"/>
       <use xlink:href="#RobotoCondensed-Regular-2e" transform="translate(98.196354 0) scale(0.832879)"/>
       <use xlink:href="#RobotoCondensed-Regular-69" transform="translate(120.101013 0) scale(0.832879)"/>
       <use xlink:href="#RobotoCondensed-Regular-2e" transform="translate(139.173929 0) scale(0.832879)"/>
       <use xlink:href="#RobotoCondensed-Regular-3a" transform="translate(161.078588 0) scale(0.832879)"/>
       <use xlink:href="#NotoSerif-Regular-39" transform="translate(202.739179 0) scale(0.804036)"/>
       <use xlink:href="#NotoSerif-Regular-37" transform="translate(247.684814 0) scale(0.804036)"/>
       <use xlink:href="#NotoSerif-Regular-38" transform="translate(292.63045 0) scale(0.804036)"/>
      </g>
     </g>
    </g>
    <g id="xtick_2">
     <g id="text_2">
      <!-- \schedulermoobj[1]{UC}{o1}{LT25} -->
      <g transform="translate(61.560186 201.208352) rotate(-70) scale(0.09 -0.09)">
       <defs>
        <path id="RobotoCondensed-Italic-55" d="M 3610 4544 
L 3053 4544 
L 2502 1320 
C 2451 1020 2342 798 2182 652 
C 2016 505 1798 435 1536 435 
C 1146 435 934 624 902 996 
C 896 1105 896 1219 909 1341 
L 1453 4544 
L 896 4544 
L 352 1342 
C 301 914 378 569 589 320 
C 800 70 1101 -64 1504 -64 
C 1926 -64 2278 57 2560 312 
C 2835 560 3008 911 3066 1351 
L 3610 4544 
z
" transform="scale(0.015625)"/>
        <path id="RobotoCondensed-Italic-43" d="M 3149 1443 
L 2598 1443 
C 2515 1068 2394 803 2227 650 
C 2061 497 1843 428 1568 428 
C 1376 428 1222 498 1114 640 
C 998 775 934 981 915 1258 
C 902 1437 909 1634 941 1851 
L 1069 2658 
C 1146 3148 1286 3511 1491 3760 
C 1696 4002 1952 4116 2266 4116 
C 2426 4116 2554 4078 2650 4001 
C 2746 3917 2810 3814 2854 3679 
C 2893 3545 2906 3345 2899 3082 
L 3462 3082 
C 3482 3563 3386 3935 3187 4204 
C 2982 4474 2688 4608 2298 4608 
C 1830 4608 1440 4441 1126 4097 
C 813 3751 602 3266 506 2646 
L 378 1847 
C 358 1706 352 1560 352 1413 
C 358 1131 410 876 506 646 
C 602 415 736 244 909 122 
C 1082 0 1293 -64 1536 -64 
C 1971 -64 2330 63 2618 335 
C 2906 608 3078 975 3149 1443 
z
" transform="scale(0.015625)"/>
        <path id="RobotoCondensed-Italic-6f" d="M 294 1840 
L 256 1527 
C 224 1231 243 962 314 718 
C 384 475 506 283 672 148 
C 838 7 1050 -64 1299 -64 
C 1696 -64 2029 77 2298 373 
C 2560 668 2726 1060 2797 1542 
L 2829 1863 
C 2861 2152 2848 2421 2778 2672 
C 2707 2916 2586 3109 2419 3250 
C 2253 3385 2042 3456 1792 3456 
C 1389 3456 1056 3315 794 3020 
C 531 2719 365 2328 294 1840 
z
M 781 1302 
L 787 1471 
L 826 1784 
C 870 2163 979 2464 1139 2676 
C 1299 2887 1504 2983 1754 2983 
C 1939 2983 2080 2899 2176 2743 
C 2272 2588 2317 2367 2310 2082 
L 2291 1858 
L 2246 1492 
C 2189 1127 2086 852 1933 672 
C 1773 486 1574 403 1331 403 
C 1146 403 1005 487 915 649 
C 819 804 774 1024 781 1302 
z
" transform="scale(0.015625)"/>
        <path id="RobotoCondensed-Italic-31" d="M 1395 0 
L 2176 4570 
L 2080 4570 
L 614 3968 
L 518 3411 
L 1523 3834 
L 851 0 
L 1395 0 
z
" transform="scale(0.015625)"/>
        <path id="RobotoCondensed-Italic-4c" d="M 800 493 
L 1498 4544 
L 934 4544 
L 147 0 
L 2438 0 
L 2528 493 
L 800 493 
z
" transform="scale(0.015625)"/>
        <path id="RobotoCondensed-Italic-54" d="M 3437 4032 
L 3520 4524 
L 646 4524 
L 557 4032 
L 1715 4032 
L 1011 -32 
L 1574 -32 
L 2272 4032 
L 3437 4032 
z
" transform="scale(0.015625)"/>
        <path id="RobotoCondensed-Italic-32" d="M 2534 0 
L 2605 474 
L 800 474 
L 2042 1862 
L 2266 2125 
C 2643 2586 2854 3014 2893 3418 
C 2925 3757 2848 4045 2669 4269 
C 2483 4493 2227 4608 1901 4614 
C 1523 4621 1203 4499 954 4237 
C 704 3974 557 3630 512 3207 
L 1043 3214 
C 1075 3508 1165 3738 1312 3904 
C 1459 4064 1645 4147 1869 4141 
C 2003 4134 2112 4090 2195 3994 
C 2278 3898 2323 3770 2336 3610 
C 2355 3379 2317 3162 2221 2957 
C 2125 2752 1971 2528 1760 2285 
L 128 442 
L 58 0 
L 2534 0 
z
" transform="scale(0.015625)"/>
        <path id="RobotoCondensed-Italic-35" d="M 634 2282 
L 1075 2161 
C 1197 2269 1299 2345 1389 2390 
C 1478 2428 1574 2448 1670 2441 
C 1830 2435 1952 2371 2048 2257 
C 2138 2135 2189 1976 2202 1779 
C 2227 1403 2163 1085 2016 811 
C 1869 537 1658 403 1389 410 
C 1037 416 851 684 832 1199 
L 333 1199 
C 339 816 435 510 621 281 
C 806 51 1050 -64 1357 -70 
C 1632 -77 1882 -6 2093 153 
C 2304 313 2470 536 2592 829 
C 2707 1122 2758 1448 2746 1799 
C 2733 2150 2650 2430 2490 2641 
C 2330 2851 2112 2953 1830 2960 
C 1632 2966 1434 2896 1235 2761 
L 1555 4013 
L 3021 4013 
L 3104 4550 
L 1178 4550 
L 634 2282 
z
" transform="scale(0.015625)"/>
       </defs>
       <use xlink:href="#RobotoCondensed-Italic-55" transform="scale(0.946448)"/>
       <use xlink:href="#RobotoCondensed-Italic-43" transform="translate(51.959951 0) scale(0.946448)"/>
       <use xlink:href="#RobotoCondensed-Italic-6f" transform="translate(114.685955 39.017807) scale(0.746176)"/>
       <use xlink:href="#RobotoCondensed-Italic-31" transform="translate(151.323209 39.017807) scale(0.746176)"/>
       <use xlink:href="#RobotoCondensed-Italic-4c" transform="translate(104.393133 -33.534919) scale(0.690903)"/>
       <use xlink:href="#RobotoCondensed-Italic-54" transform="translate(127.26201 -33.534919) scale(0.690903)"/>
       <use xlink:href="#RobotoCondensed-Italic-32" transform="translate(162.428947 -33.534919) scale(0.690903)"/>
       <use xlink:href="#RobotoCondensed-Italic-35" transform="translate(195.799535 -33.534919) scale(0.690903)"/>
      </g>
     </g>
    </g>
    <g id="xtick_3">
     <g id="text_3">
      <!-- \schedulermoobj[1]{UC}{o1}{SPLT25} -->
      <g transform="translate(82.841366 208.018855) rotate(-70) scale(0.09 -0.09)">
       <defs>
        <path id="RobotoCondensed-Italic-53" d="M 2291 1181 
C 2259 946 2170 760 2010 627 
C 1850 493 1658 429 1434 429 
C 1190 429 1011 512 890 673 
C 768 834 717 1047 736 1317 
L 173 1317 
C 154 915 256 588 486 332 
C 717 71 1024 -64 1402 -64 
C 1805 -64 2138 44 2406 280 
C 2675 516 2822 815 2854 1185 
C 2886 1618 2752 1962 2438 2217 
C 2298 2332 2106 2440 1856 2549 
C 1606 2650 1427 2765 1331 2899 
C 1229 3027 1190 3173 1210 3345 
C 1235 3580 1325 3766 1478 3906 
C 1626 4046 1818 4116 2042 4116 
C 2266 4116 2426 4039 2534 3891 
C 2643 3737 2682 3518 2662 3228 
L 3219 3228 
C 3251 3619 3155 3947 2944 4210 
C 2733 4474 2438 4608 2074 4608 
C 1696 4608 1370 4494 1101 4251 
C 832 4009 685 3703 653 3340 
C 621 2952 755 2633 1056 2379 
C 1197 2257 1402 2137 1670 2021 
C 1939 1901 2118 1780 2202 1652 
C 2285 1525 2310 1366 2291 1181 
z
" transform="scale(0.015625)"/>
        <path id="RobotoCondensed-Italic-50" d="M 1018 1792 
L 1901 1792 
C 2330 1792 2682 1920 2957 2170 
C 3232 2419 3386 2765 3424 3200 
C 3456 3591 3373 3917 3174 4167 
C 2970 4416 2682 4544 2310 4544 
L 934 4544 
L 147 0 
L 710 0 
L 1018 1792 
z
M 1101 2279 
L 1414 4057 
L 2298 4057 
C 2458 4057 2592 3999 2688 3903 
C 2784 3807 2848 3673 2867 3500 
C 2893 3302 2867 3098 2797 2899 
C 2726 2701 2611 2547 2464 2439 
C 2310 2330 2131 2279 1926 2279 
L 1101 2279 
z
" transform="scale(0.015625)"/>
       </defs>
       <use xlink:href="#RobotoCondensed-Italic-55" transform="scale(0.946448)"/>
       <use xlink:href="#RobotoCondensed-Italic-43" transform="translate(51.959951 0) scale(0.946448)"/>
       <use xlink:href="#RobotoCondensed-Italic-6f" transform="translate(114.685955 39.017807) scale(0.746176)"/>
       <use xlink:href="#RobotoCondensed-Italic-31" transform="translate(151.323209 39.017807) scale(0.746176)"/>
       <use xlink:href="#RobotoCondensed-Italic-53" transform="translate(104.393133 -33.534919) scale(0.690903)"/>
       <use xlink:href="#RobotoCondensed-Italic-50" transform="translate(139.421901 -33.534919) scale(0.690903)"/>
       <use xlink:href="#RobotoCondensed-Italic-4c" transform="translate(176.868816 -33.534919) scale(0.690903)"/>
       <use xlink:href="#RobotoCondensed-Italic-54" transform="translate(199.737693 -33.534919) scale(0.690903)"/>
       <use xlink:href="#RobotoCondensed-Italic-32" transform="translate(234.90463 -33.534919) scale(0.690903)"/>
       <use xlink:href="#RobotoCondensed-Italic-35" transform="translate(268.275218 -33.534919) scale(0.690903)"/>
      </g>
     </g>
    </g>
    <g id="xtick_4">
     <g id="text_4">
      <!-- \schedulermoobj[1]{MCS}{o1}{LT25} -->
      <g transform="translate(107.055417 206.77136) rotate(-70) scale(0.09 -0.09)">
       <defs>
        <path id="RobotoCondensed-Italic-4d" d="M 1645 4544 
L 934 4544 
L 147 0 
L 710 0 
L 1011 1739 
L 1274 3560 
L 1811 0 
L 2240 0 
L 3987 3483 
L 3642 1795 
L 3328 0 
L 3885 0 
L 4678 4544 
L 3949 4544 
L 2150 844 
L 1645 4544 
z
" transform="scale(0.015625)"/>
       </defs>
       <use xlink:href="#RobotoCondensed-Italic-4d" transform="scale(0.946448)"/>
       <use xlink:href="#RobotoCondensed-Italic-43" transform="translate(69.753242 0) scale(0.946448)"/>
       <use xlink:href="#RobotoCondensed-Italic-53" transform="translate(122.186424 0) scale(0.946448)"/>
       <use xlink:href="#RobotoCondensed-Italic-6f" transform="translate(180.464144 39.017807) scale(0.746176)"/>
       <use xlink:href="#RobotoCondensed-Italic-31" transform="translate(217.101397 39.017807) scale(0.746176)"/>
       <use xlink:href="#RobotoCondensed-Italic-4c" transform="translate(170.171321 -33.534919) scale(0.690903)"/>
       <use xlink:href="#RobotoCondensed-Italic-54" transform="translate(193.040198 -33.534919) scale(0.690903)"/>
       <use xlink:href="#RobotoCondensed-Italic-32" transform="translate(228.207135 -33.534919) scale(0.690903)"/>
       <use xlink:href="#RobotoCondensed-Italic-35" transform="translate(261.577723 -33.534919) scale(0.690903)"/>
      </g>
     </g>
    </g>
    <g id="xtick_5">
     <g id="text_5">
      <!-- \schedulermoobj[1]{MCS}{o1}{SPLT25} -->
      <g transform="translate(128.336596 213.581864) rotate(-70) scale(0.09 -0.09)">
       <use xlink:href="#RobotoCondensed-Italic-4d" transform="scale(0.946448)"/>
       <use xlink:href="#RobotoCondensed-Italic-43" transform="translate(69.753242 0) scale(0.946448)"/>
       <use xlink:href="#RobotoCondensed-Italic-53" transform="translate(122.186424 0) scale(0.946448)"/>
       <use xlink:href="#RobotoCondensed-Italic-6f" transform="translate(180.464144 39.017807) scale(0.746176)"/>
       <use xlink:href="#RobotoCondensed-Italic-31" transform="translate(217.101397 39.017807) scale(0.746176)"/>
       <use xlink:href="#RobotoCondensed-Italic-53" transform="translate(170.171321 -33.534919) scale(0.690903)"/>
       <use xlink:href="#RobotoCondensed-Italic-50" transform="translate(205.200089 -33.534919) scale(0.690903)"/>
       <use xlink:href="#RobotoCondensed-Italic-4c" transform="translate(242.647004 -33.534919) scale(0.690903)"/>
       <use xlink:href="#RobotoCondensed-Italic-54" transform="translate(265.515882 -33.534919) scale(0.690903)"/>
       <use xlink:href="#RobotoCondensed-Italic-32" transform="translate(300.682818 -33.534919) scale(0.690903)"/>
       <use xlink:href="#RobotoCondensed-Italic-35" transform="translate(334.053406 -33.534919) scale(0.690903)"/>
      </g>
     </g>
    </g>
    <g id="xtick_6">
     <g id="text_6">
      <!-- \schedulermoobj[1]{MCT}{o1}{LT25} -->
      <g transform="translate(154.610377 206.675308) rotate(-70) scale(0.09 -0.09)">
       <use xlink:href="#RobotoCondensed-Italic-4d" transform="scale(0.946448)"/>
       <use xlink:href="#RobotoCondensed-Italic-43" transform="translate(69.753242 0) scale(0.946448)"/>
       <use xlink:href="#RobotoCondensed-Italic-54" transform="translate(120.861391 0) scale(0.946448)"/>
       <use xlink:href="#RobotoCondensed-Italic-6f" transform="translate(179.328388 39.017807) scale(0.746176)"/>
       <use xlink:href="#RobotoCondensed-Italic-31" transform="translate(215.965642 39.017807) scale(0.746176)"/>
       <use xlink:href="#RobotoCondensed-Italic-4c" transform="translate(169.035565 -33.534919) scale(0.690903)"/>
       <use xlink:href="#RobotoCondensed-Italic-54" transform="translate(191.904443 -33.534919) scale(0.690903)"/>
       <use xlink:href="#RobotoCondensed-Italic-32" transform="translate(227.07138 -33.534919) scale(0.690903)"/>
       <use xlink:href="#RobotoCondensed-Italic-35" transform="translate(260.441967 -33.534919) scale(0.690903)"/>
      </g>
     </g>
    </g>
    <g id="xtick_7">
     <g id="text_7">
      <!-- \schedulermoobj[1]{MCT}{o1}{SPLT25} -->
      <g transform="translate(175.891556 213.485812) rotate(-70) scale(0.09 -0.09)">
       <use xlink:href="#RobotoCondensed-Italic-4d" transform="scale(0.946448)"/>
       <use xlink:href="#RobotoCondensed-Italic-43" transform="translate(69.753242 0) scale(0.946448)"/>
       <use xlink:href="#RobotoCondensed-Italic-54" transform="translate(120.861391 0) scale(0.946448)"/>
       <use xlink:href="#RobotoCondensed-Italic-6f" transform="translate(179.328388 39.017807) scale(0.746176)"/>
       <use xlink:href="#RobotoCondensed-Italic-31" transform="translate(215.965642 39.017807) scale(0.746176)"/>
       <use xlink:href="#RobotoCondensed-Italic-53" transform="translate(169.035565 -33.534919) scale(0.690903)"/>
       <use xlink:href="#RobotoCondensed-Italic-50" transform="translate(204.064333 -33.534919) scale(0.690903)"/>
       <use xlink:href="#RobotoCondensed-Italic-4c" transform="translate(241.511249 -33.534919) scale(0.690903)"/>
       <use xlink:href="#RobotoCondensed-Italic-54" transform="translate(264.380126 -33.534919) scale(0.690903)"/>
       <use xlink:href="#RobotoCondensed-Italic-32" transform="translate(299.547063 -33.534919) scale(0.690903)"/>
       <use xlink:href="#RobotoCondensed-Italic-35" transform="translate(332.917651 -33.534919) scale(0.690903)"/>
      </g>
     </g>
    </g>
   </g>
   <g id="matplotlib.axis_2">
    <g id="ytick_1">
     <g id="line2d_1">
      <path d="M 48.840687 137.153379 
L 203.280687 137.153379 
" clip-path="url(#p1416b3087a)" style="fill: none; stroke: #ffffff; stroke-width: 0.8; stroke-linecap: round"/>
     </g>
     <g id="text_8">
      <!-- $10$ -->
      <g transform="translate(36.147318 140.343374) scale(0.09 -0.09)">
       <use xlink:href="#NotoSerif-Regular-31" transform="scale(0.913673)"/>
       <use xlink:href="#NotoSerif-Regular-30" transform="translate(51.074295 0) scale(0.913673)"/>
      </g>
     </g>
    </g>
    <g id="ytick_2">
     <g id="line2d_2">
      <path d="M 48.840687 91.14864 
L 203.280687 91.14864 
" clip-path="url(#p1416b3087a)" style="fill: none; stroke: #ffffff; stroke-width: 0.8; stroke-linecap: round"/>
     </g>
     <g id="text_9">
      <!-- $100$ -->
      <g transform="translate(31.550634 94.338635) scale(0.09 -0.09)">
       <use xlink:href="#NotoSerif-Regular-31" transform="scale(0.913673)"/>
       <use xlink:href="#NotoSerif-Regular-30" transform="translate(51.074295 0) scale(0.913673)"/>
       <use xlink:href="#NotoSerif-Regular-30" transform="translate(102.14859 0) scale(0.913673)"/>
      </g>
     </g>
    </g>
    <g id="ytick_3">
     <g id="line2d_3">
      <path d="M 48.840687 45.1439 
L 203.280687 45.1439 
" clip-path="url(#p1416b3087a)" style="fill: none; stroke: #ffffff; stroke-width: 0.8; stroke-linecap: round"/>
     </g>
     <g id="text_10">
      <!-- $1000$ -->
      <g transform="translate(26.953949 48.333896) scale(0.09 -0.09)">
       <use xlink:href="#NotoSerif-Regular-31" transform="scale(0.913673)"/>
       <use xlink:href="#NotoSerif-Regular-30" transform="translate(51.074295 0) scale(0.913673)"/>
       <use xlink:href="#NotoSerif-Regular-30" transform="translate(102.14859 0) scale(0.913673)"/>
       <use xlink:href="#NotoSerif-Regular-30" transform="translate(153.222884 0) scale(0.913673)"/>
      </g>
     </g>
    </g>
    <g id="ytick_4">
     <g id="line2d_4">
      <path d="M 48.840687 169.309312 
L 203.280687 169.309312 
" clip-path="url(#p1416b3087a)" style="fill: none; stroke: #ffffff; stroke-width: 0.8; stroke-linecap: round"/>
     </g>
    </g>
    <g id="ytick_5">
     <g id="line2d_5">
      <path d="M 48.840687 161.208279 
L 203.280687 161.208279 
" clip-path="url(#p1416b3087a)" style="fill: none; stroke: #ffffff; stroke-width: 0.8; stroke-linecap: round"/>
     </g>
    </g>
    <g id="ytick_6">
     <g id="line2d_6">
      <path d="M 48.840687 155.460505 
L 203.280687 155.460505 
" clip-path="url(#p1416b3087a)" style="fill: none; stroke: #ffffff; stroke-width: 0.8; stroke-linecap: round"/>
     </g>
    </g>
    <g id="ytick_7">
     <g id="line2d_7">
      <path d="M 48.840687 151.002185 
L 203.280687 151.002185 
" clip-path="url(#p1416b3087a)" style="fill: none; stroke: #ffffff; stroke-width: 0.8; stroke-linecap: round"/>
     </g>
    </g>
    <g id="ytick_8">
     <g id="line2d_8">
      <path d="M 48.840687 147.359473 
L 203.280687 147.359473 
" clip-path="url(#p1416b3087a)" style="fill: none; stroke: #ffffff; stroke-width: 0.8; stroke-linecap: round"/>
     </g>
    </g>
    <g id="ytick_9">
     <g id="line2d_9">
      <path d="M 48.840687 144.279603 
L 203.280687 144.279603 
" clip-path="url(#p1416b3087a)" style="fill: none; stroke: #ffffff; stroke-width: 0.8; stroke-linecap: round"/>
     </g>
    </g>
    <g id="ytick_10">
     <g id="line2d_10">
      <path d="M 48.840687 141.611699 
L 203.280687 141.611699 
" clip-path="url(#p1416b3087a)" style="fill: none; stroke: #ffffff; stroke-width: 0.8; stroke-linecap: round"/>
     </g>
    </g>
    <g id="ytick_11">
     <g id="line2d_11">
      <path d="M 48.840687 139.25844 
L 203.280687 139.25844 
" clip-path="url(#p1416b3087a)" style="fill: none; stroke: #ffffff; stroke-width: 0.8; stroke-linecap: round"/>
     </g>
    </g>
    <g id="ytick_12">
     <g id="line2d_12">
      <path d="M 48.840687 123.304572 
L 203.280687 123.304572 
" clip-path="url(#p1416b3087a)" style="fill: none; stroke: #ffffff; stroke-width: 0.8; stroke-linecap: round"/>
     </g>
    </g>
    <g id="ytick_13">
     <g id="line2d_13">
      <path d="M 48.840687 115.20354 
L 203.280687 115.20354 
" clip-path="url(#p1416b3087a)" style="fill: none; stroke: #ffffff; stroke-width: 0.8; stroke-linecap: round"/>
     </g>
    </g>
    <g id="ytick_14">
     <g id="line2d_14">
      <path d="M 48.840687 109.455766 
L 203.280687 109.455766 
" clip-path="url(#p1416b3087a)" style="fill: none; stroke: #ffffff; stroke-width: 0.8; stroke-linecap: round"/>
     </g>
    </g>
    <g id="ytick_15">
     <g id="line2d_15">
      <path d="M 48.840687 104.997446 
L 203.280687 104.997446 
" clip-path="url(#p1416b3087a)" style="fill: none; stroke: #ffffff; stroke-width: 0.8; stroke-linecap: round"/>
     </g>
    </g>
    <g id="ytick_16">
     <g id="line2d_16">
      <path d="M 48.840687 101.354733 
L 203.280687 101.354733 
" clip-path="url(#p1416b3087a)" style="fill: none; stroke: #ffffff; stroke-width: 0.8; stroke-linecap: round"/>
     </g>
    </g>
    <g id="ytick_17">
     <g id="line2d_17">
      <path d="M 48.840687 98.274864 
L 203.280687 98.274864 
" clip-path="url(#p1416b3087a)" style="fill: none; stroke: #ffffff; stroke-width: 0.8; stroke-linecap: round"/>
     </g>
    </g>
    <g id="ytick_18">
     <g id="line2d_18">
      <path d="M 48.840687 95.606959 
L 203.280687 95.606959 
" clip-path="url(#p1416b3087a)" style="fill: none; stroke: #ffffff; stroke-width: 0.8; stroke-linecap: round"/>
     </g>
    </g>
    <g id="ytick_19">
     <g id="line2d_19">
      <path d="M 48.840687 93.253701 
L 203.280687 93.253701 
" clip-path="url(#p1416b3087a)" style="fill: none; stroke: #ffffff; stroke-width: 0.8; stroke-linecap: round"/>
     </g>
    </g>
    <g id="ytick_20">
     <g id="line2d_20">
      <path d="M 48.840687 77.299833 
L 203.280687 77.299833 
" clip-path="url(#p1416b3087a)" style="fill: none; stroke: #ffffff; stroke-width: 0.8; stroke-linecap: round"/>
     </g>
    </g>
    <g id="ytick_21">
     <g id="line2d_21">
      <path d="M 48.840687 69.198801 
L 203.280687 69.198801 
" clip-path="url(#p1416b3087a)" style="fill: none; stroke: #ffffff; stroke-width: 0.8; stroke-linecap: round"/>
     </g>
    </g>
    <g id="ytick_22">
     <g id="line2d_22">
      <path d="M 48.840687 63.451027 
L 203.280687 63.451027 
" clip-path="url(#p1416b3087a)" style="fill: none; stroke: #ffffff; stroke-width: 0.8; stroke-linecap: round"/>
     </g>
    </g>
    <g id="ytick_23">
     <g id="line2d_23">
      <path d="M 48.840687 58.992707 
L 203.280687 58.992707 
" clip-path="url(#p1416b3087a)" style="fill: none; stroke: #ffffff; stroke-width: 0.8; stroke-linecap: round"/>
     </g>
    </g>
    <g id="ytick_24">
     <g id="line2d_24">
      <path d="M 48.840687 55.349994 
L 203.280687 55.349994 
" clip-path="url(#p1416b3087a)" style="fill: none; stroke: #ffffff; stroke-width: 0.8; stroke-linecap: round"/>
     </g>
    </g>
    <g id="ytick_25">
     <g id="line2d_25">
      <path d="M 48.840687 52.270125 
L 203.280687 52.270125 
" clip-path="url(#p1416b3087a)" style="fill: none; stroke: #ffffff; stroke-width: 0.8; stroke-linecap: round"/>
     </g>
    </g>
    <g id="ytick_26">
     <g id="line2d_26">
      <path d="M 48.840687 49.60222 
L 203.280687 49.60222 
" clip-path="url(#p1416b3087a)" style="fill: none; stroke: #ffffff; stroke-width: 0.8; stroke-linecap: round"/>
     </g>
    </g>
    <g id="ytick_27">
     <g id="line2d_27">
      <path d="M 48.840687 47.248962 
L 203.280687 47.248962 
" clip-path="url(#p1416b3087a)" style="fill: none; stroke: #ffffff; stroke-width: 0.8; stroke-linecap: round"/>
     </g>
    </g>
    <g id="text_11">
     <!-- {\bfseries\mathversion{bold}instance runtime histograms $[\unit{\second}]$} -->
     <g transform="translate(7.785923 158.942746) rotate(-90) scale(0.09 -0.09)">
      <defs>
       <path id="RobotoCondensed-Bold-69" d="M 1248 0 
L 1248 3392 
L 365 3392 
L 365 0 
L 1248 0 
z
M 320 4267 
C 320 4132 365 4017 454 3927 
C 538 3837 659 3792 806 3792 
C 954 3792 1069 3837 1158 3927 
C 1242 4017 1286 4132 1286 4267 
C 1286 4402 1242 4518 1158 4608 
C 1069 4691 954 4736 806 4736 
C 659 4736 538 4691 454 4608 
C 365 4518 320 4402 320 4267 
z
" transform="scale(0.015625)"/>
       <path id="RobotoCondensed-Bold-6e" d="M 1133 3392 
L 301 3392 
L 301 0 
L 1190 0 
L 1190 2467 
C 1274 2627 1402 2711 1562 2711 
C 1709 2711 1811 2666 1869 2583 
C 1926 2499 1952 2358 1952 2165 
L 1952 0 
L 2835 0 
L 2835 2229 
C 2816 3045 2522 3456 1939 3456 
C 1619 3456 1357 3321 1158 3058 
L 1133 3392 
z
" transform="scale(0.015625)"/>
       <path id="RobotoCondensed-Bold-73" d="M 1818 907 
C 1818 694 1702 585 1466 585 
C 1306 585 1197 623 1133 707 
C 1062 784 1030 899 1024 1054 
L 179 1054 
C 179 854 237 668 346 495 
C 454 321 602 180 794 84 
C 979 -13 1197 -64 1446 -64 
C 1811 -64 2112 26 2336 212 
C 2560 398 2675 642 2675 944 
C 2675 1208 2598 1420 2451 1587 
C 2304 1747 2048 1895 1690 2030 
C 1440 2139 1286 2216 1222 2274 
C 1152 2332 1120 2396 1120 2473 
C 1120 2583 1152 2666 1210 2724 
C 1267 2782 1344 2807 1440 2807 
C 1670 2807 1786 2672 1786 2396 
L 2669 2396 
C 2669 2717 2560 2974 2336 3167 
C 2112 3360 1818 3456 1446 3456 
C 1094 3456 806 3360 595 3166 
C 384 2967 275 2722 275 2426 
C 275 2188 346 1995 480 1834 
C 614 1673 864 1519 1229 1371 
C 1478 1261 1638 1177 1709 1119 
C 1779 1055 1818 984 1818 907 
z
" transform="scale(0.015625)"/>
       <path id="RobotoCondensed-Bold-74" d="M 1350 4256 
L 467 4256 
L 467 3420 
L 77 3420 
L 77 2752 
L 467 2752 
L 467 956 
C 474 295 762 -32 1331 -32 
C 1504 -32 1670 -7 1818 51 
L 1824 744 
C 1766 725 1696 718 1613 718 
C 1510 718 1440 744 1408 795 
C 1370 847 1350 937 1350 1071 
L 1350 2752 
L 1805 2752 
L 1805 3420 
L 1350 3420 
L 1350 4256 
z
" transform="scale(0.015625)"/>
       <path id="RobotoCondensed-Bold-61" d="M 1926 0 
L 2816 0 
L 2816 51 
C 2739 218 2701 450 2694 739 
L 2694 2338 
C 2694 2698 2592 2974 2394 3167 
C 2189 3360 1901 3456 1530 3456 
C 1171 3456 877 3353 640 3153 
C 403 2948 288 2690 288 2374 
L 1171 2374 
C 1171 2633 1280 2762 1504 2762 
C 1600 2762 1677 2729 1734 2670 
C 1786 2605 1811 2494 1811 2338 
L 1811 2063 
L 1542 2063 
C 1114 2063 787 1966 563 1774 
C 339 1575 224 1300 224 948 
C 224 647 320 404 506 217 
C 691 32 928 -64 1210 -64 
C 1485 -64 1696 45 1856 263 
C 1875 141 1901 51 1926 0 
z
M 1408 636 
C 1210 636 1114 757 1114 1007 
C 1114 1165 1158 1300 1248 1395 
C 1331 1491 1453 1536 1600 1536 
L 1811 1536 
L 1811 834 
C 1779 776 1728 732 1658 694 
C 1587 655 1504 636 1408 636 
z
" transform="scale(0.015625)"/>
       <path id="RobotoCondensed-Bold-63" d="M 1542 675 
C 1427 675 1338 700 1280 752 
C 1216 803 1171 887 1146 996 
C 1114 1105 1101 1298 1101 1574 
L 1101 1914 
C 1107 2229 1139 2448 1210 2557 
C 1280 2666 1389 2717 1542 2717 
C 1677 2717 1779 2666 1843 2563 
C 1901 2460 1933 2313 1933 2126 
L 2765 2126 
C 2758 2550 2650 2878 2438 3109 
C 2221 3341 1926 3456 1555 3456 
C 1114 3456 781 3315 557 3039 
C 333 2762 218 2351 218 1818 
L 218 1548 
C 224 1015 339 617 570 347 
C 794 71 1126 -64 1562 -64 
C 1914 -64 2202 51 2426 283 
C 2650 508 2758 809 2765 1176 
L 1933 1176 
C 1926 842 1798 675 1542 675 
z
" transform="scale(0.015625)"/>
       <path id="RobotoCondensed-Bold-65" d="M 1690 -64 
C 1933 -64 2157 -19 2362 77 
C 2566 173 2720 297 2829 444 
L 2483 980 
C 2285 778 2035 675 1741 675 
C 1542 675 1389 733 1293 850 
C 1197 967 1139 1155 1126 1408 
L 2886 1408 
L 2886 1843 
C 2880 2375 2771 2778 2560 3053 
C 2349 3322 2029 3456 1600 3456 
C 1158 3456 826 3308 595 3019 
C 358 2730 243 2313 243 1779 
L 243 1510 
C 243 1002 371 617 627 347 
C 883 71 1235 -64 1690 -64 
z
M 1133 2025 
C 1146 2266 1184 2444 1254 2552 
C 1325 2661 1434 2717 1594 2717 
C 1747 2717 1856 2667 1920 2565 
C 1978 2457 2010 2305 2016 2108 
L 2016 2025 
L 1133 2025 
z
" transform="scale(0.015625)"/>
       <path id="RobotoCondensed-Bold-72" d="M 1990 2537 
L 1997 3418 
C 1926 3443 1850 3456 1754 3456 
C 1510 3456 1318 3315 1178 3026 
L 1152 3392 
L 320 3392 
L 320 0 
L 1203 0 
L 1203 2242 
C 1286 2454 1453 2563 1696 2563 
L 1990 2537 
z
" transform="scale(0.015625)"/>
       <path id="RobotoCondensed-Bold-75" d="M 1984 308 
L 2010 0 
L 2842 0 
L 2842 3392 
L 1952 3392 
L 1952 938 
C 1856 764 1709 675 1510 675 
C 1299 675 1190 842 1184 1171 
L 1184 3392 
L 301 3392 
L 301 1195 
C 301 784 384 469 544 257 
C 704 45 934 -64 1248 -64 
C 1555 -64 1798 58 1984 308 
z
" transform="scale(0.015625)"/>
       <path id="RobotoCondensed-Bold-6d" d="M 1152 3392 
L 326 3392 
L 326 0 
L 1210 0 
L 1210 2467 
C 1299 2627 1421 2711 1574 2711 
C 1709 2711 1798 2666 1850 2583 
C 1901 2493 1926 2351 1926 2159 
L 1926 0 
L 2810 0 
L 2810 2300 
L 2803 2409 
C 2886 2608 3008 2711 3174 2711 
C 3302 2711 3392 2672 3450 2589 
C 3507 2505 3533 2364 3533 2165 
L 3533 0 
L 4416 0 
L 4416 2223 
C 4403 3045 4102 3456 3507 3456 
C 3142 3456 2867 3302 2675 3000 
C 2541 3302 2304 3456 1965 3456 
C 1638 3456 1376 3328 1178 3077 
L 1152 3392 
z
" transform="scale(0.015625)"/>
       <path id="RobotoCondensed-Bold-68" d="M 1184 3096 
L 1184 4818 
L 301 4818 
L 301 0 
L 1184 0 
L 1184 2493 
C 1274 2640 1402 2711 1562 2711 
C 1696 2711 1798 2666 1862 2576 
C 1920 2486 1952 2345 1952 2146 
L 1952 0 
L 2835 0 
L 2835 2159 
C 2835 2589 2752 2917 2592 3135 
C 2432 3347 2195 3456 1888 3456 
C 1613 3456 1376 3334 1184 3096 
z
" transform="scale(0.015625)"/>
       <path id="RobotoCondensed-Bold-6f" d="M 218 1805 
L 218 1593 
C 218 1073 339 662 582 373 
C 819 84 1158 -64 1594 -64 
C 2022 -64 2362 84 2598 373 
C 2835 662 2957 1066 2957 1587 
L 2957 1799 
C 2957 2319 2835 2724 2598 3019 
C 2355 3308 2016 3456 1587 3456 
C 1158 3456 819 3308 582 3019 
C 339 2724 218 2319 218 1805 
z
M 1107 1587 
L 1107 1805 
C 1107 2120 1152 2351 1235 2499 
C 1318 2647 1440 2717 1587 2717 
C 1741 2717 1862 2640 1946 2493 
C 2029 2345 2074 2114 2074 1805 
L 2074 1433 
C 2054 925 1894 675 1594 675 
C 1267 675 1107 976 1107 1587 
z
" transform="scale(0.015625)"/>
       <path id="RobotoCondensed-Bold-67" d="M 218 1799 
L 218 1548 
C 224 1041 320 642 518 360 
C 717 77 992 -64 1350 -64 
C 1619 -64 1837 45 2010 270 
L 2010 -22 
C 2010 -235 1965 -391 1882 -489 
C 1792 -586 1651 -631 1453 -631 
C 1331 -631 1210 -605 1075 -547 
C 941 -494 832 -423 749 -331 
L 454 -946 
C 550 -1062 704 -1158 909 -1229 
C 1114 -1306 1306 -1344 1491 -1344 
C 1946 -1344 2291 -1229 2534 -996 
C 2778 -771 2899 -436 2899 -6 
L 2899 3392 
L 2099 3392 
L 2067 3090 
C 1901 3334 1664 3456 1357 3456 
C 992 3456 717 3321 518 3045 
C 320 2769 218 2358 218 1799 
z
M 1101 1580 
L 1101 1799 
C 1101 2120 1146 2351 1229 2499 
C 1312 2640 1440 2711 1613 2711 
C 1786 2711 1920 2643 2010 2499 
L 2010 874 
C 1920 739 1786 675 1606 675 
C 1434 675 1306 745 1222 893 
C 1139 1041 1101 1266 1101 1580 
z
" transform="scale(0.015625)"/>
       <path id="txbsys-bb" d="M 1914 -928 
L 1555 -928 
C 1344 -928 1242 -819 1242 -595 
L 1242 3974 
C 1242 4173 1325 4256 1530 4256 
L 1914 4256 
L 1914 4544 
L 563 4544 
L 563 -1216 
L 1914 -1216 
L 1914 -928 
z
" transform="scale(0.015625)"/>
       <path id="NotoSerif-Bold-73" d="M 1478 -64 
C 1920 -64 2266 38 2509 232 
C 2746 437 2867 714 2867 1066 
C 2867 1336 2778 1555 2598 1709 
C 2413 1876 2182 2005 1894 2101 
C 1664 2185 1485 2255 1357 2319 
C 1229 2383 1139 2448 1088 2519 
C 1043 2590 1018 2667 1018 2756 
C 1018 2891 1069 2988 1178 3059 
C 1280 3123 1402 3155 1536 3155 
C 1722 3155 1862 3097 1958 2981 
C 2054 2859 2099 2692 2099 2480 
C 2336 2480 2502 2518 2598 2595 
C 2701 2666 2752 2776 2752 2923 
C 2752 3019 2714 3115 2637 3211 
C 2566 3302 2445 3379 2278 3430 
C 2118 3495 1901 3520 1632 3520 
C 1216 3520 883 3437 634 3263 
C 384 3096 256 2839 256 2499 
C 256 2209 346 1985 531 1824 
C 717 1657 979 1516 1325 1393 
C 1626 1284 1837 1188 1946 1098 
C 2054 1009 2112 892 2112 751 
C 2112 629 2061 526 1958 442 
C 1862 359 1702 314 1478 314 
C 1267 314 1101 391 973 546 
C 851 700 787 911 787 1175 
C 717 1175 634 1162 538 1143 
C 442 1117 365 1073 294 1002 
C 224 932 192 828 192 687 
C 192 475 288 296 486 154 
C 685 6 1011 -64 1478 -64 
z
" transform="scale(0.015625)"/>
       <path id="txbsys-bc" d="M 256 -928 
L 256 -1216 
L 1606 -1216 
L 1606 4544 
L 256 4544 
L 256 4256 
L 640 4256 
C 845 4256 928 4173 928 3974 
L 928 -595 
C 928 -819 826 -928 614 -928 
L 256 -928 
z
" transform="scale(0.015625)"/>
      </defs>
      <use xlink:href="#RobotoCondensed-Bold-69" transform="scale(0.946448)"/>
      <use xlink:href="#RobotoCondensed-Bold-6e" transform="translate(23.755871 0) scale(0.946448)"/>
      <use xlink:href="#RobotoCondensed-Bold-73" transform="translate(70.321059 0) scale(0.946448)"/>
      <use xlink:href="#RobotoCondensed-Bold-74" transform="translate(113.289824 0) scale(0.946448)"/>
      <use xlink:href="#RobotoCondensed-Bold-61" transform="translate(142.345781 0) scale(0.946448)"/>
      <use xlink:href="#RobotoCondensed-Bold-6e" transform="translate(186.828841 0) scale(0.946448)"/>
      <use xlink:href="#RobotoCondensed-Bold-63" transform="translate(233.394029 0) scale(0.946448)"/>
      <use xlink:href="#RobotoCondensed-Bold-65" transform="translate(276.835934 0) scale(0.946448)"/>
      <use xlink:href="#RobotoCondensed-Bold-72" transform="translate(343.844357 0) scale(0.946448)"/>
      <use xlink:href="#RobotoCondensed-Bold-75" transform="translate(375.171795 0) scale(0.946448)"/>
      <use xlink:href="#RobotoCondensed-Bold-6e" transform="translate(421.736983 0) scale(0.946448)"/>
      <use xlink:href="#RobotoCondensed-Bold-74" transform="translate(468.302171 0) scale(0.946448)"/>
      <use xlink:href="#RobotoCondensed-Bold-69" transform="translate(497.358128 0) scale(0.946448)"/>
      <use xlink:href="#RobotoCondensed-Bold-6d" transform="translate(521.113999 0) scale(0.946448)"/>
      <use xlink:href="#RobotoCondensed-Bold-65" transform="translate(591.24578 0) scale(0.946448)"/>
      <use xlink:href="#RobotoCondensed-Bold-68" transform="translate(658.254203 0) scale(0.946448)"/>
      <use xlink:href="#RobotoCondensed-Bold-69" transform="translate(704.819391 0) scale(0.946448)"/>
      <use xlink:href="#RobotoCondensed-Bold-73" transform="translate(728.575262 0) scale(0.946448)"/>
      <use xlink:href="#RobotoCondensed-Bold-74" transform="translate(771.544027 0) scale(0.946448)"/>
      <use xlink:href="#RobotoCondensed-Bold-6f" transform="translate(799.180274 0) scale(0.946448)"/>
      <use xlink:href="#RobotoCondensed-Bold-67" transform="translate(846.218693 0) scale(0.946448)"/>
      <use xlink:href="#RobotoCondensed-Bold-72" transform="translate(893.730344 0) scale(0.946448)"/>
      <use xlink:href="#RobotoCondensed-Bold-61" transform="translate(923.638072 0) scale(0.946448)"/>
      <use xlink:href="#RobotoCondensed-Bold-6d" transform="translate(968.121133 0) scale(0.946448)"/>
      <use xlink:href="#RobotoCondensed-Bold-73" transform="translate(1038.252914 0) scale(0.946448)"/>
      <use xlink:href="#txbsys-bb" transform="translate(1102.989932 0) scale(1.01519)"/>
      <use xlink:href="#NotoSerif-Bold-73" transform="translate(1137.404852 0) scale(0.913673)"/>
      <use xlink:href="#txbsys-bc" transform="translate(1181.99206 0) scale(1.01519)"/>
     </g>
     <!-- {\scalefont{.88}(only c.s.i.)} -->
     <g transform="translate(17.241833 120.781711) rotate(-90) scale(0.09 -0.09)">
      <defs>
       <path id="RobotoCondensed-Regular-28" d="M 403 1857 
C 403 809 653 -84 1146 -835 
C 1344 -1131 1536 -1343 1728 -1471 
L 1837 -1118 
C 1613 -887 1427 -559 1267 -135 
C 1056 430 954 1079 954 1818 
L 960 2069 
C 973 2660 1062 3199 1222 3687 
C 1382 4169 1587 4535 1837 4773 
L 1728 5152 
C 1581 5049 1421 4889 1254 4670 
C 979 4304 774 3887 627 3405 
C 480 2923 403 2403 403 1857 
z
" transform="scale(0.015625)"/>
       <path id="RobotoCondensed-Regular-79" d="M 1338 957 
L 710 3424 
L 109 3424 
L 1101 51 
L 992 -328 
C 934 -516 864 -651 774 -721 
C 685 -798 557 -837 397 -837 
L 275 -824 
L 275 -1299 
C 390 -1331 486 -1344 563 -1344 
C 755 -1344 928 -1267 1082 -1120 
C 1229 -971 1350 -746 1434 -457 
L 2541 3424 
L 1952 3424 
L 1338 957 
z
" transform="scale(0.015625)"/>
       <path id="RobotoCondensed-Regular-29" d="M 1600 1824 
C 1600 2807 1382 3668 941 4394 
C 730 4747 506 4998 275 5152 
L 166 4799 
C 352 4606 512 4336 659 3996 
C 922 3373 1050 2660 1050 1863 
L 1050 1747 
C 1043 1124 966 559 806 39 
C 646 -482 429 -867 166 -1118 
L 275 -1471 
C 518 -1311 755 -1041 979 -655 
C 1395 64 1600 893 1600 1824 
z
" transform="scale(0.015625)"/>
      </defs>
      <use xlink:href="#RobotoCondensed-Regular-28" transform="scale(0.832879)"/>
      <use xlink:href="#RobotoCondensed-Regular-6f" transform="translate(26.069065 0) scale(0.832879)"/>
      <use xlink:href="#RobotoCondensed-Regular-6e" transform="translate(67.796316 0) scale(0.832879)"/>
      <use xlink:href="#RobotoCondensed-Regular-6c" transform="translate(108.024322 0) scale(0.832879)"/>
      <use xlink:href="#RobotoCondensed-Regular-79" transform="translate(127.097238 0) scale(0.832879)"/>
      <use xlink:href="#RobotoCondensed-Regular-63" transform="translate(180.81792 0) scale(0.832879)"/>
      <use xlink:href="#RobotoCondensed-Regular-2e" transform="translate(219.213654 0) scale(0.832879)"/>
      <use xlink:href="#RobotoCondensed-Regular-73" transform="translate(241.118313 0) scale(0.832879)"/>
      <use xlink:href="#RobotoCondensed-Regular-2e" transform="translate(279.014274 0) scale(0.832879)"/>
      <use xlink:href="#RobotoCondensed-Regular-69" transform="translate(300.918933 0) scale(0.832879)"/>
      <use xlink:href="#RobotoCondensed-Regular-2e" transform="translate(319.991849 0) scale(0.832879)"/>
      <use xlink:href="#RobotoCondensed-Regular-29" transform="translate(341.896507 0) scale(0.832879)"/>
     </g>
    </g>
   </g>
   <g id="patch_3">
    <path d="M 65.550791 167.287363 
L 67.770584 167.287363 
L 67.770584 163.081843 
L 65.550791 163.081843 
z
" clip-path="url(#p1416b3087a)" style="fill: #739bc7"/>
   </g>
   <g id="patch_4">
    <path d="M 65.509684 163.081843 
L 67.811691 163.081843 
L 67.811691 158.876323 
L 65.509684 158.876323 
z
" clip-path="url(#p1416b3087a)" style="fill: #739bc7"/>
   </g>
   <g id="patch_5">
    <path d="M 65.838542 158.876323 
L 67.482833 158.876323 
L 67.482833 154.670803 
L 65.838542 154.670803 
z
" clip-path="url(#p1416b3087a)" style="fill: #739bc7"/>
   </g>
   <g id="patch_6">
    <path d="M 66.331829 154.670803 
L 66.989545 154.670803 
L 66.989545 150.465283 
L 66.331829 150.465283 
z
" clip-path="url(#p1416b3087a)" style="fill: #739bc7"/>
   </g>
   <g id="patch_7">
    <path d="M 64.317573 150.465283 
L 69.003802 150.465283 
L 69.003802 146.259763 
L 64.317573 146.259763 
z
" clip-path="url(#p1416b3087a)" style="fill: #739bc7"/>
   </g>
   <g id="patch_8">
    <path d="M 65.879649 146.259763 
L 67.441725 146.259763 
L 67.441725 142.054243 
L 65.879649 142.054243 
z
" clip-path="url(#p1416b3087a)" style="fill: #739bc7"/>
   </g>
   <g id="patch_9">
    <path d="M 66.414044 142.054243 
L 66.907331 142.054243 
L 66.907331 137.848723 
L 66.414044 137.848723 
z
" clip-path="url(#p1416b3087a)" style="fill: #739bc7"/>
   </g>
   <g id="patch_10">
    <path d="M 64.482002 137.848723 
L 68.839372 137.848723 
L 68.839372 133.643203 
L 64.482002 133.643203 
z
" clip-path="url(#p1416b3087a)" style="fill: #739bc7"/>
   </g>
   <g id="patch_11">
    <path d="M 54.780687 133.643203 
L 78.540687 133.643203 
L 78.540687 129.437683 
L 54.780687 129.437683 
z
" clip-path="url(#p1416b3087a)" style="fill: #739bc7"/>
   </g>
   <g id="patch_12">
    <path d="M 58.19259 129.437683 
L 75.128784 129.437683 
L 75.128784 125.232163 
L 58.19259 125.232163 
z
" clip-path="url(#p1416b3087a)" style="fill: #739bc7"/>
   </g>
   <g id="patch_13">
    <path d="M 64.605324 125.232163 
L 68.716051 125.232163 
L 68.716051 121.026643 
L 64.605324 121.026643 
z
" clip-path="url(#p1416b3087a)" style="fill: #739bc7"/>
   </g>
   <g id="patch_14">
    <path d="M 63.988715 121.026643 
L 69.33266 121.026643 
L 69.33266 116.821123 
L 63.988715 116.821123 
z
" clip-path="url(#p1416b3087a)" style="fill: #739bc7"/>
   </g>
   <g id="patch_15">
    <path d="M 64.934182 116.821123 
L 68.387193 116.821123 
L 68.387193 112.615603 
L 64.934182 112.615603 
z
" clip-path="url(#p1416b3087a)" style="fill: #739bc7"/>
   </g>
   <g id="patch_16">
    <path d="M 65.550791 112.615603 
L 67.770584 112.615603 
L 67.770584 108.410083 
L 65.550791 108.410083 
z
" clip-path="url(#p1416b3087a)" style="fill: #739bc7"/>
   </g>
   <g id="patch_17">
    <path d="M 65.756328 108.410083 
L 67.565047 108.410083 
L 67.565047 104.204563 
L 65.756328 104.204563 
z
" clip-path="url(#p1416b3087a)" style="fill: #739bc7"/>
   </g>
   <g id="patch_18">
    <path d="M 65.838542 104.204563 
L 67.482833 104.204563 
L 67.482833 99.999043 
L 65.838542 99.999043 
z
" clip-path="url(#p1416b3087a)" style="fill: #739bc7"/>
   </g>
   <g id="patch_19">
    <path d="M 66.249615 99.999043 
L 67.07176 99.999043 
L 67.07176 95.793523 
L 66.249615 95.793523 
z
" clip-path="url(#p1416b3087a)" style="fill: #739bc7"/>
   </g>
   <g id="patch_20">
    <path d="M 66.1674 95.793523 
L 67.153975 95.793523 
L 67.153975 91.588003 
L 66.1674 91.588003 
z
" clip-path="url(#p1416b3087a)" style="fill: #739bc7"/>
   </g>
   <g id="patch_21">
    <path d="M 66.331829 91.588003 
L 66.989545 91.588003 
L 66.989545 87.382483 
L 66.331829 87.382483 
z
" clip-path="url(#p1416b3087a)" style="fill: #739bc7"/>
   </g>
   <g id="patch_22">
    <path d="M 66.372936 87.382483 
L 66.948438 87.382483 
L 66.948438 83.176963 
L 66.372936 83.176963 
z
" clip-path="url(#p1416b3087a)" style="fill: #739bc7"/>
   </g>
   <g id="patch_23">
    <path d="M 66.61958 83.176963 
L 66.701795 83.176963 
L 66.701795 78.971443 
L 66.61958 78.971443 
z
" clip-path="url(#p1416b3087a)" style="fill: #739bc7"/>
   </g>
   <g id="patch_24">
    <path d="M 66.61958 78.971443 
L 66.701795 78.971443 
L 66.701795 74.765923 
L 66.61958 74.765923 
z
" clip-path="url(#p1416b3087a)" style="fill: #739bc7"/>
   </g>
   <g id="patch_25">
    <path d="M 66.660687 74.765923 
L 66.660687 74.765923 
L 66.660687 70.560403 
L 66.660687 70.560403 
z
" clip-path="url(#p1416b3087a)" style="fill: #739bc7"/>
   </g>
   <g id="patch_26">
    <path d="M 66.660687 70.560403 
L 66.660687 70.560403 
L 66.660687 66.354883 
L 66.660687 66.354883 
z
" clip-path="url(#p1416b3087a)" style="fill: #739bc7"/>
   </g>
   <g id="patch_27">
    <path d="M 66.660687 66.354883 
L 66.660687 66.354883 
L 66.660687 62.149363 
L 66.660687 62.149363 
z
" clip-path="url(#p1416b3087a)" style="fill: #739bc7"/>
   </g>
   <g id="patch_28">
    <path d="M 66.660687 62.149363 
L 66.660687 62.149363 
L 66.660687 57.943843 
L 66.660687 57.943843 
z
" clip-path="url(#p1416b3087a)" style="fill: #739bc7"/>
   </g>
   <g id="patch_29">
    <path d="M 66.660687 57.943843 
L 66.660687 57.943843 
L 66.660687 53.738323 
L 66.660687 53.738323 
z
" clip-path="url(#p1416b3087a)" style="fill: #739bc7"/>
   </g>
   <g id="patch_30">
    <path d="M 66.660687 53.738323 
L 66.660687 53.738323 
L 66.660687 49.532803 
L 66.660687 49.532803 
z
" clip-path="url(#p1416b3087a)" style="fill: #739bc7"/>
   </g>
   <g id="patch_31">
    <path d="M 66.660687 49.532803 
L 66.660687 49.532803 
L 66.660687 45.327283 
L 66.660687 45.327283 
z
" clip-path="url(#p1416b3087a)" style="fill: #739bc7"/>
   </g>
   <g id="patch_32">
    <path d="M 66.660687 45.327283 
L 66.660687 45.327283 
L 66.660687 41.121763 
L 66.660687 41.121763 
z
" clip-path="url(#p1416b3087a)" style="fill: #739bc7"/>
   </g>
   <g id="patch_33">
    <path d="M 90.174044 167.287363 
L 90.667331 167.287363 
L 90.667331 163.081843 
L 90.174044 163.081843 
z
" clip-path="url(#p1416b3087a)" style="fill: #739bc7"/>
   </g>
   <g id="patch_34">
    <path d="M 89.269684 163.081843 
L 91.571691 163.081843 
L 91.571691 158.876323 
L 89.269684 158.876323 
z
" clip-path="url(#p1416b3087a)" style="fill: #739bc7"/>
   </g>
   <g id="patch_35">
    <path d="M 89.762971 158.876323 
L 91.078404 158.876323 
L 91.078404 154.670803 
L 89.762971 154.670803 
z
" clip-path="url(#p1416b3087a)" style="fill: #739bc7"/>
   </g>
   <g id="patch_36">
    <path d="M 89.680757 154.670803 
L 91.160618 154.670803 
L 91.160618 150.465283 
L 89.680757 150.465283 
z
" clip-path="url(#p1416b3087a)" style="fill: #739bc7"/>
   </g>
   <g id="patch_37">
    <path d="M 90.009615 150.465283 
L 90.83176 150.465283 
L 90.83176 146.259763 
L 90.009615 146.259763 
z
" clip-path="url(#p1416b3087a)" style="fill: #739bc7"/>
   </g>
   <g id="patch_38">
    <path d="M 89.598542 146.259763 
L 91.242833 146.259763 
L 91.242833 142.054243 
L 89.598542 142.054243 
z
" clip-path="url(#p1416b3087a)" style="fill: #739bc7"/>
   </g>
   <g id="patch_39">
    <path d="M 89.105255 142.054243 
L 91.73612 142.054243 
L 91.73612 137.848723 
L 89.105255 137.848723 
z
" clip-path="url(#p1416b3087a)" style="fill: #739bc7"/>
   </g>
   <g id="patch_40">
    <path d="M 89.146362 137.848723 
L 91.695013 137.848723 
L 91.695013 133.643203 
L 89.146362 133.643203 
z
" clip-path="url(#p1416b3087a)" style="fill: #739bc7"/>
   </g>
   <g id="patch_41">
    <path d="M 89.762971 133.643203 
L 91.078404 133.643203 
L 91.078404 129.437683 
L 89.762971 129.437683 
z
" clip-path="url(#p1416b3087a)" style="fill: #739bc7"/>
   </g>
   <g id="patch_42">
    <path d="M 88.324217 129.437683 
L 92.517158 129.437683 
L 92.517158 125.232163 
L 88.324217 125.232163 
z
" clip-path="url(#p1416b3087a)" style="fill: #739bc7"/>
   </g>
   <g id="patch_43">
    <path d="M 87.913144 125.232163 
L 92.928231 125.232163 
L 92.928231 121.026643 
L 87.913144 121.026643 
z
" clip-path="url(#p1416b3087a)" style="fill: #739bc7"/>
   </g>
   <g id="patch_44">
    <path d="M 86.515497 121.026643 
L 94.325878 121.026643 
L 94.325878 116.821123 
L 86.515497 116.821123 
z
" clip-path="url(#p1416b3087a)" style="fill: #739bc7"/>
   </g>
   <g id="patch_45">
    <path d="M 83.268023 116.821123 
L 97.573352 116.821123 
L 97.573352 112.615603 
L 83.268023 112.615603 
z
" clip-path="url(#p1416b3087a)" style="fill: #739bc7"/>
   </g>
   <g id="patch_46">
    <path d="M 85.11785 112.615603 
L 95.723525 112.615603 
L 95.723525 108.410083 
L 85.11785 108.410083 
z
" clip-path="url(#p1416b3087a)" style="fill: #739bc7"/>
   </g>
   <g id="patch_47">
    <path d="M 86.47439 108.410083 
L 94.366985 108.410083 
L 94.366985 104.204563 
L 86.47439 104.204563 
z
" clip-path="url(#p1416b3087a)" style="fill: #739bc7"/>
   </g>
   <g id="patch_48">
    <path d="M 88.28311 104.204563 
L 92.558265 104.204563 
L 92.558265 99.999043 
L 88.28311 99.999043 
z
" clip-path="url(#p1416b3087a)" style="fill: #739bc7"/>
   </g>
   <g id="patch_49">
    <path d="M 89.762971 99.999043 
L 91.078404 99.999043 
L 91.078404 95.793523 
L 89.762971 95.793523 
z
" clip-path="url(#p1416b3087a)" style="fill: #739bc7"/>
   </g>
   <g id="patch_50">
    <path d="M 89.187469 95.793523 
L 91.653905 95.793523 
L 91.653905 91.588003 
L 89.187469 91.588003 
z
" clip-path="url(#p1416b3087a)" style="fill: #739bc7"/>
   </g>
   <g id="patch_51">
    <path d="M 88.653075 91.588003 
L 92.1883 91.588003 
L 92.1883 87.382483 
L 88.653075 87.382483 
z
" clip-path="url(#p1416b3087a)" style="fill: #739bc7"/>
   </g>
   <g id="patch_52">
    <path d="M 89.557435 87.382483 
L 91.28394 87.382483 
L 91.28394 83.176963 
L 89.557435 83.176963 
z
" clip-path="url(#p1416b3087a)" style="fill: #739bc7"/>
   </g>
   <g id="patch_53">
    <path d="M 89.721864 83.176963 
L 91.119511 83.176963 
L 91.119511 78.971443 
L 89.721864 78.971443 
z
" clip-path="url(#p1416b3087a)" style="fill: #739bc7"/>
   </g>
   <g id="patch_54">
    <path d="M 90.091829 78.971443 
L 90.749545 78.971443 
L 90.749545 74.765923 
L 90.091829 74.765923 
z
" clip-path="url(#p1416b3087a)" style="fill: #739bc7"/>
   </g>
   <g id="patch_55">
    <path d="M 90.132936 74.765923 
L 90.708438 74.765923 
L 90.708438 70.560403 
L 90.132936 70.560403 
z
" clip-path="url(#p1416b3087a)" style="fill: #739bc7"/>
   </g>
   <g id="patch_56">
    <path d="M 90.420687 70.560403 
L 90.420687 70.560403 
L 90.420687 66.354883 
L 90.420687 66.354883 
z
" clip-path="url(#p1416b3087a)" style="fill: #739bc7"/>
   </g>
   <g id="patch_57">
    <path d="M 90.37958 66.354883 
L 90.461795 66.354883 
L 90.461795 62.149363 
L 90.37958 62.149363 
z
" clip-path="url(#p1416b3087a)" style="fill: #739bc7"/>
   </g>
   <g id="patch_58">
    <path d="M 90.420687 62.149363 
L 90.420687 62.149363 
L 90.420687 57.943843 
L 90.420687 57.943843 
z
" clip-path="url(#p1416b3087a)" style="fill: #739bc7"/>
   </g>
   <g id="patch_59">
    <path d="M 90.420687 57.943843 
L 90.420687 57.943843 
L 90.420687 53.738323 
L 90.420687 53.738323 
z
" clip-path="url(#p1416b3087a)" style="fill: #739bc7"/>
   </g>
   <g id="patch_60">
    <path d="M 90.420687 53.738323 
L 90.420687 53.738323 
L 90.420687 49.532803 
L 90.420687 49.532803 
z
" clip-path="url(#p1416b3087a)" style="fill: #739bc7"/>
   </g>
   <g id="patch_61">
    <path d="M 90.420687 49.532803 
L 90.420687 49.532803 
L 90.420687 45.327283 
L 90.420687 45.327283 
z
" clip-path="url(#p1416b3087a)" style="fill: #739bc7"/>
   </g>
   <g id="patch_62">
    <path d="M 90.420687 45.327283 
L 90.420687 45.327283 
L 90.420687 41.121763 
L 90.420687 41.121763 
z
" clip-path="url(#p1416b3087a)" style="fill: #739bc7"/>
   </g>
   <g id="patch_63">
    <path d="M 113.892936 167.287363 
L 114.468438 167.287363 
L 114.468438 163.081843 
L 113.892936 163.081843 
z
" clip-path="url(#p1416b3087a)" style="fill: #739bc7"/>
   </g>
   <g id="patch_64">
    <path d="M 113.892936 163.081843 
L 114.468438 163.081843 
L 114.468438 158.876323 
L 113.892936 158.876323 
z
" clip-path="url(#p1416b3087a)" style="fill: #739bc7"/>
   </g>
   <g id="patch_65">
    <path d="M 113.481864 158.876323 
L 114.879511 158.876323 
L 114.879511 154.670803 
L 113.481864 154.670803 
z
" clip-path="url(#p1416b3087a)" style="fill: #739bc7"/>
   </g>
   <g id="patch_66">
    <path d="M 112.618611 154.670803 
L 115.742763 154.670803 
L 115.742763 150.465283 
L 112.618611 150.465283 
z
" clip-path="url(#p1416b3087a)" style="fill: #739bc7"/>
   </g>
   <g id="patch_67">
    <path d="M 113.851829 150.465283 
L 114.509545 150.465283 
L 114.509545 146.259763 
L 113.851829 146.259763 
z
" clip-path="url(#p1416b3087a)" style="fill: #739bc7"/>
   </g>
   <g id="patch_68">
    <path d="M 113.6874 146.259763 
L 114.673975 146.259763 
L 114.673975 142.054243 
L 113.6874 142.054243 
z
" clip-path="url(#p1416b3087a)" style="fill: #739bc7"/>
   </g>
   <g id="patch_69">
    <path d="M 112.536397 142.054243 
L 115.824978 142.054243 
L 115.824978 137.848723 
L 112.536397 137.848723 
z
" clip-path="url(#p1416b3087a)" style="fill: #739bc7"/>
   </g>
   <g id="patch_70">
    <path d="M 113.481864 137.848723 
L 114.879511 137.848723 
L 114.879511 133.643203 
L 113.481864 133.643203 
z
" clip-path="url(#p1416b3087a)" style="fill: #739bc7"/>
   </g>
   <g id="patch_71">
    <path d="M 112.988577 133.643203 
L 115.372798 133.643203 
L 115.372798 129.437683 
L 112.988577 129.437683 
z
" clip-path="url(#p1416b3087a)" style="fill: #739bc7"/>
   </g>
   <g id="patch_72">
    <path d="M 112.454182 129.437683 
L 115.907193 129.437683 
L 115.907193 125.232163 
L 112.454182 125.232163 
z
" clip-path="url(#p1416b3087a)" style="fill: #739bc7"/>
   </g>
   <g id="patch_73">
    <path d="M 111.015428 125.232163 
L 117.345947 125.232163 
L 117.345947 121.026643 
L 111.015428 121.026643 
z
" clip-path="url(#p1416b3087a)" style="fill: #739bc7"/>
   </g>
   <g id="patch_74">
    <path d="M 110.481033 121.026643 
L 117.880341 121.026643 
L 117.880341 116.821123 
L 110.481033 116.821123 
z
" clip-path="url(#p1416b3087a)" style="fill: #739bc7"/>
   </g>
   <g id="patch_75">
    <path d="M 110.563248 116.821123 
L 117.798127 116.821123 
L 117.798127 112.615603 
L 110.563248 112.615603 
z
" clip-path="url(#p1416b3087a)" style="fill: #739bc7"/>
   </g>
   <g id="patch_76">
    <path d="M 110.275497 112.615603 
L 118.085878 112.615603 
L 118.085878 108.410083 
L 110.275497 108.410083 
z
" clip-path="url(#p1416b3087a)" style="fill: #739bc7"/>
   </g>
   <g id="patch_77">
    <path d="M 110.933213 108.410083 
L 117.428161 108.410083 
L 117.428161 104.204563 
L 110.933213 104.204563 
z
" clip-path="url(#p1416b3087a)" style="fill: #739bc7"/>
   </g>
   <g id="patch_78">
    <path d="M 112.536397 104.204563 
L 115.824978 104.204563 
L 115.824978 99.999043 
L 112.536397 99.999043 
z
" clip-path="url(#p1416b3087a)" style="fill: #739bc7"/>
   </g>
   <g id="patch_79">
    <path d="M 112.618611 99.999043 
L 115.742763 99.999043 
L 115.742763 95.793523 
L 112.618611 95.793523 
z
" clip-path="url(#p1416b3087a)" style="fill: #739bc7"/>
   </g>
   <g id="patch_80">
    <path d="M 113.153006 95.793523 
L 115.208369 95.793523 
L 115.208369 91.588003 
L 113.153006 91.588003 
z
" clip-path="url(#p1416b3087a)" style="fill: #739bc7"/>
   </g>
   <g id="patch_81">
    <path d="M 112.659719 91.588003 
L 115.701656 91.588003 
L 115.701656 87.382483 
L 112.659719 87.382483 
z
" clip-path="url(#p1416b3087a)" style="fill: #739bc7"/>
   </g>
   <g id="patch_82">
    <path d="M 112.700826 87.382483 
L 115.660549 87.382483 
L 115.660549 83.176963 
L 112.700826 83.176963 
z
" clip-path="url(#p1416b3087a)" style="fill: #739bc7"/>
   </g>
   <g id="patch_83">
    <path d="M 112.700826 83.176963 
L 115.660549 83.176963 
L 115.660549 78.971443 
L 112.700826 78.971443 
z
" clip-path="url(#p1416b3087a)" style="fill: #739bc7"/>
   </g>
   <g id="patch_84">
    <path d="M 113.317435 78.971443 
L 115.04394 78.971443 
L 115.04394 74.765923 
L 113.317435 74.765923 
z
" clip-path="url(#p1416b3087a)" style="fill: #739bc7"/>
   </g>
   <g id="patch_85">
    <path d="M 113.276328 74.765923 
L 115.085047 74.765923 
L 115.085047 70.560403 
L 113.276328 70.560403 
z
" clip-path="url(#p1416b3087a)" style="fill: #739bc7"/>
   </g>
   <g id="patch_86">
    <path d="M 113.522971 70.560403 
L 114.838404 70.560403 
L 114.838404 66.354883 
L 113.522971 66.354883 
z
" clip-path="url(#p1416b3087a)" style="fill: #739bc7"/>
   </g>
   <g id="patch_87">
    <path d="M 113.564078 66.354883 
L 114.797296 66.354883 
L 114.797296 62.149363 
L 113.564078 62.149363 
z
" clip-path="url(#p1416b3087a)" style="fill: #739bc7"/>
   </g>
   <g id="patch_88">
    <path d="M 113.564078 62.149363 
L 114.797296 62.149363 
L 114.797296 57.943843 
L 113.564078 57.943843 
z
" clip-path="url(#p1416b3087a)" style="fill: #739bc7"/>
   </g>
   <g id="patch_89">
    <path d="M 113.892936 57.943843 
L 114.468438 57.943843 
L 114.468438 53.738323 
L 113.892936 53.738323 
z
" clip-path="url(#p1416b3087a)" style="fill: #739bc7"/>
   </g>
   <g id="patch_90">
    <path d="M 113.892936 53.738323 
L 114.468438 53.738323 
L 114.468438 49.532803 
L 113.892936 49.532803 
z
" clip-path="url(#p1416b3087a)" style="fill: #739bc7"/>
   </g>
   <g id="patch_91">
    <path d="M 113.646293 49.532803 
L 114.715082 49.532803 
L 114.715082 45.327283 
L 113.646293 45.327283 
z
" clip-path="url(#p1416b3087a)" style="fill: #739bc7"/>
   </g>
   <g id="patch_92">
    <path d="M 114.057366 45.327283 
L 114.304009 45.327283 
L 114.304009 41.121763 
L 114.057366 41.121763 
z
" clip-path="url(#p1416b3087a)" style="fill: #739bc7"/>
   </g>
   <g id="patch_93">
    <path d="M 137.940687 167.287363 
L 137.940687 167.287363 
L 137.940687 163.081843 
L 137.940687 163.081843 
z
" clip-path="url(#p1416b3087a)" style="fill: #739bc7"/>
   </g>
   <g id="patch_94">
    <path d="M 137.858473 163.081843 
L 138.022902 163.081843 
L 138.022902 158.876323 
L 137.858473 158.876323 
z
" clip-path="url(#p1416b3087a)" style="fill: #739bc7"/>
   </g>
   <g id="patch_95">
    <path d="M 137.365186 158.876323 
L 138.516189 158.876323 
L 138.516189 154.670803 
L 137.365186 154.670803 
z
" clip-path="url(#p1416b3087a)" style="fill: #739bc7"/>
   </g>
   <g id="patch_96">
    <path d="M 136.707469 154.670803 
L 139.173905 154.670803 
L 139.173905 150.465283 
L 136.707469 150.465283 
z
" clip-path="url(#p1416b3087a)" style="fill: #739bc7"/>
   </g>
   <g id="patch_97">
    <path d="M 137.036328 150.465283 
L 138.845047 150.465283 
L 138.845047 146.259763 
L 137.036328 146.259763 
z
" clip-path="url(#p1416b3087a)" style="fill: #739bc7"/>
   </g>
   <g id="patch_98">
    <path d="M 137.529615 146.259763 
L 138.35176 146.259763 
L 138.35176 142.054243 
L 137.529615 142.054243 
z
" clip-path="url(#p1416b3087a)" style="fill: #739bc7"/>
   </g>
   <g id="patch_99">
    <path d="M 137.4474 142.054243 
L 138.433975 142.054243 
L 138.433975 137.848723 
L 137.4474 137.848723 
z
" clip-path="url(#p1416b3087a)" style="fill: #739bc7"/>
   </g>
   <g id="patch_100">
    <path d="M 136.214182 137.848723 
L 139.667193 137.848723 
L 139.667193 133.643203 
L 136.214182 133.643203 
z
" clip-path="url(#p1416b3087a)" style="fill: #739bc7"/>
   </g>
   <g id="patch_101">
    <path d="M 136.789684 133.643203 
L 139.091691 133.643203 
L 139.091691 129.437683 
L 136.789684 129.437683 
z
" clip-path="url(#p1416b3087a)" style="fill: #739bc7"/>
   </g>
   <g id="patch_102">
    <path d="M 136.748577 129.437683 
L 139.132798 129.437683 
L 139.132798 125.232163 
L 136.748577 125.232163 
z
" clip-path="url(#p1416b3087a)" style="fill: #739bc7"/>
   </g>
   <g id="patch_103">
    <path d="M 137.077435 125.232163 
L 138.80394 125.232163 
L 138.80394 121.026643 
L 137.077435 121.026643 
z
" clip-path="url(#p1416b3087a)" style="fill: #739bc7"/>
   </g>
   <g id="patch_104">
    <path d="M 134.487677 121.026643 
L 141.393698 121.026643 
L 141.393698 116.821123 
L 134.487677 116.821123 
z
" clip-path="url(#p1416b3087a)" style="fill: #739bc7"/>
   </g>
   <g id="patch_105">
    <path d="M 133.131137 116.821123 
L 142.750238 116.821123 
L 142.750238 112.615603 
L 133.131137 112.615603 
z
" clip-path="url(#p1416b3087a)" style="fill: #739bc7"/>
   </g>
   <g id="patch_106">
    <path d="M 133.953283 112.615603 
L 141.928092 112.615603 
L 141.928092 108.410083 
L 133.953283 108.410083 
z
" clip-path="url(#p1416b3087a)" style="fill: #739bc7"/>
   </g>
   <g id="patch_107">
    <path d="M 134.487677 108.410083 
L 141.393698 108.410083 
L 141.393698 104.204563 
L 134.487677 104.204563 
z
" clip-path="url(#p1416b3087a)" style="fill: #739bc7"/>
   </g>
   <g id="patch_108">
    <path d="M 135.022071 104.204563 
L 140.859303 104.204563 
L 140.859303 99.999043 
L 135.022071 99.999043 
z
" clip-path="url(#p1416b3087a)" style="fill: #739bc7"/>
   </g>
   <g id="patch_109">
    <path d="M 135.433144 99.999043 
L 140.448231 99.999043 
L 140.448231 95.793523 
L 135.433144 95.793523 
z
" clip-path="url(#p1416b3087a)" style="fill: #739bc7"/>
   </g>
   <g id="patch_110">
    <path d="M 135.926431 95.793523 
L 139.954943 95.793523 
L 139.954943 91.588003 
L 135.926431 91.588003 
z
" clip-path="url(#p1416b3087a)" style="fill: #739bc7"/>
   </g>
   <g id="patch_111">
    <path d="M 136.54304 91.588003 
L 139.338334 91.588003 
L 139.338334 87.382483 
L 136.54304 87.382483 
z
" clip-path="url(#p1416b3087a)" style="fill: #739bc7"/>
   </g>
   <g id="patch_112">
    <path d="M 136.625255 87.382483 
L 139.25612 87.382483 
L 139.25612 83.176963 
L 136.625255 83.176963 
z
" clip-path="url(#p1416b3087a)" style="fill: #739bc7"/>
   </g>
   <g id="patch_113">
    <path d="M 136.748577 83.176963 
L 139.132798 83.176963 
L 139.132798 78.971443 
L 136.748577 78.971443 
z
" clip-path="url(#p1416b3087a)" style="fill: #739bc7"/>
   </g>
   <g id="patch_114">
    <path d="M 136.584148 78.971443 
L 139.297227 78.971443 
L 139.297227 74.765923 
L 136.584148 74.765923 
z
" clip-path="url(#p1416b3087a)" style="fill: #739bc7"/>
   </g>
   <g id="patch_115">
    <path d="M 136.707469 74.765923 
L 139.173905 74.765923 
L 139.173905 70.560403 
L 136.707469 70.560403 
z
" clip-path="url(#p1416b3087a)" style="fill: #739bc7"/>
   </g>
   <g id="patch_116">
    <path d="M 137.406293 70.560403 
L 138.475082 70.560403 
L 138.475082 66.354883 
L 137.406293 66.354883 
z
" clip-path="url(#p1416b3087a)" style="fill: #739bc7"/>
   </g>
   <g id="patch_117">
    <path d="M 137.365186 66.354883 
L 138.516189 66.354883 
L 138.516189 62.149363 
L 137.365186 62.149363 
z
" clip-path="url(#p1416b3087a)" style="fill: #739bc7"/>
   </g>
   <g id="patch_118">
    <path d="M 137.694044 62.149363 
L 138.187331 62.149363 
L 138.187331 57.943843 
L 137.694044 57.943843 
z
" clip-path="url(#p1416b3087a)" style="fill: #739bc7"/>
   </g>
   <g id="patch_119">
    <path d="M 137.694044 57.943843 
L 138.187331 57.943843 
L 138.187331 53.738323 
L 137.694044 53.738323 
z
" clip-path="url(#p1416b3087a)" style="fill: #739bc7"/>
   </g>
   <g id="patch_120">
    <path d="M 137.817366 53.738323 
L 138.064009 53.738323 
L 138.064009 49.532803 
L 137.817366 49.532803 
z
" clip-path="url(#p1416b3087a)" style="fill: #739bc7"/>
   </g>
   <g id="patch_121">
    <path d="M 137.776258 49.532803 
L 138.105116 49.532803 
L 138.105116 45.327283 
L 137.776258 45.327283 
z
" clip-path="url(#p1416b3087a)" style="fill: #739bc7"/>
   </g>
   <g id="patch_122">
    <path d="M 137.89958 45.327283 
L 137.981795 45.327283 
L 137.981795 41.121763 
L 137.89958 41.121763 
z
" clip-path="url(#p1416b3087a)" style="fill: #739bc7"/>
   </g>
   <g id="patch_123">
    <path d="M 161.700687 167.287363 
L 161.700687 167.287363 
L 161.700687 163.081843 
L 161.700687 163.081843 
z
" clip-path="url(#p1416b3087a)" style="fill: #739bc7"/>
   </g>
   <g id="patch_124">
    <path d="M 161.289615 163.081843 
L 162.11176 163.081843 
L 162.11176 158.876323 
L 161.289615 158.876323 
z
" clip-path="url(#p1416b3087a)" style="fill: #739bc7"/>
   </g>
   <g id="patch_125">
    <path d="M 160.015289 158.876323 
L 163.386085 158.876323 
L 163.386085 154.670803 
L 160.015289 154.670803 
z
" clip-path="url(#p1416b3087a)" style="fill: #739bc7"/>
   </g>
   <g id="patch_126">
    <path d="M 160.878542 154.670803 
L 162.522833 154.670803 
L 162.522833 150.465283 
L 160.878542 150.465283 
z
" clip-path="url(#p1416b3087a)" style="fill: #739bc7"/>
   </g>
   <g id="patch_127">
    <path d="M 161.330722 150.465283 
L 162.070653 150.465283 
L 162.070653 146.259763 
L 161.330722 146.259763 
z
" clip-path="url(#p1416b3087a)" style="fill: #739bc7"/>
   </g>
   <g id="patch_128">
    <path d="M 161.65958 146.259763 
L 161.741795 146.259763 
L 161.741795 142.054243 
L 161.65958 142.054243 
z
" clip-path="url(#p1416b3087a)" style="fill: #739bc7"/>
   </g>
   <g id="patch_129">
    <path d="M 161.330722 142.054243 
L 162.070653 142.054243 
L 162.070653 137.848723 
L 161.330722 137.848723 
z
" clip-path="url(#p1416b3087a)" style="fill: #739bc7"/>
   </g>
   <g id="patch_130">
    <path d="M 160.508577 137.848723 
L 162.892798 137.848723 
L 162.892798 133.643203 
L 160.508577 133.643203 
z
" clip-path="url(#p1416b3087a)" style="fill: #739bc7"/>
   </g>
   <g id="patch_131">
    <path d="M 160.097504 133.643203 
L 163.303871 133.643203 
L 163.303871 129.437683 
L 160.097504 129.437683 
z
" clip-path="url(#p1416b3087a)" style="fill: #739bc7"/>
   </g>
   <g id="patch_132">
    <path d="M 161.618473 129.437683 
L 161.782902 129.437683 
L 161.782902 125.232163 
L 161.618473 125.232163 
z
" clip-path="url(#p1416b3087a)" style="fill: #739bc7"/>
   </g>
   <g id="patch_133">
    <path d="M 161.700687 125.232163 
L 161.700687 125.232163 
L 161.700687 121.026643 
L 161.700687 121.026643 
z
" clip-path="url(#p1416b3087a)" style="fill: #739bc7"/>
   </g>
   <g id="patch_134">
    <path d="M 161.65958 121.026643 
L 161.741795 121.026643 
L 161.741795 116.821123 
L 161.65958 116.821123 
z
" clip-path="url(#p1416b3087a)" style="fill: #739bc7"/>
   </g>
   <g id="patch_135">
    <path d="M 161.330722 116.821123 
L 162.070653 116.821123 
L 162.070653 112.615603 
L 161.330722 112.615603 
z
" clip-path="url(#p1416b3087a)" style="fill: #739bc7"/>
   </g>
   <g id="patch_136">
    <path d="M 160.960757 112.615603 
L 162.440618 112.615603 
L 162.440618 108.410083 
L 160.960757 108.410083 
z
" clip-path="url(#p1416b3087a)" style="fill: #739bc7"/>
   </g>
   <g id="patch_137">
    <path d="M 157.384424 108.410083 
L 166.01695 108.410083 
L 166.01695 104.204563 
L 157.384424 104.204563 
z
" clip-path="url(#p1416b3087a)" style="fill: #739bc7"/>
   </g>
   <g id="patch_138">
    <path d="M 156.932244 104.204563 
L 166.46913 104.204563 
L 166.46913 99.999043 
L 156.932244 99.999043 
z
" clip-path="url(#p1416b3087a)" style="fill: #739bc7"/>
   </g>
   <g id="patch_139">
    <path d="M 159.604217 99.999043 
L 163.797158 99.999043 
L 163.797158 95.793523 
L 159.604217 95.793523 
z
" clip-path="url(#p1416b3087a)" style="fill: #739bc7"/>
   </g>
   <g id="patch_140">
    <path d="M 159.933075 95.793523 
L 163.4683 95.793523 
L 163.4683 91.588003 
L 159.933075 91.588003 
z
" clip-path="url(#p1416b3087a)" style="fill: #739bc7"/>
   </g>
   <g id="patch_141">
    <path d="M 159.686431 91.588003 
L 163.714943 91.588003 
L 163.714943 87.382483 
L 159.686431 87.382483 
z
" clip-path="url(#p1416b3087a)" style="fill: #739bc7"/>
   </g>
   <g id="patch_142">
    <path d="M 158.370999 87.382483 
L 165.030376 87.382483 
L 165.030376 83.176963 
L 158.370999 83.176963 
z
" clip-path="url(#p1416b3087a)" style="fill: #739bc7"/>
   </g>
   <g id="patch_143">
    <path d="M 156.932244 83.176963 
L 166.46913 83.176963 
L 166.46913 78.971443 
L 156.932244 78.971443 
z
" clip-path="url(#p1416b3087a)" style="fill: #739bc7"/>
   </g>
   <g id="patch_144">
    <path d="M 160.056397 78.971443 
L 163.344978 78.971443 
L 163.344978 74.765923 
L 160.056397 74.765923 
z
" clip-path="url(#p1416b3087a)" style="fill: #739bc7"/>
   </g>
   <g id="patch_145">
    <path d="M 160.426362 74.765923 
L 162.975013 74.765923 
L 162.975013 70.560403 
L 160.426362 70.560403 
z
" clip-path="url(#p1416b3087a)" style="fill: #739bc7"/>
   </g>
   <g id="patch_146">
    <path d="M 161.084078 70.560403 
L 162.317296 70.560403 
L 162.317296 66.354883 
L 161.084078 66.354883 
z
" clip-path="url(#p1416b3087a)" style="fill: #739bc7"/>
   </g>
   <g id="patch_147">
    <path d="M 160.837435 66.354883 
L 162.56394 66.354883 
L 162.56394 62.149363 
L 160.837435 62.149363 
z
" clip-path="url(#p1416b3087a)" style="fill: #739bc7"/>
   </g>
   <g id="patch_148">
    <path d="M 160.220826 62.149363 
L 163.180549 62.149363 
L 163.180549 57.943843 
L 160.220826 57.943843 
z
" clip-path="url(#p1416b3087a)" style="fill: #739bc7"/>
   </g>
   <g id="patch_149">
    <path d="M 161.001864 57.943843 
L 162.399511 57.943843 
L 162.399511 53.738323 
L 161.001864 53.738323 
z
" clip-path="url(#p1416b3087a)" style="fill: #739bc7"/>
   </g>
   <g id="patch_150">
    <path d="M 160.837435 53.738323 
L 162.56394 53.738323 
L 162.56394 49.532803 
L 160.837435 49.532803 
z
" clip-path="url(#p1416b3087a)" style="fill: #739bc7"/>
   </g>
   <g id="patch_151">
    <path d="M 160.673006 49.532803 
L 162.728369 49.532803 
L 162.728369 45.327283 
L 160.673006 45.327283 
z
" clip-path="url(#p1416b3087a)" style="fill: #739bc7"/>
   </g>
   <g id="patch_152">
    <path d="M 160.75522 45.327283 
L 162.646154 45.327283 
L 162.646154 41.121763 
L 160.75522 41.121763 
z
" clip-path="url(#p1416b3087a)" style="fill: #739bc7"/>
   </g>
   <g id="patch_153">
    <path d="M 185.460687 167.287363 
L 185.460687 167.287363 
L 185.460687 163.081843 
L 185.460687 163.081843 
z
" clip-path="url(#p1416b3087a)" style="fill: #739bc7"/>
   </g>
   <g id="patch_154">
    <path d="M 185.378473 163.081843 
L 185.542902 163.081843 
L 185.542902 158.876323 
L 185.378473 158.876323 
z
" clip-path="url(#p1416b3087a)" style="fill: #739bc7"/>
   </g>
   <g id="patch_155">
    <path d="M 184.720757 158.876323 
L 186.200618 158.876323 
L 186.200618 154.670803 
L 184.720757 154.670803 
z
" clip-path="url(#p1416b3087a)" style="fill: #739bc7"/>
   </g>
   <g id="patch_156">
    <path d="M 184.350791 154.670803 
L 186.570584 154.670803 
L 186.570584 150.465283 
L 184.350791 150.465283 
z
" clip-path="url(#p1416b3087a)" style="fill: #739bc7"/>
   </g>
   <g id="patch_157">
    <path d="M 184.350791 150.465283 
L 186.570584 150.465283 
L 186.570584 146.259763 
L 184.350791 146.259763 
z
" clip-path="url(#p1416b3087a)" style="fill: #739bc7"/>
   </g>
   <g id="patch_158">
    <path d="M 185.214044 146.259763 
L 185.707331 146.259763 
L 185.707331 142.054243 
L 185.214044 142.054243 
z
" clip-path="url(#p1416b3087a)" style="fill: #739bc7"/>
   </g>
   <g id="patch_159">
    <path d="M 185.337366 142.054243 
L 185.584009 142.054243 
L 185.584009 137.848723 
L 185.337366 137.848723 
z
" clip-path="url(#p1416b3087a)" style="fill: #739bc7"/>
   </g>
   <g id="patch_160">
    <path d="M 185.008507 137.848723 
L 185.912867 137.848723 
L 185.912867 133.643203 
L 185.008507 133.643203 
z
" clip-path="url(#p1416b3087a)" style="fill: #739bc7"/>
   </g>
   <g id="patch_161">
    <path d="M 183.693075 133.643203 
L 187.2283 133.643203 
L 187.2283 129.437683 
L 183.693075 129.437683 
z
" clip-path="url(#p1416b3087a)" style="fill: #739bc7"/>
   </g>
   <g id="patch_162">
    <path d="M 184.679649 129.437683 
L 186.241725 129.437683 
L 186.241725 125.232163 
L 184.679649 125.232163 
z
" clip-path="url(#p1416b3087a)" style="fill: #739bc7"/>
   </g>
   <g id="patch_163">
    <path d="M 185.296258 125.232163 
L 185.625116 125.232163 
L 185.625116 121.026643 
L 185.296258 121.026643 
z
" clip-path="url(#p1416b3087a)" style="fill: #739bc7"/>
   </g>
   <g id="patch_164">
    <path d="M 185.460687 121.026643 
L 185.460687 121.026643 
L 185.460687 116.821123 
L 185.460687 116.821123 
z
" clip-path="url(#p1416b3087a)" style="fill: #739bc7"/>
   </g>
   <g id="patch_165">
    <path d="M 184.9674 116.821123 
L 185.953975 116.821123 
L 185.953975 112.615603 
L 184.9674 112.615603 
z
" clip-path="url(#p1416b3087a)" style="fill: #739bc7"/>
   </g>
   <g id="patch_166">
    <path d="M 182.377642 112.615603 
L 188.543732 112.615603 
L 188.543732 108.410083 
L 182.377642 108.410083 
z
" clip-path="url(#p1416b3087a)" style="fill: #739bc7"/>
   </g>
   <g id="patch_167">
    <path d="M 181.51439 108.410083 
L 189.406985 108.410083 
L 189.406985 104.204563 
L 181.51439 104.204563 
z
" clip-path="url(#p1416b3087a)" style="fill: #739bc7"/>
   </g>
   <g id="patch_168">
    <path d="M 181.103317 104.204563 
L 189.818058 104.204563 
L 189.818058 99.999043 
L 181.103317 99.999043 
z
" clip-path="url(#p1416b3087a)" style="fill: #739bc7"/>
   </g>
   <g id="patch_169">
    <path d="M 182.583179 99.999043 
L 188.338196 99.999043 
L 188.338196 95.793523 
L 182.583179 95.793523 
z
" clip-path="url(#p1416b3087a)" style="fill: #739bc7"/>
   </g>
   <g id="patch_170">
    <path d="M 184.145255 95.793523 
L 186.77612 95.793523 
L 186.77612 91.588003 
L 184.145255 91.588003 
z
" clip-path="url(#p1416b3087a)" style="fill: #739bc7"/>
   </g>
   <g id="patch_171">
    <path d="M 183.32311 91.588003 
L 187.598265 91.588003 
L 187.598265 87.382483 
L 183.32311 87.382483 
z
" clip-path="url(#p1416b3087a)" style="fill: #739bc7"/>
   </g>
   <g id="patch_172">
    <path d="M 182.213213 87.382483 
L 188.708161 87.382483 
L 188.708161 83.176963 
L 182.213213 83.176963 
z
" clip-path="url(#p1416b3087a)" style="fill: #739bc7"/>
   </g>
   <g id="patch_173">
    <path d="M 183.528646 83.176963 
L 187.392729 83.176963 
L 187.392729 78.971443 
L 183.528646 78.971443 
z
" clip-path="url(#p1416b3087a)" style="fill: #739bc7"/>
   </g>
   <g id="patch_174">
    <path d="M 183.775289 78.971443 
L 187.146085 78.971443 
L 187.146085 74.765923 
L 183.775289 74.765923 
z
" clip-path="url(#p1416b3087a)" style="fill: #739bc7"/>
   </g>
   <g id="patch_175">
    <path d="M 183.199788 74.765923 
L 187.721587 74.765923 
L 187.721587 70.560403 
L 183.199788 70.560403 
z
" clip-path="url(#p1416b3087a)" style="fill: #739bc7"/>
   </g>
   <g id="patch_176">
    <path d="M 184.350791 70.560403 
L 186.570584 70.560403 
L 186.570584 66.354883 
L 184.350791 66.354883 
z
" clip-path="url(#p1416b3087a)" style="fill: #739bc7"/>
   </g>
   <g id="patch_177">
    <path d="M 184.802971 66.354883 
L 186.118404 66.354883 
L 186.118404 62.149363 
L 184.802971 62.149363 
z
" clip-path="url(#p1416b3087a)" style="fill: #739bc7"/>
   </g>
   <g id="patch_178">
    <path d="M 184.926293 62.149363 
L 185.995082 62.149363 
L 185.995082 57.943843 
L 184.926293 57.943843 
z
" clip-path="url(#p1416b3087a)" style="fill: #739bc7"/>
   </g>
   <g id="patch_179">
    <path d="M 185.090722 57.943843 
L 185.830653 57.943843 
L 185.830653 53.738323 
L 185.090722 53.738323 
z
" clip-path="url(#p1416b3087a)" style="fill: #739bc7"/>
   </g>
   <g id="patch_180">
    <path d="M 184.844078 53.738323 
L 186.077296 53.738323 
L 186.077296 49.532803 
L 184.844078 49.532803 
z
" clip-path="url(#p1416b3087a)" style="fill: #739bc7"/>
   </g>
   <g id="patch_181">
    <path d="M 184.556328 49.532803 
L 186.365047 49.532803 
L 186.365047 45.327283 
L 184.556328 45.327283 
z
" clip-path="url(#p1416b3087a)" style="fill: #739bc7"/>
   </g>
   <g id="patch_182">
    <path d="M 183.775289 45.327283 
L 187.146085 45.327283 
L 187.146085 41.121763 
L 183.775289 41.121763 
z
" clip-path="url(#p1416b3087a)" style="fill: #739bc7"/>
   </g>
   <g id="patch_183">
    <path d="M 48.840687 174.296563 
L 203.280687 174.296563 
" style="fill: none; stroke: #000000; stroke-width: 0.8; stroke-linejoin: miter; stroke-linecap: square"/>
   </g>
  </g>
 </g>
 <defs>
  <clipPath id="p1416b3087a">
   <rect x="48.840687" y="34.112563" width="154.44" height="140.184"/>
  </clipPath>
 </defs>
</svg>
