<?xml version="1.0" encoding="utf-8" standalone="no"?>
<!DOCTYPE svg PUBLIC "-//W3C//DTD SVG 1.1//EN"
  "http://www.w3.org/Graphics/SVG/1.1/DTD/svg11.dtd">
<svg xmlns:xlink="http://www.w3.org/1999/xlink" width="173.009444pt" height="206.53967pt" viewBox="0 0 173.009444 206.53967" xmlns="http://www.w3.org/2000/svg" version="1.1">
 <metadata>
  <rdf:RDF xmlns:dc="http://purl.org/dc/elements/1.1/" xmlns:cc="http://creativecommons.org/ns#" xmlns:rdf="http://www.w3.org/1999/02/22-rdf-syntax-ns#">
   <cc:Work>
    <dc:type rdf:resource="http://purl.org/dc/dcmitype/StillImage"/>
    <dc:date>2024-10-23T21:01:51.686349</dc:date>
    <dc:format>image/svg+xml</dc:format>
    <dc:creator>
     <cc:Agent>
      <dc:title>Matplotlib v3.8.3, https://matplotlib.org/</dc:title>
     </cc:Agent>
    </dc:creator>
   </cc:Work>
  </rdf:RDF>
 </metadata>
 <defs>
  <style type="text/css">*{stroke-linejoin: round; stroke-linecap: butt}</style>
 </defs>
 <g id="figure_1">
  <g id="patch_1">
   <path d="M 0 206.53967 
L 173.009444 206.53967 
L 173.009444 0 
L 0 0 
z
" style="fill: #ffffff"/>
  </g>
  <g id="axes_1">
   <g id="patch_2">
    <path d="M 44.244003 173.821462 
L 127.404003 173.821462 
L 127.404003 33.637462 
L 44.244003 33.637462 
z
" style="fill: #ececec"/>
   </g>
   <g id="matplotlib.axis_1">
    <g id="xtick_1">
     <g id="text_1">
      <!-- $\sgfs&gt;\qty{100}{\byte}$ -->
      <g transform="translate(64.205487 9.689137) scale(0.09 -0.09)">
       <defs>
        <path id="NotoMathMI-41" d="M 1094 -64 
C 1466 -64 1754 20 1971 200 
C 2176 379 2285 609 2285 892 
C 2285 1116 2227 1290 2099 1431 
C 1978 1571 1805 1688 1594 1784 
C 1389 1873 1242 1963 1152 2046 
C 1056 2136 1011 2245 1011 2380 
C 1011 2521 1062 2643 1158 2733 
C 1254 2829 1395 2874 1568 2874 
C 1702 2874 1792 2848 1875 2778 
C 1946 2720 2010 2630 2042 2533 
C 2067 2437 2086 2329 2086 2233 
C 2221 2233 2317 2265 2394 2322 
C 2477 2380 2515 2469 2515 2591 
C 2515 2681 2490 2765 2419 2854 
C 2362 2944 2266 3008 2131 3059 
C 1997 3110 1830 3136 1619 3136 
C 1280 3136 1011 3059 806 2893 
C 602 2732 506 2527 506 2276 
C 506 2046 570 1866 698 1738 
C 826 1597 992 1482 1203 1385 
C 1414 1289 1562 1193 1651 1097 
C 1741 1001 1786 885 1786 750 
C 1786 571 1728 436 1619 346 
C 1510 256 1357 212 1165 212 
C 1005 212 877 244 781 313 
C 685 383 608 478 570 593 
C 531 708 506 828 506 962 
C 461 962 410 962 352 943 
C 294 918 237 879 205 828 
C 160 777 141 693 141 590 
C 141 385 230 225 403 109 
C 576 -6 806 -64 1094 -64 
z
" transform="scale(0.015625)"/>
        <path id="NotoSerif-Italic-66" d="M -525 -1536 
C -294 -1536 -90 -1491 90 -1401 
C 269 -1312 422 -1157 550 -944 
C 678 -726 781 -424 864 -45 
L 1530 3088 
L 2246 3088 
L 2317 3456 
L 1606 3456 
L 1690 3870 
C 1741 4141 1811 4342 1894 4478 
C 1978 4608 2099 4672 2259 4672 
C 2394 4672 2483 4614 2522 4491 
C 2566 4374 2586 4233 2586 4070 
C 2758 4070 2886 4103 2982 4174 
C 3072 4245 3117 4349 3117 4491 
C 3117 4632 3046 4749 2906 4840 
C 2771 4924 2566 4969 2291 4969 
C 1939 4969 1670 4866 1472 4671 
C 1280 4465 1146 4180 1075 3813 
L 1005 3457 
L 390 3321 
L 352 3088 
L 934 3088 
L 262 -50 
C 166 -481 64 -783 -51 -964 
C -173 -1143 -333 -1233 -544 -1233 
C -589 -1233 -640 -1233 -704 -1220 
C -755 -1214 -806 -1201 -838 -1194 
L -896 -1486 
C -851 -1499 -794 -1511 -730 -1524 
C -653 -1530 -589 -1536 -525 -1536 
z
" transform="scale(0.015625)"/>
        <path id="NotoSerif-Italic-73" d="M 1216 -64 
C 1626 -64 1946 32 2189 233 
C 2419 433 2541 684 2541 1001 
C 2541 1253 2470 1454 2330 1608 
C 2195 1763 2010 1893 1773 2003 
C 1549 2106 1389 2209 1280 2299 
C 1171 2404 1120 2520 1120 2668 
C 1120 2829 1178 2965 1286 3069 
C 1395 3172 1549 3223 1741 3223 
C 1888 3223 1997 3191 2086 3114 
C 2163 3049 2227 2959 2266 2842 
C 2298 2739 2317 2623 2317 2507 
C 2464 2507 2586 2539 2669 2610 
C 2752 2674 2797 2771 2797 2906 
C 2797 3003 2765 3101 2688 3198 
C 2624 3294 2515 3372 2368 3430 
C 2221 3488 2035 3520 1798 3520 
C 1421 3520 1126 3430 896 3248 
C 678 3068 563 2836 563 2557 
C 563 2299 634 2092 774 1950 
C 915 1795 1101 1666 1338 1556 
C 1574 1446 1741 1343 1837 1233 
C 1933 1124 1984 994 1984 846 
C 1984 646 1920 496 1798 400 
C 1677 297 1504 245 1293 245 
C 1120 245 973 284 870 361 
C 755 438 678 543 634 672 
C 589 801 563 943 563 1092 
C 512 1092 454 1079 397 1059 
C 333 1040 275 995 230 930 
C 186 872 160 781 160 665 
C 160 439 256 265 448 129 
C 640 0 896 -64 1216 -64 
z
" transform="scale(0.015625)"/>
        <path id="NotoMathMI-9f" d="M 3994 1715 
L 3994 1856 
L 429 3533 
L 429 3142 
L 3328 1786 
L 429 429 
L 429 45 
L 3994 1715 
z
" transform="scale(0.015625)"/>
        <path id="NotoSerif-Regular-31" d="M 614 0 
L 3053 0 
L 3053 271 
L 2739 271 
C 2592 271 2470 297 2368 348 
C 2266 406 2214 536 2214 736 
L 2214 4640 
L 1805 4640 
L 1357 4303 
C 1146 4142 973 4031 832 3960 
C 685 3888 550 3837 422 3805 
C 422 3701 454 3618 512 3553 
C 570 3489 646 3456 742 3456 
C 870 3456 998 3521 1126 3644 
C 1261 3767 1408 3928 1568 4129 
L 1568 736 
C 1568 536 1517 406 1414 348 
C 1312 297 1190 271 1043 271 
L 614 271 
L 614 0 
z
" transform="scale(0.015625)"/>
        <path id="NotoSerif-Regular-30" d="M 1792 -64 
C 2131 -64 2406 32 2624 232 
C 2848 432 3014 710 3123 1058 
C 3232 1419 3290 1833 3290 2310 
C 3290 2787 3238 3201 3123 3562 
C 3021 3910 2854 4189 2630 4382 
C 2406 4575 2131 4672 1798 4672 
C 1446 4672 1158 4575 934 4382 
C 710 4189 550 3917 448 3562 
C 339 3207 288 2794 288 2317 
C 288 1840 339 1419 448 1065 
C 550 710 710 432 934 232 
C 1158 32 1440 -64 1792 -64 
z
M 1792 284 
C 1478 284 1261 464 1139 820 
C 1018 1174 954 1671 954 2310 
C 954 2950 1018 3446 1139 3794 
C 1267 4150 1485 4324 1798 4324 
C 2106 4324 2317 4150 2445 3794 
C 2560 3446 2624 2950 2624 2310 
C 2624 1671 2560 1174 2445 820 
C 2317 464 2106 284 1792 284 
z
" transform="scale(0.015625)"/>
        <path id="NotoSerif-Regular-42" d="M 243 0 
L 2150 0 
C 3245 0 3795 411 3795 1239 
C 3795 1580 3706 1850 3520 2042 
C 3334 2229 3098 2351 2810 2402 
L 2810 2428 
C 3034 2500 3226 2616 3379 2778 
C 3526 2934 3603 3154 3603 3446 
C 3603 3842 3469 4140 3200 4322 
C 2925 4516 2515 4608 1958 4608 
L 243 4608 
L 243 4337 
L 326 4337 
C 467 4337 589 4311 691 4259 
C 800 4208 851 4085 851 3898 
L 851 735 
C 851 535 800 406 698 348 
C 595 297 474 271 326 271 
L 243 271 
L 243 0 
z
M 1939 2563 
L 1498 2563 
L 1498 4285 
L 1926 4285 
C 2291 4285 2547 4227 2694 4104 
C 2842 3987 2918 3765 2918 3446 
C 2918 3135 2848 2907 2714 2771 
C 2573 2635 2317 2563 1939 2563 
z
M 2118 322 
L 1498 322 
L 1498 2240 
L 2131 2240 
C 2509 2240 2765 2156 2906 2003 
C 3040 1836 3110 1592 3110 1259 
C 3110 919 3034 675 2886 534 
C 2739 393 2483 322 2118 322 
z
" transform="scale(0.015625)"/>
       </defs>
       <use xlink:href="#NotoMathMI-41" transform="scale(1.01519)"/>
       <use xlink:href="#NotoMathMI-41" transform="translate(36.868305 0) scale(1.01519)"/>
       <use xlink:href="#NotoSerif-Italic-66" transform="translate(86.341776 36.851386) scale(0.666977)"/>
       <use xlink:href="#NotoSerif-Italic-73" transform="translate(107.551637 36.851386) scale(0.666977)"/>
       <use xlink:href="#NotoMathMI-9f" transform="translate(160.371021 0) scale(1.01519)"/>
       <use xlink:href="#NotoSerif-Regular-31" transform="translate(255.313859 0) scale(0.913673)"/>
       <use xlink:href="#NotoSerif-Regular-30" transform="translate(306.388154 0) scale(0.913673)"/>
       <use xlink:href="#NotoSerif-Regular-30" transform="translate(357.462449 0) scale(0.913673)"/>
       <use xlink:href="#NotoSerif-Regular-42" transform="translate(414.176681 0) scale(0.913673)"/>
      </g>
      <!-- {\scalefont{.88}avg. net. load: $\qty{37.1}{\percent}$} -->
      <g transform="translate(53.153814 19.057241) scale(0.09 -0.09)">
       <defs>
        <path id="RobotoCondensed-Regular-61" d="M 2150 0 
L 2726 0 
L 2726 51 
C 2656 244 2624 469 2624 732 
L 2624 2441 
C 2618 2775 2528 3026 2349 3199 
C 2163 3373 1901 3456 1555 3456 
C 1344 3456 1152 3411 979 3321 
C 806 3231 666 3109 563 2954 
C 461 2794 410 2626 410 2453 
L 966 2453 
C 966 2601 1018 2730 1126 2833 
C 1229 2929 1363 2981 1530 2981 
C 1715 2981 1850 2936 1939 2851 
C 2029 2760 2074 2612 2074 2410 
L 2074 2048 
L 1664 2048 
C 1261 2048 941 1946 710 1746 
C 474 1547 358 1271 358 925 
C 358 610 442 373 614 199 
C 787 26 1024 -64 1331 -64 
C 1632 -64 1882 80 2080 372 
C 2093 198 2118 71 2150 0 
z
M 1414 443 
C 1229 443 1101 488 1024 572 
C 947 655 909 797 909 989 
C 909 1194 986 1354 1139 1470 
C 1286 1579 1498 1637 1760 1637 
L 2074 1637 
L 2074 835 
C 2016 726 1926 630 1805 559 
C 1683 482 1549 443 1414 443 
z
" transform="scale(0.015625)"/>
        <path id="RobotoCondensed-Regular-76" d="M 1370 842 
L 704 3392 
L 141 3392 
L 1158 0 
L 1574 0 
L 2573 3392 
L 2010 3392 
L 1370 842 
z
" transform="scale(0.015625)"/>
        <path id="RobotoCondensed-Regular-67" d="M 301 1850 
L 301 1471 
C 307 976 410 597 608 334 
C 806 71 1075 -64 1427 -64 
C 1754 -64 2010 71 2189 334 
L 2189 -114 
C 2176 -621 1939 -875 1478 -875 
C 1203 -875 954 -759 723 -531 
L 499 -914 
C 602 -1036 755 -1132 966 -1216 
C 1171 -1299 1357 -1344 1523 -1344 
C 1907 -1344 2208 -1229 2426 -1003 
C 2637 -778 2746 -456 2746 -38 
L 2746 3392 
L 2246 3392 
L 2214 3013 
C 2042 3308 1779 3456 1434 3456 
C 1062 3456 781 3321 589 3051 
C 397 2782 301 2383 301 1850 
z
M 858 1535 
L 858 1876 
C 858 2242 915 2518 1030 2698 
C 1139 2872 1325 2962 1581 2962 
C 1843 2962 2042 2820 2189 2544 
L 2189 848 
C 2054 565 1850 424 1574 424 
C 1318 424 1133 514 1024 694 
C 915 874 858 1156 858 1535 
z
" transform="scale(0.015625)"/>
        <path id="RobotoCondensed-Regular-2e" d="M 448 334 
C 448 238 480 160 538 96 
C 595 32 685 0 806 0 
C 928 0 1018 32 1082 96 
C 1139 160 1171 238 1171 334 
C 1171 437 1139 520 1082 591 
C 1018 655 928 687 806 687 
C 685 687 595 655 538 584 
C 480 514 448 430 448 334 
z
" transform="scale(0.015625)"/>
        <path id="RobotoCondensed-Regular-6e" d="M 934 3392 
L 410 3392 
L 410 0 
L 966 0 
L 966 2467 
C 1037 2615 1126 2730 1235 2827 
C 1344 2917 1466 2962 1600 2962 
C 1779 2962 1914 2904 2003 2795 
C 2086 2685 2131 2493 2131 2229 
L 2131 0 
L 2682 0 
L 2682 2255 
C 2675 3058 2368 3456 1773 3456 
C 1434 3456 1158 3315 947 3026 
L 934 3392 
z
" transform="scale(0.015625)"/>
        <path id="RobotoCondensed-Regular-65" d="M 1619 -64 
C 2112 -64 2477 103 2720 443 
L 2432 799 
C 2323 663 2202 566 2080 509 
C 1958 443 1811 411 1651 411 
C 1395 411 1197 496 1062 664 
C 928 825 858 1090 858 1459 
L 858 1536 
L 2746 1536 
L 2746 1901 
C 2739 2432 2643 2829 2451 3078 
C 2253 3328 1958 3456 1562 3456 
C 1165 3456 858 3315 640 3026 
C 416 2737 307 2345 307 1837 
L 307 1426 
C 314 938 429 565 653 315 
C 877 64 1197 -64 1619 -64 
z
M 1562 2981 
C 1766 2981 1920 2911 2022 2776 
C 2125 2636 2182 2407 2195 2087 
L 2195 2011 
L 864 2011 
C 877 2343 941 2586 1050 2745 
C 1158 2905 1331 2981 1562 2981 
z
" transform="scale(0.015625)"/>
        <path id="RobotoCondensed-Regular-74" d="M 1139 4224 
L 589 4224 
L 589 3392 
L 70 3392 
L 70 2942 
L 589 2942 
L 589 835 
C 589 546 646 328 762 173 
C 877 13 1043 -64 1261 -64 
C 1395 -64 1523 -45 1645 0 
L 1651 469 
C 1574 443 1498 430 1427 430 
C 1318 430 1248 469 1203 540 
C 1158 610 1139 707 1139 842 
L 1139 2942 
L 1645 2942 
L 1645 3392 
L 1139 3392 
L 1139 4224 
z
" transform="scale(0.015625)"/>
        <path id="RobotoCondensed-Regular-6c" d="M 1011 0 
L 1011 4818 
L 454 4818 
L 454 0 
L 1011 0 
z
" transform="scale(0.015625)"/>
        <path id="RobotoCondensed-Regular-6f" d="M 294 1857 
L 294 1484 
C 301 1009 429 630 666 353 
C 902 77 1216 -64 1606 -64 
C 2003 -64 2323 77 2560 366 
C 2797 655 2912 1041 2912 1535 
L 2912 1889 
C 2906 2371 2784 2756 2547 3039 
C 2310 3315 1990 3456 1600 3456 
C 1210 3456 890 3315 653 3026 
C 416 2737 294 2351 294 1857 
z
M 851 1535 
L 851 1857 
C 851 2203 922 2480 1056 2679 
C 1190 2878 1376 2981 1600 2981 
C 1830 2981 2016 2878 2157 2679 
C 2291 2480 2362 2203 2362 1857 
L 2362 1471 
C 2342 764 2093 411 1606 411 
C 1376 411 1190 514 1056 713 
C 922 912 851 1182 851 1535 
z
" transform="scale(0.015625)"/>
        <path id="RobotoCondensed-Regular-64" d="M 294 1850 
L 294 1503 
C 301 1009 403 623 602 347 
C 800 71 1075 -64 1427 -64 
C 1766 -64 2022 80 2202 366 
L 2234 0 
L 2739 0 
L 2739 4818 
L 2182 4818 
L 2182 3065 
C 2003 3328 1754 3456 1427 3456 
C 1062 3456 787 3321 589 3045 
C 390 2769 294 2371 294 1850 
z
M 851 1535 
L 851 1876 
C 851 2242 909 2518 1024 2698 
C 1133 2872 1318 2962 1574 2962 
C 1837 2962 2042 2827 2182 2557 
L 2182 842 
C 2048 565 1843 424 1568 424 
C 1318 424 1133 514 1024 694 
C 909 874 851 1156 851 1535 
z
" transform="scale(0.015625)"/>
        <path id="RobotoCondensed-Regular-3a" d="M 429 334 
C 429 238 461 160 518 96 
C 576 32 666 0 787 0 
C 909 0 998 32 1062 96 
C 1120 160 1152 238 1152 334 
C 1152 437 1120 520 1062 591 
C 998 655 909 687 787 687 
C 666 687 576 655 518 584 
C 461 514 429 430 429 334 
z
M 435 3103 
C 435 3006 467 2929 525 2865 
C 582 2801 672 2769 794 2769 
C 915 2769 1005 2801 1069 2865 
C 1126 2929 1158 3006 1158 3103 
C 1158 3206 1126 3289 1069 3360 
C 1005 3424 915 3456 794 3456 
C 672 3456 582 3424 525 3353 
C 467 3283 435 3199 435 3103 
z
" transform="scale(0.015625)"/>
        <path id="NotoSerif-Regular-33" d="M 1581 -64 
C 1766 -64 1952 -39 2138 6 
C 2330 53 2509 130 2669 234 
C 2829 344 2963 487 3059 662 
C 3155 843 3206 1063 3206 1322 
C 3206 1536 3168 1718 3091 1854 
C 3014 1997 2918 2113 2790 2198 
C 2675 2282 2541 2346 2406 2386 
C 2272 2431 2144 2457 2022 2470 
C 2221 2515 2394 2597 2547 2707 
C 2701 2823 2822 2964 2912 3118 
C 3002 3285 3046 3458 3046 3651 
C 3046 3979 2925 4229 2675 4402 
C 2432 4582 2106 4672 1702 4672 
C 1286 4672 973 4588 768 4428 
C 550 4268 448 4062 448 3811 
C 448 3651 499 3541 608 3478 
C 717 3426 845 3394 998 3394 
C 998 3567 1018 3721 1050 3863 
C 1088 4010 1158 4125 1261 4215 
C 1363 4305 1510 4350 1702 4350 
C 1952 4350 2125 4279 2227 4144 
C 2336 4004 2387 3805 2387 3554 
C 2387 3355 2342 3176 2253 3028 
C 2163 2880 2042 2765 1894 2681 
C 1741 2598 1568 2560 1382 2560 
L 1178 2560 
L 1178 2231 
L 1382 2231 
C 1741 2231 2022 2146 2227 1984 
C 2438 1822 2541 1602 2541 1329 
C 2541 1069 2496 862 2406 712 
C 2317 563 2202 452 2061 388 
C 1914 316 1760 284 1587 284 
C 1325 284 1126 361 986 504 
C 845 660 774 842 774 1069 
C 653 1069 557 1030 486 959 
C 410 887 371 784 371 654 
C 371 466 467 299 659 156 
C 851 6 1158 -64 1581 -64 
z
" transform="scale(0.015625)"/>
        <path id="NotoSerif-Regular-37" d="M 1126 0 
L 1696 0 
L 3270 4425 
L 3270 4612 
L 410 4612 
L 378 3444 
L 646 3444 
L 672 3766 
C 691 3986 819 4096 1043 4096 
L 2637 4096 
L 1126 0 
z
" transform="scale(0.015625)"/>
        <path id="NotoMathMI-93" d="M 717 -64 
C 813 -64 896 -39 973 19 
C 1050 76 1082 185 1082 326 
C 1082 473 1050 582 973 633 
C 896 691 813 716 717 716 
C 621 716 538 691 461 633 
C 390 582 358 473 358 326 
C 358 185 390 76 461 19 
C 538 -39 621 -64 717 -64 
z
" transform="scale(0.015625)"/>
        <path id="NotoSerif-Regular-25" d="M 1338 1792 
C 1690 1792 1958 1922 2125 2194 
C 2304 2454 2387 2804 2387 3239 
C 2387 3673 2304 4023 2125 4283 
C 1958 4542 1696 4672 1344 4672 
C 973 4672 704 4542 538 4283 
C 371 4023 288 3673 288 3239 
C 288 2804 371 2454 538 2194 
C 704 1922 973 1792 1338 1792 
z
M 1504 0 
L 1926 0 
L 4205 4608 
L 3789 4608 
L 1504 0 
z
M 1338 2057 
C 1165 2057 1043 2161 973 2368 
C 902 2576 864 2869 864 3239 
C 864 3609 902 3894 973 4096 
C 1043 4297 1171 4401 1344 4401 
C 1517 4401 1638 4297 1702 4096 
C 1773 3894 1805 3609 1805 3239 
C 1805 2869 1773 2576 1702 2368 
C 1632 2161 1510 2057 1338 2057 
z
M 4397 -64 
C 4749 -64 5018 65 5184 338 
C 5363 597 5446 947 5446 1382 
C 5446 1817 5363 2168 5184 2427 
C 5018 2686 4755 2816 4403 2816 
C 4032 2816 3763 2686 3597 2427 
C 3430 2168 3347 1817 3347 1382 
C 3347 947 3430 597 3597 338 
C 3763 65 4032 -64 4397 -64 
z
M 4397 200 
C 4224 200 4102 304 4032 511 
C 3962 720 3923 1012 3923 1382 
C 3923 1753 3962 2039 4032 2240 
C 4102 2441 4230 2545 4403 2545 
C 4576 2545 4698 2441 4762 2240 
C 4832 2039 4864 1753 4864 1382 
C 4864 1012 4832 720 4762 511 
C 4691 304 4570 200 4397 200 
z
" transform="scale(0.015625)"/>
       </defs>
       <use xlink:href="#RobotoCondensed-Regular-61" transform="scale(0.832879)"/>
       <use xlink:href="#RobotoCondensed-Regular-76" transform="translate(39.31187 0) scale(0.832879)"/>
       <use xlink:href="#RobotoCondensed-Regular-67" transform="translate(74.376088 0) scale(0.832879)"/>
       <use xlink:href="#RobotoCondensed-Regular-2e" transform="translate(115.353679 0) scale(0.832879)"/>
       <use xlink:href="#RobotoCondensed-Regular-6e" transform="translate(159.51288 0) scale(0.832879)"/>
       <use xlink:href="#RobotoCondensed-Regular-65" transform="translate(199.740886 0) scale(0.832879)"/>
       <use xlink:href="#RobotoCondensed-Regular-74" transform="translate(238.719624 0) scale(0.832879)"/>
       <use xlink:href="#RobotoCondensed-Regular-2e" transform="translate(263.289535 0) scale(0.832879)"/>
       <use xlink:href="#RobotoCondensed-Regular-6c" transform="translate(307.448737 0) scale(0.832879)"/>
       <use xlink:href="#RobotoCondensed-Regular-6f" transform="translate(326.521653 0) scale(0.832879)"/>
       <use xlink:href="#RobotoCondensed-Regular-61" transform="translate(368.248904 0) scale(0.832879)"/>
       <use xlink:href="#RobotoCondensed-Regular-64" transform="translate(408.143792 0) scale(0.832879)"/>
       <use xlink:href="#RobotoCondensed-Regular-3a" transform="translate(449.45459 0) scale(0.832879)"/>
       <use xlink:href="#NotoSerif-Regular-33" transform="translate(491.115181 0) scale(0.804036)"/>
       <use xlink:href="#NotoSerif-Regular-37" transform="translate(536.060817 0) scale(0.804036)"/>
       <use xlink:href="#NotoMathMI-93" transform="translate(582.435815 0) scale(0.893372)"/>
       <use xlink:href="#NotoSerif-Regular-31" transform="translate(604.055486 0) scale(0.804036)"/>
       <use xlink:href="#NotoSerif-Regular-25" transform="translate(653.96429 0) scale(0.804036)"/>
      </g>
      <!-- {\scalefont{.88}instances: $1920$} -->
      <g transform="translate(61.586904 28.425346) scale(0.09 -0.09)">
       <defs>
        <path id="RobotoCondensed-Regular-69" d="M 1011 0 
L 1011 3392 
L 454 3392 
L 454 0 
L 1011 0 
z
M 1056 4295 
C 1056 4385 1030 4462 979 4533 
C 922 4604 845 4636 742 4636 
C 634 4636 557 4604 506 4539 
C 448 4469 422 4392 422 4295 
C 422 4199 448 4122 506 4064 
C 557 4000 634 3968 736 3968 
C 845 3968 922 4000 979 4064 
C 1030 4122 1056 4199 1056 4295 
z
" transform="scale(0.015625)"/>
        <path id="RobotoCondensed-Regular-73" d="M 2054 867 
C 2054 726 2010 617 1914 533 
C 1818 450 1677 411 1491 411 
C 1299 411 1146 463 1037 572 
C 928 681 870 829 864 1015 
L 307 1015 
C 307 700 416 443 634 244 
C 851 39 1139 -64 1491 -64 
C 1830 -64 2106 26 2310 206 
C 2509 379 2611 617 2611 912 
C 2611 1150 2534 1343 2387 1497 
C 2240 1645 1958 1805 1549 1966 
C 1293 2081 1133 2171 1062 2242 
C 992 2313 960 2403 960 2512 
C 960 2653 1005 2769 1101 2852 
C 1190 2936 1318 2981 1478 2981 
C 1638 2981 1773 2929 1875 2820 
C 1971 2711 2022 2583 2022 2428 
L 2573 2428 
C 2573 2730 2470 2974 2272 3167 
C 2074 3360 1805 3456 1478 3456 
C 1165 3456 909 3366 710 3180 
C 512 2994 410 2769 410 2493 
C 410 2338 442 2203 499 2094 
C 557 1985 653 1882 774 1799 
C 896 1709 1101 1600 1402 1478 
C 1658 1362 1830 1259 1920 1176 
C 2010 1092 2054 989 2054 867 
z
" transform="scale(0.015625)"/>
        <path id="RobotoCondensed-Regular-63" d="M 1587 411 
C 1331 411 1146 495 1030 662 
C 909 822 851 1105 851 1503 
L 851 1940 
C 858 2306 915 2576 1037 2737 
C 1158 2897 1338 2981 1587 2981 
C 1773 2981 1920 2917 2029 2795 
C 2138 2672 2195 2480 2208 2229 
L 2733 2229 
C 2720 2608 2611 2910 2413 3129 
C 2208 3347 1933 3456 1587 3456 
C 1165 3456 845 3321 627 3058 
C 410 2795 301 2403 301 1889 
L 301 1516 
C 301 996 410 597 634 334 
C 851 71 1171 -64 1587 -64 
C 1901 -64 2170 45 2387 263 
C 2605 475 2720 745 2733 1073 
L 2208 1073 
C 2202 861 2138 694 2029 585 
C 1920 469 1773 411 1587 411 
z
" transform="scale(0.015625)"/>
        <path id="NotoSerif-Regular-39" d="M 1453 -64 
C 1766 -64 2029 7 2253 149 
C 2470 284 2650 478 2790 716 
C 2925 954 3027 1231 3091 1541 
C 3155 1844 3187 2166 3187 2507 
C 3187 3016 3123 3429 2995 3745 
C 2867 4060 2688 4298 2470 4446 
C 2240 4595 1984 4672 1696 4672 
C 1408 4672 1165 4608 960 4467 
C 755 4339 602 4146 486 3915 
C 384 3671 326 3402 326 3094 
C 326 2664 442 2337 678 2119 
C 915 1901 1216 1792 1587 1792 
C 1811 1792 2003 1837 2157 1927 
C 2310 2018 2432 2121 2528 2231 
C 2509 1575 2413 1089 2240 771 
C 2074 453 1811 291 1459 291 
C 1261 291 1101 342 986 446 
C 864 551 774 668 717 804 
C 672 785 627 752 589 693 
C 544 642 525 577 525 494 
C 525 402 550 318 602 227 
C 659 150 755 79 890 20 
C 1024 -38 1216 -64 1453 -64 
z
M 1728 2173 
C 1478 2173 1293 2249 1171 2403 
C 1050 2556 986 2807 986 3158 
C 986 3536 1050 3824 1178 4016 
C 1299 4222 1472 4317 1696 4317 
C 1946 4317 2144 4190 2291 3934 
C 2445 3677 2528 3261 2534 2691 
C 2477 2556 2381 2435 2246 2326 
C 2112 2224 1939 2173 1728 2173 
z
" transform="scale(0.015625)"/>
        <path id="NotoSerif-Regular-32" d="M 390 0 
L 3142 0 
L 3174 1116 
L 2906 1116 
L 2880 1000 
C 2848 878 2803 761 2733 664 
C 2662 567 2534 516 2342 516 
L 864 516 
L 1946 1723 
C 2285 2097 2547 2426 2733 2710 
C 2918 3000 3014 3291 3014 3594 
C 3014 3923 2899 4182 2669 4375 
C 2438 4575 2118 4672 1715 4672 
C 1299 4672 986 4588 781 4427 
C 563 4266 461 4060 461 3807 
C 461 3646 512 3536 621 3472 
C 730 3420 858 3388 1011 3388 
C 1011 3562 1030 3717 1062 3859 
C 1101 4008 1171 4124 1274 4214 
C 1376 4305 1523 4350 1715 4350 
C 1939 4350 2106 4272 2214 4124 
C 2317 3976 2368 3775 2368 3530 
C 2368 3330 2342 3143 2278 2969 
C 2227 2794 2131 2607 1997 2413 
C 1862 2214 1683 1981 1459 1716 
L 390 471 
L 390 0 
z
" transform="scale(0.015625)"/>
       </defs>
       <use xlink:href="#RobotoCondensed-Regular-69" transform="scale(0.832879)"/>
       <use xlink:href="#RobotoCondensed-Regular-6e" transform="translate(19.072916 0) scale(0.832879)"/>
       <use xlink:href="#RobotoCondensed-Regular-73" transform="translate(59.300922 0) scale(0.832879)"/>
       <use xlink:href="#RobotoCondensed-Regular-74" transform="translate(97.196883 0) scale(0.832879)"/>
       <use xlink:href="#RobotoCondensed-Regular-61" transform="translate(121.766794 0) scale(0.832879)"/>
       <use xlink:href="#RobotoCondensed-Regular-6e" transform="translate(161.661683 0) scale(0.832879)"/>
       <use xlink:href="#RobotoCondensed-Regular-63" transform="translate(201.889688 0) scale(0.832879)"/>
       <use xlink:href="#RobotoCondensed-Regular-65" transform="translate(240.285423 0) scale(0.832879)"/>
       <use xlink:href="#RobotoCondensed-Regular-73" transform="translate(279.264161 0) scale(0.832879)"/>
       <use xlink:href="#RobotoCondensed-Regular-3a" transform="translate(317.160122 0) scale(0.832879)"/>
       <use xlink:href="#NotoSerif-Regular-31" transform="translate(358.820713 0) scale(0.804036)"/>
       <use xlink:href="#NotoSerif-Regular-39" transform="translate(403.766348 0) scale(0.804036)"/>
       <use xlink:href="#NotoSerif-Regular-32" transform="translate(448.711983 0) scale(0.804036)"/>
       <use xlink:href="#NotoSerif-Regular-30" transform="translate(493.657619 0) scale(0.804036)"/>
      </g>
     </g>
    </g>
    <g id="xtick_2">
     <g id="text_2">
      <!-- \schedulermoobj[1]{UC}{o1}{1SP} -->
      <g transform="translate(60.275288 198.253174) rotate(-70) scale(0.09 -0.09)">
       <defs>
        <path id="RobotoCondensed-Italic-55" d="M 3610 4544 
L 3053 4544 
L 2502 1320 
C 2451 1020 2342 798 2182 652 
C 2016 505 1798 435 1536 435 
C 1146 435 934 624 902 996 
C 896 1105 896 1219 909 1341 
L 1453 4544 
L 896 4544 
L 352 1342 
C 301 914 378 569 589 320 
C 800 70 1101 -64 1504 -64 
C 1926 -64 2278 57 2560 312 
C 2835 560 3008 911 3066 1351 
L 3610 4544 
z
" transform="scale(0.015625)"/>
        <path id="RobotoCondensed-Italic-43" d="M 3149 1443 
L 2598 1443 
C 2515 1068 2394 803 2227 650 
C 2061 497 1843 428 1568 428 
C 1376 428 1222 498 1114 640 
C 998 775 934 981 915 1258 
C 902 1437 909 1634 941 1851 
L 1069 2658 
C 1146 3148 1286 3511 1491 3760 
C 1696 4002 1952 4116 2266 4116 
C 2426 4116 2554 4078 2650 4001 
C 2746 3917 2810 3814 2854 3679 
C 2893 3545 2906 3345 2899 3082 
L 3462 3082 
C 3482 3563 3386 3935 3187 4204 
C 2982 4474 2688 4608 2298 4608 
C 1830 4608 1440 4441 1126 4097 
C 813 3751 602 3266 506 2646 
L 378 1847 
C 358 1706 352 1560 352 1413 
C 358 1131 410 876 506 646 
C 602 415 736 244 909 122 
C 1082 0 1293 -64 1536 -64 
C 1971 -64 2330 63 2618 335 
C 2906 608 3078 975 3149 1443 
z
" transform="scale(0.015625)"/>
        <path id="RobotoCondensed-Italic-6f" d="M 294 1840 
L 256 1527 
C 224 1231 243 962 314 718 
C 384 475 506 283 672 148 
C 838 7 1050 -64 1299 -64 
C 1696 -64 2029 77 2298 373 
C 2560 668 2726 1060 2797 1542 
L 2829 1863 
C 2861 2152 2848 2421 2778 2672 
C 2707 2916 2586 3109 2419 3250 
C 2253 3385 2042 3456 1792 3456 
C 1389 3456 1056 3315 794 3020 
C 531 2719 365 2328 294 1840 
z
M 781 1302 
L 787 1471 
L 826 1784 
C 870 2163 979 2464 1139 2676 
C 1299 2887 1504 2983 1754 2983 
C 1939 2983 2080 2899 2176 2743 
C 2272 2588 2317 2367 2310 2082 
L 2291 1858 
L 2246 1492 
C 2189 1127 2086 852 1933 672 
C 1773 486 1574 403 1331 403 
C 1146 403 1005 487 915 649 
C 819 804 774 1024 781 1302 
z
" transform="scale(0.015625)"/>
        <path id="RobotoCondensed-Italic-31" d="M 1395 0 
L 2176 4570 
L 2080 4570 
L 614 3968 
L 518 3411 
L 1523 3834 
L 851 0 
L 1395 0 
z
" transform="scale(0.015625)"/>
        <path id="RobotoCondensed-Italic-53" d="M 2291 1181 
C 2259 946 2170 760 2010 627 
C 1850 493 1658 429 1434 429 
C 1190 429 1011 512 890 673 
C 768 834 717 1047 736 1317 
L 173 1317 
C 154 915 256 588 486 332 
C 717 71 1024 -64 1402 -64 
C 1805 -64 2138 44 2406 280 
C 2675 516 2822 815 2854 1185 
C 2886 1618 2752 1962 2438 2217 
C 2298 2332 2106 2440 1856 2549 
C 1606 2650 1427 2765 1331 2899 
C 1229 3027 1190 3173 1210 3345 
C 1235 3580 1325 3766 1478 3906 
C 1626 4046 1818 4116 2042 4116 
C 2266 4116 2426 4039 2534 3891 
C 2643 3737 2682 3518 2662 3228 
L 3219 3228 
C 3251 3619 3155 3947 2944 4210 
C 2733 4474 2438 4608 2074 4608 
C 1696 4608 1370 4494 1101 4251 
C 832 4009 685 3703 653 3340 
C 621 2952 755 2633 1056 2379 
C 1197 2257 1402 2137 1670 2021 
C 1939 1901 2118 1780 2202 1652 
C 2285 1525 2310 1366 2291 1181 
z
" transform="scale(0.015625)"/>
        <path id="RobotoCondensed-Italic-50" d="M 1018 1792 
L 1901 1792 
C 2330 1792 2682 1920 2957 2170 
C 3232 2419 3386 2765 3424 3200 
C 3456 3591 3373 3917 3174 4167 
C 2970 4416 2682 4544 2310 4544 
L 934 4544 
L 147 0 
L 710 0 
L 1018 1792 
z
M 1101 2279 
L 1414 4057 
L 2298 4057 
C 2458 4057 2592 3999 2688 3903 
C 2784 3807 2848 3673 2867 3500 
C 2893 3302 2867 3098 2797 2899 
C 2726 2701 2611 2547 2464 2439 
C 2310 2330 2131 2279 1926 2279 
L 1101 2279 
z
" transform="scale(0.015625)"/>
       </defs>
       <use xlink:href="#RobotoCondensed-Italic-55" transform="scale(0.946448)"/>
       <use xlink:href="#RobotoCondensed-Italic-43" transform="translate(51.959951 0) scale(0.946448)"/>
       <use xlink:href="#RobotoCondensed-Italic-6f" transform="translate(114.685955 39.017807) scale(0.746176)"/>
       <use xlink:href="#RobotoCondensed-Italic-31" transform="translate(151.323209 39.017807) scale(0.746176)"/>
       <use xlink:href="#RobotoCondensed-Italic-31" transform="translate(104.393133 -33.534919) scale(0.690903)"/>
       <use xlink:href="#RobotoCondensed-Italic-53" transform="translate(130.301986 -33.534919) scale(0.690903)"/>
       <use xlink:href="#RobotoCondensed-Italic-50" transform="translate(165.330754 -33.534919) scale(0.690903)"/>
      </g>
     </g>
    </g>
    <g id="xtick_3">
     <g id="text_3">
      <!-- \schedulermoobj[1]{MCS}{o1}{1SP} -->
      <g transform="translate(82.010519 203.816183) rotate(-70) scale(0.09 -0.09)">
       <defs>
        <path id="RobotoCondensed-Italic-4d" d="M 1645 4544 
L 934 4544 
L 147 0 
L 710 0 
L 1011 1739 
L 1274 3560 
L 1811 0 
L 2240 0 
L 3987 3483 
L 3642 1795 
L 3328 0 
L 3885 0 
L 4678 4544 
L 3949 4544 
L 2150 844 
L 1645 4544 
z
" transform="scale(0.015625)"/>
       </defs>
       <use xlink:href="#RobotoCondensed-Italic-4d" transform="scale(0.946448)"/>
       <use xlink:href="#RobotoCondensed-Italic-43" transform="translate(69.753242 0) scale(0.946448)"/>
       <use xlink:href="#RobotoCondensed-Italic-53" transform="translate(122.186424 0) scale(0.946448)"/>
       <use xlink:href="#RobotoCondensed-Italic-6f" transform="translate(180.464144 39.017807) scale(0.746176)"/>
       <use xlink:href="#RobotoCondensed-Italic-31" transform="translate(217.101397 39.017807) scale(0.746176)"/>
       <use xlink:href="#RobotoCondensed-Italic-31" transform="translate(170.171321 -33.534919) scale(0.690903)"/>
       <use xlink:href="#RobotoCondensed-Italic-53" transform="translate(196.080175 -33.534919) scale(0.690903)"/>
       <use xlink:href="#RobotoCondensed-Italic-50" transform="translate(231.108943 -33.534919) scale(0.690903)"/>
      </g>
     </g>
    </g>
    <g id="xtick_4">
     <g id="text_4">
      <!-- \schedulermoobj[1]{MCT}{o1}{1SP} -->
      <g transform="translate(105.805479 203.72013) rotate(-70) scale(0.09 -0.09)">
       <defs>
        <path id="RobotoCondensed-Italic-54" d="M 3437 4032 
L 3520 4524 
L 646 4524 
L 557 4032 
L 1715 4032 
L 1011 -32 
L 1574 -32 
L 2272 4032 
L 3437 4032 
z
" transform="scale(0.015625)"/>
       </defs>
       <use xlink:href="#RobotoCondensed-Italic-4d" transform="scale(0.946448)"/>
       <use xlink:href="#RobotoCondensed-Italic-43" transform="translate(69.753242 0) scale(0.946448)"/>
       <use xlink:href="#RobotoCondensed-Italic-54" transform="translate(120.861391 0) scale(0.946448)"/>
       <use xlink:href="#RobotoCondensed-Italic-6f" transform="translate(179.328388 39.017807) scale(0.746176)"/>
       <use xlink:href="#RobotoCondensed-Italic-31" transform="translate(215.965642 39.017807) scale(0.746176)"/>
       <use xlink:href="#RobotoCondensed-Italic-31" transform="translate(169.035565 -33.534919) scale(0.690903)"/>
       <use xlink:href="#RobotoCondensed-Italic-53" transform="translate(194.944419 -33.534919) scale(0.690903)"/>
       <use xlink:href="#RobotoCondensed-Italic-50" transform="translate(229.973187 -33.534919) scale(0.690903)"/>
      </g>
     </g>
    </g>
   </g>
   <g id="matplotlib.axis_2">
    <g id="ytick_1">
     <g id="line2d_1">
      <path d="M 44.244003 173.821462 
L 127.404003 173.821462 
" clip-path="url(#p5c3b41fb1e)" style="fill: none; stroke: #ffffff; stroke-width: 0.8; stroke-linecap: round"/>
     </g>
     <g id="text_5">
      <!-- $0$ -->
      <g transform="translate(36.147318 177.011457) scale(0.09 -0.09)">
       <use xlink:href="#NotoSerif-Regular-30" transform="scale(0.913673)"/>
      </g>
     </g>
    </g>
    <g id="ytick_2">
     <g id="line2d_2">
      <path d="M 44.244003 139.959133 
L 127.404003 139.959133 
" clip-path="url(#p5c3b41fb1e)" style="fill: none; stroke: #ffffff; stroke-width: 0.8; stroke-linecap: round"/>
     </g>
     <g id="text_6">
      <!-- $25$ -->
      <g transform="translate(31.550634 143.149128) scale(0.09 -0.09)">
       <defs>
        <path id="NotoSerif-Regular-35" d="M 1562 -64 
C 1888 -64 2170 0 2400 115 
C 2630 243 2803 411 2931 629 
C 3046 853 3110 1109 3110 1399 
C 3110 1700 3046 1950 2918 2155 
C 2790 2348 2618 2502 2394 2605 
C 2176 2700 1926 2752 1651 2752 
C 1466 2752 1306 2739 1184 2720 
C 1062 2694 966 2668 902 2649 
L 1024 4092 
L 2266 4092 
C 2400 4092 2490 4072 2534 4026 
C 2573 3981 2598 3916 2611 3824 
L 2637 3628 
L 2906 3628 
L 2874 4608 
L 736 4608 
L 531 2301 
L 685 2256 
C 768 2288 864 2320 973 2352 
C 1082 2385 1248 2397 1472 2397 
C 1766 2397 2003 2315 2176 2154 
C 2355 1988 2445 1737 2445 1399 
C 2445 1130 2406 918 2330 758 
C 2246 598 2138 489 1997 418 
C 1862 348 1702 316 1530 316 
C 1267 316 1075 380 947 502 
C 819 623 755 777 755 963 
C 621 963 518 931 448 860 
C 384 797 352 706 352 584 
C 352 488 384 391 461 296 
C 525 192 653 109 826 39 
C 998 -32 1248 -64 1562 -64 
z
" transform="scale(0.015625)"/>
       </defs>
       <use xlink:href="#NotoSerif-Regular-32" transform="scale(0.913673)"/>
       <use xlink:href="#NotoSerif-Regular-35" transform="translate(51.074295 0) scale(0.913673)"/>
      </g>
     </g>
    </g>
    <g id="ytick_3">
     <g id="line2d_3">
      <path d="M 44.244003 106.096804 
L 127.404003 106.096804 
" clip-path="url(#p5c3b41fb1e)" style="fill: none; stroke: #ffffff; stroke-width: 0.8; stroke-linecap: round"/>
     </g>
     <g id="text_7">
      <!-- $50$ -->
      <g transform="translate(31.550634 109.286799) scale(0.09 -0.09)">
       <use xlink:href="#NotoSerif-Regular-35" transform="scale(0.913673)"/>
       <use xlink:href="#NotoSerif-Regular-30" transform="translate(51.074295 0) scale(0.913673)"/>
      </g>
     </g>
    </g>
    <g id="ytick_4">
     <g id="line2d_4">
      <path d="M 44.244003 72.234476 
L 127.404003 72.234476 
" clip-path="url(#p5c3b41fb1e)" style="fill: none; stroke: #ffffff; stroke-width: 0.8; stroke-linecap: round"/>
     </g>
     <g id="text_8">
      <!-- $75$ -->
      <g transform="translate(31.550634 75.424471) scale(0.09 -0.09)">
       <use xlink:href="#NotoSerif-Regular-37" transform="scale(0.913673)"/>
       <use xlink:href="#NotoSerif-Regular-35" transform="translate(51.074295 0) scale(0.913673)"/>
      </g>
     </g>
    </g>
    <g id="ytick_5">
     <g id="line2d_5">
      <path d="M 44.244003 38.372147 
L 127.404003 38.372147 
" clip-path="url(#p5c3b41fb1e)" style="fill: none; stroke: #ffffff; stroke-width: 0.8; stroke-linecap: round"/>
     </g>
     <g id="text_9">
      <!-- $100$ -->
      <g transform="translate(26.953949 41.562142) scale(0.09 -0.09)">
       <use xlink:href="#NotoSerif-Regular-31" transform="scale(0.913673)"/>
       <use xlink:href="#NotoSerif-Regular-30" transform="translate(51.074295 0) scale(0.913673)"/>
       <use xlink:href="#NotoSerif-Regular-30" transform="translate(102.14859 0) scale(0.913673)"/>
      </g>
     </g>
    </g>
    <g id="ytick_6">
     <g id="line2d_6">
      <path d="M 44.244003 156.890297 
L 127.404003 156.890297 
" clip-path="url(#p5c3b41fb1e)" style="fill: none; stroke: #ffffff; stroke-width: 0.8; stroke-linecap: round"/>
     </g>
    </g>
    <g id="ytick_7">
     <g id="line2d_7">
      <path d="M 44.244003 123.027969 
L 127.404003 123.027969 
" clip-path="url(#p5c3b41fb1e)" style="fill: none; stroke: #ffffff; stroke-width: 0.8; stroke-linecap: round"/>
     </g>
    </g>
    <g id="ytick_8">
     <g id="line2d_8">
      <path d="M 44.244003 89.16564 
L 127.404003 89.16564 
" clip-path="url(#p5c3b41fb1e)" style="fill: none; stroke: #ffffff; stroke-width: 0.8; stroke-linecap: round"/>
     </g>
    </g>
    <g id="ytick_9">
     <g id="line2d_9">
      <path d="M 44.244003 55.303311 
L 127.404003 55.303311 
" clip-path="url(#p5c3b41fb1e)" style="fill: none; stroke: #ffffff; stroke-width: 0.8; stroke-linecap: round"/>
     </g>
    </g>
    <g id="text_10">
     <!-- {\bfseries\mathversion{bold}sum of runtimes $[\unit{\hour}]$} -->
     <g transform="translate(7.785923 138.304684) rotate(-90) scale(0.09 -0.09)">
      <defs>
       <path id="RobotoCondensed-Bold-73" d="M 1818 907 
C 1818 694 1702 585 1466 585 
C 1306 585 1197 623 1133 707 
C 1062 784 1030 899 1024 1054 
L 179 1054 
C 179 854 237 668 346 495 
C 454 321 602 180 794 84 
C 979 -13 1197 -64 1446 -64 
C 1811 -64 2112 26 2336 212 
C 2560 398 2675 642 2675 944 
C 2675 1208 2598 1420 2451 1587 
C 2304 1747 2048 1895 1690 2030 
C 1440 2139 1286 2216 1222 2274 
C 1152 2332 1120 2396 1120 2473 
C 1120 2583 1152 2666 1210 2724 
C 1267 2782 1344 2807 1440 2807 
C 1670 2807 1786 2672 1786 2396 
L 2669 2396 
C 2669 2717 2560 2974 2336 3167 
C 2112 3360 1818 3456 1446 3456 
C 1094 3456 806 3360 595 3166 
C 384 2967 275 2722 275 2426 
C 275 2188 346 1995 480 1834 
C 614 1673 864 1519 1229 1371 
C 1478 1261 1638 1177 1709 1119 
C 1779 1055 1818 984 1818 907 
z
" transform="scale(0.015625)"/>
       <path id="RobotoCondensed-Bold-75" d="M 1984 308 
L 2010 0 
L 2842 0 
L 2842 3392 
L 1952 3392 
L 1952 938 
C 1856 764 1709 675 1510 675 
C 1299 675 1190 842 1184 1171 
L 1184 3392 
L 301 3392 
L 301 1195 
C 301 784 384 469 544 257 
C 704 45 934 -64 1248 -64 
C 1555 -64 1798 58 1984 308 
z
" transform="scale(0.015625)"/>
       <path id="RobotoCondensed-Bold-6d" d="M 1152 3392 
L 326 3392 
L 326 0 
L 1210 0 
L 1210 2467 
C 1299 2627 1421 2711 1574 2711 
C 1709 2711 1798 2666 1850 2583 
C 1901 2493 1926 2351 1926 2159 
L 1926 0 
L 2810 0 
L 2810 2300 
L 2803 2409 
C 2886 2608 3008 2711 3174 2711 
C 3302 2711 3392 2672 3450 2589 
C 3507 2505 3533 2364 3533 2165 
L 3533 0 
L 4416 0 
L 4416 2223 
C 4403 3045 4102 3456 3507 3456 
C 3142 3456 2867 3302 2675 3000 
C 2541 3302 2304 3456 1965 3456 
C 1638 3456 1376 3328 1178 3077 
L 1152 3392 
z
" transform="scale(0.015625)"/>
       <path id="RobotoCondensed-Bold-6f" d="M 218 1805 
L 218 1593 
C 218 1073 339 662 582 373 
C 819 84 1158 -64 1594 -64 
C 2022 -64 2362 84 2598 373 
C 2835 662 2957 1066 2957 1587 
L 2957 1799 
C 2957 2319 2835 2724 2598 3019 
C 2355 3308 2016 3456 1587 3456 
C 1158 3456 819 3308 582 3019 
C 339 2724 218 2319 218 1805 
z
M 1107 1587 
L 1107 1805 
C 1107 2120 1152 2351 1235 2499 
C 1318 2647 1440 2717 1587 2717 
C 1741 2717 1862 2640 1946 2493 
C 2029 2345 2074 2114 2074 1805 
L 2074 1433 
C 2054 925 1894 675 1594 675 
C 1267 675 1107 976 1107 1587 
z
" transform="scale(0.015625)"/>
       <path id="RobotoCondensed-Bold-66" d="M 525 32 
L 1414 32 
L 1414 2752 
L 1939 2752 
L 1939 3420 
L 1414 3420 
L 1414 3692 
C 1408 4002 1542 4160 1805 4160 
C 1888 4153 1965 4147 2022 4128 
L 2029 4834 
C 1862 4879 1728 4898 1626 4898 
C 1286 4898 1018 4797 819 4592 
C 621 4382 525 4096 525 3726 
L 525 3420 
L 115 3420 
L 115 2752 
L 525 2752 
L 525 32 
z
" transform="scale(0.015625)"/>
       <path id="RobotoCondensed-Bold-72" d="M 1990 2537 
L 1997 3418 
C 1926 3443 1850 3456 1754 3456 
C 1510 3456 1318 3315 1178 3026 
L 1152 3392 
L 320 3392 
L 320 0 
L 1203 0 
L 1203 2242 
C 1286 2454 1453 2563 1696 2563 
L 1990 2537 
z
" transform="scale(0.015625)"/>
       <path id="RobotoCondensed-Bold-6e" d="M 1133 3392 
L 301 3392 
L 301 0 
L 1190 0 
L 1190 2467 
C 1274 2627 1402 2711 1562 2711 
C 1709 2711 1811 2666 1869 2583 
C 1926 2499 1952 2358 1952 2165 
L 1952 0 
L 2835 0 
L 2835 2229 
C 2816 3045 2522 3456 1939 3456 
C 1619 3456 1357 3321 1158 3058 
L 1133 3392 
z
" transform="scale(0.015625)"/>
       <path id="RobotoCondensed-Bold-74" d="M 1350 4256 
L 467 4256 
L 467 3420 
L 77 3420 
L 77 2752 
L 467 2752 
L 467 956 
C 474 295 762 -32 1331 -32 
C 1504 -32 1670 -7 1818 51 
L 1824 744 
C 1766 725 1696 718 1613 718 
C 1510 718 1440 744 1408 795 
C 1370 847 1350 937 1350 1071 
L 1350 2752 
L 1805 2752 
L 1805 3420 
L 1350 3420 
L 1350 4256 
z
" transform="scale(0.015625)"/>
       <path id="RobotoCondensed-Bold-69" d="M 1248 0 
L 1248 3392 
L 365 3392 
L 365 0 
L 1248 0 
z
M 320 4267 
C 320 4132 365 4017 454 3927 
C 538 3837 659 3792 806 3792 
C 954 3792 1069 3837 1158 3927 
C 1242 4017 1286 4132 1286 4267 
C 1286 4402 1242 4518 1158 4608 
C 1069 4691 954 4736 806 4736 
C 659 4736 538 4691 454 4608 
C 365 4518 320 4402 320 4267 
z
" transform="scale(0.015625)"/>
       <path id="RobotoCondensed-Bold-65" d="M 1690 -64 
C 1933 -64 2157 -19 2362 77 
C 2566 173 2720 297 2829 444 
L 2483 980 
C 2285 778 2035 675 1741 675 
C 1542 675 1389 733 1293 850 
C 1197 967 1139 1155 1126 1408 
L 2886 1408 
L 2886 1843 
C 2880 2375 2771 2778 2560 3053 
C 2349 3322 2029 3456 1600 3456 
C 1158 3456 826 3308 595 3019 
C 358 2730 243 2313 243 1779 
L 243 1510 
C 243 1002 371 617 627 347 
C 883 71 1235 -64 1690 -64 
z
M 1133 2025 
C 1146 2266 1184 2444 1254 2552 
C 1325 2661 1434 2717 1594 2717 
C 1747 2717 1856 2667 1920 2565 
C 1978 2457 2010 2305 2016 2108 
L 2016 2025 
L 1133 2025 
z
" transform="scale(0.015625)"/>
       <path id="txbsys-bb" d="M 1914 -928 
L 1555 -928 
C 1344 -928 1242 -819 1242 -595 
L 1242 3974 
C 1242 4173 1325 4256 1530 4256 
L 1914 4256 
L 1914 4544 
L 563 4544 
L 563 -1216 
L 1914 -1216 
L 1914 -928 
z
" transform="scale(0.015625)"/>
       <path id="NotoSerif-Bold-68" d="M 128 0 
L 2093 0 
L 2093 340 
L 2074 340 
C 1933 340 1824 365 1741 410 
C 1658 462 1619 577 1619 755 
L 1613 1978 
C 1613 2151 1632 2317 1664 2471 
C 1696 2618 1754 2739 1837 2829 
C 1920 2925 2029 2970 2170 2970 
C 2355 2970 2490 2893 2566 2745 
C 2643 2599 2682 2381 2682 2105 
L 2682 0 
L 4102 0 
L 4102 340 
L 4083 340 
C 3936 340 3827 365 3763 423 
C 3686 473 3654 595 3654 793 
L 3654 2274 
C 3654 2702 3558 3015 3373 3213 
C 3187 3410 2925 3507 2598 3507 
C 2464 3507 2342 3507 2227 3482 
C 2106 3469 1997 3417 1894 3347 
C 1798 3276 1702 3156 1619 2995 
L 1562 2995 
L 1574 3130 
C 1581 3220 1594 3328 1600 3456 
C 1606 3578 1613 3700 1613 3808 
L 1613 4864 
L 109 4864 
L 109 4525 
L 186 4525 
C 243 4525 307 4518 384 4499 
C 448 4480 512 4448 563 4390 
C 614 4332 640 4250 640 4134 
L 646 781 
C 646 590 602 468 499 417 
C 410 365 288 340 141 340 
L 128 340 
L 128 0 
z
" transform="scale(0.015625)"/>
       <path id="txbsys-bc" d="M 256 -928 
L 256 -1216 
L 1606 -1216 
L 1606 4544 
L 256 4544 
L 256 4256 
L 640 4256 
C 845 4256 928 4173 928 3974 
L 928 -595 
C 928 -819 826 -928 614 -928 
L 256 -928 
z
" transform="scale(0.015625)"/>
      </defs>
      <use xlink:href="#RobotoCondensed-Bold-73" transform="scale(0.946448)"/>
      <use xlink:href="#RobotoCondensed-Bold-75" transform="translate(42.968765 0) scale(0.946448)"/>
      <use xlink:href="#RobotoCondensed-Bold-6d" transform="translate(89.533953 0) scale(0.946448)"/>
      <use xlink:href="#RobotoCondensed-Bold-6f" transform="translate(181.433987 0) scale(0.946448)"/>
      <use xlink:href="#RobotoCondensed-Bold-66" transform="translate(228.472406 0) scale(0.946448)"/>
      <use xlink:href="#RobotoCondensed-Bold-72" transform="translate(281.189467 0) scale(0.946448)"/>
      <use xlink:href="#RobotoCondensed-Bold-75" transform="translate(312.516904 0) scale(0.946448)"/>
      <use xlink:href="#RobotoCondensed-Bold-6e" transform="translate(359.082092 0) scale(0.946448)"/>
      <use xlink:href="#RobotoCondensed-Bold-74" transform="translate(405.64728 0) scale(0.946448)"/>
      <use xlink:href="#RobotoCondensed-Bold-69" transform="translate(434.703237 0) scale(0.946448)"/>
      <use xlink:href="#RobotoCondensed-Bold-6d" transform="translate(458.459108 0) scale(0.946448)"/>
      <use xlink:href="#RobotoCondensed-Bold-65" transform="translate(528.590889 0) scale(0.946448)"/>
      <use xlink:href="#RobotoCondensed-Bold-73" transform="translate(573.831059 0) scale(0.946448)"/>
      <use xlink:href="#txbsys-bb" transform="translate(638.568077 0) scale(1.01519)"/>
      <use xlink:href="#NotoSerif-Bold-68" transform="translate(672.982997 0) scale(0.913673)"/>
      <use xlink:href="#txbsys-bc" transform="translate(733.924936 0) scale(1.01519)"/>
     </g>
     <!-- {\scalefont{.88}(all instances, incl. unsolved)} -->
     <g transform="translate(17.241833 146.824075) rotate(-90) scale(0.09 -0.09)">
      <defs>
       <path id="RobotoCondensed-Regular-28" d="M 403 1857 
C 403 809 653 -84 1146 -835 
C 1344 -1131 1536 -1343 1728 -1471 
L 1837 -1118 
C 1613 -887 1427 -559 1267 -135 
C 1056 430 954 1079 954 1818 
L 960 2069 
C 973 2660 1062 3199 1222 3687 
C 1382 4169 1587 4535 1837 4773 
L 1728 5152 
C 1581 5049 1421 4889 1254 4670 
C 979 4304 774 3887 627 3405 
C 480 2923 403 2403 403 1857 
z
" transform="scale(0.015625)"/>
       <path id="RobotoCondensed-Regular-2c" d="M 416 -895 
C 576 -767 704 -593 806 -381 
C 909 -169 960 36 960 248 
L 960 704 
L 397 704 
L 397 178 
C 390 -111 288 -388 90 -664 
L 416 -895 
z
" transform="scale(0.015625)"/>
       <path id="RobotoCondensed-Regular-75" d="M 2138 296 
L 2150 0 
L 2675 0 
L 2675 3392 
L 2125 3392 
L 2125 880 
C 1997 574 1766 424 1427 424 
C 1114 424 954 687 954 1221 
L 954 3392 
L 403 3392 
L 403 1182 
C 403 777 480 469 640 257 
C 794 45 1024 -64 1331 -64 
C 1683 -64 1952 58 2138 296 
z
" transform="scale(0.015625)"/>
       <path id="RobotoCondensed-Regular-29" d="M 1600 1824 
C 1600 2807 1382 3668 941 4394 
C 730 4747 506 4998 275 5152 
L 166 4799 
C 352 4606 512 4336 659 3996 
C 922 3373 1050 2660 1050 1863 
L 1050 1747 
C 1043 1124 966 559 806 39 
C 646 -482 429 -867 166 -1118 
L 275 -1471 
C 518 -1311 755 -1041 979 -655 
C 1395 64 1600 893 1600 1824 
z
" transform="scale(0.015625)"/>
      </defs>
      <use xlink:href="#RobotoCondensed-Regular-28" transform="scale(0.832879)"/>
      <use xlink:href="#RobotoCondensed-Regular-61" transform="translate(26.069065 0) scale(0.832879)"/>
      <use xlink:href="#RobotoCondensed-Regular-6c" transform="translate(65.963954 0) scale(0.832879)"/>
      <use xlink:href="#RobotoCondensed-Regular-6c" transform="translate(85.03687 0) scale(0.832879)"/>
      <use xlink:href="#RobotoCondensed-Regular-69" transform="translate(123.182703 0) scale(0.832879)"/>
      <use xlink:href="#RobotoCondensed-Regular-6e" transform="translate(142.255619 0) scale(0.832879)"/>
      <use xlink:href="#RobotoCondensed-Regular-73" transform="translate(182.483625 0) scale(0.832879)"/>
      <use xlink:href="#RobotoCondensed-Regular-74" transform="translate(220.379585 0) scale(0.832879)"/>
      <use xlink:href="#RobotoCondensed-Regular-61" transform="translate(244.949497 0) scale(0.832879)"/>
      <use xlink:href="#RobotoCondensed-Regular-6e" transform="translate(284.844385 0) scale(0.832879)"/>
      <use xlink:href="#RobotoCondensed-Regular-63" transform="translate(325.072391 0) scale(0.832879)"/>
      <use xlink:href="#RobotoCondensed-Regular-65" transform="translate(363.468126 0) scale(0.832879)"/>
      <use xlink:href="#RobotoCondensed-Regular-73" transform="translate(402.446864 0) scale(0.832879)"/>
      <use xlink:href="#RobotoCondensed-Regular-2c" transform="translate(440.342825 0) scale(0.832879)"/>
      <use xlink:href="#RobotoCondensed-Regular-69" transform="translate(475.74016 0) scale(0.832879)"/>
      <use xlink:href="#RobotoCondensed-Regular-6e" transform="translate(494.813076 0) scale(0.832879)"/>
      <use xlink:href="#RobotoCondensed-Regular-63" transform="translate(535.041081 0) scale(0.832879)"/>
      <use xlink:href="#RobotoCondensed-Regular-6c" transform="translate(573.436816 0) scale(0.832879)"/>
      <use xlink:href="#RobotoCondensed-Regular-2e" transform="translate(592.509732 0) scale(0.832879)"/>
      <use xlink:href="#RobotoCondensed-Regular-75" transform="translate(636.668934 0) scale(0.832879)"/>
      <use xlink:href="#RobotoCondensed-Regular-6e" transform="translate(676.896939 0) scale(0.832879)"/>
      <use xlink:href="#RobotoCondensed-Regular-73" transform="translate(717.124945 0) scale(0.832879)"/>
      <use xlink:href="#RobotoCondensed-Regular-6f" transform="translate(755.020905 0) scale(0.832879)"/>
      <use xlink:href="#RobotoCondensed-Regular-6c" transform="translate(796.748156 0) scale(0.832879)"/>
      <use xlink:href="#RobotoCondensed-Regular-76" transform="translate(815.821073 0) scale(0.832879)"/>
      <use xlink:href="#RobotoCondensed-Regular-65" transform="translate(850.885291 0) scale(0.832879)"/>
      <use xlink:href="#RobotoCondensed-Regular-64" transform="translate(889.864029 0) scale(0.832879)"/>
      <use xlink:href="#RobotoCondensed-Regular-29" transform="translate(931.174827 0) scale(0.832879)"/>
     </g>
    </g>
   </g>
   <g id="patch_3">
    <path d="M 52.797603 173.821462 
L 71.330403 173.821462 
L 71.330403 173.798238 
L 52.797603 173.798238 
z
" clip-path="url(#p5c3b41fb1e)" style="fill: #d9e482; opacity: 0.93"/>
   </g>
   <g id="patch_4">
    <path d="M 76.557603 173.821462 
L 95.090403 173.821462 
L 95.090403 173.798372 
L 76.557603 173.798372 
z
" clip-path="url(#p5c3b41fb1e)" style="fill: #d9e482; opacity: 0.93"/>
   </g>
   <g id="patch_5">
    <path d="M 100.317603 173.821462 
L 118.850403 173.821462 
L 118.850403 173.798428 
L 100.317603 173.798428 
z
" clip-path="url(#p5c3b41fb1e)" style="fill: #d9e482; opacity: 0.93"/>
   </g>
   <g id="patch_6">
    <path d="M 52.797603 173.798238 
L 71.330403 173.798238 
L 71.330403 171.035242 
L 52.797603 171.035242 
z
" clip-path="url(#p5c3b41fb1e)" style="fill: #6692c2; opacity: 0.93"/>
   </g>
   <g id="patch_7">
    <path d="M 76.557603 173.798372 
L 95.090403 173.798372 
L 95.090403 170.913654 
L 76.557603 170.913654 
z
" clip-path="url(#p5c3b41fb1e)" style="fill: #6692c2; opacity: 0.93"/>
   </g>
   <g id="patch_8">
    <path d="M 100.317603 173.798428 
L 118.850403 173.798428 
L 118.850403 171.004567 
L 100.317603 171.004567 
z
" clip-path="url(#p5c3b41fb1e)" style="fill: #6692c2; opacity: 0.93"/>
   </g>
   <g id="patch_9">
    <path d="M 52.797603 171.035242 
L 71.330403 171.035242 
L 71.330403 89.45081 
L 52.797603 89.45081 
z
" clip-path="url(#p5c3b41fb1e)" style="fill: #00438a; opacity: 0.93"/>
   </g>
   <g id="patch_10">
    <path d="M 76.557603 170.913654 
L 95.090403 170.913654 
L 95.090403 51.863302 
L 76.557603 51.863302 
z
" clip-path="url(#p5c3b41fb1e)" style="fill: #00438a; opacity: 0.93"/>
   </g>
   <g id="patch_11">
    <path d="M 100.317603 171.004567 
L 118.850403 171.004567 
L 118.850403 40.646662 
L 100.317603 40.646662 
z
" clip-path="url(#p5c3b41fb1e)" style="fill: #00438a; opacity: 0.93"/>
   </g>
   <g id="patch_12">
    <path d="M 44.244003 173.821462 
L 127.404003 173.821462 
" style="fill: none; stroke: #000000; stroke-width: 0.8; stroke-linejoin: miter; stroke-linecap: square"/>
   </g>
   <g id="text_11">
    <!-- $1920$ -->
    <g style="fill: #ffffff" transform="translate(64.008174 173.821462) rotate(-90) scale(0.07497 -0.07497)">
     <use xlink:href="#NotoSerif-Regular-31" transform="scale(0.913673)"/>
     <use xlink:href="#NotoSerif-Regular-39" transform="translate(51.074295 0) scale(0.913673)"/>
     <use xlink:href="#NotoSerif-Regular-32" transform="translate(102.14859 0) scale(0.913673)"/>
     <use xlink:href="#NotoSerif-Regular-30" transform="translate(153.222884 0) scale(0.913673)"/>
    </g>
   </g>
   <g id="text_12">
    <!-- $1920$ -->
    <g style="fill: #ffffff" transform="translate(87.768174 173.821462) rotate(-90) scale(0.07497 -0.07497)">
     <use xlink:href="#NotoSerif-Regular-31" transform="scale(0.913673)"/>
     <use xlink:href="#NotoSerif-Regular-39" transform="translate(51.074295 0) scale(0.913673)"/>
     <use xlink:href="#NotoSerif-Regular-32" transform="translate(102.14859 0) scale(0.913673)"/>
     <use xlink:href="#NotoSerif-Regular-30" transform="translate(153.222884 0) scale(0.913673)"/>
    </g>
   </g>
   <g id="text_13">
    <!-- $1920$ -->
    <g style="fill: #ffffff" transform="translate(111.528174 173.821462) rotate(-90) scale(0.07497 -0.07497)">
     <use xlink:href="#NotoSerif-Regular-31" transform="scale(0.913673)"/>
     <use xlink:href="#NotoSerif-Regular-39" transform="translate(51.074295 0) scale(0.913673)"/>
     <use xlink:href="#NotoSerif-Regular-32" transform="translate(102.14859 0) scale(0.913673)"/>
     <use xlink:href="#NotoSerif-Regular-30" transform="translate(153.222884 0) scale(0.913673)"/>
    </g>
   </g>
   <g id="legend_1">
    <g id="patch_13">
     <path d="M 135.954003 96.938052 
L 143.154003 96.938052 
L 143.154003 90.638052 
L 135.954003 90.638052 
z
" style="fill: #00438a; opacity: 0.93"/>
    </g>
    <g id="text_14">
     <!-- optimize -->
     <g transform="translate(150.201359 97.549641) rotate(-50) scale(0.09 -0.09)">
      <defs>
       <path id="RobotoCondensed-Regular-70" d="M 2854 1576 
L 2854 1944 
C 2848 2465 2758 2851 2573 3116 
C 2387 3374 2112 3502 1741 3502 
C 1389 3502 1126 3353 941 3063 
L 915 3416 
L 416 3416 
L 416 -1280 
L 966 -1280 
L 966 358 
C 1146 101 1408 -27 1747 -27 
C 2099 -27 2374 108 2566 372 
C 2758 636 2854 1042 2854 1576 
z
M 2304 1892 
L 2304 1551 
C 2304 1177 2246 900 2131 719 
C 2010 538 1824 448 1574 448 
C 1306 448 1101 577 966 841 
L 966 2608 
C 1101 2873 1306 3008 1568 3008 
C 1830 3008 2016 2918 2131 2737 
C 2246 2556 2304 2272 2304 1892 
z
" transform="scale(0.015625)"/>
       <path id="RobotoCondensed-Regular-6d" d="M 934 3392 
L 416 3392 
L 416 0 
L 966 0 
L 966 2544 
C 1082 2820 1280 2962 1555 2962 
C 1933 2962 2125 2725 2131 2256 
L 2131 0 
L 2682 0 
L 2682 2275 
C 2701 2474 2758 2640 2867 2769 
C 2970 2897 3104 2962 3270 2962 
C 3482 2962 3629 2904 3718 2788 
C 3802 2666 3846 2486 3846 2236 
L 3846 0 
L 4397 0 
L 4397 2287 
C 4384 3064 4064 3456 3443 3456 
C 3066 3456 2765 3289 2554 2962 
C 2400 3289 2138 3456 1760 3456 
C 1421 3456 1152 3328 947 3078 
L 934 3392 
z
" transform="scale(0.015625)"/>
       <path id="RobotoCondensed-Regular-7a" d="M 928 475 
L 2496 2981 
L 2496 3392 
L 307 3392 
L 307 2917 
L 1843 2917 
L 294 424 
L 294 0 
L 2554 0 
L 2554 475 
L 928 475 
z
" transform="scale(0.015625)"/>
      </defs>
      <use xlink:href="#RobotoCondensed-Regular-6f" transform="scale(0.946448)"/>
      <use xlink:href="#RobotoCondensed-Regular-70" transform="translate(47.417065 0) scale(0.946448)"/>
      <use xlink:href="#RobotoCondensed-Regular-74" transform="translate(94.07693 0) scale(0.946448)"/>
      <use xlink:href="#RobotoCondensed-Regular-69" transform="translate(121.997131 0) scale(0.946448)"/>
      <use xlink:href="#RobotoCondensed-Regular-6d" transform="translate(143.670784 0) scale(0.946448)"/>
      <use xlink:href="#RobotoCondensed-Regular-69" transform="translate(214.843628 0) scale(0.946448)"/>
      <use xlink:href="#RobotoCondensed-Regular-7a" transform="translate(236.517281 0) scale(0.946448)"/>
      <use xlink:href="#RobotoCondensed-Regular-65" transform="translate(277.214459 0) scale(0.946448)"/>
     </g>
    </g>
    <g id="patch_14">
     <path d="M 135.954003 116.922979 
L 143.154003 116.922979 
L 143.154003 110.622979 
L 135.954003 110.622979 
z
" style="fill: #6692c2; opacity: 0.93"/>
    </g>
    <g id="text_15">
     <!-- modeling -->
     <g transform="translate(150.201359 117.56804) rotate(-50) scale(0.09 -0.09)">
      <use xlink:href="#RobotoCondensed-Regular-6d" transform="scale(0.946448)"/>
      <use xlink:href="#RobotoCondensed-Regular-6f" transform="translate(71.172845 0) scale(0.946448)"/>
      <use xlink:href="#RobotoCondensed-Regular-64" transform="translate(118.58991 0) scale(0.946448)"/>
      <use xlink:href="#RobotoCondensed-Regular-65" transform="translate(165.533744 0) scale(0.946448)"/>
      <use xlink:href="#RobotoCondensed-Regular-6c" transform="translate(209.827527 0) scale(0.946448)"/>
      <use xlink:href="#RobotoCondensed-Regular-69" transform="translate(231.501179 0) scale(0.946448)"/>
      <use xlink:href="#RobotoCondensed-Regular-6e" transform="translate(253.174831 0) scale(0.946448)"/>
      <use xlink:href="#RobotoCondensed-Regular-67" transform="translate(298.888233 0) scale(0.946448)"/>
     </g>
    </g>
    <g id="patch_15">
     <path d="M 135.954003 134.464162 
L 143.154003 134.464162 
L 143.154003 128.164162 
L 135.954003 128.164162 
z
" style="fill: #d9e482; opacity: 0.93"/>
    </g>
    <g id="text_16">
     <!-- route pp -->
     <g transform="translate(150.201359 135.075751) rotate(-50) scale(0.09 -0.09)">
      <defs>
       <path id="RobotoCondensed-Regular-72" d="M 1811 2871 
L 1805 3411 
C 1747 3443 1677 3456 1587 3456 
C 1318 3456 1107 3321 960 3051 
L 947 3392 
L 410 3392 
L 410 0 
L 966 0 
L 966 2428 
C 1082 2743 1280 2897 1562 2897 
C 1651 2891 1734 2883 1811 2871 
z
" transform="scale(0.015625)"/>
      </defs>
      <use xlink:href="#RobotoCondensed-Regular-72" transform="scale(0.946448)"/>
      <use xlink:href="#RobotoCondensed-Regular-6f" transform="translate(27.82551 0) scale(0.946448)"/>
      <use xlink:href="#RobotoCondensed-Regular-75" transform="translate(75.242575 0) scale(0.946448)"/>
      <use xlink:href="#RobotoCondensed-Regular-74" transform="translate(120.955976 0) scale(0.946448)"/>
      <use xlink:href="#RobotoCondensed-Regular-65" transform="translate(148.876178 0) scale(0.946448)"/>
      <use xlink:href="#RobotoCondensed-Regular-70" transform="translate(214.843613 0) scale(0.946448)"/>
      <use xlink:href="#RobotoCondensed-Regular-70" transform="translate(261.503478 0) scale(0.946448)"/>
     </g>
    </g>
   </g>
  </g>
 </g>
 <defs>
  <clipPath id="p5c3b41fb1e">
   <rect x="44.244003" y="33.637462" width="83.16" height="140.184"/>
  </clipPath>
 </defs>
</svg>
