<?xml version="1.0" encoding="utf-8" standalone="no"?>
<!DOCTYPE svg PUBLIC "-//W3C//DTD SVG 1.1//EN"
  "http://www.w3.org/Graphics/SVG/1.1/DTD/svg11.dtd">
<svg xmlns:xlink="http://www.w3.org/1999/xlink" width="231.083701pt" height="143.472188pt" viewBox="0 0 231.083701 143.472188" xmlns="http://www.w3.org/2000/svg" version="1.1">
 <metadata>
  <rdf:RDF xmlns:dc="http://purl.org/dc/elements/1.1/" xmlns:cc="http://creativecommons.org/ns#" xmlns:rdf="http://www.w3.org/1999/02/22-rdf-syntax-ns#">
   <cc:Work>
    <dc:type rdf:resource="http://purl.org/dc/dcmitype/StillImage"/>
    <dc:date>2024-10-24T00:57:00.991427</dc:date>
    <dc:format>image/svg+xml</dc:format>
    <dc:creator>
     <cc:Agent>
      <dc:title>Matplotlib v3.8.3, https://matplotlib.org/</dc:title>
     </cc:Agent>
    </dc:creator>
   </cc:Work>
  </rdf:RDF>
 </metadata>
 <defs>
  <style type="text/css">*{stroke-linejoin: round; stroke-linecap: butt}</style>
 </defs>
 <g id="figure_1">
  <g id="patch_1">
   <path d="M 0 143.472188 
L 231.083701 143.472188 
L 231.083701 0 
L 0 0 
z
" style="fill: #ffffff"/>
  </g>
  <g id="axes_1">
   <g id="patch_2">
    <path d="M 37.179424 101.989816 
L 125.772544 101.989816 
L 125.772544 8.533816 
L 37.179424 8.533816 
z
" style="fill: #ececec"/>
   </g>
   <g id="matplotlib.axis_1">
    <g id="xtick_1">
     <g id="text_1">
      <!-- $1.5$ -->
      <g transform="translate(38.476668 111.869807) scale(0.09 -0.09)">
       <defs>
        <path id="NotoSerif-Regular-31" d="M 614 0 
L 3053 0 
L 3053 271 
L 2739 271 
C 2592 271 2470 297 2368 348 
C 2266 406 2214 536 2214 736 
L 2214 4640 
L 1805 4640 
L 1357 4303 
C 1146 4142 973 4031 832 3960 
C 685 3888 550 3837 422 3805 
C 422 3701 454 3618 512 3553 
C 570 3489 646 3456 742 3456 
C 870 3456 998 3521 1126 3644 
C 1261 3767 1408 3928 1568 4129 
L 1568 736 
C 1568 536 1517 406 1414 348 
C 1312 297 1190 271 1043 271 
L 614 271 
L 614 0 
z
" transform="scale(0.015625)"/>
        <path id="NotoMathMI-93" d="M 717 -64 
C 813 -64 896 -39 973 19 
C 1050 76 1082 185 1082 326 
C 1082 473 1050 582 973 633 
C 896 691 813 716 717 716 
C 621 716 538 691 461 633 
C 390 582 358 473 358 326 
C 358 185 390 76 461 19 
C 538 -39 621 -64 717 -64 
z
" transform="scale(0.015625)"/>
        <path id="NotoSerif-Regular-35" d="M 1562 -64 
C 1888 -64 2170 0 2400 115 
C 2630 243 2803 411 2931 629 
C 3046 853 3110 1109 3110 1399 
C 3110 1700 3046 1950 2918 2155 
C 2790 2348 2618 2502 2394 2605 
C 2176 2700 1926 2752 1651 2752 
C 1466 2752 1306 2739 1184 2720 
C 1062 2694 966 2668 902 2649 
L 1024 4092 
L 2266 4092 
C 2400 4092 2490 4072 2534 4026 
C 2573 3981 2598 3916 2611 3824 
L 2637 3628 
L 2906 3628 
L 2874 4608 
L 736 4608 
L 531 2301 
L 685 2256 
C 768 2288 864 2320 973 2352 
C 1082 2385 1248 2397 1472 2397 
C 1766 2397 2003 2315 2176 2154 
C 2355 1988 2445 1737 2445 1399 
C 2445 1130 2406 918 2330 758 
C 2246 598 2138 489 1997 418 
C 1862 348 1702 316 1530 316 
C 1267 316 1075 380 947 502 
C 819 623 755 777 755 963 
C 621 963 518 931 448 860 
C 384 797 352 706 352 584 
C 352 488 384 391 461 296 
C 525 192 653 109 826 39 
C 998 -32 1248 -64 1562 -64 
z
" transform="scale(0.015625)"/>
       </defs>
       <use xlink:href="#NotoSerif-Regular-31" transform="scale(0.913673)"/>
       <use xlink:href="#NotoMathMI-93" transform="translate(52.698575 0) scale(1.01519)"/>
       <use xlink:href="#NotoSerif-Regular-35" transform="translate(77.266236 0) scale(0.913673)"/>
      </g>
      <!-- {\scalefont{.88}$(0.70)$} -->
      <g transform="translate(34.06768 119.706713) scale(0.09 -0.09)">
       <defs>
        <path id="txsys-b9" d="M 1888 4589 
C 960 3987 307 2950 307 1645 
C 307 454 986 -749 1869 -1293 
L 1946 -1190 
C 1101 -525 858 250 858 1664 
C 858 3085 1120 3821 1946 4486 
L 1888 4589 
z
" transform="scale(0.015625)"/>
        <path id="NotoSerif-Regular-30" d="M 1792 -64 
C 2131 -64 2406 32 2624 232 
C 2848 432 3014 710 3123 1058 
C 3232 1419 3290 1833 3290 2310 
C 3290 2787 3238 3201 3123 3562 
C 3021 3910 2854 4189 2630 4382 
C 2406 4575 2131 4672 1798 4672 
C 1446 4672 1158 4575 934 4382 
C 710 4189 550 3917 448 3562 
C 339 3207 288 2794 288 2317 
C 288 1840 339 1419 448 1065 
C 550 710 710 432 934 232 
C 1158 32 1440 -64 1792 -64 
z
M 1792 284 
C 1478 284 1261 464 1139 820 
C 1018 1174 954 1671 954 2310 
C 954 2950 1018 3446 1139 3794 
C 1267 4150 1485 4324 1798 4324 
C 2106 4324 2317 4150 2445 3794 
C 2560 3446 2624 2950 2624 2310 
C 2624 1671 2560 1174 2445 820 
C 2317 464 2106 284 1792 284 
z
" transform="scale(0.015625)"/>
        <path id="NotoSerif-Regular-37" d="M 1126 0 
L 1696 0 
L 3270 4425 
L 3270 4612 
L 410 4612 
L 378 3444 
L 646 3444 
L 672 3766 
C 691 3986 819 4096 1043 4096 
L 2637 4096 
L 1126 0 
z
" transform="scale(0.015625)"/>
        <path id="txsys-ba" d="M 243 4589 
L 186 4486 
C 1011 3821 1274 3085 1274 1664 
C 1274 250 1030 -525 186 -1190 
L 262 -1293 
C 1146 -749 1824 454 1824 1645 
C 1824 2950 1171 3987 243 4589 
z
" transform="scale(0.015625)"/>
       </defs>
       <use xlink:href="#txsys-b9" transform="scale(0.893372)"/>
       <use xlink:href="#NotoSerif-Regular-30" transform="translate(33.322793 0) scale(0.804036)"/>
       <use xlink:href="#NotoMathMI-93" transform="translate(79.697792 0) scale(0.893372)"/>
       <use xlink:href="#NotoSerif-Regular-37" transform="translate(101.317462 0) scale(0.804036)"/>
       <use xlink:href="#NotoSerif-Regular-30" transform="translate(146.263098 0) scale(0.804036)"/>
       <use xlink:href="#txsys-ba" transform="translate(191.208733 0) scale(0.893372)"/>
      </g>
     </g>
    </g>
    <g id="xtick_2">
     <g id="text_2">
      <!-- $3.0$ -->
      <g transform="translate(75.700668 111.869807) scale(0.09 -0.09)">
       <defs>
        <path id="NotoSerif-Regular-33" d="M 1581 -64 
C 1766 -64 1952 -39 2138 6 
C 2330 53 2509 130 2669 234 
C 2829 344 2963 487 3059 662 
C 3155 843 3206 1063 3206 1322 
C 3206 1536 3168 1718 3091 1854 
C 3014 1997 2918 2113 2790 2198 
C 2675 2282 2541 2346 2406 2386 
C 2272 2431 2144 2457 2022 2470 
C 2221 2515 2394 2597 2547 2707 
C 2701 2823 2822 2964 2912 3118 
C 3002 3285 3046 3458 3046 3651 
C 3046 3979 2925 4229 2675 4402 
C 2432 4582 2106 4672 1702 4672 
C 1286 4672 973 4588 768 4428 
C 550 4268 448 4062 448 3811 
C 448 3651 499 3541 608 3478 
C 717 3426 845 3394 998 3394 
C 998 3567 1018 3721 1050 3863 
C 1088 4010 1158 4125 1261 4215 
C 1363 4305 1510 4350 1702 4350 
C 1952 4350 2125 4279 2227 4144 
C 2336 4004 2387 3805 2387 3554 
C 2387 3355 2342 3176 2253 3028 
C 2163 2880 2042 2765 1894 2681 
C 1741 2598 1568 2560 1382 2560 
L 1178 2560 
L 1178 2231 
L 1382 2231 
C 1741 2231 2022 2146 2227 1984 
C 2438 1822 2541 1602 2541 1329 
C 2541 1069 2496 862 2406 712 
C 2317 563 2202 452 2061 388 
C 1914 316 1760 284 1587 284 
C 1325 284 1126 361 986 504 
C 845 660 774 842 774 1069 
C 653 1069 557 1030 486 959 
C 410 887 371 784 371 654 
C 371 466 467 299 659 156 
C 851 6 1158 -64 1581 -64 
z
" transform="scale(0.015625)"/>
       </defs>
       <use xlink:href="#NotoSerif-Regular-33" transform="scale(0.913673)"/>
       <use xlink:href="#NotoMathMI-93" transform="translate(52.698575 0) scale(1.01519)"/>
       <use xlink:href="#NotoSerif-Regular-30" transform="translate(77.266236 0) scale(0.913673)"/>
      </g>
      <!-- {\scalefont{.88}$(0.69)$} -->
      <g transform="translate(71.29168 119.706713) scale(0.09 -0.09)">
       <defs>
        <path id="NotoSerif-Regular-36" d="M 1875 -64 
C 2163 -64 2413 0 2618 130 
C 2822 266 2982 448 3085 682 
C 3200 915 3251 1181 3251 1487 
C 3251 1901 3136 2226 2906 2466 
C 2669 2699 2355 2816 1965 2816 
C 1754 2816 1574 2784 1434 2713 
C 1280 2642 1158 2565 1050 2481 
C 1069 3101 1165 3569 1331 3889 
C 1498 4202 1741 4363 2061 4363 
C 2266 4363 2413 4293 2496 4145 
C 2579 3998 2624 3826 2624 3615 
C 2950 3615 3117 3743 3117 3999 
C 3117 4172 3027 4332 2854 4467 
C 2682 4601 2413 4672 2061 4672 
C 1779 4672 1536 4608 1318 4479 
C 1114 4356 934 4182 800 3962 
C 666 3736 563 3485 493 3201 
C 422 2924 390 2626 390 2323 
C 390 1756 454 1297 589 942 
C 717 594 896 335 1114 181 
C 1344 13 1594 -64 1875 -64 
z
M 1894 290 
C 1638 290 1434 433 1280 712 
C 1133 992 1050 1461 1043 2110 
C 1126 2202 1242 2286 1382 2364 
C 1517 2449 1670 2487 1837 2487 
C 2086 2487 2272 2403 2406 2234 
C 2534 2065 2598 1792 2598 1421 
C 2598 1025 2534 739 2419 556 
C 2291 381 2118 290 1894 290 
z
" transform="scale(0.015625)"/>
        <path id="NotoSerif-Regular-39" d="M 1453 -64 
C 1766 -64 2029 7 2253 149 
C 2470 284 2650 478 2790 716 
C 2925 954 3027 1231 3091 1541 
C 3155 1844 3187 2166 3187 2507 
C 3187 3016 3123 3429 2995 3745 
C 2867 4060 2688 4298 2470 4446 
C 2240 4595 1984 4672 1696 4672 
C 1408 4672 1165 4608 960 4467 
C 755 4339 602 4146 486 3915 
C 384 3671 326 3402 326 3094 
C 326 2664 442 2337 678 2119 
C 915 1901 1216 1792 1587 1792 
C 1811 1792 2003 1837 2157 1927 
C 2310 2018 2432 2121 2528 2231 
C 2509 1575 2413 1089 2240 771 
C 2074 453 1811 291 1459 291 
C 1261 291 1101 342 986 446 
C 864 551 774 668 717 804 
C 672 785 627 752 589 693 
C 544 642 525 577 525 494 
C 525 402 550 318 602 227 
C 659 150 755 79 890 20 
C 1024 -38 1216 -64 1453 -64 
z
M 1728 2173 
C 1478 2173 1293 2249 1171 2403 
C 1050 2556 986 2807 986 3158 
C 986 3536 1050 3824 1178 4016 
C 1299 4222 1472 4317 1696 4317 
C 1946 4317 2144 4190 2291 3934 
C 2445 3677 2528 3261 2534 2691 
C 2477 2556 2381 2435 2246 2326 
C 2112 2224 1939 2173 1728 2173 
z
" transform="scale(0.015625)"/>
       </defs>
       <use xlink:href="#txsys-b9" transform="scale(0.893372)"/>
       <use xlink:href="#NotoSerif-Regular-30" transform="translate(33.322793 0) scale(0.804036)"/>
       <use xlink:href="#NotoMathMI-93" transform="translate(79.697792 0) scale(0.893372)"/>
       <use xlink:href="#NotoSerif-Regular-36" transform="translate(101.317462 0) scale(0.804036)"/>
       <use xlink:href="#NotoSerif-Regular-39" transform="translate(146.263098 0) scale(0.804036)"/>
       <use xlink:href="#txsys-ba" transform="translate(191.208733 0) scale(0.893372)"/>
      </g>
     </g>
    </g>
    <g id="xtick_3">
     <g id="text_3">
      <!-- $6.0$ -->
      <g transform="translate(112.924668 111.869807) scale(0.09 -0.09)">
       <use xlink:href="#NotoSerif-Regular-36" transform="scale(0.913673)"/>
       <use xlink:href="#NotoMathMI-93" transform="translate(52.698575 0) scale(1.01519)"/>
       <use xlink:href="#NotoSerif-Regular-30" transform="translate(77.266236 0) scale(0.913673)"/>
      </g>
      <!-- {\scalefont{.88}$(0.70)$} -->
      <g transform="translate(108.51568 119.706713) scale(0.09 -0.09)">
       <use xlink:href="#txsys-b9" transform="scale(0.893372)"/>
       <use xlink:href="#NotoSerif-Regular-30" transform="translate(33.322793 0) scale(0.804036)"/>
       <use xlink:href="#NotoMathMI-93" transform="translate(79.697792 0) scale(0.893372)"/>
       <use xlink:href="#NotoSerif-Regular-37" transform="translate(101.317462 0) scale(0.804036)"/>
       <use xlink:href="#NotoSerif-Regular-30" transform="translate(146.263098 0) scale(0.804036)"/>
       <use xlink:href="#txsys-ba" transform="translate(191.208733 0) scale(0.893372)"/>
      </g>
     </g>
    </g>
    <g id="text_4">
     <!-- $\sglf$ -->
     <g transform="translate(75.691288 132.227966) scale(0.09 -0.09)">
      <defs>
       <path id="NotoMathMI-41" d="M 1094 -64 
C 1466 -64 1754 20 1971 200 
C 2176 379 2285 609 2285 892 
C 2285 1116 2227 1290 2099 1431 
C 1978 1571 1805 1688 1594 1784 
C 1389 1873 1242 1963 1152 2046 
C 1056 2136 1011 2245 1011 2380 
C 1011 2521 1062 2643 1158 2733 
C 1254 2829 1395 2874 1568 2874 
C 1702 2874 1792 2848 1875 2778 
C 1946 2720 2010 2630 2042 2533 
C 2067 2437 2086 2329 2086 2233 
C 2221 2233 2317 2265 2394 2322 
C 2477 2380 2515 2469 2515 2591 
C 2515 2681 2490 2765 2419 2854 
C 2362 2944 2266 3008 2131 3059 
C 1997 3110 1830 3136 1619 3136 
C 1280 3136 1011 3059 806 2893 
C 602 2732 506 2527 506 2276 
C 506 2046 570 1866 698 1738 
C 826 1597 992 1482 1203 1385 
C 1414 1289 1562 1193 1651 1097 
C 1741 1001 1786 885 1786 750 
C 1786 571 1728 436 1619 346 
C 1510 256 1357 212 1165 212 
C 1005 212 877 244 781 313 
C 685 383 608 478 570 593 
C 531 708 506 828 506 962 
C 461 962 410 962 352 943 
C 294 918 237 879 205 828 
C 160 777 141 693 141 590 
C 141 385 230 225 403 109 
C 576 -6 806 -64 1094 -64 
z
" transform="scale(0.015625)"/>
       <path id="NotoSerif-Italic-6c" d="M 998 -22 
C 1158 -22 1318 23 1478 106 
C 1638 198 1760 282 1856 365 
L 1741 551 
C 1658 506 1581 468 1504 429 
C 1427 403 1350 384 1280 384 
C 1139 384 1069 493 1069 712 
C 1069 770 1075 847 1088 943 
C 1101 1039 1114 1130 1133 1219 
C 1152 1309 1165 1380 1171 1425 
L 1914 4928 
L 704 4928 
L 646 4657 
L 723 4657 
C 845 4657 954 4638 1037 4606 
C 1126 4567 1171 4484 1171 4355 
C 1171 4336 1165 4297 1165 4246 
C 1152 4182 1146 4124 1133 4066 
L 608 1597 
C 589 1514 570 1411 550 1289 
C 531 1160 512 1032 493 909 
C 474 788 467 678 467 588 
C 467 421 512 280 602 157 
C 698 36 826 -22 998 -22 
z
" transform="scale(0.015625)"/>
       <path id="NotoSerif-Italic-66" d="M -525 -1536 
C -294 -1536 -90 -1491 90 -1401 
C 269 -1312 422 -1157 550 -944 
C 678 -726 781 -424 864 -45 
L 1530 3088 
L 2246 3088 
L 2317 3456 
L 1606 3456 
L 1690 3870 
C 1741 4141 1811 4342 1894 4478 
C 1978 4608 2099 4672 2259 4672 
C 2394 4672 2483 4614 2522 4491 
C 2566 4374 2586 4233 2586 4070 
C 2758 4070 2886 4103 2982 4174 
C 3072 4245 3117 4349 3117 4491 
C 3117 4632 3046 4749 2906 4840 
C 2771 4924 2566 4969 2291 4969 
C 1939 4969 1670 4866 1472 4671 
C 1280 4465 1146 4180 1075 3813 
L 1005 3457 
L 390 3321 
L 352 3088 
L 934 3088 
L 262 -50 
C 166 -481 64 -783 -51 -964 
C -173 -1143 -333 -1233 -544 -1233 
C -589 -1233 -640 -1233 -704 -1220 
C -755 -1214 -806 -1201 -838 -1194 
L -896 -1486 
C -851 -1499 -794 -1511 -730 -1524 
C -653 -1530 -589 -1536 -525 -1536 
z
" transform="scale(0.015625)"/>
      </defs>
      <use xlink:href="#NotoMathMI-41" transform="scale(1.01519)"/>
      <use xlink:href="#NotoMathMI-41" transform="translate(36.868305 0) scale(1.01519)"/>
      <use xlink:href="#NotoSerif-Italic-6c" transform="translate(82.224647 36.851386) scale(0.666977)"/>
      <use xlink:href="#NotoSerif-Italic-66" transform="translate(102.500739 36.851386) scale(0.666977)"/>
     </g>
     <!-- {\scalefont{.88}(network load $[\unit{\percent}]$)} -->
     <g transform="translate(52.314056 140.320073) scale(0.09 -0.09)">
      <defs>
       <path id="RobotoCondensed-Regular-28" d="M 403 1857 
C 403 809 653 -84 1146 -835 
C 1344 -1131 1536 -1343 1728 -1471 
L 1837 -1118 
C 1613 -887 1427 -559 1267 -135 
C 1056 430 954 1079 954 1818 
L 960 2069 
C 973 2660 1062 3199 1222 3687 
C 1382 4169 1587 4535 1837 4773 
L 1728 5152 
C 1581 5049 1421 4889 1254 4670 
C 979 4304 774 3887 627 3405 
C 480 2923 403 2403 403 1857 
z
" transform="scale(0.015625)"/>
       <path id="RobotoCondensed-Regular-6e" d="M 934 3392 
L 410 3392 
L 410 0 
L 966 0 
L 966 2467 
C 1037 2615 1126 2730 1235 2827 
C 1344 2917 1466 2962 1600 2962 
C 1779 2962 1914 2904 2003 2795 
C 2086 2685 2131 2493 2131 2229 
L 2131 0 
L 2682 0 
L 2682 2255 
C 2675 3058 2368 3456 1773 3456 
C 1434 3456 1158 3315 947 3026 
L 934 3392 
z
" transform="scale(0.015625)"/>
       <path id="RobotoCondensed-Regular-65" d="M 1619 -64 
C 2112 -64 2477 103 2720 443 
L 2432 799 
C 2323 663 2202 566 2080 509 
C 1958 443 1811 411 1651 411 
C 1395 411 1197 496 1062 664 
C 928 825 858 1090 858 1459 
L 858 1536 
L 2746 1536 
L 2746 1901 
C 2739 2432 2643 2829 2451 3078 
C 2253 3328 1958 3456 1562 3456 
C 1165 3456 858 3315 640 3026 
C 416 2737 307 2345 307 1837 
L 307 1426 
C 314 938 429 565 653 315 
C 877 64 1197 -64 1619 -64 
z
M 1562 2981 
C 1766 2981 1920 2911 2022 2776 
C 2125 2636 2182 2407 2195 2087 
L 2195 2011 
L 864 2011 
C 877 2343 941 2586 1050 2745 
C 1158 2905 1331 2981 1562 2981 
z
" transform="scale(0.015625)"/>
       <path id="RobotoCondensed-Regular-74" d="M 1139 4224 
L 589 4224 
L 589 3392 
L 70 3392 
L 70 2942 
L 589 2942 
L 589 835 
C 589 546 646 328 762 173 
C 877 13 1043 -64 1261 -64 
C 1395 -64 1523 -45 1645 0 
L 1651 469 
C 1574 443 1498 430 1427 430 
C 1318 430 1248 469 1203 540 
C 1158 610 1139 707 1139 842 
L 1139 2942 
L 1645 2942 
L 1645 3392 
L 1139 3392 
L 1139 4224 
z
" transform="scale(0.015625)"/>
       <path id="RobotoCondensed-Regular-77" d="M 2931 976 
L 2291 3392 
L 1856 3392 
L 1222 1034 
L 698 3392 
L 154 3392 
L 979 0 
L 1421 0 
L 2067 2428 
L 2726 0 
L 3168 0 
L 3994 3392 
L 3450 3392 
L 2931 976 
z
" transform="scale(0.015625)"/>
       <path id="RobotoCondensed-Regular-6f" d="M 294 1857 
L 294 1484 
C 301 1009 429 630 666 353 
C 902 77 1216 -64 1606 -64 
C 2003 -64 2323 77 2560 366 
C 2797 655 2912 1041 2912 1535 
L 2912 1889 
C 2906 2371 2784 2756 2547 3039 
C 2310 3315 1990 3456 1600 3456 
C 1210 3456 890 3315 653 3026 
C 416 2737 294 2351 294 1857 
z
M 851 1535 
L 851 1857 
C 851 2203 922 2480 1056 2679 
C 1190 2878 1376 2981 1600 2981 
C 1830 2981 2016 2878 2157 2679 
C 2291 2480 2362 2203 2362 1857 
L 2362 1471 
C 2342 764 2093 411 1606 411 
C 1376 411 1190 514 1056 713 
C 922 912 851 1182 851 1535 
z
" transform="scale(0.015625)"/>
       <path id="RobotoCondensed-Regular-72" d="M 1811 2871 
L 1805 3411 
C 1747 3443 1677 3456 1587 3456 
C 1318 3456 1107 3321 960 3051 
L 947 3392 
L 410 3392 
L 410 0 
L 966 0 
L 966 2428 
C 1082 2743 1280 2897 1562 2897 
C 1651 2891 1734 2883 1811 2871 
z
" transform="scale(0.015625)"/>
       <path id="RobotoCondensed-Regular-6b" d="M 1261 1555 
L 2182 0 
L 2822 0 
L 1606 1979 
L 2682 3392 
L 2022 3392 
L 966 1934 
L 966 4818 
L 416 4818 
L 416 0 
L 966 0 
L 966 1214 
L 1261 1555 
z
" transform="scale(0.015625)"/>
       <path id="RobotoCondensed-Regular-6c" d="M 1011 0 
L 1011 4818 
L 454 4818 
L 454 0 
L 1011 0 
z
" transform="scale(0.015625)"/>
       <path id="RobotoCondensed-Regular-61" d="M 2150 0 
L 2726 0 
L 2726 51 
C 2656 244 2624 469 2624 732 
L 2624 2441 
C 2618 2775 2528 3026 2349 3199 
C 2163 3373 1901 3456 1555 3456 
C 1344 3456 1152 3411 979 3321 
C 806 3231 666 3109 563 2954 
C 461 2794 410 2626 410 2453 
L 966 2453 
C 966 2601 1018 2730 1126 2833 
C 1229 2929 1363 2981 1530 2981 
C 1715 2981 1850 2936 1939 2851 
C 2029 2760 2074 2612 2074 2410 
L 2074 2048 
L 1664 2048 
C 1261 2048 941 1946 710 1746 
C 474 1547 358 1271 358 925 
C 358 610 442 373 614 199 
C 787 26 1024 -64 1331 -64 
C 1632 -64 1882 80 2080 372 
C 2093 198 2118 71 2150 0 
z
M 1414 443 
C 1229 443 1101 488 1024 572 
C 947 655 909 797 909 989 
C 909 1194 986 1354 1139 1470 
C 1286 1579 1498 1637 1760 1637 
L 2074 1637 
L 2074 835 
C 2016 726 1926 630 1805 559 
C 1683 482 1549 443 1414 443 
z
" transform="scale(0.015625)"/>
       <path id="RobotoCondensed-Regular-64" d="M 294 1850 
L 294 1503 
C 301 1009 403 623 602 347 
C 800 71 1075 -64 1427 -64 
C 1766 -64 2022 80 2202 366 
L 2234 0 
L 2739 0 
L 2739 4818 
L 2182 4818 
L 2182 3065 
C 2003 3328 1754 3456 1427 3456 
C 1062 3456 787 3321 589 3045 
C 390 2769 294 2371 294 1850 
z
M 851 1535 
L 851 1876 
C 851 2242 909 2518 1024 2698 
C 1133 2872 1318 2962 1574 2962 
C 1837 2962 2042 2827 2182 2557 
L 2182 842 
C 2048 565 1843 424 1568 424 
C 1318 424 1133 514 1024 694 
C 909 874 851 1156 851 1535 
z
" transform="scale(0.015625)"/>
       <path id="txsys-bb" d="M 1914 -1120 
L 1363 -1120 
C 1152 -1120 1050 -1011 1050 -787 
L 1050 4038 
C 1050 4237 1133 4320 1338 4320 
L 1914 4320 
L 1914 4480 
L 563 4480 
L 563 -1280 
L 1914 -1280 
L 1914 -1120 
z
" transform="scale(0.015625)"/>
       <path id="NotoSerif-Regular-25" d="M 1338 1792 
C 1690 1792 1958 1922 2125 2194 
C 2304 2454 2387 2804 2387 3239 
C 2387 3673 2304 4023 2125 4283 
C 1958 4542 1696 4672 1344 4672 
C 973 4672 704 4542 538 4283 
C 371 4023 288 3673 288 3239 
C 288 2804 371 2454 538 2194 
C 704 1922 973 1792 1338 1792 
z
M 1504 0 
L 1926 0 
L 4205 4608 
L 3789 4608 
L 1504 0 
z
M 1338 2057 
C 1165 2057 1043 2161 973 2368 
C 902 2576 864 2869 864 3239 
C 864 3609 902 3894 973 4096 
C 1043 4297 1171 4401 1344 4401 
C 1517 4401 1638 4297 1702 4096 
C 1773 3894 1805 3609 1805 3239 
C 1805 2869 1773 2576 1702 2368 
C 1632 2161 1510 2057 1338 2057 
z
M 4397 -64 
C 4749 -64 5018 65 5184 338 
C 5363 597 5446 947 5446 1382 
C 5446 1817 5363 2168 5184 2427 
C 5018 2686 4755 2816 4403 2816 
C 4032 2816 3763 2686 3597 2427 
C 3430 2168 3347 1817 3347 1382 
C 3347 947 3430 597 3597 338 
C 3763 65 4032 -64 4397 -64 
z
M 4397 200 
C 4224 200 4102 304 4032 511 
C 3962 720 3923 1012 3923 1382 
C 3923 1753 3962 2039 4032 2240 
C 4102 2441 4230 2545 4403 2545 
C 4576 2545 4698 2441 4762 2240 
C 4832 2039 4864 1753 4864 1382 
C 4864 1012 4832 720 4762 511 
C 4691 304 4570 200 4397 200 
z
" transform="scale(0.015625)"/>
       <path id="txsys-bc" d="M 218 -1120 
L 218 -1280 
L 1568 -1280 
L 1568 4480 
L 218 4480 
L 218 4320 
L 768 4320 
C 979 4320 1082 4211 1082 3987 
L 1082 -839 
C 1082 -1037 992 -1120 794 -1120 
L 218 -1120 
z
" transform="scale(0.015625)"/>
       <path id="RobotoCondensed-Regular-29" d="M 1600 1824 
C 1600 2807 1382 3668 941 4394 
C 730 4747 506 4998 275 5152 
L 166 4799 
C 352 4606 512 4336 659 3996 
C 922 3373 1050 2660 1050 1863 
L 1050 1747 
C 1043 1124 966 559 806 39 
C 646 -482 429 -867 166 -1118 
L 275 -1471 
C 518 -1311 755 -1041 979 -655 
C 1395 64 1600 893 1600 1824 
z
" transform="scale(0.015625)"/>
      </defs>
      <use xlink:href="#RobotoCondensed-Regular-28" transform="scale(0.832879)"/>
      <use xlink:href="#RobotoCondensed-Regular-6e" transform="translate(26.069065 0) scale(0.832879)"/>
      <use xlink:href="#RobotoCondensed-Regular-65" transform="translate(66.297071 0) scale(0.832879)"/>
      <use xlink:href="#RobotoCondensed-Regular-74" transform="translate(105.275809 0) scale(0.832879)"/>
      <use xlink:href="#RobotoCondensed-Regular-77" transform="translate(129.84572 0) scale(0.832879)"/>
      <use xlink:href="#RobotoCondensed-Regular-6f" transform="translate(183.899549 0) scale(0.832879)"/>
      <use xlink:href="#RobotoCondensed-Regular-72" transform="translate(225.6268 0) scale(0.832879)"/>
      <use xlink:href="#RobotoCondensed-Regular-6b" transform="translate(250.946296 0) scale(0.832879)"/>
      <use xlink:href="#RobotoCondensed-Regular-6c" transform="translate(307.49872 0) scale(0.832879)"/>
      <use xlink:href="#RobotoCondensed-Regular-6f" transform="translate(326.571636 0) scale(0.832879)"/>
      <use xlink:href="#RobotoCondensed-Regular-61" transform="translate(368.298887 0) scale(0.832879)"/>
      <use xlink:href="#RobotoCondensed-Regular-64" transform="translate(408.193776 0) scale(0.832879)"/>
      <use xlink:href="#txsys-bb" transform="translate(473.93776 0) scale(0.893372)"/>
      <use xlink:href="#NotoSerif-Regular-25" transform="translate(506.367069 0) scale(0.804036)"/>
      <use xlink:href="#txsys-bc" transform="translate(578.408711 0) scale(0.893372)"/>
      <use xlink:href="#RobotoCondensed-Regular-29" transform="translate(613.5182 0) scale(0.832879)"/>
     </g>
    </g>
   </g>
   <g id="matplotlib.axis_2">
    <g id="ytick_1">
     <g id="line2d_1">
      <path d="M 37.179424 101.989816 
L 125.772544 101.989816 
" clip-path="url(#pb1d0834194)" style="fill: none; stroke: #ffffff; stroke-width: 0.8; stroke-linecap: round"/>
     </g>
     <g id="text_5">
      <!-- $1.00$ -->
      <g transform="translate(17.532106 105.179811) scale(0.09 -0.09)">
       <use xlink:href="#NotoSerif-Regular-31" transform="scale(0.913673)"/>
       <use xlink:href="#NotoMathMI-93" transform="translate(52.698575 0) scale(1.01519)"/>
       <use xlink:href="#NotoSerif-Regular-30" transform="translate(77.266236 0) scale(0.913673)"/>
       <use xlink:href="#NotoSerif-Regular-30" transform="translate(128.340531 0) scale(0.913673)"/>
      </g>
     </g>
    </g>
    <g id="ytick_2">
     <g id="line2d_2">
      <path d="M 37.179424 85.549301 
L 125.772544 85.549301 
" clip-path="url(#pb1d0834194)" style="fill: none; stroke: #ffffff; stroke-width: 0.8; stroke-linecap: round"/>
     </g>
     <g id="text_6">
      <!-- $1.05$ -->
      <g transform="translate(17.532106 88.739296) scale(0.09 -0.09)">
       <use xlink:href="#NotoSerif-Regular-31" transform="scale(0.913673)"/>
       <use xlink:href="#NotoMathMI-93" transform="translate(52.698575 0) scale(1.01519)"/>
       <use xlink:href="#NotoSerif-Regular-30" transform="translate(77.266236 0) scale(0.913673)"/>
       <use xlink:href="#NotoSerif-Regular-35" transform="translate(128.340531 0) scale(0.913673)"/>
      </g>
     </g>
    </g>
    <g id="ytick_3">
     <g id="line2d_3">
      <path d="M 37.179424 69.108786 
L 125.772544 69.108786 
" clip-path="url(#pb1d0834194)" style="fill: none; stroke: #ffffff; stroke-width: 0.8; stroke-linecap: round"/>
     </g>
     <g id="text_7">
      <!-- $1.10$ -->
      <g transform="translate(17.532106 72.298781) scale(0.09 -0.09)">
       <use xlink:href="#NotoSerif-Regular-31" transform="scale(0.913673)"/>
       <use xlink:href="#NotoMathMI-93" transform="translate(52.698575 0) scale(1.01519)"/>
       <use xlink:href="#NotoSerif-Regular-31" transform="translate(77.266236 0) scale(0.913673)"/>
       <use xlink:href="#NotoSerif-Regular-30" transform="translate(128.340531 0) scale(0.913673)"/>
      </g>
     </g>
    </g>
    <g id="ytick_4">
     <g id="line2d_4">
      <path d="M 37.179424 52.668271 
L 125.772544 52.668271 
" clip-path="url(#pb1d0834194)" style="fill: none; stroke: #ffffff; stroke-width: 0.8; stroke-linecap: round"/>
     </g>
     <g id="text_8">
      <!-- $1.15$ -->
      <g transform="translate(17.532106 55.858266) scale(0.09 -0.09)">
       <use xlink:href="#NotoSerif-Regular-31" transform="scale(0.913673)"/>
       <use xlink:href="#NotoMathMI-93" transform="translate(52.698575 0) scale(1.01519)"/>
       <use xlink:href="#NotoSerif-Regular-31" transform="translate(77.266236 0) scale(0.913673)"/>
       <use xlink:href="#NotoSerif-Regular-35" transform="translate(128.340531 0) scale(0.913673)"/>
      </g>
     </g>
    </g>
    <g id="ytick_5">
     <g id="line2d_5">
      <path d="M 37.179424 36.227756 
L 125.772544 36.227756 
" clip-path="url(#pb1d0834194)" style="fill: none; stroke: #ffffff; stroke-width: 0.8; stroke-linecap: round"/>
     </g>
     <g id="text_9">
      <!-- $1.20$ -->
      <g transform="translate(17.532106 39.417751) scale(0.09 -0.09)">
       <defs>
        <path id="NotoSerif-Regular-32" d="M 390 0 
L 3142 0 
L 3174 1116 
L 2906 1116 
L 2880 1000 
C 2848 878 2803 761 2733 664 
C 2662 567 2534 516 2342 516 
L 864 516 
L 1946 1723 
C 2285 2097 2547 2426 2733 2710 
C 2918 3000 3014 3291 3014 3594 
C 3014 3923 2899 4182 2669 4375 
C 2438 4575 2118 4672 1715 4672 
C 1299 4672 986 4588 781 4427 
C 563 4266 461 4060 461 3807 
C 461 3646 512 3536 621 3472 
C 730 3420 858 3388 1011 3388 
C 1011 3562 1030 3717 1062 3859 
C 1101 4008 1171 4124 1274 4214 
C 1376 4305 1523 4350 1715 4350 
C 1939 4350 2106 4272 2214 4124 
C 2317 3976 2368 3775 2368 3530 
C 2368 3330 2342 3143 2278 2969 
C 2227 2794 2131 2607 1997 2413 
C 1862 2214 1683 1981 1459 1716 
L 390 471 
L 390 0 
z
" transform="scale(0.015625)"/>
       </defs>
       <use xlink:href="#NotoSerif-Regular-31" transform="scale(0.913673)"/>
       <use xlink:href="#NotoMathMI-93" transform="translate(52.698575 0) scale(1.01519)"/>
       <use xlink:href="#NotoSerif-Regular-32" transform="translate(77.266236 0) scale(0.913673)"/>
       <use xlink:href="#NotoSerif-Regular-30" transform="translate(128.340531 0) scale(0.913673)"/>
      </g>
     </g>
    </g>
    <g id="ytick_6">
     <g id="line2d_6">
      <path d="M 37.179424 19.787241 
L 125.772544 19.787241 
" clip-path="url(#pb1d0834194)" style="fill: none; stroke: #ffffff; stroke-width: 0.8; stroke-linecap: round"/>
     </g>
     <g id="text_10">
      <!-- $1.25$ -->
      <g transform="translate(17.532106 22.977236) scale(0.09 -0.09)">
       <use xlink:href="#NotoSerif-Regular-31" transform="scale(0.913673)"/>
       <use xlink:href="#NotoMathMI-93" transform="translate(52.698575 0) scale(1.01519)"/>
       <use xlink:href="#NotoSerif-Regular-32" transform="translate(77.266236 0) scale(0.913673)"/>
       <use xlink:href="#NotoSerif-Regular-35" transform="translate(128.340531 0) scale(0.913673)"/>
      </g>
     </g>
    </g>
    <g id="ytick_7">
     <g id="line2d_7">
      <path d="M 37.179424 93.769559 
L 125.772544 93.769559 
" clip-path="url(#pb1d0834194)" style="fill: none; stroke: #ffffff; stroke-width: 0.8; stroke-linecap: round"/>
     </g>
    </g>
    <g id="ytick_8">
     <g id="line2d_8">
      <path d="M 37.179424 77.329044 
L 125.772544 77.329044 
" clip-path="url(#pb1d0834194)" style="fill: none; stroke: #ffffff; stroke-width: 0.8; stroke-linecap: round"/>
     </g>
    </g>
    <g id="ytick_9">
     <g id="line2d_9">
      <path d="M 37.179424 60.888529 
L 125.772544 60.888529 
" clip-path="url(#pb1d0834194)" style="fill: none; stroke: #ffffff; stroke-width: 0.8; stroke-linecap: round"/>
     </g>
    </g>
    <g id="ytick_10">
     <g id="line2d_10">
      <path d="M 37.179424 44.448014 
L 125.772544 44.448014 
" clip-path="url(#pb1d0834194)" style="fill: none; stroke: #ffffff; stroke-width: 0.8; stroke-linecap: round"/>
     </g>
    </g>
    <g id="ytick_11">
     <g id="line2d_11">
      <path d="M 37.179424 28.007499 
L 125.772544 28.007499 
" clip-path="url(#pb1d0834194)" style="fill: none; stroke: #ffffff; stroke-width: 0.8; stroke-linecap: round"/>
     </g>
    </g>
    <g id="ytick_12">
     <g id="line2d_12">
      <path d="M 37.179424 11.566983 
L 125.772544 11.566983 
" clip-path="url(#pb1d0834194)" style="fill: none; stroke: #ffffff; stroke-width: 0.8; stroke-linecap: round"/>
     </g>
    </g>
    <g id="text_11">
     <!-- {\bfseries\mathversion{bold}normalized latencies} -->
     <g transform="translate(7.81999 90.696745) rotate(-90) scale(0.09 -0.09)">
      <defs>
       <path id="RobotoCondensed-Bold-6e" d="M 1133 3392 
L 301 3392 
L 301 0 
L 1190 0 
L 1190 2467 
C 1274 2627 1402 2711 1562 2711 
C 1709 2711 1811 2666 1869 2583 
C 1926 2499 1952 2358 1952 2165 
L 1952 0 
L 2835 0 
L 2835 2229 
C 2816 3045 2522 3456 1939 3456 
C 1619 3456 1357 3321 1158 3058 
L 1133 3392 
z
" transform="scale(0.015625)"/>
       <path id="RobotoCondensed-Bold-6f" d="M 218 1805 
L 218 1593 
C 218 1073 339 662 582 373 
C 819 84 1158 -64 1594 -64 
C 2022 -64 2362 84 2598 373 
C 2835 662 2957 1066 2957 1587 
L 2957 1799 
C 2957 2319 2835 2724 2598 3019 
C 2355 3308 2016 3456 1587 3456 
C 1158 3456 819 3308 582 3019 
C 339 2724 218 2319 218 1805 
z
M 1107 1587 
L 1107 1805 
C 1107 2120 1152 2351 1235 2499 
C 1318 2647 1440 2717 1587 2717 
C 1741 2717 1862 2640 1946 2493 
C 2029 2345 2074 2114 2074 1805 
L 2074 1433 
C 2054 925 1894 675 1594 675 
C 1267 675 1107 976 1107 1587 
z
" transform="scale(0.015625)"/>
       <path id="RobotoCondensed-Bold-72" d="M 1990 2537 
L 1997 3418 
C 1926 3443 1850 3456 1754 3456 
C 1510 3456 1318 3315 1178 3026 
L 1152 3392 
L 320 3392 
L 320 0 
L 1203 0 
L 1203 2242 
C 1286 2454 1453 2563 1696 2563 
L 1990 2537 
z
" transform="scale(0.015625)"/>
       <path id="RobotoCondensed-Bold-6d" d="M 1152 3392 
L 326 3392 
L 326 0 
L 1210 0 
L 1210 2467 
C 1299 2627 1421 2711 1574 2711 
C 1709 2711 1798 2666 1850 2583 
C 1901 2493 1926 2351 1926 2159 
L 1926 0 
L 2810 0 
L 2810 2300 
L 2803 2409 
C 2886 2608 3008 2711 3174 2711 
C 3302 2711 3392 2672 3450 2589 
C 3507 2505 3533 2364 3533 2165 
L 3533 0 
L 4416 0 
L 4416 2223 
C 4403 3045 4102 3456 3507 3456 
C 3142 3456 2867 3302 2675 3000 
C 2541 3302 2304 3456 1965 3456 
C 1638 3456 1376 3328 1178 3077 
L 1152 3392 
z
" transform="scale(0.015625)"/>
       <path id="RobotoCondensed-Bold-61" d="M 1926 0 
L 2816 0 
L 2816 51 
C 2739 218 2701 450 2694 739 
L 2694 2338 
C 2694 2698 2592 2974 2394 3167 
C 2189 3360 1901 3456 1530 3456 
C 1171 3456 877 3353 640 3153 
C 403 2948 288 2690 288 2374 
L 1171 2374 
C 1171 2633 1280 2762 1504 2762 
C 1600 2762 1677 2729 1734 2670 
C 1786 2605 1811 2494 1811 2338 
L 1811 2063 
L 1542 2063 
C 1114 2063 787 1966 563 1774 
C 339 1575 224 1300 224 948 
C 224 647 320 404 506 217 
C 691 32 928 -64 1210 -64 
C 1485 -64 1696 45 1856 263 
C 1875 141 1901 51 1926 0 
z
M 1408 636 
C 1210 636 1114 757 1114 1007 
C 1114 1165 1158 1300 1248 1395 
C 1331 1491 1453 1536 1600 1536 
L 1811 1536 
L 1811 834 
C 1779 776 1728 732 1658 694 
C 1587 655 1504 636 1408 636 
z
" transform="scale(0.015625)"/>
       <path id="RobotoCondensed-Bold-6c" d="M 1248 0 
L 1248 4818 
L 365 4818 
L 365 0 
L 1248 0 
z
" transform="scale(0.015625)"/>
       <path id="RobotoCondensed-Bold-69" d="M 1248 0 
L 1248 3392 
L 365 3392 
L 365 0 
L 1248 0 
z
M 320 4267 
C 320 4132 365 4017 454 3927 
C 538 3837 659 3792 806 3792 
C 954 3792 1069 3837 1158 3927 
C 1242 4017 1286 4132 1286 4267 
C 1286 4402 1242 4518 1158 4608 
C 1069 4691 954 4736 806 4736 
C 659 4736 538 4691 454 4608 
C 365 4518 320 4402 320 4267 
z
" transform="scale(0.015625)"/>
       <path id="RobotoCondensed-Bold-7a" d="M 1299 739 
L 2618 2859 
L 2618 3392 
L 282 3392 
L 282 2653 
L 1555 2653 
L 250 553 
L 250 0 
L 2637 0 
L 2637 739 
L 1299 739 
z
" transform="scale(0.015625)"/>
       <path id="RobotoCondensed-Bold-65" d="M 1690 -64 
C 1933 -64 2157 -19 2362 77 
C 2566 173 2720 297 2829 444 
L 2483 980 
C 2285 778 2035 675 1741 675 
C 1542 675 1389 733 1293 850 
C 1197 967 1139 1155 1126 1408 
L 2886 1408 
L 2886 1843 
C 2880 2375 2771 2778 2560 3053 
C 2349 3322 2029 3456 1600 3456 
C 1158 3456 826 3308 595 3019 
C 358 2730 243 2313 243 1779 
L 243 1510 
C 243 1002 371 617 627 347 
C 883 71 1235 -64 1690 -64 
z
M 1133 2025 
C 1146 2266 1184 2444 1254 2552 
C 1325 2661 1434 2717 1594 2717 
C 1747 2717 1856 2667 1920 2565 
C 1978 2457 2010 2305 2016 2108 
L 2016 2025 
L 1133 2025 
z
" transform="scale(0.015625)"/>
       <path id="RobotoCondensed-Bold-64" d="M 205 1799 
L 205 1542 
C 211 1015 307 617 493 347 
C 678 71 947 -64 1299 -64 
C 1587 -64 1818 73 1997 347 
L 2042 0 
L 2842 0 
L 2842 4818 
L 1952 4818 
L 1952 3116 
C 1779 3341 1568 3456 1306 3456 
C 947 3456 672 3321 486 3045 
C 301 2769 205 2358 205 1799 
z
M 1088 1580 
L 1088 1812 
C 1088 2152 1126 2383 1203 2518 
C 1280 2647 1402 2711 1562 2711 
C 1734 2711 1862 2627 1952 2461 
L 1952 913 
C 1862 752 1728 675 1555 675 
C 1389 675 1267 745 1197 880 
C 1126 1015 1088 1246 1088 1580 
z
" transform="scale(0.015625)"/>
       <path id="RobotoCondensed-Bold-74" d="M 1350 4256 
L 467 4256 
L 467 3420 
L 77 3420 
L 77 2752 
L 467 2752 
L 467 956 
C 474 295 762 -32 1331 -32 
C 1504 -32 1670 -7 1818 51 
L 1824 744 
C 1766 725 1696 718 1613 718 
C 1510 718 1440 744 1408 795 
C 1370 847 1350 937 1350 1071 
L 1350 2752 
L 1805 2752 
L 1805 3420 
L 1350 3420 
L 1350 4256 
z
" transform="scale(0.015625)"/>
       <path id="RobotoCondensed-Bold-63" d="M 1542 675 
C 1427 675 1338 700 1280 752 
C 1216 803 1171 887 1146 996 
C 1114 1105 1101 1298 1101 1574 
L 1101 1914 
C 1107 2229 1139 2448 1210 2557 
C 1280 2666 1389 2717 1542 2717 
C 1677 2717 1779 2666 1843 2563 
C 1901 2460 1933 2313 1933 2126 
L 2765 2126 
C 2758 2550 2650 2878 2438 3109 
C 2221 3341 1926 3456 1555 3456 
C 1114 3456 781 3315 557 3039 
C 333 2762 218 2351 218 1818 
L 218 1548 
C 224 1015 339 617 570 347 
C 794 71 1126 -64 1562 -64 
C 1914 -64 2202 51 2426 283 
C 2650 508 2758 809 2765 1176 
L 1933 1176 
C 1926 842 1798 675 1542 675 
z
" transform="scale(0.015625)"/>
       <path id="RobotoCondensed-Bold-73" d="M 1818 907 
C 1818 694 1702 585 1466 585 
C 1306 585 1197 623 1133 707 
C 1062 784 1030 899 1024 1054 
L 179 1054 
C 179 854 237 668 346 495 
C 454 321 602 180 794 84 
C 979 -13 1197 -64 1446 -64 
C 1811 -64 2112 26 2336 212 
C 2560 398 2675 642 2675 944 
C 2675 1208 2598 1420 2451 1587 
C 2304 1747 2048 1895 1690 2030 
C 1440 2139 1286 2216 1222 2274 
C 1152 2332 1120 2396 1120 2473 
C 1120 2583 1152 2666 1210 2724 
C 1267 2782 1344 2807 1440 2807 
C 1670 2807 1786 2672 1786 2396 
L 2669 2396 
C 2669 2717 2560 2974 2336 3167 
C 2112 3360 1818 3456 1446 3456 
C 1094 3456 806 3360 595 3166 
C 384 2967 275 2722 275 2426 
C 275 2188 346 1995 480 1834 
C 614 1673 864 1519 1229 1371 
C 1478 1261 1638 1177 1709 1119 
C 1779 1055 1818 984 1818 907 
z
" transform="scale(0.015625)"/>
      </defs>
      <use xlink:href="#RobotoCondensed-Bold-6e" transform="scale(0.946448)"/>
      <use xlink:href="#RobotoCondensed-Bold-6f" transform="translate(46.565188 0) scale(0.946448)"/>
      <use xlink:href="#RobotoCondensed-Bold-72" transform="translate(93.603607 0) scale(0.946448)"/>
      <use xlink:href="#RobotoCondensed-Bold-6d" transform="translate(124.931045 0) scale(0.946448)"/>
      <use xlink:href="#RobotoCondensed-Bold-61" transform="translate(195.062826 0) scale(0.946448)"/>
      <use xlink:href="#RobotoCondensed-Bold-6c" transform="translate(239.545886 0) scale(0.946448)"/>
      <use xlink:href="#RobotoCondensed-Bold-69" transform="translate(263.301757 0) scale(0.946448)"/>
      <use xlink:href="#RobotoCondensed-Bold-7a" transform="translate(287.057628 0) scale(0.946448)"/>
      <use xlink:href="#RobotoCondensed-Bold-65" transform="translate(329.079824 0) scale(0.946448)"/>
      <use xlink:href="#RobotoCondensed-Bold-64" transform="translate(374.319994 0) scale(0.946448)"/>
      <use xlink:href="#RobotoCondensed-Bold-6c" transform="translate(442.937389 0) scale(0.946448)"/>
      <use xlink:href="#RobotoCondensed-Bold-61" transform="translate(466.69326 0) scale(0.946448)"/>
      <use xlink:href="#RobotoCondensed-Bold-74" transform="translate(511.17632 0) scale(0.946448)"/>
      <use xlink:href="#RobotoCondensed-Bold-65" transform="translate(540.232277 0) scale(0.946448)"/>
      <use xlink:href="#RobotoCondensed-Bold-6e" transform="translate(585.472447 0) scale(0.946448)"/>
      <use xlink:href="#RobotoCondensed-Bold-63" transform="translate(632.037635 0) scale(0.946448)"/>
      <use xlink:href="#RobotoCondensed-Bold-69" transform="translate(675.47954 0) scale(0.946448)"/>
      <use xlink:href="#RobotoCondensed-Bold-65" transform="translate(699.235411 0) scale(0.946448)"/>
      <use xlink:href="#RobotoCondensed-Bold-73" transform="translate(744.475581 0) scale(0.946448)"/>
     </g>
    </g>
   </g>
   <g id="LineCollection_1">
    <path d="M 44.251984 50.524395 
L 44.251984 44.293278 
" clip-path="url(#pb1d0834194)" style="fill: none; stroke: #00346b; stroke-linecap: round"/>
    <path d="M 81.475984 40.98876 
L 81.475984 20.3345 
" clip-path="url(#pb1d0834194)" style="fill: none; stroke: #00346b; stroke-linecap: round"/>
    <path d="M 118.699984 70.001422 
L 118.699984 48.007173 
" clip-path="url(#pb1d0834194)" style="fill: none; stroke: #00346b; stroke-linecap: round"/>
   </g>
   <g id="LineCollection_2">
    <path d="M 44.251984 48.247819 
L 44.251984 43.224489 
" clip-path="url(#pb1d0834194)" style="fill: none; stroke: #8b9397; stroke-linecap: round"/>
    <path d="M 81.475984 64.566158 
L 81.475984 49.509874 
" clip-path="url(#pb1d0834194)" style="fill: none; stroke: #8b9397; stroke-linecap: round"/>
    <path d="M 118.699984 60.866598 
L 118.699984 42.522029 
" clip-path="url(#pb1d0834194)" style="fill: none; stroke: #8b9397; stroke-linecap: round"/>
   </g>
   <g id="LineCollection_3">
    <path d="M 44.251984 97.998609 
L 44.251984 95.332388 
" clip-path="url(#pb1d0834194)" style="fill: none; stroke: #d9e482; stroke-linecap: round"/>
    <path d="M 81.475984 91.520801 
L 81.475984 83.6916 
" clip-path="url(#pb1d0834194)" style="fill: none; stroke: #d9e482; stroke-linecap: round"/>
    <path d="M 118.699984 97.386856 
L 118.699984 87.383421 
" clip-path="url(#pb1d0834194)" style="fill: none; stroke: #d9e482; stroke-linecap: round"/>
   </g>
   <g id="LineCollection_4">
    <path d="M 44.251984 101.973988 
L 44.251984 101.933572 
" clip-path="url(#pb1d0834194)" style="fill: none; stroke: #2e3d00; stroke-linecap: round"/>
    <path d="M 81.475984 99.910758 
L 81.475984 94.726167 
" clip-path="url(#pb1d0834194)" style="fill: none; stroke: #2e3d00; stroke-linecap: round"/>
    <path d="M 118.699984 101.88017 
L 118.699984 101.812158 
" clip-path="url(#pb1d0834194)" style="fill: none; stroke: #2e3d00; stroke-linecap: round"/>
   </g>
   <g id="LineCollection_5">
    <path d="M 44.251984 65.332461 
L 44.251984 48.771782 
" clip-path="url(#pb1d0834194)" style="fill: none; stroke: #6692c2; stroke-linecap: round"/>
    <path d="M 81.475984 56.076932 
L 81.475984 32.586905 
" clip-path="url(#pb1d0834194)" style="fill: none; stroke: #6692c2; stroke-linecap: round"/>
    <path d="M 118.699984 70.753579 
L 118.699984 50.724759 
" clip-path="url(#pb1d0834194)" style="fill: none; stroke: #6692c2; stroke-linecap: round"/>
   </g>
   <g id="LineCollection_6">
    <path d="M 44.251984 27.443727 
L 44.251984 13.206616 
" clip-path="url(#pb1d0834194)" style="fill: none; stroke: #f8c2ce; stroke-linecap: round"/>
    <path d="M 81.475984 78.048713 
L 81.475984 52.773508 
" clip-path="url(#pb1d0834194)" style="fill: none; stroke: #f8c2ce; stroke-linecap: round"/>
    <path d="M 118.699984 94.167171 
L 118.699984 78.684674 
" clip-path="url(#pb1d0834194)" style="fill: none; stroke: #f8c2ce; stroke-linecap: round"/>
   </g>
   <g id="line2d_13">
    <path d="M 44.251984 47.408837 
L 81.475984 30.66163 
L 118.699984 59.004297 
" clip-path="url(#pb1d0834194)" style="fill: none; stroke: #00346b; stroke-linecap: round"/>
    <defs>
     <path id="m034dccc19d" d="M 0 -3.15 
L -0.538682 -1.480016 
L -2.024781 -2.41304 
L -1.36399 -0.7875 
L -3.102144 -0.546992 
L -1.551072 0.273496 
L -2.72798 1.575 
L -1.01239 1.20652 
L -1.077363 2.960032 
L -0 1.575 
L 1.077363 2.960032 
L 1.01239 1.20652 
L 2.72798 1.575 
L 1.551072 0.273496 
L 3.102144 -0.546992 
L 1.36399 -0.7875 
L 2.024781 -2.41304 
L 0.538682 -1.480016 
z
" style="stroke: #00346b; stroke-linejoin: bevel"/>
    </defs>
    <g clip-path="url(#pb1d0834194)">
     <use xlink:href="#m034dccc19d" x="44.251984" y="47.408837" style="fill: #00346b; stroke: #00346b; stroke-linejoin: bevel"/>
     <use xlink:href="#m034dccc19d" x="81.475984" y="30.66163" style="fill: #00346b; stroke: #00346b; stroke-linejoin: bevel"/>
     <use xlink:href="#m034dccc19d" x="118.699984" y="59.004297" style="fill: #00346b; stroke: #00346b; stroke-linejoin: bevel"/>
    </g>
   </g>
   <g id="line2d_14">
    <path d="M 44.251984 45.736154 
L 81.475984 57.038016 
L 118.699984 51.694313 
" clip-path="url(#pb1d0834194)" style="fill: none; stroke: #8b9397; stroke-linecap: round"/>
    <defs>
     <path id="m9ac1f07574" d="M 0 -2.7 
L -2.7 2.7 
L 2.7 2.7 
z
" style="stroke: #8b9397; stroke-linejoin: miter"/>
    </defs>
    <g clip-path="url(#pb1d0834194)">
     <use xlink:href="#m9ac1f07574" x="44.251984" y="45.736154" style="fill: #8b9397; stroke: #8b9397; stroke-linejoin: miter"/>
     <use xlink:href="#m9ac1f07574" x="81.475984" y="57.038016" style="fill: #8b9397; stroke: #8b9397; stroke-linejoin: miter"/>
     <use xlink:href="#m9ac1f07574" x="118.699984" y="51.694313" style="fill: #8b9397; stroke: #8b9397; stroke-linejoin: miter"/>
    </g>
   </g>
   <g id="line2d_15">
    <path d="M 44.251984 96.665498 
L 81.475984 87.6062 
L 118.699984 92.385138 
" clip-path="url(#pb1d0834194)" style="fill: none; stroke: #d9e482; stroke-linecap: round"/>
    <defs>
     <path id="mb1dceee519" d="M 0 2.7 
C 0.716048 2.7 1.402866 2.415511 1.909188 1.909188 
C 2.415511 1.402866 2.7 0.716048 2.7 0 
C 2.7 -0.716048 2.415511 -1.402866 1.909188 -1.909188 
C 1.402866 -2.415511 0.716048 -2.7 0 -2.7 
C -0.716048 -2.7 -1.402866 -2.415511 -1.909188 -1.909188 
C -2.415511 -1.402866 -2.7 -0.716048 -2.7 0 
C -2.7 0.716048 -2.415511 1.402866 -1.909188 1.909188 
C -1.402866 2.415511 -0.716048 2.7 0 2.7 
z
" style="stroke: #d9e482"/>
    </defs>
    <g clip-path="url(#pb1d0834194)">
     <use xlink:href="#mb1dceee519" x="44.251984" y="96.665498" style="fill: #d9e482; stroke: #d9e482"/>
     <use xlink:href="#mb1dceee519" x="81.475984" y="87.6062" style="fill: #d9e482; stroke: #d9e482"/>
     <use xlink:href="#mb1dceee519" x="118.699984" y="92.385138" style="fill: #d9e482; stroke: #d9e482"/>
    </g>
   </g>
   <g id="line2d_16">
    <path d="M 44.251984 101.95378 
L 81.475984 97.318463 
L 118.699984 101.846164 
" clip-path="url(#pb1d0834194)" style="fill: none; stroke: #2e3d00; stroke-linecap: round"/>
    <defs>
     <path id="m36809e237b" d="M 0 -3.15 
L -0.707219 -0.973404 
L -2.995828 -0.973404 
L -1.144304 0.371807 
L -1.851524 2.548404 
L -0 1.203193 
L 1.851524 2.548404 
L 1.144304 0.371807 
L 2.995828 -0.973404 
L 0.707219 -0.973404 
z
" style="stroke: #2e3d00; stroke-linejoin: bevel"/>
    </defs>
    <g clip-path="url(#pb1d0834194)">
     <use xlink:href="#m36809e237b" x="44.251984" y="101.95378" style="fill: #2e3d00; stroke: #2e3d00; stroke-linejoin: bevel"/>
     <use xlink:href="#m36809e237b" x="81.475984" y="97.318463" style="fill: #2e3d00; stroke: #2e3d00; stroke-linejoin: bevel"/>
     <use xlink:href="#m36809e237b" x="118.699984" y="101.846164" style="fill: #2e3d00; stroke: #2e3d00; stroke-linejoin: bevel"/>
    </g>
   </g>
   <g id="line2d_17">
    <path d="M 44.251984 57.052121 
L 81.475984 44.331918 
L 118.699984 60.739169 
" clip-path="url(#pb1d0834194)" style="fill: none; stroke: #6692c2; stroke-linecap: round"/>
    <defs>
     <path id="mcedcdb67b6" d="M -0 2.7 
L 2.7 -2.7 
L -2.7 -2.7 
z
" style="stroke: #6692c2; stroke-linejoin: miter"/>
    </defs>
    <g clip-path="url(#pb1d0834194)">
     <use xlink:href="#mcedcdb67b6" x="44.251984" y="57.052121" style="fill: #6692c2; stroke: #6692c2; stroke-linejoin: miter"/>
     <use xlink:href="#mcedcdb67b6" x="81.475984" y="44.331918" style="fill: #6692c2; stroke: #6692c2; stroke-linejoin: miter"/>
     <use xlink:href="#mcedcdb67b6" x="118.699984" y="60.739169" style="fill: #6692c2; stroke: #6692c2; stroke-linejoin: miter"/>
    </g>
   </g>
   <g id="line2d_18">
    <path d="M 44.251984 20.325172 
L 81.475984 65.41111 
L 118.699984 86.425922 
" clip-path="url(#pb1d0834194)" style="fill: none; stroke: #f8c2ce; stroke-linecap: round"/>
    <defs>
     <path id="m437c385f00" d="M -1.35 2.7 
L 0 1.35 
L 1.35 2.7 
L 2.7 1.35 
L 1.35 0 
L 2.7 -1.35 
L 1.35 -2.7 
L 0 -1.35 
L -1.35 -2.7 
L -2.7 -1.35 
L -1.35 0 
L -2.7 1.35 
z
" style="stroke: #f8c2ce; stroke-linejoin: miter"/>
    </defs>
    <g clip-path="url(#pb1d0834194)">
     <use xlink:href="#m437c385f00" x="44.251984" y="20.325172" style="fill: #f8c2ce; stroke: #f8c2ce; stroke-linejoin: miter"/>
     <use xlink:href="#m437c385f00" x="81.475984" y="65.41111" style="fill: #f8c2ce; stroke: #f8c2ce; stroke-linejoin: miter"/>
     <use xlink:href="#m437c385f00" x="118.699984" y="86.425922" style="fill: #f8c2ce; stroke: #f8c2ce; stroke-linejoin: miter"/>
    </g>
   </g>
   <g id="patch_3">
    <path d="M 37.179424 101.989816 
L 125.772544 101.989816 
" style="fill: none; stroke: #000000; stroke-width: 0.8; stroke-linejoin: miter; stroke-linecap: square"/>
   </g>
   <g id="legend_1">
    <g id="LineCollection_7">
     <path d="M 141.972544 13.144253 
L 141.972544 4.144253 
" style="fill: none; stroke: #00346b"/>
    </g>
    <g id="line2d_19">
     <path d="M 134.322544 8.644253 
L 149.622544 8.644253 
" style="fill: none; stroke: #00346b; stroke-linecap: round"/>
    </g>
    <g id="line2d_20">
     <g>
      <use xlink:href="#m034dccc19d" x="141.972544" y="8.644253" style="fill: #00346b; stroke: #00346b; stroke-linejoin: bevel"/>
     </g>
    </g>
    <g id="text_12">
     <!-- \schedulermoobj[1]{MCS}{o1,stl,\textbf{r-lb-nwsp-lta}}{SPLT25} -->
     <g transform="translate(155.022544 11.094253) scale(0.09 -0.09)">
      <defs>
       <path id="RobotoCondensed-Italic-4d" d="M 1645 4544 
L 934 4544 
L 147 0 
L 710 0 
L 1011 1739 
L 1274 3560 
L 1811 0 
L 2240 0 
L 3987 3483 
L 3642 1795 
L 3328 0 
L 3885 0 
L 4678 4544 
L 3949 4544 
L 2150 844 
L 1645 4544 
z
" transform="scale(0.015625)"/>
       <path id="RobotoCondensed-Italic-43" d="M 3149 1443 
L 2598 1443 
C 2515 1068 2394 803 2227 650 
C 2061 497 1843 428 1568 428 
C 1376 428 1222 498 1114 640 
C 998 775 934 981 915 1258 
C 902 1437 909 1634 941 1851 
L 1069 2658 
C 1146 3148 1286 3511 1491 3760 
C 1696 4002 1952 4116 2266 4116 
C 2426 4116 2554 4078 2650 4001 
C 2746 3917 2810 3814 2854 3679 
C 2893 3545 2906 3345 2899 3082 
L 3462 3082 
C 3482 3563 3386 3935 3187 4204 
C 2982 4474 2688 4608 2298 4608 
C 1830 4608 1440 4441 1126 4097 
C 813 3751 602 3266 506 2646 
L 378 1847 
C 358 1706 352 1560 352 1413 
C 358 1131 410 876 506 646 
C 602 415 736 244 909 122 
C 1082 0 1293 -64 1536 -64 
C 1971 -64 2330 63 2618 335 
C 2906 608 3078 975 3149 1443 
z
" transform="scale(0.015625)"/>
       <path id="RobotoCondensed-Italic-53" d="M 2291 1181 
C 2259 946 2170 760 2010 627 
C 1850 493 1658 429 1434 429 
C 1190 429 1011 512 890 673 
C 768 834 717 1047 736 1317 
L 173 1317 
C 154 915 256 588 486 332 
C 717 71 1024 -64 1402 -64 
C 1805 -64 2138 44 2406 280 
C 2675 516 2822 815 2854 1185 
C 2886 1618 2752 1962 2438 2217 
C 2298 2332 2106 2440 1856 2549 
C 1606 2650 1427 2765 1331 2899 
C 1229 3027 1190 3173 1210 3345 
C 1235 3580 1325 3766 1478 3906 
C 1626 4046 1818 4116 2042 4116 
C 2266 4116 2426 4039 2534 3891 
C 2643 3737 2682 3518 2662 3228 
L 3219 3228 
C 3251 3619 3155 3947 2944 4210 
C 2733 4474 2438 4608 2074 4608 
C 1696 4608 1370 4494 1101 4251 
C 832 4009 685 3703 653 3340 
C 621 2952 755 2633 1056 2379 
C 1197 2257 1402 2137 1670 2021 
C 1939 1901 2118 1780 2202 1652 
C 2285 1525 2310 1366 2291 1181 
z
" transform="scale(0.015625)"/>
       <path id="RobotoCondensed-Italic-6f" d="M 294 1840 
L 256 1527 
C 224 1231 243 962 314 718 
C 384 475 506 283 672 148 
C 838 7 1050 -64 1299 -64 
C 1696 -64 2029 77 2298 373 
C 2560 668 2726 1060 2797 1542 
L 2829 1863 
C 2861 2152 2848 2421 2778 2672 
C 2707 2916 2586 3109 2419 3250 
C 2253 3385 2042 3456 1792 3456 
C 1389 3456 1056 3315 794 3020 
C 531 2719 365 2328 294 1840 
z
M 781 1302 
L 787 1471 
L 826 1784 
C 870 2163 979 2464 1139 2676 
C 1299 2887 1504 2983 1754 2983 
C 1939 2983 2080 2899 2176 2743 
C 2272 2588 2317 2367 2310 2082 
L 2291 1858 
L 2246 1492 
C 2189 1127 2086 852 1933 672 
C 1773 486 1574 403 1331 403 
C 1146 403 1005 487 915 649 
C 819 804 774 1024 781 1302 
z
" transform="scale(0.015625)"/>
       <path id="RobotoCondensed-Italic-31" d="M 1395 0 
L 2176 4570 
L 2080 4570 
L 614 3968 
L 518 3411 
L 1523 3834 
L 851 0 
L 1395 0 
z
" transform="scale(0.015625)"/>
       <path id="RobotoCondensed-Italic-2c" d="M -26 -890 
C 365 -583 595 -192 666 281 
L 730 704 
L 179 704 
L 96 230 
C 38 -58 -109 -352 -352 -653 
L -26 -890 
z
" transform="scale(0.015625)"/>
       <path id="RobotoCondensed-Italic-73" d="M 1837 892 
C 1818 744 1754 628 1638 545 
C 1523 454 1376 410 1203 410 
C 1043 410 915 461 826 564 
C 736 667 691 815 698 1014 
L 154 1014 
C 141 698 230 440 429 240 
C 621 40 870 -64 1184 -64 
C 1504 -64 1779 19 2003 204 
C 2227 390 2355 633 2374 940 
C 2394 1292 2208 1581 1818 1799 
L 1293 2068 
C 1101 2177 1018 2311 1043 2484 
C 1062 2631 1126 2746 1229 2836 
C 1331 2925 1466 2970 1626 2970 
C 1773 2970 1882 2925 1965 2828 
C 2042 2732 2080 2597 2074 2423 
L 2605 2423 
C 2618 2727 2541 2972 2368 3165 
C 2195 3352 1958 3456 1658 3456 
C 1344 3456 1082 3360 870 3175 
C 653 2990 538 2755 518 2468 
C 506 2287 544 2126 627 1992 
C 710 1857 864 1728 1082 1606 
L 1504 1387 
C 1754 1252 1862 1091 1837 892 
z
" transform="scale(0.015625)"/>
       <path id="RobotoCondensed-Italic-74" d="M 1510 4192 
L 973 4192 
L 826 3392 
L 333 3392 
L 250 2944 
L 755 2944 
L 410 838 
C 384 548 422 329 518 175 
C 614 13 755 -64 941 -64 
C 1062 -64 1184 -45 1299 0 
L 1344 474 
C 1248 450 1171 435 1120 435 
C 986 435 922 525 928 705 
L 934 834 
L 1293 2944 
L 1786 2944 
L 1862 3392 
L 1363 3392 
L 1510 4192 
z
" transform="scale(0.015625)"/>
       <path id="RobotoCondensed-Italic-6c" d="M 659 0 
L 1491 4800 
L 947 4800 
L 115 0 
L 659 0 
z
" transform="scale(0.015625)"/>
       <path id="RobotoCondensed-BoldItalic-72" d="M 2074 2534 
L 2189 3405 
C 2080 3437 1997 3456 1926 3456 
C 1811 3456 1709 3424 1613 3360 
C 1517 3290 1414 3174 1312 3014 
L 1376 3379 
L 570 3379 
L -19 0 
L 845 0 
L 1235 2229 
C 1382 2452 1568 2560 1798 2560 
L 2074 2534 
z
" transform="scale(0.015625)"/>
       <path id="RobotoCondensed-BoldItalic-2d" d="M 1805 1600 
L 1939 2336 
L 448 2336 
L 320 1600 
L 1805 1600 
z
" transform="scale(0.015625)"/>
       <path id="RobotoCondensed-BoldItalic-6c" d="M 890 0 
L 1728 4800 
L 858 4800 
L 26 0 
L 890 0 
z
" transform="scale(0.015625)"/>
       <path id="RobotoCondensed-BoldItalic-62" d="M 1549 -64 
C 1818 -64 2048 12 2246 172 
C 2438 333 2586 583 2694 936 
C 2797 1283 2854 1700 2874 2180 
C 2893 2597 2829 2911 2682 3129 
C 2534 3347 2310 3456 2016 3456 
C 1766 3456 1549 3343 1350 3110 
L 1683 4800 
L 819 4800 
L -13 0 
L 787 0 
L 896 339 
C 1043 74 1261 -64 1549 -64 
z
M 2022 2168 
L 1965 1589 
L 1939 1359 
C 1875 889 1683 659 1357 659 
C 1184 659 1069 743 1005 890 
L 1274 2449 
C 1402 2623 1549 2707 1709 2707 
C 1818 2707 1901 2668 1952 2584 
C 2003 2500 2029 2363 2022 2168 
z
" transform="scale(0.015625)"/>
       <path id="RobotoCondensed-BoldItalic-6e" d="M 1357 3379 
L 550 3379 
L -38 0 
L 832 0 
L 1261 2463 
C 1312 2534 1370 2592 1434 2643 
C 1498 2688 1574 2713 1664 2713 
C 1856 2713 1946 2592 1939 2347 
L 1920 2162 
L 1568 0 
L 2432 0 
L 2790 2155 
L 2810 2445 
C 2810 2767 2752 3018 2630 3192 
C 2509 3366 2323 3456 2086 3456 
C 1798 3456 1530 3323 1293 3049 
L 1357 3379 
z
" transform="scale(0.015625)"/>
       <path id="RobotoCondensed-BoldItalic-77" d="M 2624 1491 
L 2522 3379 
L 1901 3379 
L 1146 1504 
L 1184 3379 
L 371 3379 
L 467 0 
L 1190 0 
L 1990 1945 
L 2112 0 
L 2822 0 
L 4090 3379 
L 3245 3379 
L 2624 1491 
z
" transform="scale(0.015625)"/>
       <path id="RobotoCondensed-BoldItalic-73" d="M 1613 928 
C 1594 819 1549 736 1472 678 
C 1395 621 1306 589 1197 589 
C 1075 589 986 627 928 698 
C 870 768 838 891 845 1051 
L 19 1051 
C 13 729 115 464 326 258 
C 538 46 806 -64 1133 -64 
C 1363 -64 1574 -20 1773 64 
C 1971 147 2125 262 2246 422 
C 2362 582 2426 761 2438 972 
C 2458 1331 2317 1612 2003 1817 
C 1901 1888 1734 1977 1498 2086 
C 1261 2188 1152 2310 1178 2444 
C 1197 2540 1242 2624 1312 2694 
C 1382 2764 1466 2796 1562 2796 
C 1658 2796 1728 2764 1773 2707 
C 1818 2643 1837 2533 1830 2386 
L 2694 2386 
C 2701 2701 2605 2959 2406 3160 
C 2208 3353 1946 3456 1606 3456 
C 1267 3456 979 3360 742 3162 
C 506 2963 378 2707 365 2400 
C 358 2240 390 2099 448 1978 
C 506 1856 595 1741 717 1645 
C 838 1542 1024 1434 1274 1318 
C 1523 1203 1632 1075 1613 928 
z
" transform="scale(0.015625)"/>
       <path id="RobotoCondensed-BoldItalic-70" d="M 1542 -64 
C 1805 -64 2035 12 2234 179 
C 2432 340 2579 589 2688 930 
C 2797 1270 2854 1679 2874 2167 
C 2893 2584 2829 2898 2682 3122 
C 2534 3347 2310 3456 2016 3456 
C 1754 3456 1517 3330 1312 3078 
L 1357 3385 
L 570 3385 
L -243 -1312 
L 621 -1312 
L 922 275 
C 1069 54 1280 -64 1542 -64 
z
M 2016 2175 
L 2010 2058 
L 1946 1422 
C 1869 907 1670 659 1350 659 
C 1184 659 1069 741 998 884 
L 1280 2476 
C 1408 2636 1549 2713 1702 2713 
C 1811 2713 1894 2674 1946 2597 
C 1990 2512 2016 2376 2016 2175 
z
" transform="scale(0.015625)"/>
       <path id="RobotoCondensed-BoldItalic-74" d="M 1722 4192 
L 858 4192 
L 710 3353 
L 333 3353 
L 218 2688 
L 595 2688 
L 307 896 
C 275 594 326 348 454 175 
C 582 -6 774 -96 1024 -96 
C 1197 -96 1344 -70 1472 -19 
L 1549 669 
C 1440 669 1370 669 1338 669 
C 1216 669 1158 739 1165 881 
L 1171 978 
L 1459 2688 
L 1894 2688 
L 2010 3353 
L 1574 3353 
L 1722 4192 
z
" transform="scale(0.015625)"/>
       <path id="RobotoCondensed-BoldItalic-61" d="M 1594 0 
L 2438 0 
L 2445 58 
C 2406 166 2394 294 2400 442 
L 2413 609 
L 2688 2331 
C 2720 2666 2650 2936 2477 3142 
C 2298 3347 2042 3456 1702 3456 
C 1344 3456 1043 3354 794 3150 
C 544 2945 416 2684 397 2365 
L 1254 2365 
C 1299 2628 1421 2764 1619 2764 
C 1766 2764 1843 2671 1843 2487 
L 1830 2345 
L 1792 2067 
L 1536 2067 
C 1094 2067 749 1965 486 1765 
C 224 1561 90 1278 70 919 
C 58 642 128 405 288 219 
C 448 32 653 -64 915 -64 
C 1158 -64 1376 45 1568 262 
C 1568 160 1574 70 1594 0 
z
M 1152 621 
C 1088 621 1037 640 1005 686 
C 966 732 947 784 947 856 
L 954 979 
C 973 1139 1037 1267 1139 1376 
C 1242 1478 1376 1536 1542 1536 
L 1728 1536 
L 1574 825 
C 1446 691 1306 621 1152 621 
z
" transform="scale(0.015625)"/>
       <path id="RobotoCondensed-Italic-50" d="M 1018 1792 
L 1901 1792 
C 2330 1792 2682 1920 2957 2170 
C 3232 2419 3386 2765 3424 3200 
C 3456 3591 3373 3917 3174 4167 
C 2970 4416 2682 4544 2310 4544 
L 934 4544 
L 147 0 
L 710 0 
L 1018 1792 
z
M 1101 2279 
L 1414 4057 
L 2298 4057 
C 2458 4057 2592 3999 2688 3903 
C 2784 3807 2848 3673 2867 3500 
C 2893 3302 2867 3098 2797 2899 
C 2726 2701 2611 2547 2464 2439 
C 2310 2330 2131 2279 1926 2279 
L 1101 2279 
z
" transform="scale(0.015625)"/>
       <path id="RobotoCondensed-Italic-4c" d="M 800 493 
L 1498 4544 
L 934 4544 
L 147 0 
L 2438 0 
L 2528 493 
L 800 493 
z
" transform="scale(0.015625)"/>
       <path id="RobotoCondensed-Italic-54" d="M 3437 4032 
L 3520 4524 
L 646 4524 
L 557 4032 
L 1715 4032 
L 1011 -32 
L 1574 -32 
L 2272 4032 
L 3437 4032 
z
" transform="scale(0.015625)"/>
       <path id="RobotoCondensed-Italic-32" d="M 2534 0 
L 2605 474 
L 800 474 
L 2042 1862 
L 2266 2125 
C 2643 2586 2854 3014 2893 3418 
C 2925 3757 2848 4045 2669 4269 
C 2483 4493 2227 4608 1901 4614 
C 1523 4621 1203 4499 954 4237 
C 704 3974 557 3630 512 3207 
L 1043 3214 
C 1075 3508 1165 3738 1312 3904 
C 1459 4064 1645 4147 1869 4141 
C 2003 4134 2112 4090 2195 3994 
C 2278 3898 2323 3770 2336 3610 
C 2355 3379 2317 3162 2221 2957 
C 2125 2752 1971 2528 1760 2285 
L 128 442 
L 58 0 
L 2534 0 
z
" transform="scale(0.015625)"/>
       <path id="RobotoCondensed-Italic-35" d="M 634 2282 
L 1075 2161 
C 1197 2269 1299 2345 1389 2390 
C 1478 2428 1574 2448 1670 2441 
C 1830 2435 1952 2371 2048 2257 
C 2138 2135 2189 1976 2202 1779 
C 2227 1403 2163 1085 2016 811 
C 1869 537 1658 403 1389 410 
C 1037 416 851 684 832 1199 
L 333 1199 
C 339 816 435 510 621 281 
C 806 51 1050 -64 1357 -70 
C 1632 -77 1882 -6 2093 153 
C 2304 313 2470 536 2592 829 
C 2707 1122 2758 1448 2746 1799 
C 2733 2150 2650 2430 2490 2641 
C 2330 2851 2112 2953 1830 2960 
C 1632 2966 1434 2896 1235 2761 
L 1555 4013 
L 3021 4013 
L 3104 4550 
L 1178 4550 
L 634 2282 
z
" transform="scale(0.015625)"/>
      </defs>
      <use xlink:href="#RobotoCondensed-Italic-4d" transform="scale(0.946448)"/>
      <use xlink:href="#RobotoCondensed-Italic-43" transform="translate(69.753242 0) scale(0.946448)"/>
      <use xlink:href="#RobotoCondensed-Italic-53" transform="translate(122.186424 0) scale(0.946448)"/>
      <use xlink:href="#RobotoCondensed-Italic-6f" transform="translate(180.464144 51.157251) scale(0.746176)"/>
      <use xlink:href="#RobotoCondensed-Italic-31" transform="translate(217.101397 51.157251) scale(0.746176)"/>
      <use xlink:href="#RobotoCondensed-Italic-2c" transform="translate(245.082999 51.157251) scale(0.746176)"/>
      <use xlink:href="#RobotoCondensed-Italic-73" transform="translate(259.6334 51.157251) scale(0.746176)"/>
      <use xlink:href="#RobotoCondensed-Italic-74" transform="translate(292.912853 51.157251) scale(0.746176)"/>
      <use xlink:href="#RobotoCondensed-Italic-6c" transform="translate(314.626593 51.157251) scale(0.746176)"/>
      <use xlink:href="#RobotoCondensed-Italic-2c" transform="translate(331.564799 51.157251) scale(0.746176)"/>
      <use xlink:href="#RobotoCondensed-BoldItalic-72" transform="translate(346.1152 51.157251) scale(0.746176)"/>
      <use xlink:href="#RobotoCondensed-BoldItalic-2d" transform="translate(370.440545 51.157251) scale(0.746176)"/>
      <use xlink:href="#RobotoCondensed-BoldItalic-6c" transform="translate(397.079054 51.157251) scale(0.746176)"/>
      <use xlink:href="#RobotoCondensed-BoldItalic-62" transform="translate(415.658809 51.157251) scale(0.746176)"/>
      <use xlink:href="#RobotoCondensed-BoldItalic-2d" transform="translate(451.848324 51.157251) scale(0.746176)"/>
      <use xlink:href="#RobotoCondensed-BoldItalic-6e" transform="translate(478.486833 51.157251) scale(0.746176)"/>
      <use xlink:href="#RobotoCondensed-BoldItalic-77" transform="translate(514.452547 51.157251) scale(0.746176)"/>
      <use xlink:href="#RobotoCondensed-BoldItalic-73" transform="translate(560.566227 51.157251) scale(0.746176)"/>
      <use xlink:href="#RobotoCondensed-BoldItalic-70" transform="translate(593.771039 51.157251) scale(0.746176)"/>
      <use xlink:href="#RobotoCondensed-BoldItalic-2d" transform="translate(629.960554 51.157251) scale(0.746176)"/>
      <use xlink:href="#RobotoCondensed-BoldItalic-6c" transform="translate(656.599063 51.157251) scale(0.746176)"/>
      <use xlink:href="#RobotoCondensed-BoldItalic-74" transform="translate(675.178819 51.157251) scale(0.746176)"/>
      <use xlink:href="#RobotoCondensed-BoldItalic-61" transform="translate(697.713333 51.157251) scale(0.746176)"/>
      <use xlink:href="#RobotoCondensed-Italic-53" transform="translate(170.171321 -36.289178) scale(0.690903)"/>
      <use xlink:href="#RobotoCondensed-Italic-50" transform="translate(205.200089 -36.289178) scale(0.690903)"/>
      <use xlink:href="#RobotoCondensed-Italic-4c" transform="translate(242.647004 -36.289178) scale(0.690903)"/>
      <use xlink:href="#RobotoCondensed-Italic-54" transform="translate(265.515882 -36.289178) scale(0.690903)"/>
      <use xlink:href="#RobotoCondensed-Italic-32" transform="translate(300.682818 -36.289178) scale(0.690903)"/>
      <use xlink:href="#RobotoCondensed-Italic-35" transform="translate(334.053406 -36.289178) scale(0.690903)"/>
     </g>
    </g>
    <g id="LineCollection_8">
     <path d="M 141.972544 31.834859 
L 141.972544 22.834859 
" style="fill: none; stroke: #8b9397"/>
    </g>
    <g id="line2d_21">
     <path d="M 134.322544 27.334859 
L 149.622544 27.334859 
" style="fill: none; stroke: #8b9397; stroke-linecap: round"/>
    </g>
    <g id="line2d_22">
     <g>
      <use xlink:href="#m9ac1f07574" x="141.972544" y="27.334859" style="fill: #8b9397; stroke: #8b9397; stroke-linejoin: miter"/>
     </g>
    </g>
    <g id="text_13">
     <!-- \schedulermoobj[1]{MCS}{o1,stl,\textbf{r-nwsp-lu1-lta}}{SPLT25} -->
     <g transform="translate(155.022544 29.784859) scale(0.09 -0.09)">
      <defs>
       <path id="RobotoCondensed-BoldItalic-75" d="M 1690 307 
L 1632 0 
L 2432 0 
L 3021 3379 
L 2150 3379 
L 1728 934 
C 1581 755 1427 666 1254 666 
C 1178 672 1120 705 1082 777 
C 1043 842 1030 927 1037 1031 
L 1050 1185 
L 1414 3379 
L 550 3379 
L 186 1197 
C 166 1056 166 909 179 762 
C 198 506 275 307 410 160 
C 544 13 717 -64 941 -64 
C 1229 -64 1478 51 1690 307 
z
" transform="scale(0.015625)"/>
       <path id="RobotoCondensed-BoldItalic-31" d="M 1683 0 
L 2451 4557 
L 2342 4557 
L 653 3898 
L 512 3123 
L 1414 3456 
L 813 0 
L 1683 0 
z
" transform="scale(0.015625)"/>
      </defs>
      <use xlink:href="#RobotoCondensed-Italic-4d" transform="scale(0.946448)"/>
      <use xlink:href="#RobotoCondensed-Italic-43" transform="translate(69.753242 0) scale(0.946448)"/>
      <use xlink:href="#RobotoCondensed-Italic-53" transform="translate(122.186424 0) scale(0.946448)"/>
      <use xlink:href="#RobotoCondensed-Italic-6f" transform="translate(180.464144 51.157251) scale(0.746176)"/>
      <use xlink:href="#RobotoCondensed-Italic-31" transform="translate(217.101397 51.157251) scale(0.746176)"/>
      <use xlink:href="#RobotoCondensed-Italic-2c" transform="translate(245.082999 51.157251) scale(0.746176)"/>
      <use xlink:href="#RobotoCondensed-Italic-73" transform="translate(259.6334 51.157251) scale(0.746176)"/>
      <use xlink:href="#RobotoCondensed-Italic-74" transform="translate(292.912853 51.157251) scale(0.746176)"/>
      <use xlink:href="#RobotoCondensed-Italic-6c" transform="translate(314.626593 51.157251) scale(0.746176)"/>
      <use xlink:href="#RobotoCondensed-Italic-2c" transform="translate(331.564799 51.157251) scale(0.746176)"/>
      <use xlink:href="#RobotoCondensed-BoldItalic-72" transform="translate(346.1152 51.157251) scale(0.746176)"/>
      <use xlink:href="#RobotoCondensed-BoldItalic-2d" transform="translate(370.440545 51.157251) scale(0.746176)"/>
      <use xlink:href="#RobotoCondensed-BoldItalic-6e" transform="translate(397.079054 51.157251) scale(0.746176)"/>
      <use xlink:href="#RobotoCondensed-BoldItalic-77" transform="translate(433.044768 51.157251) scale(0.746176)"/>
      <use xlink:href="#RobotoCondensed-BoldItalic-73" transform="translate(479.158448 51.157251) scale(0.746176)"/>
      <use xlink:href="#RobotoCondensed-BoldItalic-70" transform="translate(512.36326 51.157251) scale(0.746176)"/>
      <use xlink:href="#RobotoCondensed-BoldItalic-2d" transform="translate(548.552775 51.157251) scale(0.746176)"/>
      <use xlink:href="#RobotoCondensed-BoldItalic-6c" transform="translate(575.191284 51.157251) scale(0.746176)"/>
      <use xlink:href="#RobotoCondensed-BoldItalic-75" transform="translate(593.771039 51.157251) scale(0.746176)"/>
      <use xlink:href="#RobotoCondensed-BoldItalic-31" transform="translate(629.736754 51.157251) scale(0.746176)"/>
      <use xlink:href="#RobotoCondensed-BoldItalic-2d" transform="translate(661.076155 51.157251) scale(0.746176)"/>
      <use xlink:href="#RobotoCondensed-BoldItalic-6c" transform="translate(687.714664 51.157251) scale(0.746176)"/>
      <use xlink:href="#RobotoCondensed-BoldItalic-74" transform="translate(706.29442 51.157251) scale(0.746176)"/>
      <use xlink:href="#RobotoCondensed-BoldItalic-61" transform="translate(728.828934 51.157251) scale(0.746176)"/>
      <use xlink:href="#RobotoCondensed-Italic-53" transform="translate(170.171321 -36.289178) scale(0.690903)"/>
      <use xlink:href="#RobotoCondensed-Italic-50" transform="translate(205.200089 -36.289178) scale(0.690903)"/>
      <use xlink:href="#RobotoCondensed-Italic-4c" transform="translate(242.647004 -36.289178) scale(0.690903)"/>
      <use xlink:href="#RobotoCondensed-Italic-54" transform="translate(265.515882 -36.289178) scale(0.690903)"/>
      <use xlink:href="#RobotoCondensed-Italic-32" transform="translate(300.682818 -36.289178) scale(0.690903)"/>
      <use xlink:href="#RobotoCondensed-Italic-35" transform="translate(334.053406 -36.289178) scale(0.690903)"/>
     </g>
    </g>
    <g id="LineCollection_9">
     <path d="M 141.972544 50.525464 
L 141.972544 41.525464 
" style="fill: none; stroke: #d9e482"/>
    </g>
    <g id="line2d_23">
     <path d="M 134.322544 46.025464 
L 149.622544 46.025464 
" style="fill: none; stroke: #d9e482; stroke-linecap: round"/>
    </g>
    <g id="line2d_24">
     <g>
      <use xlink:href="#mb1dceee519" x="141.972544" y="46.025464" style="fill: #d9e482; stroke: #d9e482"/>
     </g>
    </g>
    <g id="text_14">
     <!-- \schedulermoobj[1]{UC}{o1,stl,\textbf{r-lb-nwsp-lta}}{SPLT25} -->
     <g transform="translate(155.022544 48.475464) scale(0.09 -0.09)">
      <defs>
       <path id="RobotoCondensed-Italic-55" d="M 3610 4544 
L 3053 4544 
L 2502 1320 
C 2451 1020 2342 798 2182 652 
C 2016 505 1798 435 1536 435 
C 1146 435 934 624 902 996 
C 896 1105 896 1219 909 1341 
L 1453 4544 
L 896 4544 
L 352 1342 
C 301 914 378 569 589 320 
C 800 70 1101 -64 1504 -64 
C 1926 -64 2278 57 2560 312 
C 2835 560 3008 911 3066 1351 
L 3610 4544 
z
" transform="scale(0.015625)"/>
      </defs>
      <use xlink:href="#RobotoCondensed-Italic-55" transform="scale(0.946448)"/>
      <use xlink:href="#RobotoCondensed-Italic-43" transform="translate(51.959951 0) scale(0.946448)"/>
      <use xlink:href="#RobotoCondensed-Italic-6f" transform="translate(114.685955 51.157251) scale(0.746176)"/>
      <use xlink:href="#RobotoCondensed-Italic-31" transform="translate(151.323209 51.157251) scale(0.746176)"/>
      <use xlink:href="#RobotoCondensed-Italic-2c" transform="translate(179.30481 51.157251) scale(0.746176)"/>
      <use xlink:href="#RobotoCondensed-Italic-73" transform="translate(193.855212 51.157251) scale(0.746176)"/>
      <use xlink:href="#RobotoCondensed-Italic-74" transform="translate(227.134665 51.157251) scale(0.746176)"/>
      <use xlink:href="#RobotoCondensed-Italic-6c" transform="translate(248.848404 51.157251) scale(0.746176)"/>
      <use xlink:href="#RobotoCondensed-Italic-2c" transform="translate(265.78661 51.157251) scale(0.746176)"/>
      <use xlink:href="#RobotoCondensed-BoldItalic-72" transform="translate(280.337011 51.157251) scale(0.746176)"/>
      <use xlink:href="#RobotoCondensed-BoldItalic-2d" transform="translate(304.662356 51.157251) scale(0.746176)"/>
      <use xlink:href="#RobotoCondensed-BoldItalic-6c" transform="translate(331.300865 51.157251) scale(0.746176)"/>
      <use xlink:href="#RobotoCondensed-BoldItalic-62" transform="translate(349.88062 51.157251) scale(0.746176)"/>
      <use xlink:href="#RobotoCondensed-BoldItalic-2d" transform="translate(386.070136 51.157251) scale(0.746176)"/>
      <use xlink:href="#RobotoCondensed-BoldItalic-6e" transform="translate(412.708644 51.157251) scale(0.746176)"/>
      <use xlink:href="#RobotoCondensed-BoldItalic-77" transform="translate(448.674359 51.157251) scale(0.746176)"/>
      <use xlink:href="#RobotoCondensed-BoldItalic-73" transform="translate(494.788039 51.157251) scale(0.746176)"/>
      <use xlink:href="#RobotoCondensed-BoldItalic-70" transform="translate(527.992851 51.157251) scale(0.746176)"/>
      <use xlink:href="#RobotoCondensed-BoldItalic-2d" transform="translate(564.182366 51.157251) scale(0.746176)"/>
      <use xlink:href="#RobotoCondensed-BoldItalic-6c" transform="translate(590.820875 51.157251) scale(0.746176)"/>
      <use xlink:href="#RobotoCondensed-BoldItalic-74" transform="translate(609.40063 51.157251) scale(0.746176)"/>
      <use xlink:href="#RobotoCondensed-BoldItalic-61" transform="translate(631.935144 51.157251) scale(0.746176)"/>
      <use xlink:href="#RobotoCondensed-Italic-53" transform="translate(104.393133 -36.289178) scale(0.690903)"/>
      <use xlink:href="#RobotoCondensed-Italic-50" transform="translate(139.421901 -36.289178) scale(0.690903)"/>
      <use xlink:href="#RobotoCondensed-Italic-4c" transform="translate(176.868816 -36.289178) scale(0.690903)"/>
      <use xlink:href="#RobotoCondensed-Italic-54" transform="translate(199.737693 -36.289178) scale(0.690903)"/>
      <use xlink:href="#RobotoCondensed-Italic-32" transform="translate(234.90463 -36.289178) scale(0.690903)"/>
      <use xlink:href="#RobotoCondensed-Italic-35" transform="translate(268.275218 -36.289178) scale(0.690903)"/>
     </g>
    </g>
    <g id="LineCollection_10">
     <path d="M 141.972544 69.216069 
L 141.972544 60.216069 
" style="fill: none; stroke: #2e3d00"/>
    </g>
    <g id="line2d_25">
     <path d="M 134.322544 64.716069 
L 149.622544 64.716069 
" style="fill: none; stroke: #2e3d00; stroke-linecap: round"/>
    </g>
    <g id="line2d_26">
     <g>
      <use xlink:href="#m36809e237b" x="141.972544" y="64.716069" style="fill: #2e3d00; stroke: #2e3d00; stroke-linejoin: bevel"/>
     </g>
    </g>
    <g id="text_15">
     <!-- \schedulermoobj[1]{UC}{o1,stl,\textbf{r-nwsp-lu1-lta}}{SPLT25} -->
     <g transform="translate(155.022544 67.166069) scale(0.09 -0.09)">
      <use xlink:href="#RobotoCondensed-Italic-55" transform="scale(0.946448)"/>
      <use xlink:href="#RobotoCondensed-Italic-43" transform="translate(51.959951 0) scale(0.946448)"/>
      <use xlink:href="#RobotoCondensed-Italic-6f" transform="translate(114.685955 51.157251) scale(0.746176)"/>
      <use xlink:href="#RobotoCondensed-Italic-31" transform="translate(151.323209 51.157251) scale(0.746176)"/>
      <use xlink:href="#RobotoCondensed-Italic-2c" transform="translate(179.30481 51.157251) scale(0.746176)"/>
      <use xlink:href="#RobotoCondensed-Italic-73" transform="translate(193.855212 51.157251) scale(0.746176)"/>
      <use xlink:href="#RobotoCondensed-Italic-74" transform="translate(227.134665 51.157251) scale(0.746176)"/>
      <use xlink:href="#RobotoCondensed-Italic-6c" transform="translate(248.848404 51.157251) scale(0.746176)"/>
      <use xlink:href="#RobotoCondensed-Italic-2c" transform="translate(265.78661 51.157251) scale(0.746176)"/>
      <use xlink:href="#RobotoCondensed-BoldItalic-72" transform="translate(280.337011 51.157251) scale(0.746176)"/>
      <use xlink:href="#RobotoCondensed-BoldItalic-2d" transform="translate(304.662356 51.157251) scale(0.746176)"/>
      <use xlink:href="#RobotoCondensed-BoldItalic-6e" transform="translate(331.300865 51.157251) scale(0.746176)"/>
      <use xlink:href="#RobotoCondensed-BoldItalic-77" transform="translate(367.26658 51.157251) scale(0.746176)"/>
      <use xlink:href="#RobotoCondensed-BoldItalic-73" transform="translate(413.380259 51.157251) scale(0.746176)"/>
      <use xlink:href="#RobotoCondensed-BoldItalic-70" transform="translate(446.585072 51.157251) scale(0.746176)"/>
      <use xlink:href="#RobotoCondensed-BoldItalic-2d" transform="translate(482.774587 51.157251) scale(0.746176)"/>
      <use xlink:href="#RobotoCondensed-BoldItalic-6c" transform="translate(509.413096 51.157251) scale(0.746176)"/>
      <use xlink:href="#RobotoCondensed-BoldItalic-75" transform="translate(527.992851 51.157251) scale(0.746176)"/>
      <use xlink:href="#RobotoCondensed-BoldItalic-31" transform="translate(563.958565 51.157251) scale(0.746176)"/>
      <use xlink:href="#RobotoCondensed-BoldItalic-2d" transform="translate(595.297967 51.157251) scale(0.746176)"/>
      <use xlink:href="#RobotoCondensed-BoldItalic-6c" transform="translate(621.936476 51.157251) scale(0.746176)"/>
      <use xlink:href="#RobotoCondensed-BoldItalic-74" transform="translate(640.516231 51.157251) scale(0.746176)"/>
      <use xlink:href="#RobotoCondensed-BoldItalic-61" transform="translate(663.050745 51.157251) scale(0.746176)"/>
      <use xlink:href="#RobotoCondensed-Italic-53" transform="translate(104.393133 -36.289178) scale(0.690903)"/>
      <use xlink:href="#RobotoCondensed-Italic-50" transform="translate(139.421901 -36.289178) scale(0.690903)"/>
      <use xlink:href="#RobotoCondensed-Italic-4c" transform="translate(176.868816 -36.289178) scale(0.690903)"/>
      <use xlink:href="#RobotoCondensed-Italic-54" transform="translate(199.737693 -36.289178) scale(0.690903)"/>
      <use xlink:href="#RobotoCondensed-Italic-32" transform="translate(234.90463 -36.289178) scale(0.690903)"/>
      <use xlink:href="#RobotoCondensed-Italic-35" transform="translate(268.275218 -36.289178) scale(0.690903)"/>
     </g>
    </g>
    <g id="LineCollection_11">
     <path d="M 141.972544 87.906675 
L 141.972544 78.906675 
" style="fill: none; stroke: #6692c2"/>
    </g>
    <g id="line2d_27">
     <path d="M 134.322544 83.406675 
L 149.622544 83.406675 
" style="fill: none; stroke: #6692c2; stroke-linecap: round"/>
    </g>
    <g id="line2d_28">
     <g>
      <use xlink:href="#mcedcdb67b6" x="141.972544" y="83.406675" style="fill: #6692c2; stroke: #6692c2; stroke-linejoin: miter"/>
     </g>
    </g>
    <g id="text_16">
     <!-- \schedulermoobj[1]{UC}{o1,stl,\textbf{rpp-lbsp}}{SPLT25} -->
     <g transform="translate(155.022544 85.856675) scale(0.09 -0.09)">
      <use xlink:href="#RobotoCondensed-Italic-55" transform="scale(0.946448)"/>
      <use xlink:href="#RobotoCondensed-Italic-43" transform="translate(51.959951 0) scale(0.946448)"/>
      <use xlink:href="#RobotoCondensed-Italic-6f" transform="translate(114.685955 51.157251) scale(0.746176)"/>
      <use xlink:href="#RobotoCondensed-Italic-31" transform="translate(151.323209 51.157251) scale(0.746176)"/>
      <use xlink:href="#RobotoCondensed-Italic-2c" transform="translate(179.30481 51.157251) scale(0.746176)"/>
      <use xlink:href="#RobotoCondensed-Italic-73" transform="translate(193.855212 51.157251) scale(0.746176)"/>
      <use xlink:href="#RobotoCondensed-Italic-74" transform="translate(227.134665 51.157251) scale(0.746176)"/>
      <use xlink:href="#RobotoCondensed-Italic-6c" transform="translate(248.848404 51.157251) scale(0.746176)"/>
      <use xlink:href="#RobotoCondensed-Italic-2c" transform="translate(265.78661 51.157251) scale(0.746176)"/>
      <use xlink:href="#RobotoCondensed-BoldItalic-72" transform="translate(280.337011 51.157251) scale(0.746176)"/>
      <use xlink:href="#RobotoCondensed-BoldItalic-70" transform="translate(304.662356 51.157251) scale(0.746176)"/>
      <use xlink:href="#RobotoCondensed-BoldItalic-70" transform="translate(340.851871 51.157251) scale(0.746176)"/>
      <use xlink:href="#RobotoCondensed-BoldItalic-2d" transform="translate(377.041387 51.157251) scale(0.746176)"/>
      <use xlink:href="#RobotoCondensed-BoldItalic-6c" transform="translate(403.679895 51.157251) scale(0.746176)"/>
      <use xlink:href="#RobotoCondensed-BoldItalic-62" transform="translate(422.259651 51.157251) scale(0.746176)"/>
      <use xlink:href="#RobotoCondensed-BoldItalic-73" transform="translate(458.449166 51.157251) scale(0.746176)"/>
      <use xlink:href="#RobotoCondensed-BoldItalic-70" transform="translate(491.653978 51.157251) scale(0.746176)"/>
      <use xlink:href="#RobotoCondensed-Italic-53" transform="translate(104.393133 -36.289178) scale(0.690903)"/>
      <use xlink:href="#RobotoCondensed-Italic-50" transform="translate(139.421901 -36.289178) scale(0.690903)"/>
      <use xlink:href="#RobotoCondensed-Italic-4c" transform="translate(176.868816 -36.289178) scale(0.690903)"/>
      <use xlink:href="#RobotoCondensed-Italic-54" transform="translate(199.737693 -36.289178) scale(0.690903)"/>
      <use xlink:href="#RobotoCondensed-Italic-32" transform="translate(234.90463 -36.289178) scale(0.690903)"/>
      <use xlink:href="#RobotoCondensed-Italic-35" transform="translate(268.275218 -36.289178) scale(0.690903)"/>
     </g>
    </g>
    <g id="LineCollection_12">
     <path d="M 141.972544 106.59728 
L 141.972544 97.59728 
" style="fill: none; stroke: #f8c2ce"/>
    </g>
    <g id="line2d_29">
     <path d="M 134.322544 102.09728 
L 149.622544 102.09728 
" style="fill: none; stroke: #f8c2ce; stroke-linecap: round"/>
    </g>
    <g id="line2d_30">
     <g>
      <use xlink:href="#m437c385f00" x="141.972544" y="102.09728" style="fill: #f8c2ce; stroke: #f8c2ce; stroke-linejoin: miter"/>
     </g>
    </g>
    <g id="text_17">
     <!-- \schedulermoobj[1]{MCS}{o1,stl,\textbf{rpp-lbsp}}{SPLT25} -->
     <g transform="translate(155.022544 104.54728) scale(0.09 -0.09)">
      <use xlink:href="#RobotoCondensed-Italic-4d" transform="scale(0.946448)"/>
      <use xlink:href="#RobotoCondensed-Italic-43" transform="translate(69.753242 0) scale(0.946448)"/>
      <use xlink:href="#RobotoCondensed-Italic-53" transform="translate(122.186424 0) scale(0.946448)"/>
      <use xlink:href="#RobotoCondensed-Italic-6f" transform="translate(180.464144 51.157251) scale(0.746176)"/>
      <use xlink:href="#RobotoCondensed-Italic-31" transform="translate(217.101397 51.157251) scale(0.746176)"/>
      <use xlink:href="#RobotoCondensed-Italic-2c" transform="translate(245.082999 51.157251) scale(0.746176)"/>
      <use xlink:href="#RobotoCondensed-Italic-73" transform="translate(259.6334 51.157251) scale(0.746176)"/>
      <use xlink:href="#RobotoCondensed-Italic-74" transform="translate(292.912853 51.157251) scale(0.746176)"/>
      <use xlink:href="#RobotoCondensed-Italic-6c" transform="translate(314.626593 51.157251) scale(0.746176)"/>
      <use xlink:href="#RobotoCondensed-Italic-2c" transform="translate(331.564799 51.157251) scale(0.746176)"/>
      <use xlink:href="#RobotoCondensed-BoldItalic-72" transform="translate(346.1152 51.157251) scale(0.746176)"/>
      <use xlink:href="#RobotoCondensed-BoldItalic-70" transform="translate(370.440545 51.157251) scale(0.746176)"/>
      <use xlink:href="#RobotoCondensed-BoldItalic-70" transform="translate(406.63006 51.157251) scale(0.746176)"/>
      <use xlink:href="#RobotoCondensed-BoldItalic-2d" transform="translate(442.819575 51.157251) scale(0.746176)"/>
      <use xlink:href="#RobotoCondensed-BoldItalic-6c" transform="translate(469.458084 51.157251) scale(0.746176)"/>
      <use xlink:href="#RobotoCondensed-BoldItalic-62" transform="translate(488.037839 51.157251) scale(0.746176)"/>
      <use xlink:href="#RobotoCondensed-BoldItalic-73" transform="translate(524.227354 51.157251) scale(0.746176)"/>
      <use xlink:href="#RobotoCondensed-BoldItalic-70" transform="translate(557.432167 51.157251) scale(0.746176)"/>
      <use xlink:href="#RobotoCondensed-Italic-53" transform="translate(170.171321 -36.289178) scale(0.690903)"/>
      <use xlink:href="#RobotoCondensed-Italic-50" transform="translate(205.200089 -36.289178) scale(0.690903)"/>
      <use xlink:href="#RobotoCondensed-Italic-4c" transform="translate(242.647004 -36.289178) scale(0.690903)"/>
      <use xlink:href="#RobotoCondensed-Italic-54" transform="translate(265.515882 -36.289178) scale(0.690903)"/>
      <use xlink:href="#RobotoCondensed-Italic-32" transform="translate(300.682818 -36.289178) scale(0.690903)"/>
      <use xlink:href="#RobotoCondensed-Italic-35" transform="translate(334.053406 -36.289178) scale(0.690903)"/>
     </g>
    </g>
   </g>
  </g>
 </g>
 <defs>
  <clipPath id="pb1d0834194">
   <rect x="37.179424" y="8.533816" width="88.59312" height="93.456"/>
  </clipPath>
 </defs>
</svg>
