<?xml version="1.0" encoding="utf-8" standalone="no"?>
<!DOCTYPE svg PUBLIC "-//W3C//DTD SVG 1.1//EN"
  "http://www.w3.org/Graphics/SVG/1.1/DTD/svg11.dtd">
<svg xmlns:xlink="http://www.w3.org/1999/xlink" width="266.004175pt" height="184.270662pt" viewBox="0 0 266.004175 184.270662" xmlns="http://www.w3.org/2000/svg" version="1.1">
 <metadata>
  <rdf:RDF xmlns:dc="http://purl.org/dc/elements/1.1/" xmlns:cc="http://creativecommons.org/ns#" xmlns:rdf="http://www.w3.org/1999/02/22-rdf-syntax-ns#">
   <cc:Work>
    <dc:type rdf:resource="http://purl.org/dc/dcmitype/StillImage"/>
    <dc:date>2024-10-24T00:55:58.689232</dc:date>
    <dc:format>image/svg+xml</dc:format>
    <dc:creator>
     <cc:Agent>
      <dc:title>Matplotlib v3.8.3, https://matplotlib.org/</dc:title>
     </cc:Agent>
    </dc:creator>
   </cc:Work>
  </rdf:RDF>
 </metadata>
 <defs>
  <style type="text/css">*{stroke-linejoin: round; stroke-linecap: butt}</style>
 </defs>
 <g id="figure_1">
  <g id="patch_1">
   <path d="M 0 184.270662 
L 266.004175 184.270662 
L 266.004175 0 
L 0 0 
z
" style="fill: #ffffff"/>
  </g>
  <g id="axes_1">
   <g id="patch_2">
    <path d="M 34.875898 141.624 
L 160.693018 141.624 
L 160.693018 1.44 
L 34.875898 1.44 
z
" style="fill: #ececec"/>
   </g>
   <g id="matplotlib.axis_1">
    <g id="xtick_1">
     <g id="text_1">
      <!-- $84$ -->
      <g transform="translate(37.351774 151.50399) scale(0.09 -0.09)">
       <defs>
        <path id="NotoSerif-Regular-38" d="M 1747 -64 
C 2214 -64 2592 52 2867 277 
C 3142 504 3283 826 3283 1233 
C 3283 1511 3187 1749 2989 1949 
C 2790 2150 2534 2324 2221 2472 
C 2483 2601 2688 2743 2848 2904 
C 3008 3059 3085 3278 3085 3562 
C 3085 3885 2976 4150 2752 4363 
C 2534 4569 2227 4672 1824 4672 
C 1498 4672 1229 4620 1024 4504 
C 826 4401 678 4253 582 4078 
C 486 3904 442 3717 442 3517 
C 442 3246 518 3014 672 2826 
C 826 2639 1024 2471 1267 2336 
C 1082 2246 922 2149 768 2046 
C 627 1943 506 1820 422 1677 
C 339 1536 294 1361 294 1155 
C 294 929 346 730 461 543 
C 563 355 730 206 947 103 
C 1158 -13 1427 -64 1747 -64 
z
M 1907 2622 
C 1619 2757 1408 2893 1261 3034 
C 1114 3176 1043 3363 1043 3595 
C 1043 3821 1107 4002 1235 4150 
C 1363 4298 1549 4369 1786 4369 
C 1965 4369 2106 4330 2214 4253 
C 2323 4176 2400 4079 2445 3956 
C 2490 3834 2515 3711 2515 3576 
C 2515 3350 2470 3170 2394 3021 
C 2304 2873 2144 2744 1907 2622 
z
M 1779 232 
C 1491 232 1280 316 1133 477 
C 986 645 915 865 915 1129 
C 915 1368 973 1581 1094 1756 
C 1216 1930 1376 2072 1574 2181 
C 1990 2001 2278 1827 2445 1664 
C 2618 1503 2701 1310 2701 1091 
C 2701 839 2618 632 2445 477 
C 2278 309 2054 232 1779 232 
z
" transform="scale(0.015625)"/>
        <path id="NotoSerif-Regular-34" d="M 1376 0 
L 3302 0 
L 3302 271 
L 3219 271 
C 3072 271 2950 297 2848 349 
C 2746 408 2694 539 2694 742 
L 2694 1280 
L 3488 1280 
L 3488 1641 
L 2694 1641 
L 2694 4608 
L 2086 4608 
L 109 1544 
L 109 1280 
L 2080 1280 
L 2080 742 
C 2080 539 2029 408 1926 349 
C 1824 297 1702 271 1555 271 
L 1376 271 
L 1376 0 
z
M 570 1641 
L 1549 3169 
C 1587 3227 1632 3304 1690 3400 
C 1747 3491 1805 3586 1862 3683 
C 1920 3785 1978 3882 2022 3966 
C 2067 4049 2106 4113 2125 4158 
C 2118 4024 2106 3882 2099 3722 
C 2093 3561 2086 3407 2086 3247 
C 2080 3092 2080 2951 2080 2829 
L 2080 1641 
L 570 1641 
z
" transform="scale(0.015625)"/>
       </defs>
       <use xlink:href="#NotoSerif-Regular-38" transform="scale(0.913673)"/>
       <use xlink:href="#NotoSerif-Regular-34" transform="translate(51.074295 0) scale(0.913673)"/>
      </g>
      <!-- {\scalefont{.88}$(49.9)$} -->
      <g transform="translate(31.764153 159.340897) scale(0.09 -0.09)">
       <defs>
        <path id="txsys-b9" d="M 1888 4589 
C 960 3987 307 2950 307 1645 
C 307 454 986 -749 1869 -1293 
L 1946 -1190 
C 1101 -525 858 250 858 1664 
C 858 3085 1120 3821 1946 4486 
L 1888 4589 
z
" transform="scale(0.015625)"/>
        <path id="NotoSerif-Regular-39" d="M 1453 -64 
C 1766 -64 2029 7 2253 149 
C 2470 284 2650 478 2790 716 
C 2925 954 3027 1231 3091 1541 
C 3155 1844 3187 2166 3187 2507 
C 3187 3016 3123 3429 2995 3745 
C 2867 4060 2688 4298 2470 4446 
C 2240 4595 1984 4672 1696 4672 
C 1408 4672 1165 4608 960 4467 
C 755 4339 602 4146 486 3915 
C 384 3671 326 3402 326 3094 
C 326 2664 442 2337 678 2119 
C 915 1901 1216 1792 1587 1792 
C 1811 1792 2003 1837 2157 1927 
C 2310 2018 2432 2121 2528 2231 
C 2509 1575 2413 1089 2240 771 
C 2074 453 1811 291 1459 291 
C 1261 291 1101 342 986 446 
C 864 551 774 668 717 804 
C 672 785 627 752 589 693 
C 544 642 525 577 525 494 
C 525 402 550 318 602 227 
C 659 150 755 79 890 20 
C 1024 -38 1216 -64 1453 -64 
z
M 1728 2173 
C 1478 2173 1293 2249 1171 2403 
C 1050 2556 986 2807 986 3158 
C 986 3536 1050 3824 1178 4016 
C 1299 4222 1472 4317 1696 4317 
C 1946 4317 2144 4190 2291 3934 
C 2445 3677 2528 3261 2534 2691 
C 2477 2556 2381 2435 2246 2326 
C 2112 2224 1939 2173 1728 2173 
z
" transform="scale(0.015625)"/>
        <path id="NotoMathMI-93" d="M 717 -64 
C 813 -64 896 -39 973 19 
C 1050 76 1082 185 1082 326 
C 1082 473 1050 582 973 633 
C 896 691 813 716 717 716 
C 621 716 538 691 461 633 
C 390 582 358 473 358 326 
C 358 185 390 76 461 19 
C 538 -39 621 -64 717 -64 
z
" transform="scale(0.015625)"/>
        <path id="txsys-ba" d="M 243 4589 
L 186 4486 
C 1011 3821 1274 3085 1274 1664 
C 1274 250 1030 -525 186 -1190 
L 262 -1293 
C 1146 -749 1824 454 1824 1645 
C 1824 2950 1171 3987 243 4589 
z
" transform="scale(0.015625)"/>
       </defs>
       <use xlink:href="#txsys-b9" transform="scale(0.893372)"/>
       <use xlink:href="#NotoSerif-Regular-34" transform="translate(33.322793 0) scale(0.804036)"/>
       <use xlink:href="#NotoSerif-Regular-39" transform="translate(78.268429 0) scale(0.804036)"/>
       <use xlink:href="#NotoMathMI-93" transform="translate(124.643427 0) scale(0.893372)"/>
       <use xlink:href="#NotoSerif-Regular-39" transform="translate(146.263098 0) scale(0.804036)"/>
       <use xlink:href="#txsys-ba" transform="translate(191.208733 0) scale(0.893372)"/>
      </g>
     </g>
    </g>
    <g id="xtick_2">
     <g id="text_2">
      <!-- $100$ -->
      <g transform="translate(72.277432 151.50399) scale(0.09 -0.09)">
       <defs>
        <path id="NotoSerif-Regular-31" d="M 614 0 
L 3053 0 
L 3053 271 
L 2739 271 
C 2592 271 2470 297 2368 348 
C 2266 406 2214 536 2214 736 
L 2214 4640 
L 1805 4640 
L 1357 4303 
C 1146 4142 973 4031 832 3960 
C 685 3888 550 3837 422 3805 
C 422 3701 454 3618 512 3553 
C 570 3489 646 3456 742 3456 
C 870 3456 998 3521 1126 3644 
C 1261 3767 1408 3928 1568 4129 
L 1568 736 
C 1568 536 1517 406 1414 348 
C 1312 297 1190 271 1043 271 
L 614 271 
L 614 0 
z
" transform="scale(0.015625)"/>
        <path id="NotoSerif-Regular-30" d="M 1792 -64 
C 2131 -64 2406 32 2624 232 
C 2848 432 3014 710 3123 1058 
C 3232 1419 3290 1833 3290 2310 
C 3290 2787 3238 3201 3123 3562 
C 3021 3910 2854 4189 2630 4382 
C 2406 4575 2131 4672 1798 4672 
C 1446 4672 1158 4575 934 4382 
C 710 4189 550 3917 448 3562 
C 339 3207 288 2794 288 2317 
C 288 1840 339 1419 448 1065 
C 550 710 710 432 934 232 
C 1158 32 1440 -64 1792 -64 
z
M 1792 284 
C 1478 284 1261 464 1139 820 
C 1018 1174 954 1671 954 2310 
C 954 2950 1018 3446 1139 3794 
C 1267 4150 1485 4324 1798 4324 
C 2106 4324 2317 4150 2445 3794 
C 2560 3446 2624 2950 2624 2310 
C 2624 1671 2560 1174 2445 820 
C 2317 464 2106 284 1792 284 
z
" transform="scale(0.015625)"/>
       </defs>
       <use xlink:href="#NotoSerif-Regular-31" transform="scale(0.913673)"/>
       <use xlink:href="#NotoSerif-Regular-30" transform="translate(51.074295 0) scale(0.913673)"/>
       <use xlink:href="#NotoSerif-Regular-30" transform="translate(102.14859 0) scale(0.913673)"/>
      </g>
      <!-- {\scalefont{.88}$(42.0)$} -->
      <g transform="translate(68.988153 159.340897) scale(0.09 -0.09)">
       <defs>
        <path id="NotoSerif-Regular-32" d="M 390 0 
L 3142 0 
L 3174 1116 
L 2906 1116 
L 2880 1000 
C 2848 878 2803 761 2733 664 
C 2662 567 2534 516 2342 516 
L 864 516 
L 1946 1723 
C 2285 2097 2547 2426 2733 2710 
C 2918 3000 3014 3291 3014 3594 
C 3014 3923 2899 4182 2669 4375 
C 2438 4575 2118 4672 1715 4672 
C 1299 4672 986 4588 781 4427 
C 563 4266 461 4060 461 3807 
C 461 3646 512 3536 621 3472 
C 730 3420 858 3388 1011 3388 
C 1011 3562 1030 3717 1062 3859 
C 1101 4008 1171 4124 1274 4214 
C 1376 4305 1523 4350 1715 4350 
C 1939 4350 2106 4272 2214 4124 
C 2317 3976 2368 3775 2368 3530 
C 2368 3330 2342 3143 2278 2969 
C 2227 2794 2131 2607 1997 2413 
C 1862 2214 1683 1981 1459 1716 
L 390 471 
L 390 0 
z
" transform="scale(0.015625)"/>
       </defs>
       <use xlink:href="#txsys-b9" transform="scale(0.893372)"/>
       <use xlink:href="#NotoSerif-Regular-34" transform="translate(33.322793 0) scale(0.804036)"/>
       <use xlink:href="#NotoSerif-Regular-32" transform="translate(78.268429 0) scale(0.804036)"/>
       <use xlink:href="#NotoMathMI-93" transform="translate(124.643427 0) scale(0.893372)"/>
       <use xlink:href="#NotoSerif-Regular-30" transform="translate(146.263098 0) scale(0.804036)"/>
       <use xlink:href="#txsys-ba" transform="translate(191.208733 0) scale(0.893372)"/>
      </g>
     </g>
    </g>
    <g id="xtick_3">
     <g id="text_3">
      <!-- $124$ -->
      <g transform="translate(109.501432 151.50399) scale(0.09 -0.09)">
       <use xlink:href="#NotoSerif-Regular-31" transform="scale(0.913673)"/>
       <use xlink:href="#NotoSerif-Regular-32" transform="translate(51.074295 0) scale(0.913673)"/>
       <use xlink:href="#NotoSerif-Regular-34" transform="translate(102.14859 0) scale(0.913673)"/>
      </g>
      <!-- {\scalefont{.88}$(33.0)$} -->
      <g transform="translate(106.212153 159.340897) scale(0.09 -0.09)">
       <defs>
        <path id="NotoSerif-Regular-33" d="M 1581 -64 
C 1766 -64 1952 -39 2138 6 
C 2330 53 2509 130 2669 234 
C 2829 344 2963 487 3059 662 
C 3155 843 3206 1063 3206 1322 
C 3206 1536 3168 1718 3091 1854 
C 3014 1997 2918 2113 2790 2198 
C 2675 2282 2541 2346 2406 2386 
C 2272 2431 2144 2457 2022 2470 
C 2221 2515 2394 2597 2547 2707 
C 2701 2823 2822 2964 2912 3118 
C 3002 3285 3046 3458 3046 3651 
C 3046 3979 2925 4229 2675 4402 
C 2432 4582 2106 4672 1702 4672 
C 1286 4672 973 4588 768 4428 
C 550 4268 448 4062 448 3811 
C 448 3651 499 3541 608 3478 
C 717 3426 845 3394 998 3394 
C 998 3567 1018 3721 1050 3863 
C 1088 4010 1158 4125 1261 4215 
C 1363 4305 1510 4350 1702 4350 
C 1952 4350 2125 4279 2227 4144 
C 2336 4004 2387 3805 2387 3554 
C 2387 3355 2342 3176 2253 3028 
C 2163 2880 2042 2765 1894 2681 
C 1741 2598 1568 2560 1382 2560 
L 1178 2560 
L 1178 2231 
L 1382 2231 
C 1741 2231 2022 2146 2227 1984 
C 2438 1822 2541 1602 2541 1329 
C 2541 1069 2496 862 2406 712 
C 2317 563 2202 452 2061 388 
C 1914 316 1760 284 1587 284 
C 1325 284 1126 361 986 504 
C 845 660 774 842 774 1069 
C 653 1069 557 1030 486 959 
C 410 887 371 784 371 654 
C 371 466 467 299 659 156 
C 851 6 1158 -64 1581 -64 
z
" transform="scale(0.015625)"/>
       </defs>
       <use xlink:href="#txsys-b9" transform="scale(0.893372)"/>
       <use xlink:href="#NotoSerif-Regular-33" transform="translate(33.322793 0) scale(0.804036)"/>
       <use xlink:href="#NotoSerif-Regular-33" transform="translate(78.268429 0) scale(0.804036)"/>
       <use xlink:href="#NotoMathMI-93" transform="translate(124.643427 0) scale(0.893372)"/>
       <use xlink:href="#NotoSerif-Regular-30" transform="translate(146.263098 0) scale(0.804036)"/>
       <use xlink:href="#txsys-ba" transform="translate(191.208733 0) scale(0.893372)"/>
      </g>
     </g>
    </g>
    <g id="xtick_4">
     <g id="text_4">
      <!-- $156$ -->
      <g transform="translate(146.725432 151.50399) scale(0.09 -0.09)">
       <defs>
        <path id="NotoSerif-Regular-35" d="M 1562 -64 
C 1888 -64 2170 0 2400 115 
C 2630 243 2803 411 2931 629 
C 3046 853 3110 1109 3110 1399 
C 3110 1700 3046 1950 2918 2155 
C 2790 2348 2618 2502 2394 2605 
C 2176 2700 1926 2752 1651 2752 
C 1466 2752 1306 2739 1184 2720 
C 1062 2694 966 2668 902 2649 
L 1024 4092 
L 2266 4092 
C 2400 4092 2490 4072 2534 4026 
C 2573 3981 2598 3916 2611 3824 
L 2637 3628 
L 2906 3628 
L 2874 4608 
L 736 4608 
L 531 2301 
L 685 2256 
C 768 2288 864 2320 973 2352 
C 1082 2385 1248 2397 1472 2397 
C 1766 2397 2003 2315 2176 2154 
C 2355 1988 2445 1737 2445 1399 
C 2445 1130 2406 918 2330 758 
C 2246 598 2138 489 1997 418 
C 1862 348 1702 316 1530 316 
C 1267 316 1075 380 947 502 
C 819 623 755 777 755 963 
C 621 963 518 931 448 860 
C 384 797 352 706 352 584 
C 352 488 384 391 461 296 
C 525 192 653 109 826 39 
C 998 -32 1248 -64 1562 -64 
z
" transform="scale(0.015625)"/>
        <path id="NotoSerif-Regular-36" d="M 1875 -64 
C 2163 -64 2413 0 2618 130 
C 2822 266 2982 448 3085 682 
C 3200 915 3251 1181 3251 1487 
C 3251 1901 3136 2226 2906 2466 
C 2669 2699 2355 2816 1965 2816 
C 1754 2816 1574 2784 1434 2713 
C 1280 2642 1158 2565 1050 2481 
C 1069 3101 1165 3569 1331 3889 
C 1498 4202 1741 4363 2061 4363 
C 2266 4363 2413 4293 2496 4145 
C 2579 3998 2624 3826 2624 3615 
C 2950 3615 3117 3743 3117 3999 
C 3117 4172 3027 4332 2854 4467 
C 2682 4601 2413 4672 2061 4672 
C 1779 4672 1536 4608 1318 4479 
C 1114 4356 934 4182 800 3962 
C 666 3736 563 3485 493 3201 
C 422 2924 390 2626 390 2323 
C 390 1756 454 1297 589 942 
C 717 594 896 335 1114 181 
C 1344 13 1594 -64 1875 -64 
z
M 1894 290 
C 1638 290 1434 433 1280 712 
C 1133 992 1050 1461 1043 2110 
C 1126 2202 1242 2286 1382 2364 
C 1517 2449 1670 2487 1837 2487 
C 2086 2487 2272 2403 2406 2234 
C 2534 2065 2598 1792 2598 1421 
C 2598 1025 2534 739 2419 556 
C 2291 381 2118 290 1894 290 
z
" transform="scale(0.015625)"/>
       </defs>
       <use xlink:href="#NotoSerif-Regular-31" transform="scale(0.913673)"/>
       <use xlink:href="#NotoSerif-Regular-35" transform="translate(51.074295 0) scale(0.913673)"/>
       <use xlink:href="#NotoSerif-Regular-36" transform="translate(102.14859 0) scale(0.913673)"/>
      </g>
      <!-- {\scalefont{.88}$(27.0)$} -->
      <g transform="translate(143.436153 159.340897) scale(0.09 -0.09)">
       <defs>
        <path id="NotoSerif-Regular-37" d="M 1126 0 
L 1696 0 
L 3270 4425 
L 3270 4612 
L 410 4612 
L 378 3444 
L 646 3444 
L 672 3766 
C 691 3986 819 4096 1043 4096 
L 2637 4096 
L 1126 0 
z
" transform="scale(0.015625)"/>
       </defs>
       <use xlink:href="#txsys-b9" transform="scale(0.893372)"/>
       <use xlink:href="#NotoSerif-Regular-32" transform="translate(33.322793 0) scale(0.804036)"/>
       <use xlink:href="#NotoSerif-Regular-37" transform="translate(78.268429 0) scale(0.804036)"/>
       <use xlink:href="#NotoMathMI-93" transform="translate(124.643427 0) scale(0.893372)"/>
       <use xlink:href="#NotoSerif-Regular-30" transform="translate(146.263098 0) scale(0.804036)"/>
       <use xlink:href="#txsys-ba" transform="translate(191.208733 0) scale(0.893372)"/>
      </g>
     </g>
    </g>
    <g id="text_5">
     <!-- $\sgct\;[\unit{\micro\second}]$ -->
     <g transform="translate(82.304134 172.765029) scale(0.09 -0.09)">
      <defs>
       <path id="NotoMathMI-41" d="M 1094 -64 
C 1466 -64 1754 20 1971 200 
C 2176 379 2285 609 2285 892 
C 2285 1116 2227 1290 2099 1431 
C 1978 1571 1805 1688 1594 1784 
C 1389 1873 1242 1963 1152 2046 
C 1056 2136 1011 2245 1011 2380 
C 1011 2521 1062 2643 1158 2733 
C 1254 2829 1395 2874 1568 2874 
C 1702 2874 1792 2848 1875 2778 
C 1946 2720 2010 2630 2042 2533 
C 2067 2437 2086 2329 2086 2233 
C 2221 2233 2317 2265 2394 2322 
C 2477 2380 2515 2469 2515 2591 
C 2515 2681 2490 2765 2419 2854 
C 2362 2944 2266 3008 2131 3059 
C 1997 3110 1830 3136 1619 3136 
C 1280 3136 1011 3059 806 2893 
C 602 2732 506 2527 506 2276 
C 506 2046 570 1866 698 1738 
C 826 1597 992 1482 1203 1385 
C 1414 1289 1562 1193 1651 1097 
C 1741 1001 1786 885 1786 750 
C 1786 571 1728 436 1619 346 
C 1510 256 1357 212 1165 212 
C 1005 212 877 244 781 313 
C 685 383 608 478 570 593 
C 531 708 506 828 506 962 
C 461 962 410 962 352 943 
C 294 918 237 879 205 828 
C 160 777 141 693 141 590 
C 141 385 230 225 403 109 
C 576 -6 806 -64 1094 -64 
z
" transform="scale(0.015625)"/>
       <path id="NotoSerif-Italic-63" d="M 1523 -64 
C 1779 -64 1990 -26 2150 52 
C 2310 135 2432 232 2509 335 
C 2592 451 2630 548 2630 645 
C 2630 722 2611 774 2566 806 
C 2477 696 2355 587 2208 490 
C 2061 393 1869 342 1645 342 
C 1414 342 1242 419 1120 574 
C 998 729 941 941 941 1219 
C 941 1354 960 1515 992 1689 
C 1024 1863 1075 2044 1139 2218 
C 1197 2399 1274 2566 1370 2708 
C 1459 2863 1562 2979 1677 3069 
C 1792 3166 1920 3211 2054 3211 
C 2227 3211 2349 3134 2432 2985 
C 2509 2837 2547 2656 2547 2450 
C 2733 2450 2874 2495 2970 2585 
C 3066 2676 3117 2779 3117 2901 
C 3117 3063 3040 3204 2893 3327 
C 2739 3456 2502 3520 2182 3520 
C 1869 3520 1600 3449 1357 3308 
C 1126 3166 922 2979 762 2753 
C 602 2527 480 2282 397 2025 
C 314 1760 275 1509 275 1270 
C 275 967 333 722 448 529 
C 557 329 710 181 896 84 
C 1088 -13 1299 -64 1523 -64 
z
" transform="scale(0.015625)"/>
       <path id="NotoSerif-Italic-74" d="M 1171 -64 
C 1331 -64 1485 -39 1626 26 
C 1773 77 1907 155 2035 245 
L 1926 483 
C 1856 444 1779 412 1677 387 
C 1587 355 1491 342 1402 342 
C 1293 342 1210 368 1152 426 
C 1094 483 1062 573 1062 694 
C 1062 765 1069 848 1088 938 
C 1101 1041 1120 1136 1139 1246 
L 1530 3072 
L 2304 3072 
L 2381 3440 
L 1606 3440 
L 1773 4256 
L 1478 4256 
C 1350 3919 1203 3681 1030 3535 
C 858 3403 685 3330 499 3330 
L 442 3072 
L 928 3072 
L 538 1224 
C 518 1142 506 1051 493 949 
C 480 853 474 763 474 686 
C 474 186 704 -64 1171 -64 
z
" transform="scale(0.015625)"/>
       <path id="txsys-bb" d="M 1914 -1120 
L 1363 -1120 
C 1152 -1120 1050 -1011 1050 -787 
L 1050 4038 
C 1050 4237 1133 4320 1338 4320 
L 1914 4320 
L 1914 4480 
L 563 4480 
L 563 -1280 
L 1914 -1280 
L 1914 -1120 
z
" transform="scale(0.015625)"/>
       <path id="NotoMathRM-16" d="M 960 -1408 
C 1101 -1408 1203 -1362 1267 -1265 
C 1331 -1167 1363 -1044 1363 -902 
C 1222 -876 1120 -813 1056 -711 
C 992 -610 947 -470 934 -311 
C 909 -140 902 44 896 254 
C 973 151 1069 73 1184 20 
C 1299 -40 1440 -64 1600 -64 
C 1805 -64 1965 -13 2086 82 
C 2214 178 2317 299 2406 452 
L 2432 452 
C 2502 116 2682 -51 2989 -51 
L 3302 -51 
L 3302 192 
L 3283 192 
C 3194 192 3117 230 3040 320 
C 2957 405 2918 527 2918 694 
L 2918 3051 
L 2381 3051 
L 2381 1225 
C 2381 946 2317 725 2189 553 
C 2067 388 1894 306 1683 306 
C 1459 306 1312 388 1229 534 
C 1146 693 1107 890 1107 1137 
L 1107 3051 
L 563 3051 
L 563 1262 
C 557 783 544 394 525 87 
C 506 -226 493 -494 493 -724 
C 493 -980 544 -1165 640 -1261 
C 736 -1357 838 -1408 960 -1408 
z
" transform="scale(0.015625)"/>
       <path id="NotoSerif-Regular-73" d="M 1344 -64 
C 1722 -64 2029 19 2259 193 
C 2490 362 2605 614 2605 950 
C 2605 1130 2573 1285 2509 1409 
C 2438 1531 2336 1641 2195 1737 
C 2054 1834 1869 1925 1645 2022 
C 1357 2138 1152 2241 1037 2325 
C 909 2416 851 2545 851 2707 
C 851 2855 896 2985 992 3075 
C 1088 3178 1242 3223 1459 3223 
C 1645 3223 1786 3165 1875 3043 
C 1965 2920 2010 2752 2010 2539 
C 2157 2539 2272 2571 2355 2649 
C 2432 2713 2470 2810 2470 2926 
C 2470 3088 2394 3230 2234 3346 
C 2074 3462 1843 3520 1536 3520 
C 1171 3520 883 3443 666 3281 
C 442 3126 333 2900 333 2609 
C 333 2422 371 2274 435 2144 
C 512 2028 614 1918 755 1821 
C 902 1731 1082 1634 1299 1537 
C 1510 1446 1670 1369 1779 1304 
C 1894 1233 1971 1169 2022 1098 
C 2061 1026 2086 942 2086 833 
C 2086 659 2022 516 1907 413 
C 1779 297 1606 245 1382 245 
C 1120 245 941 322 845 491 
C 742 646 691 839 691 1066 
C 640 1066 582 1053 525 1027 
C 461 1001 403 956 358 892 
C 314 827 288 736 288 620 
C 288 394 384 227 576 110 
C 768 -6 1024 -64 1344 -64 
z
" transform="scale(0.015625)"/>
       <path id="txsys-bc" d="M 218 -1120 
L 218 -1280 
L 1568 -1280 
L 1568 4480 
L 218 4480 
L 218 4320 
L 768 4320 
C 979 4320 1082 4211 1082 3987 
L 1082 -839 
C 1082 -1037 992 -1120 794 -1120 
L 218 -1120 
z
" transform="scale(0.015625)"/>
      </defs>
      <use xlink:href="#NotoMathMI-41" transform="scale(1.01519)"/>
      <use xlink:href="#NotoMathMI-41" transform="translate(36.868305 0) scale(1.01519)"/>
      <use xlink:href="#NotoSerif-Italic-63" transform="translate(82.224647 36.851386) scale(0.666977)"/>
      <use xlink:href="#NotoSerif-Italic-74" transform="translate(114.706463 36.851386) scale(0.666977)"/>
      <use xlink:href="#txsys-bb" transform="translate(165.348936 0) scale(1.01519)"/>
      <use xlink:href="#NotoMathRM-16" transform="translate(204.230656 0) scale(1.01519)"/>
      <use xlink:href="#NotoSerif-Regular-73" transform="translate(262.401036 0) scale(0.913673)"/>
      <use xlink:href="#txsys-bc" transform="translate(303.607687 0) scale(1.01519)"/>
     </g>
     <!-- {\scalefont{.88}(network load $[\unit{\percent}]$)} -->
     <g transform="translate(68.62253 181.118546) scale(0.09 -0.09)">
      <defs>
       <path id="RobotoCondensed-Regular-28" d="M 403 1857 
C 403 809 653 -84 1146 -835 
C 1344 -1131 1536 -1343 1728 -1471 
L 1837 -1118 
C 1613 -887 1427 -559 1267 -135 
C 1056 430 954 1079 954 1818 
L 960 2069 
C 973 2660 1062 3199 1222 3687 
C 1382 4169 1587 4535 1837 4773 
L 1728 5152 
C 1581 5049 1421 4889 1254 4670 
C 979 4304 774 3887 627 3405 
C 480 2923 403 2403 403 1857 
z
" transform="scale(0.015625)"/>
       <path id="RobotoCondensed-Regular-6e" d="M 934 3392 
L 410 3392 
L 410 0 
L 966 0 
L 966 2467 
C 1037 2615 1126 2730 1235 2827 
C 1344 2917 1466 2962 1600 2962 
C 1779 2962 1914 2904 2003 2795 
C 2086 2685 2131 2493 2131 2229 
L 2131 0 
L 2682 0 
L 2682 2255 
C 2675 3058 2368 3456 1773 3456 
C 1434 3456 1158 3315 947 3026 
L 934 3392 
z
" transform="scale(0.015625)"/>
       <path id="RobotoCondensed-Regular-65" d="M 1619 -64 
C 2112 -64 2477 103 2720 443 
L 2432 799 
C 2323 663 2202 566 2080 509 
C 1958 443 1811 411 1651 411 
C 1395 411 1197 496 1062 664 
C 928 825 858 1090 858 1459 
L 858 1536 
L 2746 1536 
L 2746 1901 
C 2739 2432 2643 2829 2451 3078 
C 2253 3328 1958 3456 1562 3456 
C 1165 3456 858 3315 640 3026 
C 416 2737 307 2345 307 1837 
L 307 1426 
C 314 938 429 565 653 315 
C 877 64 1197 -64 1619 -64 
z
M 1562 2981 
C 1766 2981 1920 2911 2022 2776 
C 2125 2636 2182 2407 2195 2087 
L 2195 2011 
L 864 2011 
C 877 2343 941 2586 1050 2745 
C 1158 2905 1331 2981 1562 2981 
z
" transform="scale(0.015625)"/>
       <path id="RobotoCondensed-Regular-74" d="M 1139 4224 
L 589 4224 
L 589 3392 
L 70 3392 
L 70 2942 
L 589 2942 
L 589 835 
C 589 546 646 328 762 173 
C 877 13 1043 -64 1261 -64 
C 1395 -64 1523 -45 1645 0 
L 1651 469 
C 1574 443 1498 430 1427 430 
C 1318 430 1248 469 1203 540 
C 1158 610 1139 707 1139 842 
L 1139 2942 
L 1645 2942 
L 1645 3392 
L 1139 3392 
L 1139 4224 
z
" transform="scale(0.015625)"/>
       <path id="RobotoCondensed-Regular-77" d="M 2931 976 
L 2291 3392 
L 1856 3392 
L 1222 1034 
L 698 3392 
L 154 3392 
L 979 0 
L 1421 0 
L 2067 2428 
L 2726 0 
L 3168 0 
L 3994 3392 
L 3450 3392 
L 2931 976 
z
" transform="scale(0.015625)"/>
       <path id="RobotoCondensed-Regular-6f" d="M 294 1857 
L 294 1484 
C 301 1009 429 630 666 353 
C 902 77 1216 -64 1606 -64 
C 2003 -64 2323 77 2560 366 
C 2797 655 2912 1041 2912 1535 
L 2912 1889 
C 2906 2371 2784 2756 2547 3039 
C 2310 3315 1990 3456 1600 3456 
C 1210 3456 890 3315 653 3026 
C 416 2737 294 2351 294 1857 
z
M 851 1535 
L 851 1857 
C 851 2203 922 2480 1056 2679 
C 1190 2878 1376 2981 1600 2981 
C 1830 2981 2016 2878 2157 2679 
C 2291 2480 2362 2203 2362 1857 
L 2362 1471 
C 2342 764 2093 411 1606 411 
C 1376 411 1190 514 1056 713 
C 922 912 851 1182 851 1535 
z
" transform="scale(0.015625)"/>
       <path id="RobotoCondensed-Regular-72" d="M 1811 2871 
L 1805 3411 
C 1747 3443 1677 3456 1587 3456 
C 1318 3456 1107 3321 960 3051 
L 947 3392 
L 410 3392 
L 410 0 
L 966 0 
L 966 2428 
C 1082 2743 1280 2897 1562 2897 
C 1651 2891 1734 2883 1811 2871 
z
" transform="scale(0.015625)"/>
       <path id="RobotoCondensed-Regular-6b" d="M 1261 1555 
L 2182 0 
L 2822 0 
L 1606 1979 
L 2682 3392 
L 2022 3392 
L 966 1934 
L 966 4818 
L 416 4818 
L 416 0 
L 966 0 
L 966 1214 
L 1261 1555 
z
" transform="scale(0.015625)"/>
       <path id="RobotoCondensed-Regular-6c" d="M 1011 0 
L 1011 4818 
L 454 4818 
L 454 0 
L 1011 0 
z
" transform="scale(0.015625)"/>
       <path id="RobotoCondensed-Regular-61" d="M 2150 0 
L 2726 0 
L 2726 51 
C 2656 244 2624 469 2624 732 
L 2624 2441 
C 2618 2775 2528 3026 2349 3199 
C 2163 3373 1901 3456 1555 3456 
C 1344 3456 1152 3411 979 3321 
C 806 3231 666 3109 563 2954 
C 461 2794 410 2626 410 2453 
L 966 2453 
C 966 2601 1018 2730 1126 2833 
C 1229 2929 1363 2981 1530 2981 
C 1715 2981 1850 2936 1939 2851 
C 2029 2760 2074 2612 2074 2410 
L 2074 2048 
L 1664 2048 
C 1261 2048 941 1946 710 1746 
C 474 1547 358 1271 358 925 
C 358 610 442 373 614 199 
C 787 26 1024 -64 1331 -64 
C 1632 -64 1882 80 2080 372 
C 2093 198 2118 71 2150 0 
z
M 1414 443 
C 1229 443 1101 488 1024 572 
C 947 655 909 797 909 989 
C 909 1194 986 1354 1139 1470 
C 1286 1579 1498 1637 1760 1637 
L 2074 1637 
L 2074 835 
C 2016 726 1926 630 1805 559 
C 1683 482 1549 443 1414 443 
z
" transform="scale(0.015625)"/>
       <path id="RobotoCondensed-Regular-64" d="M 294 1850 
L 294 1503 
C 301 1009 403 623 602 347 
C 800 71 1075 -64 1427 -64 
C 1766 -64 2022 80 2202 366 
L 2234 0 
L 2739 0 
L 2739 4818 
L 2182 4818 
L 2182 3065 
C 2003 3328 1754 3456 1427 3456 
C 1062 3456 787 3321 589 3045 
C 390 2769 294 2371 294 1850 
z
M 851 1535 
L 851 1876 
C 851 2242 909 2518 1024 2698 
C 1133 2872 1318 2962 1574 2962 
C 1837 2962 2042 2827 2182 2557 
L 2182 842 
C 2048 565 1843 424 1568 424 
C 1318 424 1133 514 1024 694 
C 909 874 851 1156 851 1535 
z
" transform="scale(0.015625)"/>
       <path id="NotoSerif-Regular-25" d="M 1338 1792 
C 1690 1792 1958 1922 2125 2194 
C 2304 2454 2387 2804 2387 3239 
C 2387 3673 2304 4023 2125 4283 
C 1958 4542 1696 4672 1344 4672 
C 973 4672 704 4542 538 4283 
C 371 4023 288 3673 288 3239 
C 288 2804 371 2454 538 2194 
C 704 1922 973 1792 1338 1792 
z
M 1504 0 
L 1926 0 
L 4205 4608 
L 3789 4608 
L 1504 0 
z
M 1338 2057 
C 1165 2057 1043 2161 973 2368 
C 902 2576 864 2869 864 3239 
C 864 3609 902 3894 973 4096 
C 1043 4297 1171 4401 1344 4401 
C 1517 4401 1638 4297 1702 4096 
C 1773 3894 1805 3609 1805 3239 
C 1805 2869 1773 2576 1702 2368 
C 1632 2161 1510 2057 1338 2057 
z
M 4397 -64 
C 4749 -64 5018 65 5184 338 
C 5363 597 5446 947 5446 1382 
C 5446 1817 5363 2168 5184 2427 
C 5018 2686 4755 2816 4403 2816 
C 4032 2816 3763 2686 3597 2427 
C 3430 2168 3347 1817 3347 1382 
C 3347 947 3430 597 3597 338 
C 3763 65 4032 -64 4397 -64 
z
M 4397 200 
C 4224 200 4102 304 4032 511 
C 3962 720 3923 1012 3923 1382 
C 3923 1753 3962 2039 4032 2240 
C 4102 2441 4230 2545 4403 2545 
C 4576 2545 4698 2441 4762 2240 
C 4832 2039 4864 1753 4864 1382 
C 4864 1012 4832 720 4762 511 
C 4691 304 4570 200 4397 200 
z
" transform="scale(0.015625)"/>
       <path id="RobotoCondensed-Regular-29" d="M 1600 1824 
C 1600 2807 1382 3668 941 4394 
C 730 4747 506 4998 275 5152 
L 166 4799 
C 352 4606 512 4336 659 3996 
C 922 3373 1050 2660 1050 1863 
L 1050 1747 
C 1043 1124 966 559 806 39 
C 646 -482 429 -867 166 -1118 
L 275 -1471 
C 518 -1311 755 -1041 979 -655 
C 1395 64 1600 893 1600 1824 
z
" transform="scale(0.015625)"/>
      </defs>
      <use xlink:href="#RobotoCondensed-Regular-28" transform="scale(0.832879)"/>
      <use xlink:href="#RobotoCondensed-Regular-6e" transform="translate(26.069065 0) scale(0.832879)"/>
      <use xlink:href="#RobotoCondensed-Regular-65" transform="translate(66.297071 0) scale(0.832879)"/>
      <use xlink:href="#RobotoCondensed-Regular-74" transform="translate(105.275809 0) scale(0.832879)"/>
      <use xlink:href="#RobotoCondensed-Regular-77" transform="translate(129.84572 0) scale(0.832879)"/>
      <use xlink:href="#RobotoCondensed-Regular-6f" transform="translate(183.899549 0) scale(0.832879)"/>
      <use xlink:href="#RobotoCondensed-Regular-72" transform="translate(225.6268 0) scale(0.832879)"/>
      <use xlink:href="#RobotoCondensed-Regular-6b" transform="translate(250.946296 0) scale(0.832879)"/>
      <use xlink:href="#RobotoCondensed-Regular-6c" transform="translate(307.49872 0) scale(0.832879)"/>
      <use xlink:href="#RobotoCondensed-Regular-6f" transform="translate(326.571636 0) scale(0.832879)"/>
      <use xlink:href="#RobotoCondensed-Regular-61" transform="translate(368.298887 0) scale(0.832879)"/>
      <use xlink:href="#RobotoCondensed-Regular-64" transform="translate(408.193776 0) scale(0.832879)"/>
      <use xlink:href="#txsys-bb" transform="translate(473.93776 0) scale(0.893372)"/>
      <use xlink:href="#NotoSerif-Regular-25" transform="translate(506.367069 0) scale(0.804036)"/>
      <use xlink:href="#txsys-bc" transform="translate(578.408711 0) scale(0.893372)"/>
      <use xlink:href="#RobotoCondensed-Regular-29" transform="translate(613.5182 0) scale(0.832879)"/>
     </g>
    </g>
   </g>
   <g id="matplotlib.axis_2">
    <g id="ytick_1">
     <g id="line2d_1">
      <path d="M 34.875898 141.624 
L 160.693018 141.624 
" clip-path="url(#p34db4fbee9)" style="fill: none; stroke: #ffffff; stroke-width: 0.8; stroke-linecap: round"/>
     </g>
     <g id="text_6">
      <!-- $0$ -->
      <g transform="translate(26.779214 144.813995) scale(0.09 -0.09)">
       <use xlink:href="#NotoSerif-Regular-30" transform="scale(0.913673)"/>
      </g>
     </g>
    </g>
    <g id="ytick_2">
     <g id="line2d_2">
      <path d="M 34.875898 114.460314 
L 160.693018 114.460314 
" clip-path="url(#p34db4fbee9)" style="fill: none; stroke: #ffffff; stroke-width: 0.8; stroke-linecap: round"/>
     </g>
     <g id="text_7">
      <!-- $25$ -->
      <g transform="translate(22.182529 117.650309) scale(0.09 -0.09)">
       <use xlink:href="#NotoSerif-Regular-32" transform="scale(0.913673)"/>
       <use xlink:href="#NotoSerif-Regular-35" transform="translate(51.074295 0) scale(0.913673)"/>
      </g>
     </g>
    </g>
    <g id="ytick_3">
     <g id="line2d_3">
      <path d="M 34.875898 87.296628 
L 160.693018 87.296628 
" clip-path="url(#p34db4fbee9)" style="fill: none; stroke: #ffffff; stroke-width: 0.8; stroke-linecap: round"/>
     </g>
     <g id="text_8">
      <!-- $50$ -->
      <g transform="translate(22.182529 90.486623) scale(0.09 -0.09)">
       <use xlink:href="#NotoSerif-Regular-35" transform="scale(0.913673)"/>
       <use xlink:href="#NotoSerif-Regular-30" transform="translate(51.074295 0) scale(0.913673)"/>
      </g>
     </g>
    </g>
    <g id="ytick_4">
     <g id="line2d_4">
      <path d="M 34.875898 60.132941 
L 160.693018 60.132941 
" clip-path="url(#p34db4fbee9)" style="fill: none; stroke: #ffffff; stroke-width: 0.8; stroke-linecap: round"/>
     </g>
     <g id="text_9">
      <!-- $75$ -->
      <g transform="translate(22.182529 63.322937) scale(0.09 -0.09)">
       <use xlink:href="#NotoSerif-Regular-37" transform="scale(0.913673)"/>
       <use xlink:href="#NotoSerif-Regular-35" transform="translate(51.074295 0) scale(0.913673)"/>
      </g>
     </g>
    </g>
    <g id="ytick_5">
     <g id="line2d_5">
      <path d="M 34.875898 32.969255 
L 160.693018 32.969255 
" clip-path="url(#p34db4fbee9)" style="fill: none; stroke: #ffffff; stroke-width: 0.8; stroke-linecap: round"/>
     </g>
     <g id="text_10">
      <!-- $100$ -->
      <g transform="translate(17.585845 36.15925) scale(0.09 -0.09)">
       <use xlink:href="#NotoSerif-Regular-31" transform="scale(0.913673)"/>
       <use xlink:href="#NotoSerif-Regular-30" transform="translate(51.074295 0) scale(0.913673)"/>
       <use xlink:href="#NotoSerif-Regular-30" transform="translate(102.14859 0) scale(0.913673)"/>
      </g>
     </g>
    </g>
    <g id="ytick_6">
     <g id="line2d_6">
      <path d="M 34.875898 5.805569 
L 160.693018 5.805569 
" clip-path="url(#p34db4fbee9)" style="fill: none; stroke: #ffffff; stroke-width: 0.8; stroke-linecap: round"/>
     </g>
     <g id="text_11">
      <!-- $125$ -->
      <g transform="translate(17.585845 8.995564) scale(0.09 -0.09)">
       <use xlink:href="#NotoSerif-Regular-31" transform="scale(0.913673)"/>
       <use xlink:href="#NotoSerif-Regular-32" transform="translate(51.074295 0) scale(0.913673)"/>
       <use xlink:href="#NotoSerif-Regular-35" transform="translate(102.14859 0) scale(0.913673)"/>
      </g>
     </g>
    </g>
    <g id="ytick_7">
     <g id="line2d_7">
      <path d="M 34.875898 128.042157 
L 160.693018 128.042157 
" clip-path="url(#p34db4fbee9)" style="fill: none; stroke: #ffffff; stroke-width: 0.8; stroke-linecap: round"/>
     </g>
    </g>
    <g id="ytick_8">
     <g id="line2d_8">
      <path d="M 34.875898 100.878471 
L 160.693018 100.878471 
" clip-path="url(#p34db4fbee9)" style="fill: none; stroke: #ffffff; stroke-width: 0.8; stroke-linecap: round"/>
     </g>
    </g>
    <g id="ytick_9">
     <g id="line2d_9">
      <path d="M 34.875898 73.714784 
L 160.693018 73.714784 
" clip-path="url(#p34db4fbee9)" style="fill: none; stroke: #ffffff; stroke-width: 0.8; stroke-linecap: round"/>
     </g>
    </g>
    <g id="ytick_10">
     <g id="line2d_10">
      <path d="M 34.875898 46.551098 
L 160.693018 46.551098 
" clip-path="url(#p34db4fbee9)" style="fill: none; stroke: #ffffff; stroke-width: 0.8; stroke-linecap: round"/>
     </g>
    </g>
    <g id="ytick_11">
     <g id="line2d_11">
      <path d="M 34.875898 19.387412 
L 160.693018 19.387412 
" clip-path="url(#p34db4fbee9)" style="fill: none; stroke: #ffffff; stroke-width: 0.8; stroke-linecap: round"/>
     </g>
    </g>
    <g id="text_12">
     <!-- {\bfseries\mathversion{bold}avg. total runtime $[\unit{\second}]$} -->
     <g transform="translate(7.785923 107.881065) rotate(-90) scale(0.09 -0.09)">
      <defs>
       <path id="RobotoCondensed-Bold-61" d="M 1926 0 
L 2816 0 
L 2816 51 
C 2739 218 2701 450 2694 739 
L 2694 2338 
C 2694 2698 2592 2974 2394 3167 
C 2189 3360 1901 3456 1530 3456 
C 1171 3456 877 3353 640 3153 
C 403 2948 288 2690 288 2374 
L 1171 2374 
C 1171 2633 1280 2762 1504 2762 
C 1600 2762 1677 2729 1734 2670 
C 1786 2605 1811 2494 1811 2338 
L 1811 2063 
L 1542 2063 
C 1114 2063 787 1966 563 1774 
C 339 1575 224 1300 224 948 
C 224 647 320 404 506 217 
C 691 32 928 -64 1210 -64 
C 1485 -64 1696 45 1856 263 
C 1875 141 1901 51 1926 0 
z
M 1408 636 
C 1210 636 1114 757 1114 1007 
C 1114 1165 1158 1300 1248 1395 
C 1331 1491 1453 1536 1600 1536 
L 1811 1536 
L 1811 834 
C 1779 776 1728 732 1658 694 
C 1587 655 1504 636 1408 636 
z
" transform="scale(0.015625)"/>
       <path id="RobotoCondensed-Bold-76" d="M 1434 1253 
L 1005 3392 
L 77 3392 
L 1011 0 
L 1856 0 
L 2784 3392 
L 1862 3392 
L 1434 1253 
z
" transform="scale(0.015625)"/>
       <path id="RobotoCondensed-Bold-67" d="M 218 1799 
L 218 1548 
C 224 1041 320 642 518 360 
C 717 77 992 -64 1350 -64 
C 1619 -64 1837 45 2010 270 
L 2010 -22 
C 2010 -235 1965 -391 1882 -489 
C 1792 -586 1651 -631 1453 -631 
C 1331 -631 1210 -605 1075 -547 
C 941 -494 832 -423 749 -331 
L 454 -946 
C 550 -1062 704 -1158 909 -1229 
C 1114 -1306 1306 -1344 1491 -1344 
C 1946 -1344 2291 -1229 2534 -996 
C 2778 -771 2899 -436 2899 -6 
L 2899 3392 
L 2099 3392 
L 2067 3090 
C 1901 3334 1664 3456 1357 3456 
C 992 3456 717 3321 518 3045 
C 320 2769 218 2358 218 1799 
z
M 1101 1580 
L 1101 1799 
C 1101 2120 1146 2351 1229 2499 
C 1312 2640 1440 2711 1613 2711 
C 1786 2711 1920 2643 2010 2499 
L 2010 874 
C 1920 739 1786 675 1606 675 
C 1434 675 1306 745 1222 893 
C 1139 1041 1101 1266 1101 1580 
z
" transform="scale(0.015625)"/>
       <path id="RobotoCondensed-Bold-2e" d="M 397 482 
C 397 334 448 218 544 135 
C 640 45 762 0 909 0 
C 1056 0 1178 45 1274 135 
C 1370 218 1421 334 1421 482 
C 1421 629 1376 745 1280 835 
C 1184 925 1056 970 909 970 
C 755 970 634 925 538 835 
C 442 739 397 623 397 482 
z
" transform="scale(0.015625)"/>
       <path id="RobotoCondensed-Bold-74" d="M 1350 4256 
L 467 4256 
L 467 3420 
L 77 3420 
L 77 2752 
L 467 2752 
L 467 956 
C 474 295 762 -32 1331 -32 
C 1504 -32 1670 -7 1818 51 
L 1824 744 
C 1766 725 1696 718 1613 718 
C 1510 718 1440 744 1408 795 
C 1370 847 1350 937 1350 1071 
L 1350 2752 
L 1805 2752 
L 1805 3420 
L 1350 3420 
L 1350 4256 
z
" transform="scale(0.015625)"/>
       <path id="RobotoCondensed-Bold-6f" d="M 218 1805 
L 218 1593 
C 218 1073 339 662 582 373 
C 819 84 1158 -64 1594 -64 
C 2022 -64 2362 84 2598 373 
C 2835 662 2957 1066 2957 1587 
L 2957 1799 
C 2957 2319 2835 2724 2598 3019 
C 2355 3308 2016 3456 1587 3456 
C 1158 3456 819 3308 582 3019 
C 339 2724 218 2319 218 1805 
z
M 1107 1587 
L 1107 1805 
C 1107 2120 1152 2351 1235 2499 
C 1318 2647 1440 2717 1587 2717 
C 1741 2717 1862 2640 1946 2493 
C 2029 2345 2074 2114 2074 1805 
L 2074 1433 
C 2054 925 1894 675 1594 675 
C 1267 675 1107 976 1107 1587 
z
" transform="scale(0.015625)"/>
       <path id="RobotoCondensed-Bold-6c" d="M 1248 0 
L 1248 4818 
L 365 4818 
L 365 0 
L 1248 0 
z
" transform="scale(0.015625)"/>
       <path id="RobotoCondensed-Bold-72" d="M 1990 2537 
L 1997 3418 
C 1926 3443 1850 3456 1754 3456 
C 1510 3456 1318 3315 1178 3026 
L 1152 3392 
L 320 3392 
L 320 0 
L 1203 0 
L 1203 2242 
C 1286 2454 1453 2563 1696 2563 
L 1990 2537 
z
" transform="scale(0.015625)"/>
       <path id="RobotoCondensed-Bold-75" d="M 1984 308 
L 2010 0 
L 2842 0 
L 2842 3392 
L 1952 3392 
L 1952 938 
C 1856 764 1709 675 1510 675 
C 1299 675 1190 842 1184 1171 
L 1184 3392 
L 301 3392 
L 301 1195 
C 301 784 384 469 544 257 
C 704 45 934 -64 1248 -64 
C 1555 -64 1798 58 1984 308 
z
" transform="scale(0.015625)"/>
       <path id="RobotoCondensed-Bold-6e" d="M 1133 3392 
L 301 3392 
L 301 0 
L 1190 0 
L 1190 2467 
C 1274 2627 1402 2711 1562 2711 
C 1709 2711 1811 2666 1869 2583 
C 1926 2499 1952 2358 1952 2165 
L 1952 0 
L 2835 0 
L 2835 2229 
C 2816 3045 2522 3456 1939 3456 
C 1619 3456 1357 3321 1158 3058 
L 1133 3392 
z
" transform="scale(0.015625)"/>
       <path id="RobotoCondensed-Bold-69" d="M 1248 0 
L 1248 3392 
L 365 3392 
L 365 0 
L 1248 0 
z
M 320 4267 
C 320 4132 365 4017 454 3927 
C 538 3837 659 3792 806 3792 
C 954 3792 1069 3837 1158 3927 
C 1242 4017 1286 4132 1286 4267 
C 1286 4402 1242 4518 1158 4608 
C 1069 4691 954 4736 806 4736 
C 659 4736 538 4691 454 4608 
C 365 4518 320 4402 320 4267 
z
" transform="scale(0.015625)"/>
       <path id="RobotoCondensed-Bold-6d" d="M 1152 3392 
L 326 3392 
L 326 0 
L 1210 0 
L 1210 2467 
C 1299 2627 1421 2711 1574 2711 
C 1709 2711 1798 2666 1850 2583 
C 1901 2493 1926 2351 1926 2159 
L 1926 0 
L 2810 0 
L 2810 2300 
L 2803 2409 
C 2886 2608 3008 2711 3174 2711 
C 3302 2711 3392 2672 3450 2589 
C 3507 2505 3533 2364 3533 2165 
L 3533 0 
L 4416 0 
L 4416 2223 
C 4403 3045 4102 3456 3507 3456 
C 3142 3456 2867 3302 2675 3000 
C 2541 3302 2304 3456 1965 3456 
C 1638 3456 1376 3328 1178 3077 
L 1152 3392 
z
" transform="scale(0.015625)"/>
       <path id="RobotoCondensed-Bold-65" d="M 1690 -64 
C 1933 -64 2157 -19 2362 77 
C 2566 173 2720 297 2829 444 
L 2483 980 
C 2285 778 2035 675 1741 675 
C 1542 675 1389 733 1293 850 
C 1197 967 1139 1155 1126 1408 
L 2886 1408 
L 2886 1843 
C 2880 2375 2771 2778 2560 3053 
C 2349 3322 2029 3456 1600 3456 
C 1158 3456 826 3308 595 3019 
C 358 2730 243 2313 243 1779 
L 243 1510 
C 243 1002 371 617 627 347 
C 883 71 1235 -64 1690 -64 
z
M 1133 2025 
C 1146 2266 1184 2444 1254 2552 
C 1325 2661 1434 2717 1594 2717 
C 1747 2717 1856 2667 1920 2565 
C 1978 2457 2010 2305 2016 2108 
L 2016 2025 
L 1133 2025 
z
" transform="scale(0.015625)"/>
       <path id="txbsys-bb" d="M 1914 -928 
L 1555 -928 
C 1344 -928 1242 -819 1242 -595 
L 1242 3974 
C 1242 4173 1325 4256 1530 4256 
L 1914 4256 
L 1914 4544 
L 563 4544 
L 563 -1216 
L 1914 -1216 
L 1914 -928 
z
" transform="scale(0.015625)"/>
       <path id="NotoSerif-Bold-73" d="M 1478 -64 
C 1920 -64 2266 38 2509 232 
C 2746 437 2867 714 2867 1066 
C 2867 1336 2778 1555 2598 1709 
C 2413 1876 2182 2005 1894 2101 
C 1664 2185 1485 2255 1357 2319 
C 1229 2383 1139 2448 1088 2519 
C 1043 2590 1018 2667 1018 2756 
C 1018 2891 1069 2988 1178 3059 
C 1280 3123 1402 3155 1536 3155 
C 1722 3155 1862 3097 1958 2981 
C 2054 2859 2099 2692 2099 2480 
C 2336 2480 2502 2518 2598 2595 
C 2701 2666 2752 2776 2752 2923 
C 2752 3019 2714 3115 2637 3211 
C 2566 3302 2445 3379 2278 3430 
C 2118 3495 1901 3520 1632 3520 
C 1216 3520 883 3437 634 3263 
C 384 3096 256 2839 256 2499 
C 256 2209 346 1985 531 1824 
C 717 1657 979 1516 1325 1393 
C 1626 1284 1837 1188 1946 1098 
C 2054 1009 2112 892 2112 751 
C 2112 629 2061 526 1958 442 
C 1862 359 1702 314 1478 314 
C 1267 314 1101 391 973 546 
C 851 700 787 911 787 1175 
C 717 1175 634 1162 538 1143 
C 442 1117 365 1073 294 1002 
C 224 932 192 828 192 687 
C 192 475 288 296 486 154 
C 685 6 1011 -64 1478 -64 
z
" transform="scale(0.015625)"/>
       <path id="txbsys-bc" d="M 256 -928 
L 256 -1216 
L 1606 -1216 
L 1606 4544 
L 256 4544 
L 256 4256 
L 640 4256 
C 845 4256 928 4173 928 3974 
L 928 -595 
C 928 -819 826 -928 614 -928 
L 256 -928 
z
" transform="scale(0.015625)"/>
      </defs>
      <use xlink:href="#RobotoCondensed-Bold-61" transform="scale(0.946448)"/>
      <use xlink:href="#RobotoCondensed-Bold-76" transform="translate(43.820536 0) scale(0.946448)"/>
      <use xlink:href="#RobotoCondensed-Bold-67" transform="translate(85.748238 0) scale(0.946448)"/>
      <use xlink:href="#RobotoCondensed-Bold-2e" transform="translate(133.259888 0) scale(0.946448)"/>
      <use xlink:href="#RobotoCondensed-Bold-74" transform="translate(186.194653 0) scale(0.946448)"/>
      <use xlink:href="#RobotoCondensed-Bold-6f" transform="translate(213.830901 0) scale(0.946448)"/>
      <use xlink:href="#RobotoCondensed-Bold-74" transform="translate(260.86932 0) scale(0.946448)"/>
      <use xlink:href="#RobotoCondensed-Bold-61" transform="translate(289.925277 0) scale(0.946448)"/>
      <use xlink:href="#RobotoCondensed-Bold-6c" transform="translate(334.408338 0) scale(0.946448)"/>
      <use xlink:href="#RobotoCondensed-Bold-72" transform="translate(379.932462 0) scale(0.946448)"/>
      <use xlink:href="#RobotoCondensed-Bold-75" transform="translate(411.259899 0) scale(0.946448)"/>
      <use xlink:href="#RobotoCondensed-Bold-6e" transform="translate(457.825087 0) scale(0.946448)"/>
      <use xlink:href="#RobotoCondensed-Bold-74" transform="translate(504.390275 0) scale(0.946448)"/>
      <use xlink:href="#RobotoCondensed-Bold-69" transform="translate(533.446232 0) scale(0.946448)"/>
      <use xlink:href="#RobotoCondensed-Bold-6d" transform="translate(557.202103 0) scale(0.946448)"/>
      <use xlink:href="#RobotoCondensed-Bold-65" transform="translate(627.333884 0) scale(0.946448)"/>
      <use xlink:href="#txbsys-bb" transform="translate(694.342307 0) scale(1.01519)"/>
      <use xlink:href="#NotoSerif-Bold-73" transform="translate(728.757227 0) scale(0.913673)"/>
      <use xlink:href="#txbsys-bc" transform="translate(773.344435 0) scale(1.01519)"/>
     </g>
    </g>
   </g>
   <g id="LineCollection_1">
    <path d="M 41.948458 83.227111 
L 41.948458 15.202858 
" clip-path="url(#p34db4fbee9)" style="fill: none; stroke: #00346b; stroke-linecap: round"/>
    <path d="M 79.172458 113.605228 
L 79.172458 101.745987 
" clip-path="url(#p34db4fbee9)" style="fill: none; stroke: #00346b; stroke-linecap: round"/>
    <path d="M 116.396458 135.291245 
L 116.396458 133.052595 
" clip-path="url(#p34db4fbee9)" style="fill: none; stroke: #00346b; stroke-linecap: round"/>
    <path d="M 153.620458 139.571807 
L 153.620458 138.578714 
" clip-path="url(#p34db4fbee9)" style="fill: none; stroke: #00346b; stroke-linecap: round"/>
   </g>
   <g id="LineCollection_2">
    <path d="M 41.948458 91.988888 
L 41.948458 70.218968 
" clip-path="url(#p34db4fbee9)" style="fill: none; stroke: #8b9397; stroke-linecap: round"/>
    <path d="M 79.172458 121.384076 
L 79.172458 114.337443 
" clip-path="url(#p34db4fbee9)" style="fill: none; stroke: #8b9397; stroke-linecap: round"/>
    <path d="M 116.396458 134.575194 
L 116.396458 132.970915 
" clip-path="url(#p34db4fbee9)" style="fill: none; stroke: #8b9397; stroke-linecap: round"/>
    <path d="M 153.620458 139.353822 
L 153.620458 138.63453 
" clip-path="url(#p34db4fbee9)" style="fill: none; stroke: #8b9397; stroke-linecap: round"/>
   </g>
   <g id="LineCollection_3">
    <path d="M 41.948458 83.806586 
L 41.948458 8.4492 
" clip-path="url(#p34db4fbee9)" style="fill: none; stroke: #d9e482; stroke-linecap: round"/>
    <path d="M 79.172458 112.322341 
L 79.172458 101.286559 
" clip-path="url(#p34db4fbee9)" style="fill: none; stroke: #d9e482; stroke-linecap: round"/>
    <path d="M 116.396458 134.018428 
L 116.396458 131.59919 
" clip-path="url(#p34db4fbee9)" style="fill: none; stroke: #d9e482; stroke-linecap: round"/>
    <path d="M 153.620458 135.71359 
L 153.620458 134.498921 
" clip-path="url(#p34db4fbee9)" style="fill: none; stroke: #d9e482; stroke-linecap: round"/>
   </g>
   <g id="LineCollection_4">
    <path d="M 41.948458 97.172472 
L 41.948458 21.744431 
" clip-path="url(#p34db4fbee9)" style="fill: none; stroke: #2e3d00; stroke-linecap: round"/>
    <path d="M 79.172458 118.162634 
L 79.172458 108.66769 
" clip-path="url(#p34db4fbee9)" style="fill: none; stroke: #2e3d00; stroke-linecap: round"/>
    <path d="M 116.396458 132.624138 
L 116.396458 130.425748 
" clip-path="url(#p34db4fbee9)" style="fill: none; stroke: #2e3d00; stroke-linecap: round"/>
    <path d="M 153.620458 137.329277 
L 153.620458 136.191505 
" clip-path="url(#p34db4fbee9)" style="fill: none; stroke: #2e3d00; stroke-linecap: round"/>
   </g>
   <g id="LineCollection_5">
    <path d="M 41.948458 77.528107 
L 41.948458 54.997741 
" clip-path="url(#p34db4fbee9)" style="fill: none; stroke: #6692c2; stroke-linecap: round"/>
    <path d="M 79.172458 107.174441 
L 79.172458 97.674885 
" clip-path="url(#p34db4fbee9)" style="fill: none; stroke: #6692c2; stroke-linecap: round"/>
    <path d="M 116.396458 129.908775 
L 116.396458 126.095622 
" clip-path="url(#p34db4fbee9)" style="fill: none; stroke: #6692c2; stroke-linecap: round"/>
    <path d="M 153.620458 132.724123 
L 153.620458 130.778494 
" clip-path="url(#p34db4fbee9)" style="fill: none; stroke: #6692c2; stroke-linecap: round"/>
   </g>
   <g id="LineCollection_6">
    <path d="M 41.948458 73.107997 
L 41.948458 26.048232 
" clip-path="url(#p34db4fbee9)" style="fill: none; stroke: #f8c2ce; stroke-linecap: round"/>
    <path d="M 79.172458 115.256126 
L 79.172458 104.943949 
" clip-path="url(#p34db4fbee9)" style="fill: none; stroke: #f8c2ce; stroke-linecap: round"/>
    <path d="M 116.396458 133.336395 
L 116.396458 131.257843 
" clip-path="url(#p34db4fbee9)" style="fill: none; stroke: #f8c2ce; stroke-linecap: round"/>
    <path d="M 153.620458 137.165766 
L 153.620458 136.358736 
" clip-path="url(#p34db4fbee9)" style="fill: none; stroke: #f8c2ce; stroke-linecap: round"/>
   </g>
   <g id="line2d_12">
    <path d="M 41.948458 49.214984 
L 79.172458 107.675607 
L 116.396458 134.17192 
L 153.620458 139.075261 
" clip-path="url(#p34db4fbee9)" style="fill: none; stroke: #00346b; stroke-linecap: round"/>
    <defs>
     <path id="m29eaddbbd2" d="M 0 -3.15 
L -0.538682 -1.480016 
L -2.024781 -2.41304 
L -1.36399 -0.7875 
L -3.102144 -0.546992 
L -1.551072 0.273496 
L -2.72798 1.575 
L -1.01239 1.20652 
L -1.077363 2.960032 
L -0 1.575 
L 1.077363 2.960032 
L 1.01239 1.20652 
L 2.72798 1.575 
L 1.551072 0.273496 
L 3.102144 -0.546992 
L 1.36399 -0.7875 
L 2.024781 -2.41304 
L 0.538682 -1.480016 
z
" style="stroke: #00346b; stroke-linejoin: bevel"/>
    </defs>
    <g clip-path="url(#p34db4fbee9)">
     <use xlink:href="#m29eaddbbd2" x="41.948458" y="49.214984" style="fill: #00346b; stroke: #00346b; stroke-linejoin: bevel"/>
     <use xlink:href="#m29eaddbbd2" x="79.172458" y="107.675607" style="fill: #00346b; stroke: #00346b; stroke-linejoin: bevel"/>
     <use xlink:href="#m29eaddbbd2" x="116.396458" y="134.17192" style="fill: #00346b; stroke: #00346b; stroke-linejoin: bevel"/>
     <use xlink:href="#m29eaddbbd2" x="153.620458" y="139.075261" style="fill: #00346b; stroke: #00346b; stroke-linejoin: bevel"/>
    </g>
   </g>
   <g id="line2d_13">
    <path d="M 41.948458 81.103928 
L 79.172458 117.86076 
L 116.396458 133.773054 
L 153.620458 138.994176 
" clip-path="url(#p34db4fbee9)" style="fill: none; stroke: #8b9397; stroke-linecap: round"/>
    <defs>
     <path id="me70bb3a4f9" d="M 0 -2.7 
L -2.7 2.7 
L 2.7 2.7 
z
" style="stroke: #8b9397; stroke-linejoin: miter"/>
    </defs>
    <g clip-path="url(#p34db4fbee9)">
     <use xlink:href="#me70bb3a4f9" x="41.948458" y="81.103928" style="fill: #8b9397; stroke: #8b9397; stroke-linejoin: miter"/>
     <use xlink:href="#me70bb3a4f9" x="79.172458" y="117.86076" style="fill: #8b9397; stroke: #8b9397; stroke-linejoin: miter"/>
     <use xlink:href="#me70bb3a4f9" x="116.396458" y="133.773054" style="fill: #8b9397; stroke: #8b9397; stroke-linejoin: miter"/>
     <use xlink:href="#me70bb3a4f9" x="153.620458" y="138.994176" style="fill: #8b9397; stroke: #8b9397; stroke-linejoin: miter"/>
    </g>
   </g>
   <g id="line2d_14">
    <path d="M 41.948458 46.127893 
L 79.172458 106.80445 
L 116.396458 132.808809 
L 153.620458 135.106255 
" clip-path="url(#p34db4fbee9)" style="fill: none; stroke: #d9e482; stroke-linecap: round"/>
    <defs>
     <path id="md15e148b2f" d="M 0 2.7 
C 0.716048 2.7 1.402866 2.415511 1.909188 1.909188 
C 2.415511 1.402866 2.7 0.716048 2.7 0 
C 2.7 -0.716048 2.415511 -1.402866 1.909188 -1.909188 
C 1.402866 -2.415511 0.716048 -2.7 0 -2.7 
C -0.716048 -2.7 -1.402866 -2.415511 -1.909188 -1.909188 
C -2.415511 -1.402866 -2.7 -0.716048 -2.7 0 
C -2.7 0.716048 -2.415511 1.402866 -1.909188 1.909188 
C -1.402866 2.415511 -0.716048 2.7 0 2.7 
z
" style="stroke: #d9e482"/>
    </defs>
    <g clip-path="url(#p34db4fbee9)">
     <use xlink:href="#md15e148b2f" x="41.948458" y="46.127893" style="fill: #d9e482; stroke: #d9e482"/>
     <use xlink:href="#md15e148b2f" x="79.172458" y="106.80445" style="fill: #d9e482; stroke: #d9e482"/>
     <use xlink:href="#md15e148b2f" x="116.396458" y="132.808809" style="fill: #d9e482; stroke: #d9e482"/>
     <use xlink:href="#md15e148b2f" x="153.620458" y="135.106255" style="fill: #d9e482; stroke: #d9e482"/>
    </g>
   </g>
   <g id="line2d_15">
    <path d="M 41.948458 59.458452 
L 79.172458 113.415162 
L 116.396458 131.524943 
L 153.620458 136.760391 
" clip-path="url(#p34db4fbee9)" style="fill: none; stroke: #2e3d00; stroke-linecap: round"/>
    <defs>
     <path id="mf6f9dd2863" d="M 0 -3.15 
L -0.707219 -0.973404 
L -2.995828 -0.973404 
L -1.144304 0.371807 
L -1.851524 2.548404 
L -0 1.203193 
L 1.851524 2.548404 
L 1.144304 0.371807 
L 2.995828 -0.973404 
L 0.707219 -0.973404 
z
" style="stroke: #2e3d00; stroke-linejoin: bevel"/>
    </defs>
    <g clip-path="url(#p34db4fbee9)">
     <use xlink:href="#mf6f9dd2863" x="41.948458" y="59.458452" style="fill: #2e3d00; stroke: #2e3d00; stroke-linejoin: bevel"/>
     <use xlink:href="#mf6f9dd2863" x="79.172458" y="113.415162" style="fill: #2e3d00; stroke: #2e3d00; stroke-linejoin: bevel"/>
     <use xlink:href="#mf6f9dd2863" x="116.396458" y="131.524943" style="fill: #2e3d00; stroke: #2e3d00; stroke-linejoin: bevel"/>
     <use xlink:href="#mf6f9dd2863" x="153.620458" y="136.760391" style="fill: #2e3d00; stroke: #2e3d00; stroke-linejoin: bevel"/>
    </g>
   </g>
   <g id="line2d_16">
    <path d="M 41.948458 66.262924 
L 79.172458 102.424663 
L 116.396458 128.002198 
L 153.620458 131.751309 
" clip-path="url(#p34db4fbee9)" style="fill: none; stroke: #6692c2; stroke-linecap: round"/>
    <defs>
     <path id="mad82250b9c" d="M -0 2.7 
L 2.7 -2.7 
L -2.7 -2.7 
z
" style="stroke: #6692c2; stroke-linejoin: miter"/>
    </defs>
    <g clip-path="url(#p34db4fbee9)">
     <use xlink:href="#mad82250b9c" x="41.948458" y="66.262924" style="fill: #6692c2; stroke: #6692c2; stroke-linejoin: miter"/>
     <use xlink:href="#mad82250b9c" x="79.172458" y="102.424663" style="fill: #6692c2; stroke: #6692c2; stroke-linejoin: miter"/>
     <use xlink:href="#mad82250b9c" x="116.396458" y="128.002198" style="fill: #6692c2; stroke: #6692c2; stroke-linejoin: miter"/>
     <use xlink:href="#mad82250b9c" x="153.620458" y="131.751309" style="fill: #6692c2; stroke: #6692c2; stroke-linejoin: miter"/>
    </g>
   </g>
   <g id="line2d_17">
    <path d="M 41.948458 49.578115 
L 79.172458 110.100038 
L 116.396458 132.297119 
L 153.620458 136.762251 
" clip-path="url(#p34db4fbee9)" style="fill: none; stroke: #f8c2ce; stroke-linecap: round"/>
    <defs>
     <path id="ma067d52533" d="M -1.35 2.7 
L 0 1.35 
L 1.35 2.7 
L 2.7 1.35 
L 1.35 0 
L 2.7 -1.35 
L 1.35 -2.7 
L 0 -1.35 
L -1.35 -2.7 
L -2.7 -1.35 
L -1.35 0 
L -2.7 1.35 
z
" style="stroke: #f8c2ce; stroke-linejoin: miter"/>
    </defs>
    <g clip-path="url(#p34db4fbee9)">
     <use xlink:href="#ma067d52533" x="41.948458" y="49.578115" style="fill: #f8c2ce; stroke: #f8c2ce; stroke-linejoin: miter"/>
     <use xlink:href="#ma067d52533" x="79.172458" y="110.100038" style="fill: #f8c2ce; stroke: #f8c2ce; stroke-linejoin: miter"/>
     <use xlink:href="#ma067d52533" x="116.396458" y="132.297119" style="fill: #f8c2ce; stroke: #f8c2ce; stroke-linejoin: miter"/>
     <use xlink:href="#ma067d52533" x="153.620458" y="136.762251" style="fill: #f8c2ce; stroke: #f8c2ce; stroke-linejoin: miter"/>
    </g>
   </g>
   <g id="patch_3">
    <path d="M 34.875898 141.624 
L 160.693018 141.624 
" style="fill: none; stroke: #000000; stroke-width: 0.8; stroke-linejoin: miter; stroke-linecap: square"/>
   </g>
   <g id="legend_1">
    <g id="LineCollection_7">
     <path d="M 176.893018 29.414437 
L 176.893018 20.414437 
" style="fill: none; stroke: #00346b"/>
    </g>
    <g id="line2d_18">
     <path d="M 169.243018 24.914437 
L 184.543018 24.914437 
" style="fill: none; stroke: #00346b; stroke-linecap: round"/>
    </g>
    <g id="line2d_19">
     <g>
      <use xlink:href="#m29eaddbbd2" x="176.893018" y="24.914437" style="fill: #00346b; stroke: #00346b; stroke-linejoin: bevel"/>
     </g>
    </g>
    <g id="text_13">
     <!-- \schedulermoobj[1]{MCS}{o1,stl,\textbf{r-lb-nwsp-lta}}{SPLT25} -->
     <g transform="translate(189.943018 27.364437) scale(0.09 -0.09)">
      <defs>
       <path id="RobotoCondensed-Italic-4d" d="M 1645 4544 
L 934 4544 
L 147 0 
L 710 0 
L 1011 1739 
L 1274 3560 
L 1811 0 
L 2240 0 
L 3987 3483 
L 3642 1795 
L 3328 0 
L 3885 0 
L 4678 4544 
L 3949 4544 
L 2150 844 
L 1645 4544 
z
" transform="scale(0.015625)"/>
       <path id="RobotoCondensed-Italic-43" d="M 3149 1443 
L 2598 1443 
C 2515 1068 2394 803 2227 650 
C 2061 497 1843 428 1568 428 
C 1376 428 1222 498 1114 640 
C 998 775 934 981 915 1258 
C 902 1437 909 1634 941 1851 
L 1069 2658 
C 1146 3148 1286 3511 1491 3760 
C 1696 4002 1952 4116 2266 4116 
C 2426 4116 2554 4078 2650 4001 
C 2746 3917 2810 3814 2854 3679 
C 2893 3545 2906 3345 2899 3082 
L 3462 3082 
C 3482 3563 3386 3935 3187 4204 
C 2982 4474 2688 4608 2298 4608 
C 1830 4608 1440 4441 1126 4097 
C 813 3751 602 3266 506 2646 
L 378 1847 
C 358 1706 352 1560 352 1413 
C 358 1131 410 876 506 646 
C 602 415 736 244 909 122 
C 1082 0 1293 -64 1536 -64 
C 1971 -64 2330 63 2618 335 
C 2906 608 3078 975 3149 1443 
z
" transform="scale(0.015625)"/>
       <path id="RobotoCondensed-Italic-53" d="M 2291 1181 
C 2259 946 2170 760 2010 627 
C 1850 493 1658 429 1434 429 
C 1190 429 1011 512 890 673 
C 768 834 717 1047 736 1317 
L 173 1317 
C 154 915 256 588 486 332 
C 717 71 1024 -64 1402 -64 
C 1805 -64 2138 44 2406 280 
C 2675 516 2822 815 2854 1185 
C 2886 1618 2752 1962 2438 2217 
C 2298 2332 2106 2440 1856 2549 
C 1606 2650 1427 2765 1331 2899 
C 1229 3027 1190 3173 1210 3345 
C 1235 3580 1325 3766 1478 3906 
C 1626 4046 1818 4116 2042 4116 
C 2266 4116 2426 4039 2534 3891 
C 2643 3737 2682 3518 2662 3228 
L 3219 3228 
C 3251 3619 3155 3947 2944 4210 
C 2733 4474 2438 4608 2074 4608 
C 1696 4608 1370 4494 1101 4251 
C 832 4009 685 3703 653 3340 
C 621 2952 755 2633 1056 2379 
C 1197 2257 1402 2137 1670 2021 
C 1939 1901 2118 1780 2202 1652 
C 2285 1525 2310 1366 2291 1181 
z
" transform="scale(0.015625)"/>
       <path id="RobotoCondensed-Italic-6f" d="M 294 1840 
L 256 1527 
C 224 1231 243 962 314 718 
C 384 475 506 283 672 148 
C 838 7 1050 -64 1299 -64 
C 1696 -64 2029 77 2298 373 
C 2560 668 2726 1060 2797 1542 
L 2829 1863 
C 2861 2152 2848 2421 2778 2672 
C 2707 2916 2586 3109 2419 3250 
C 2253 3385 2042 3456 1792 3456 
C 1389 3456 1056 3315 794 3020 
C 531 2719 365 2328 294 1840 
z
M 781 1302 
L 787 1471 
L 826 1784 
C 870 2163 979 2464 1139 2676 
C 1299 2887 1504 2983 1754 2983 
C 1939 2983 2080 2899 2176 2743 
C 2272 2588 2317 2367 2310 2082 
L 2291 1858 
L 2246 1492 
C 2189 1127 2086 852 1933 672 
C 1773 486 1574 403 1331 403 
C 1146 403 1005 487 915 649 
C 819 804 774 1024 781 1302 
z
" transform="scale(0.015625)"/>
       <path id="RobotoCondensed-Italic-31" d="M 1395 0 
L 2176 4570 
L 2080 4570 
L 614 3968 
L 518 3411 
L 1523 3834 
L 851 0 
L 1395 0 
z
" transform="scale(0.015625)"/>
       <path id="RobotoCondensed-Italic-2c" d="M -26 -890 
C 365 -583 595 -192 666 281 
L 730 704 
L 179 704 
L 96 230 
C 38 -58 -109 -352 -352 -653 
L -26 -890 
z
" transform="scale(0.015625)"/>
       <path id="RobotoCondensed-Italic-73" d="M 1837 892 
C 1818 744 1754 628 1638 545 
C 1523 454 1376 410 1203 410 
C 1043 410 915 461 826 564 
C 736 667 691 815 698 1014 
L 154 1014 
C 141 698 230 440 429 240 
C 621 40 870 -64 1184 -64 
C 1504 -64 1779 19 2003 204 
C 2227 390 2355 633 2374 940 
C 2394 1292 2208 1581 1818 1799 
L 1293 2068 
C 1101 2177 1018 2311 1043 2484 
C 1062 2631 1126 2746 1229 2836 
C 1331 2925 1466 2970 1626 2970 
C 1773 2970 1882 2925 1965 2828 
C 2042 2732 2080 2597 2074 2423 
L 2605 2423 
C 2618 2727 2541 2972 2368 3165 
C 2195 3352 1958 3456 1658 3456 
C 1344 3456 1082 3360 870 3175 
C 653 2990 538 2755 518 2468 
C 506 2287 544 2126 627 1992 
C 710 1857 864 1728 1082 1606 
L 1504 1387 
C 1754 1252 1862 1091 1837 892 
z
" transform="scale(0.015625)"/>
       <path id="RobotoCondensed-Italic-74" d="M 1510 4192 
L 973 4192 
L 826 3392 
L 333 3392 
L 250 2944 
L 755 2944 
L 410 838 
C 384 548 422 329 518 175 
C 614 13 755 -64 941 -64 
C 1062 -64 1184 -45 1299 0 
L 1344 474 
C 1248 450 1171 435 1120 435 
C 986 435 922 525 928 705 
L 934 834 
L 1293 2944 
L 1786 2944 
L 1862 3392 
L 1363 3392 
L 1510 4192 
z
" transform="scale(0.015625)"/>
       <path id="RobotoCondensed-Italic-6c" d="M 659 0 
L 1491 4800 
L 947 4800 
L 115 0 
L 659 0 
z
" transform="scale(0.015625)"/>
       <path id="RobotoCondensed-BoldItalic-72" d="M 2074 2534 
L 2189 3405 
C 2080 3437 1997 3456 1926 3456 
C 1811 3456 1709 3424 1613 3360 
C 1517 3290 1414 3174 1312 3014 
L 1376 3379 
L 570 3379 
L -19 0 
L 845 0 
L 1235 2229 
C 1382 2452 1568 2560 1798 2560 
L 2074 2534 
z
" transform="scale(0.015625)"/>
       <path id="RobotoCondensed-BoldItalic-2d" d="M 1805 1600 
L 1939 2336 
L 448 2336 
L 320 1600 
L 1805 1600 
z
" transform="scale(0.015625)"/>
       <path id="RobotoCondensed-BoldItalic-6c" d="M 890 0 
L 1728 4800 
L 858 4800 
L 26 0 
L 890 0 
z
" transform="scale(0.015625)"/>
       <path id="RobotoCondensed-BoldItalic-62" d="M 1549 -64 
C 1818 -64 2048 12 2246 172 
C 2438 333 2586 583 2694 936 
C 2797 1283 2854 1700 2874 2180 
C 2893 2597 2829 2911 2682 3129 
C 2534 3347 2310 3456 2016 3456 
C 1766 3456 1549 3343 1350 3110 
L 1683 4800 
L 819 4800 
L -13 0 
L 787 0 
L 896 339 
C 1043 74 1261 -64 1549 -64 
z
M 2022 2168 
L 1965 1589 
L 1939 1359 
C 1875 889 1683 659 1357 659 
C 1184 659 1069 743 1005 890 
L 1274 2449 
C 1402 2623 1549 2707 1709 2707 
C 1818 2707 1901 2668 1952 2584 
C 2003 2500 2029 2363 2022 2168 
z
" transform="scale(0.015625)"/>
       <path id="RobotoCondensed-BoldItalic-6e" d="M 1357 3379 
L 550 3379 
L -38 0 
L 832 0 
L 1261 2463 
C 1312 2534 1370 2592 1434 2643 
C 1498 2688 1574 2713 1664 2713 
C 1856 2713 1946 2592 1939 2347 
L 1920 2162 
L 1568 0 
L 2432 0 
L 2790 2155 
L 2810 2445 
C 2810 2767 2752 3018 2630 3192 
C 2509 3366 2323 3456 2086 3456 
C 1798 3456 1530 3323 1293 3049 
L 1357 3379 
z
" transform="scale(0.015625)"/>
       <path id="RobotoCondensed-BoldItalic-77" d="M 2624 1491 
L 2522 3379 
L 1901 3379 
L 1146 1504 
L 1184 3379 
L 371 3379 
L 467 0 
L 1190 0 
L 1990 1945 
L 2112 0 
L 2822 0 
L 4090 3379 
L 3245 3379 
L 2624 1491 
z
" transform="scale(0.015625)"/>
       <path id="RobotoCondensed-BoldItalic-73" d="M 1613 928 
C 1594 819 1549 736 1472 678 
C 1395 621 1306 589 1197 589 
C 1075 589 986 627 928 698 
C 870 768 838 891 845 1051 
L 19 1051 
C 13 729 115 464 326 258 
C 538 46 806 -64 1133 -64 
C 1363 -64 1574 -20 1773 64 
C 1971 147 2125 262 2246 422 
C 2362 582 2426 761 2438 972 
C 2458 1331 2317 1612 2003 1817 
C 1901 1888 1734 1977 1498 2086 
C 1261 2188 1152 2310 1178 2444 
C 1197 2540 1242 2624 1312 2694 
C 1382 2764 1466 2796 1562 2796 
C 1658 2796 1728 2764 1773 2707 
C 1818 2643 1837 2533 1830 2386 
L 2694 2386 
C 2701 2701 2605 2959 2406 3160 
C 2208 3353 1946 3456 1606 3456 
C 1267 3456 979 3360 742 3162 
C 506 2963 378 2707 365 2400 
C 358 2240 390 2099 448 1978 
C 506 1856 595 1741 717 1645 
C 838 1542 1024 1434 1274 1318 
C 1523 1203 1632 1075 1613 928 
z
" transform="scale(0.015625)"/>
       <path id="RobotoCondensed-BoldItalic-70" d="M 1542 -64 
C 1805 -64 2035 12 2234 179 
C 2432 340 2579 589 2688 930 
C 2797 1270 2854 1679 2874 2167 
C 2893 2584 2829 2898 2682 3122 
C 2534 3347 2310 3456 2016 3456 
C 1754 3456 1517 3330 1312 3078 
L 1357 3385 
L 570 3385 
L -243 -1312 
L 621 -1312 
L 922 275 
C 1069 54 1280 -64 1542 -64 
z
M 2016 2175 
L 2010 2058 
L 1946 1422 
C 1869 907 1670 659 1350 659 
C 1184 659 1069 741 998 884 
L 1280 2476 
C 1408 2636 1549 2713 1702 2713 
C 1811 2713 1894 2674 1946 2597 
C 1990 2512 2016 2376 2016 2175 
z
" transform="scale(0.015625)"/>
       <path id="RobotoCondensed-BoldItalic-74" d="M 1722 4192 
L 858 4192 
L 710 3353 
L 333 3353 
L 218 2688 
L 595 2688 
L 307 896 
C 275 594 326 348 454 175 
C 582 -6 774 -96 1024 -96 
C 1197 -96 1344 -70 1472 -19 
L 1549 669 
C 1440 669 1370 669 1338 669 
C 1216 669 1158 739 1165 881 
L 1171 978 
L 1459 2688 
L 1894 2688 
L 2010 3353 
L 1574 3353 
L 1722 4192 
z
" transform="scale(0.015625)"/>
       <path id="RobotoCondensed-BoldItalic-61" d="M 1594 0 
L 2438 0 
L 2445 58 
C 2406 166 2394 294 2400 442 
L 2413 609 
L 2688 2331 
C 2720 2666 2650 2936 2477 3142 
C 2298 3347 2042 3456 1702 3456 
C 1344 3456 1043 3354 794 3150 
C 544 2945 416 2684 397 2365 
L 1254 2365 
C 1299 2628 1421 2764 1619 2764 
C 1766 2764 1843 2671 1843 2487 
L 1830 2345 
L 1792 2067 
L 1536 2067 
C 1094 2067 749 1965 486 1765 
C 224 1561 90 1278 70 919 
C 58 642 128 405 288 219 
C 448 32 653 -64 915 -64 
C 1158 -64 1376 45 1568 262 
C 1568 160 1574 70 1594 0 
z
M 1152 621 
C 1088 621 1037 640 1005 686 
C 966 732 947 784 947 856 
L 954 979 
C 973 1139 1037 1267 1139 1376 
C 1242 1478 1376 1536 1542 1536 
L 1728 1536 
L 1574 825 
C 1446 691 1306 621 1152 621 
z
" transform="scale(0.015625)"/>
       <path id="RobotoCondensed-Italic-50" d="M 1018 1792 
L 1901 1792 
C 2330 1792 2682 1920 2957 2170 
C 3232 2419 3386 2765 3424 3200 
C 3456 3591 3373 3917 3174 4167 
C 2970 4416 2682 4544 2310 4544 
L 934 4544 
L 147 0 
L 710 0 
L 1018 1792 
z
M 1101 2279 
L 1414 4057 
L 2298 4057 
C 2458 4057 2592 3999 2688 3903 
C 2784 3807 2848 3673 2867 3500 
C 2893 3302 2867 3098 2797 2899 
C 2726 2701 2611 2547 2464 2439 
C 2310 2330 2131 2279 1926 2279 
L 1101 2279 
z
" transform="scale(0.015625)"/>
       <path id="RobotoCondensed-Italic-4c" d="M 800 493 
L 1498 4544 
L 934 4544 
L 147 0 
L 2438 0 
L 2528 493 
L 800 493 
z
" transform="scale(0.015625)"/>
       <path id="RobotoCondensed-Italic-54" d="M 3437 4032 
L 3520 4524 
L 646 4524 
L 557 4032 
L 1715 4032 
L 1011 -32 
L 1574 -32 
L 2272 4032 
L 3437 4032 
z
" transform="scale(0.015625)"/>
       <path id="RobotoCondensed-Italic-32" d="M 2534 0 
L 2605 474 
L 800 474 
L 2042 1862 
L 2266 2125 
C 2643 2586 2854 3014 2893 3418 
C 2925 3757 2848 4045 2669 4269 
C 2483 4493 2227 4608 1901 4614 
C 1523 4621 1203 4499 954 4237 
C 704 3974 557 3630 512 3207 
L 1043 3214 
C 1075 3508 1165 3738 1312 3904 
C 1459 4064 1645 4147 1869 4141 
C 2003 4134 2112 4090 2195 3994 
C 2278 3898 2323 3770 2336 3610 
C 2355 3379 2317 3162 2221 2957 
C 2125 2752 1971 2528 1760 2285 
L 128 442 
L 58 0 
L 2534 0 
z
" transform="scale(0.015625)"/>
       <path id="RobotoCondensed-Italic-35" d="M 634 2282 
L 1075 2161 
C 1197 2269 1299 2345 1389 2390 
C 1478 2428 1574 2448 1670 2441 
C 1830 2435 1952 2371 2048 2257 
C 2138 2135 2189 1976 2202 1779 
C 2227 1403 2163 1085 2016 811 
C 1869 537 1658 403 1389 410 
C 1037 416 851 684 832 1199 
L 333 1199 
C 339 816 435 510 621 281 
C 806 51 1050 -64 1357 -70 
C 1632 -77 1882 -6 2093 153 
C 2304 313 2470 536 2592 829 
C 2707 1122 2758 1448 2746 1799 
C 2733 2150 2650 2430 2490 2641 
C 2330 2851 2112 2953 1830 2960 
C 1632 2966 1434 2896 1235 2761 
L 1555 4013 
L 3021 4013 
L 3104 4550 
L 1178 4550 
L 634 2282 
z
" transform="scale(0.015625)"/>
      </defs>
      <use xlink:href="#RobotoCondensed-Italic-4d" transform="scale(0.946448)"/>
      <use xlink:href="#RobotoCondensed-Italic-43" transform="translate(69.753242 0) scale(0.946448)"/>
      <use xlink:href="#RobotoCondensed-Italic-53" transform="translate(122.186424 0) scale(0.946448)"/>
      <use xlink:href="#RobotoCondensed-Italic-6f" transform="translate(180.464144 51.157251) scale(0.746176)"/>
      <use xlink:href="#RobotoCondensed-Italic-31" transform="translate(217.101397 51.157251) scale(0.746176)"/>
      <use xlink:href="#RobotoCondensed-Italic-2c" transform="translate(245.082999 51.157251) scale(0.746176)"/>
      <use xlink:href="#RobotoCondensed-Italic-73" transform="translate(259.6334 51.157251) scale(0.746176)"/>
      <use xlink:href="#RobotoCondensed-Italic-74" transform="translate(292.912853 51.157251) scale(0.746176)"/>
      <use xlink:href="#RobotoCondensed-Italic-6c" transform="translate(314.626593 51.157251) scale(0.746176)"/>
      <use xlink:href="#RobotoCondensed-Italic-2c" transform="translate(331.564799 51.157251) scale(0.746176)"/>
      <use xlink:href="#RobotoCondensed-BoldItalic-72" transform="translate(346.1152 51.157251) scale(0.746176)"/>
      <use xlink:href="#RobotoCondensed-BoldItalic-2d" transform="translate(370.440545 51.157251) scale(0.746176)"/>
      <use xlink:href="#RobotoCondensed-BoldItalic-6c" transform="translate(397.079054 51.157251) scale(0.746176)"/>
      <use xlink:href="#RobotoCondensed-BoldItalic-62" transform="translate(415.658809 51.157251) scale(0.746176)"/>
      <use xlink:href="#RobotoCondensed-BoldItalic-2d" transform="translate(451.848324 51.157251) scale(0.746176)"/>
      <use xlink:href="#RobotoCondensed-BoldItalic-6e" transform="translate(478.486833 51.157251) scale(0.746176)"/>
      <use xlink:href="#RobotoCondensed-BoldItalic-77" transform="translate(514.452547 51.157251) scale(0.746176)"/>
      <use xlink:href="#RobotoCondensed-BoldItalic-73" transform="translate(560.566227 51.157251) scale(0.746176)"/>
      <use xlink:href="#RobotoCondensed-BoldItalic-70" transform="translate(593.771039 51.157251) scale(0.746176)"/>
      <use xlink:href="#RobotoCondensed-BoldItalic-2d" transform="translate(629.960554 51.157251) scale(0.746176)"/>
      <use xlink:href="#RobotoCondensed-BoldItalic-6c" transform="translate(656.599063 51.157251) scale(0.746176)"/>
      <use xlink:href="#RobotoCondensed-BoldItalic-74" transform="translate(675.178819 51.157251) scale(0.746176)"/>
      <use xlink:href="#RobotoCondensed-BoldItalic-61" transform="translate(697.713333 51.157251) scale(0.746176)"/>
      <use xlink:href="#RobotoCondensed-Italic-53" transform="translate(170.171321 -36.289178) scale(0.690903)"/>
      <use xlink:href="#RobotoCondensed-Italic-50" transform="translate(205.200089 -36.289178) scale(0.690903)"/>
      <use xlink:href="#RobotoCondensed-Italic-4c" transform="translate(242.647004 -36.289178) scale(0.690903)"/>
      <use xlink:href="#RobotoCondensed-Italic-54" transform="translate(265.515882 -36.289178) scale(0.690903)"/>
      <use xlink:href="#RobotoCondensed-Italic-32" transform="translate(300.682818 -36.289178) scale(0.690903)"/>
      <use xlink:href="#RobotoCondensed-Italic-35" transform="translate(334.053406 -36.289178) scale(0.690903)"/>
     </g>
    </g>
    <g id="LineCollection_8">
     <path d="M 176.893018 48.105042 
L 176.893018 39.105042 
" style="fill: none; stroke: #8b9397"/>
    </g>
    <g id="line2d_20">
     <path d="M 169.243018 43.605042 
L 184.543018 43.605042 
" style="fill: none; stroke: #8b9397; stroke-linecap: round"/>
    </g>
    <g id="line2d_21">
     <g>
      <use xlink:href="#me70bb3a4f9" x="176.893018" y="43.605042" style="fill: #8b9397; stroke: #8b9397; stroke-linejoin: miter"/>
     </g>
    </g>
    <g id="text_14">
     <!-- \schedulermoobj[1]{MCS}{o1,stl,\textbf{r-nwsp-lu1-lta}}{SPLT25} -->
     <g transform="translate(189.943018 46.055042) scale(0.09 -0.09)">
      <defs>
       <path id="RobotoCondensed-BoldItalic-75" d="M 1690 307 
L 1632 0 
L 2432 0 
L 3021 3379 
L 2150 3379 
L 1728 934 
C 1581 755 1427 666 1254 666 
C 1178 672 1120 705 1082 777 
C 1043 842 1030 927 1037 1031 
L 1050 1185 
L 1414 3379 
L 550 3379 
L 186 1197 
C 166 1056 166 909 179 762 
C 198 506 275 307 410 160 
C 544 13 717 -64 941 -64 
C 1229 -64 1478 51 1690 307 
z
" transform="scale(0.015625)"/>
       <path id="RobotoCondensed-BoldItalic-31" d="M 1683 0 
L 2451 4557 
L 2342 4557 
L 653 3898 
L 512 3123 
L 1414 3456 
L 813 0 
L 1683 0 
z
" transform="scale(0.015625)"/>
      </defs>
      <use xlink:href="#RobotoCondensed-Italic-4d" transform="scale(0.946448)"/>
      <use xlink:href="#RobotoCondensed-Italic-43" transform="translate(69.753242 0) scale(0.946448)"/>
      <use xlink:href="#RobotoCondensed-Italic-53" transform="translate(122.186424 0) scale(0.946448)"/>
      <use xlink:href="#RobotoCondensed-Italic-6f" transform="translate(180.464144 51.157251) scale(0.746176)"/>
      <use xlink:href="#RobotoCondensed-Italic-31" transform="translate(217.101397 51.157251) scale(0.746176)"/>
      <use xlink:href="#RobotoCondensed-Italic-2c" transform="translate(245.082999 51.157251) scale(0.746176)"/>
      <use xlink:href="#RobotoCondensed-Italic-73" transform="translate(259.6334 51.157251) scale(0.746176)"/>
      <use xlink:href="#RobotoCondensed-Italic-74" transform="translate(292.912853 51.157251) scale(0.746176)"/>
      <use xlink:href="#RobotoCondensed-Italic-6c" transform="translate(314.626593 51.157251) scale(0.746176)"/>
      <use xlink:href="#RobotoCondensed-Italic-2c" transform="translate(331.564799 51.157251) scale(0.746176)"/>
      <use xlink:href="#RobotoCondensed-BoldItalic-72" transform="translate(346.1152 51.157251) scale(0.746176)"/>
      <use xlink:href="#RobotoCondensed-BoldItalic-2d" transform="translate(370.440545 51.157251) scale(0.746176)"/>
      <use xlink:href="#RobotoCondensed-BoldItalic-6e" transform="translate(397.079054 51.157251) scale(0.746176)"/>
      <use xlink:href="#RobotoCondensed-BoldItalic-77" transform="translate(433.044768 51.157251) scale(0.746176)"/>
      <use xlink:href="#RobotoCondensed-BoldItalic-73" transform="translate(479.158448 51.157251) scale(0.746176)"/>
      <use xlink:href="#RobotoCondensed-BoldItalic-70" transform="translate(512.36326 51.157251) scale(0.746176)"/>
      <use xlink:href="#RobotoCondensed-BoldItalic-2d" transform="translate(548.552775 51.157251) scale(0.746176)"/>
      <use xlink:href="#RobotoCondensed-BoldItalic-6c" transform="translate(575.191284 51.157251) scale(0.746176)"/>
      <use xlink:href="#RobotoCondensed-BoldItalic-75" transform="translate(593.771039 51.157251) scale(0.746176)"/>
      <use xlink:href="#RobotoCondensed-BoldItalic-31" transform="translate(629.736754 51.157251) scale(0.746176)"/>
      <use xlink:href="#RobotoCondensed-BoldItalic-2d" transform="translate(661.076155 51.157251) scale(0.746176)"/>
      <use xlink:href="#RobotoCondensed-BoldItalic-6c" transform="translate(687.714664 51.157251) scale(0.746176)"/>
      <use xlink:href="#RobotoCondensed-BoldItalic-74" transform="translate(706.29442 51.157251) scale(0.746176)"/>
      <use xlink:href="#RobotoCondensed-BoldItalic-61" transform="translate(728.828934 51.157251) scale(0.746176)"/>
      <use xlink:href="#RobotoCondensed-Italic-53" transform="translate(170.171321 -36.289178) scale(0.690903)"/>
      <use xlink:href="#RobotoCondensed-Italic-50" transform="translate(205.200089 -36.289178) scale(0.690903)"/>
      <use xlink:href="#RobotoCondensed-Italic-4c" transform="translate(242.647004 -36.289178) scale(0.690903)"/>
      <use xlink:href="#RobotoCondensed-Italic-54" transform="translate(265.515882 -36.289178) scale(0.690903)"/>
      <use xlink:href="#RobotoCondensed-Italic-32" transform="translate(300.682818 -36.289178) scale(0.690903)"/>
      <use xlink:href="#RobotoCondensed-Italic-35" transform="translate(334.053406 -36.289178) scale(0.690903)"/>
     </g>
    </g>
    <g id="LineCollection_9">
     <path d="M 176.893018 66.795648 
L 176.893018 57.795648 
" style="fill: none; stroke: #d9e482"/>
    </g>
    <g id="line2d_22">
     <path d="M 169.243018 62.295648 
L 184.543018 62.295648 
" style="fill: none; stroke: #d9e482; stroke-linecap: round"/>
    </g>
    <g id="line2d_23">
     <g>
      <use xlink:href="#md15e148b2f" x="176.893018" y="62.295648" style="fill: #d9e482; stroke: #d9e482"/>
     </g>
    </g>
    <g id="text_15">
     <!-- \schedulermoobj[1]{UC}{o1,stl,\textbf{r-lb-nwsp-lta}}{SPLT25} -->
     <g transform="translate(189.943018 64.745648) scale(0.09 -0.09)">
      <defs>
       <path id="RobotoCondensed-Italic-55" d="M 3610 4544 
L 3053 4544 
L 2502 1320 
C 2451 1020 2342 798 2182 652 
C 2016 505 1798 435 1536 435 
C 1146 435 934 624 902 996 
C 896 1105 896 1219 909 1341 
L 1453 4544 
L 896 4544 
L 352 1342 
C 301 914 378 569 589 320 
C 800 70 1101 -64 1504 -64 
C 1926 -64 2278 57 2560 312 
C 2835 560 3008 911 3066 1351 
L 3610 4544 
z
" transform="scale(0.015625)"/>
      </defs>
      <use xlink:href="#RobotoCondensed-Italic-55" transform="scale(0.946448)"/>
      <use xlink:href="#RobotoCondensed-Italic-43" transform="translate(51.959951 0) scale(0.946448)"/>
      <use xlink:href="#RobotoCondensed-Italic-6f" transform="translate(114.685955 51.157251) scale(0.746176)"/>
      <use xlink:href="#RobotoCondensed-Italic-31" transform="translate(151.323209 51.157251) scale(0.746176)"/>
      <use xlink:href="#RobotoCondensed-Italic-2c" transform="translate(179.30481 51.157251) scale(0.746176)"/>
      <use xlink:href="#RobotoCondensed-Italic-73" transform="translate(193.855212 51.157251) scale(0.746176)"/>
      <use xlink:href="#RobotoCondensed-Italic-74" transform="translate(227.134665 51.157251) scale(0.746176)"/>
      <use xlink:href="#RobotoCondensed-Italic-6c" transform="translate(248.848404 51.157251) scale(0.746176)"/>
      <use xlink:href="#RobotoCondensed-Italic-2c" transform="translate(265.78661 51.157251) scale(0.746176)"/>
      <use xlink:href="#RobotoCondensed-BoldItalic-72" transform="translate(280.337011 51.157251) scale(0.746176)"/>
      <use xlink:href="#RobotoCondensed-BoldItalic-2d" transform="translate(304.662356 51.157251) scale(0.746176)"/>
      <use xlink:href="#RobotoCondensed-BoldItalic-6c" transform="translate(331.300865 51.157251) scale(0.746176)"/>
      <use xlink:href="#RobotoCondensed-BoldItalic-62" transform="translate(349.88062 51.157251) scale(0.746176)"/>
      <use xlink:href="#RobotoCondensed-BoldItalic-2d" transform="translate(386.070136 51.157251) scale(0.746176)"/>
      <use xlink:href="#RobotoCondensed-BoldItalic-6e" transform="translate(412.708644 51.157251) scale(0.746176)"/>
      <use xlink:href="#RobotoCondensed-BoldItalic-77" transform="translate(448.674359 51.157251) scale(0.746176)"/>
      <use xlink:href="#RobotoCondensed-BoldItalic-73" transform="translate(494.788039 51.157251) scale(0.746176)"/>
      <use xlink:href="#RobotoCondensed-BoldItalic-70" transform="translate(527.992851 51.157251) scale(0.746176)"/>
      <use xlink:href="#RobotoCondensed-BoldItalic-2d" transform="translate(564.182366 51.157251) scale(0.746176)"/>
      <use xlink:href="#RobotoCondensed-BoldItalic-6c" transform="translate(590.820875 51.157251) scale(0.746176)"/>
      <use xlink:href="#RobotoCondensed-BoldItalic-74" transform="translate(609.40063 51.157251) scale(0.746176)"/>
      <use xlink:href="#RobotoCondensed-BoldItalic-61" transform="translate(631.935144 51.157251) scale(0.746176)"/>
      <use xlink:href="#RobotoCondensed-Italic-53" transform="translate(104.393133 -36.289178) scale(0.690903)"/>
      <use xlink:href="#RobotoCondensed-Italic-50" transform="translate(139.421901 -36.289178) scale(0.690903)"/>
      <use xlink:href="#RobotoCondensed-Italic-4c" transform="translate(176.868816 -36.289178) scale(0.690903)"/>
      <use xlink:href="#RobotoCondensed-Italic-54" transform="translate(199.737693 -36.289178) scale(0.690903)"/>
      <use xlink:href="#RobotoCondensed-Italic-32" transform="translate(234.90463 -36.289178) scale(0.690903)"/>
      <use xlink:href="#RobotoCondensed-Italic-35" transform="translate(268.275218 -36.289178) scale(0.690903)"/>
     </g>
    </g>
    <g id="LineCollection_10">
     <path d="M 176.893018 85.486253 
L 176.893018 76.486253 
" style="fill: none; stroke: #2e3d00"/>
    </g>
    <g id="line2d_24">
     <path d="M 169.243018 80.986253 
L 184.543018 80.986253 
" style="fill: none; stroke: #2e3d00; stroke-linecap: round"/>
    </g>
    <g id="line2d_25">
     <g>
      <use xlink:href="#mf6f9dd2863" x="176.893018" y="80.986253" style="fill: #2e3d00; stroke: #2e3d00; stroke-linejoin: bevel"/>
     </g>
    </g>
    <g id="text_16">
     <!-- \schedulermoobj[1]{UC}{o1,stl,\textbf{r-nwsp-lu1-lta}}{SPLT25} -->
     <g transform="translate(189.943018 83.436253) scale(0.09 -0.09)">
      <use xlink:href="#RobotoCondensed-Italic-55" transform="scale(0.946448)"/>
      <use xlink:href="#RobotoCondensed-Italic-43" transform="translate(51.959951 0) scale(0.946448)"/>
      <use xlink:href="#RobotoCondensed-Italic-6f" transform="translate(114.685955 51.157251) scale(0.746176)"/>
      <use xlink:href="#RobotoCondensed-Italic-31" transform="translate(151.323209 51.157251) scale(0.746176)"/>
      <use xlink:href="#RobotoCondensed-Italic-2c" transform="translate(179.30481 51.157251) scale(0.746176)"/>
      <use xlink:href="#RobotoCondensed-Italic-73" transform="translate(193.855212 51.157251) scale(0.746176)"/>
      <use xlink:href="#RobotoCondensed-Italic-74" transform="translate(227.134665 51.157251) scale(0.746176)"/>
      <use xlink:href="#RobotoCondensed-Italic-6c" transform="translate(248.848404 51.157251) scale(0.746176)"/>
      <use xlink:href="#RobotoCondensed-Italic-2c" transform="translate(265.78661 51.157251) scale(0.746176)"/>
      <use xlink:href="#RobotoCondensed-BoldItalic-72" transform="translate(280.337011 51.157251) scale(0.746176)"/>
      <use xlink:href="#RobotoCondensed-BoldItalic-2d" transform="translate(304.662356 51.157251) scale(0.746176)"/>
      <use xlink:href="#RobotoCondensed-BoldItalic-6e" transform="translate(331.300865 51.157251) scale(0.746176)"/>
      <use xlink:href="#RobotoCondensed-BoldItalic-77" transform="translate(367.26658 51.157251) scale(0.746176)"/>
      <use xlink:href="#RobotoCondensed-BoldItalic-73" transform="translate(413.380259 51.157251) scale(0.746176)"/>
      <use xlink:href="#RobotoCondensed-BoldItalic-70" transform="translate(446.585072 51.157251) scale(0.746176)"/>
      <use xlink:href="#RobotoCondensed-BoldItalic-2d" transform="translate(482.774587 51.157251) scale(0.746176)"/>
      <use xlink:href="#RobotoCondensed-BoldItalic-6c" transform="translate(509.413096 51.157251) scale(0.746176)"/>
      <use xlink:href="#RobotoCondensed-BoldItalic-75" transform="translate(527.992851 51.157251) scale(0.746176)"/>
      <use xlink:href="#RobotoCondensed-BoldItalic-31" transform="translate(563.958565 51.157251) scale(0.746176)"/>
      <use xlink:href="#RobotoCondensed-BoldItalic-2d" transform="translate(595.297967 51.157251) scale(0.746176)"/>
      <use xlink:href="#RobotoCondensed-BoldItalic-6c" transform="translate(621.936476 51.157251) scale(0.746176)"/>
      <use xlink:href="#RobotoCondensed-BoldItalic-74" transform="translate(640.516231 51.157251) scale(0.746176)"/>
      <use xlink:href="#RobotoCondensed-BoldItalic-61" transform="translate(663.050745 51.157251) scale(0.746176)"/>
      <use xlink:href="#RobotoCondensed-Italic-53" transform="translate(104.393133 -36.289178) scale(0.690903)"/>
      <use xlink:href="#RobotoCondensed-Italic-50" transform="translate(139.421901 -36.289178) scale(0.690903)"/>
      <use xlink:href="#RobotoCondensed-Italic-4c" transform="translate(176.868816 -36.289178) scale(0.690903)"/>
      <use xlink:href="#RobotoCondensed-Italic-54" transform="translate(199.737693 -36.289178) scale(0.690903)"/>
      <use xlink:href="#RobotoCondensed-Italic-32" transform="translate(234.90463 -36.289178) scale(0.690903)"/>
      <use xlink:href="#RobotoCondensed-Italic-35" transform="translate(268.275218 -36.289178) scale(0.690903)"/>
     </g>
    </g>
    <g id="LineCollection_11">
     <path d="M 176.893018 104.176859 
L 176.893018 95.176859 
" style="fill: none; stroke: #6692c2"/>
    </g>
    <g id="line2d_26">
     <path d="M 169.243018 99.676859 
L 184.543018 99.676859 
" style="fill: none; stroke: #6692c2; stroke-linecap: round"/>
    </g>
    <g id="line2d_27">
     <g>
      <use xlink:href="#mad82250b9c" x="176.893018" y="99.676859" style="fill: #6692c2; stroke: #6692c2; stroke-linejoin: miter"/>
     </g>
    </g>
    <g id="text_17">
     <!-- \schedulermoobj[1]{UC}{o1,stl,\textbf{rpp-lbsp}}{SPLT25} -->
     <g transform="translate(189.943018 102.126859) scale(0.09 -0.09)">
      <use xlink:href="#RobotoCondensed-Italic-55" transform="scale(0.946448)"/>
      <use xlink:href="#RobotoCondensed-Italic-43" transform="translate(51.959951 0) scale(0.946448)"/>
      <use xlink:href="#RobotoCondensed-Italic-6f" transform="translate(114.685955 51.157251) scale(0.746176)"/>
      <use xlink:href="#RobotoCondensed-Italic-31" transform="translate(151.323209 51.157251) scale(0.746176)"/>
      <use xlink:href="#RobotoCondensed-Italic-2c" transform="translate(179.30481 51.157251) scale(0.746176)"/>
      <use xlink:href="#RobotoCondensed-Italic-73" transform="translate(193.855212 51.157251) scale(0.746176)"/>
      <use xlink:href="#RobotoCondensed-Italic-74" transform="translate(227.134665 51.157251) scale(0.746176)"/>
      <use xlink:href="#RobotoCondensed-Italic-6c" transform="translate(248.848404 51.157251) scale(0.746176)"/>
      <use xlink:href="#RobotoCondensed-Italic-2c" transform="translate(265.78661 51.157251) scale(0.746176)"/>
      <use xlink:href="#RobotoCondensed-BoldItalic-72" transform="translate(280.337011 51.157251) scale(0.746176)"/>
      <use xlink:href="#RobotoCondensed-BoldItalic-70" transform="translate(304.662356 51.157251) scale(0.746176)"/>
      <use xlink:href="#RobotoCondensed-BoldItalic-70" transform="translate(340.851871 51.157251) scale(0.746176)"/>
      <use xlink:href="#RobotoCondensed-BoldItalic-2d" transform="translate(377.041387 51.157251) scale(0.746176)"/>
      <use xlink:href="#RobotoCondensed-BoldItalic-6c" transform="translate(403.679895 51.157251) scale(0.746176)"/>
      <use xlink:href="#RobotoCondensed-BoldItalic-62" transform="translate(422.259651 51.157251) scale(0.746176)"/>
      <use xlink:href="#RobotoCondensed-BoldItalic-73" transform="translate(458.449166 51.157251) scale(0.746176)"/>
      <use xlink:href="#RobotoCondensed-BoldItalic-70" transform="translate(491.653978 51.157251) scale(0.746176)"/>
      <use xlink:href="#RobotoCondensed-Italic-53" transform="translate(104.393133 -36.289178) scale(0.690903)"/>
      <use xlink:href="#RobotoCondensed-Italic-50" transform="translate(139.421901 -36.289178) scale(0.690903)"/>
      <use xlink:href="#RobotoCondensed-Italic-4c" transform="translate(176.868816 -36.289178) scale(0.690903)"/>
      <use xlink:href="#RobotoCondensed-Italic-54" transform="translate(199.737693 -36.289178) scale(0.690903)"/>
      <use xlink:href="#RobotoCondensed-Italic-32" transform="translate(234.90463 -36.289178) scale(0.690903)"/>
      <use xlink:href="#RobotoCondensed-Italic-35" transform="translate(268.275218 -36.289178) scale(0.690903)"/>
     </g>
    </g>
    <g id="LineCollection_12">
     <path d="M 176.893018 122.867464 
L 176.893018 113.867464 
" style="fill: none; stroke: #f8c2ce"/>
    </g>
    <g id="line2d_28">
     <path d="M 169.243018 118.367464 
L 184.543018 118.367464 
" style="fill: none; stroke: #f8c2ce; stroke-linecap: round"/>
    </g>
    <g id="line2d_29">
     <g>
      <use xlink:href="#ma067d52533" x="176.893018" y="118.367464" style="fill: #f8c2ce; stroke: #f8c2ce; stroke-linejoin: miter"/>
     </g>
    </g>
    <g id="text_18">
     <!-- \schedulermoobj[1]{MCS}{o1,stl,\textbf{rpp-lbsp}}{SPLT25} -->
     <g transform="translate(189.943018 120.817464) scale(0.09 -0.09)">
      <use xlink:href="#RobotoCondensed-Italic-4d" transform="scale(0.946448)"/>
      <use xlink:href="#RobotoCondensed-Italic-43" transform="translate(69.753242 0) scale(0.946448)"/>
      <use xlink:href="#RobotoCondensed-Italic-53" transform="translate(122.186424 0) scale(0.946448)"/>
      <use xlink:href="#RobotoCondensed-Italic-6f" transform="translate(180.464144 51.157251) scale(0.746176)"/>
      <use xlink:href="#RobotoCondensed-Italic-31" transform="translate(217.101397 51.157251) scale(0.746176)"/>
      <use xlink:href="#RobotoCondensed-Italic-2c" transform="translate(245.082999 51.157251) scale(0.746176)"/>
      <use xlink:href="#RobotoCondensed-Italic-73" transform="translate(259.6334 51.157251) scale(0.746176)"/>
      <use xlink:href="#RobotoCondensed-Italic-74" transform="translate(292.912853 51.157251) scale(0.746176)"/>
      <use xlink:href="#RobotoCondensed-Italic-6c" transform="translate(314.626593 51.157251) scale(0.746176)"/>
      <use xlink:href="#RobotoCondensed-Italic-2c" transform="translate(331.564799 51.157251) scale(0.746176)"/>
      <use xlink:href="#RobotoCondensed-BoldItalic-72" transform="translate(346.1152 51.157251) scale(0.746176)"/>
      <use xlink:href="#RobotoCondensed-BoldItalic-70" transform="translate(370.440545 51.157251) scale(0.746176)"/>
      <use xlink:href="#RobotoCondensed-BoldItalic-70" transform="translate(406.63006 51.157251) scale(0.746176)"/>
      <use xlink:href="#RobotoCondensed-BoldItalic-2d" transform="translate(442.819575 51.157251) scale(0.746176)"/>
      <use xlink:href="#RobotoCondensed-BoldItalic-6c" transform="translate(469.458084 51.157251) scale(0.746176)"/>
      <use xlink:href="#RobotoCondensed-BoldItalic-62" transform="translate(488.037839 51.157251) scale(0.746176)"/>
      <use xlink:href="#RobotoCondensed-BoldItalic-73" transform="translate(524.227354 51.157251) scale(0.746176)"/>
      <use xlink:href="#RobotoCondensed-BoldItalic-70" transform="translate(557.432167 51.157251) scale(0.746176)"/>
      <use xlink:href="#RobotoCondensed-Italic-53" transform="translate(170.171321 -36.289178) scale(0.690903)"/>
      <use xlink:href="#RobotoCondensed-Italic-50" transform="translate(205.200089 -36.289178) scale(0.690903)"/>
      <use xlink:href="#RobotoCondensed-Italic-4c" transform="translate(242.647004 -36.289178) scale(0.690903)"/>
      <use xlink:href="#RobotoCondensed-Italic-54" transform="translate(265.515882 -36.289178) scale(0.690903)"/>
      <use xlink:href="#RobotoCondensed-Italic-32" transform="translate(300.682818 -36.289178) scale(0.690903)"/>
      <use xlink:href="#RobotoCondensed-Italic-35" transform="translate(334.053406 -36.289178) scale(0.690903)"/>
     </g>
    </g>
   </g>
  </g>
 </g>
 <defs>
  <clipPath id="p34db4fbee9">
   <rect x="34.875898" y="1.44" width="125.81712" height="140.184"/>
  </clipPath>
 </defs>
</svg>
