<?xml version="1.0" encoding="utf-8" standalone="no"?>
<!DOCTYPE svg PUBLIC "-//W3C//DTD SVG 1.1//EN"
  "http://www.w3.org/Graphics/SVG/1.1/DTD/svg11.dtd">
<svg xmlns:xlink="http://www.w3.org/1999/xlink" width="229.212969pt" height="184.073002pt" viewBox="0 0 229.212969 184.073002" xmlns="http://www.w3.org/2000/svg" version="1.1">
 <metadata>
  <rdf:RDF xmlns:dc="http://purl.org/dc/elements/1.1/" xmlns:cc="http://creativecommons.org/ns#" xmlns:rdf="http://www.w3.org/1999/02/22-rdf-syntax-ns#">
   <cc:Work>
    <dc:type rdf:resource="http://purl.org/dc/dcmitype/StillImage"/>
    <dc:date>2024-10-24T07:55:39.549338</dc:date>
    <dc:format>image/svg+xml</dc:format>
    <dc:creator>
     <cc:Agent>
      <dc:title>Matplotlib v3.8.3, https://matplotlib.org/</dc:title>
     </cc:Agent>
    </dc:creator>
   </cc:Work>
  </rdf:RDF>
 </metadata>
 <defs>
  <style type="text/css">*{stroke-linejoin: round; stroke-linecap: butt}</style>
 </defs>
 <g id="figure_1">
  <g id="patch_1">
   <path d="M 0 184.073002 
L 229.212969 184.073002 
L 229.212969 0 
L 0 0 
z
" style="fill: #ffffff"/>
  </g>
  <g id="axes_1">
   <g id="patch_2">
    <path d="M 34.875898 142.879722 
L 123.469018 142.879722 
L 123.469018 2.695722 
L 34.875898 2.695722 
z
" style="fill: #ececec"/>
   </g>
   <g id="matplotlib.axis_1">
    <g id="xtick_1">
     <g id="text_1">
      <!-- $80$ -->
      <g transform="translate(37.351774 152.759712) scale(0.09 -0.09)">
       <defs>
        <path id="NotoSerif-Regular-38" d="M 1747 -64 
C 2214 -64 2592 52 2867 277 
C 3142 504 3283 826 3283 1233 
C 3283 1511 3187 1749 2989 1949 
C 2790 2150 2534 2324 2221 2472 
C 2483 2601 2688 2743 2848 2904 
C 3008 3059 3085 3278 3085 3562 
C 3085 3885 2976 4150 2752 4363 
C 2534 4569 2227 4672 1824 4672 
C 1498 4672 1229 4620 1024 4504 
C 826 4401 678 4253 582 4078 
C 486 3904 442 3717 442 3517 
C 442 3246 518 3014 672 2826 
C 826 2639 1024 2471 1267 2336 
C 1082 2246 922 2149 768 2046 
C 627 1943 506 1820 422 1677 
C 339 1536 294 1361 294 1155 
C 294 929 346 730 461 543 
C 563 355 730 206 947 103 
C 1158 -13 1427 -64 1747 -64 
z
M 1907 2622 
C 1619 2757 1408 2893 1261 3034 
C 1114 3176 1043 3363 1043 3595 
C 1043 3821 1107 4002 1235 4150 
C 1363 4298 1549 4369 1786 4369 
C 1965 4369 2106 4330 2214 4253 
C 2323 4176 2400 4079 2445 3956 
C 2490 3834 2515 3711 2515 3576 
C 2515 3350 2470 3170 2394 3021 
C 2304 2873 2144 2744 1907 2622 
z
M 1779 232 
C 1491 232 1280 316 1133 477 
C 986 645 915 865 915 1129 
C 915 1368 973 1581 1094 1756 
C 1216 1930 1376 2072 1574 2181 
C 1990 2001 2278 1827 2445 1664 
C 2618 1503 2701 1310 2701 1091 
C 2701 839 2618 632 2445 477 
C 2278 309 2054 232 1779 232 
z
" transform="scale(0.015625)"/>
        <path id="NotoSerif-Regular-30" d="M 1792 -64 
C 2131 -64 2406 32 2624 232 
C 2848 432 3014 710 3123 1058 
C 3232 1419 3290 1833 3290 2310 
C 3290 2787 3238 3201 3123 3562 
C 3021 3910 2854 4189 2630 4382 
C 2406 4575 2131 4672 1798 4672 
C 1446 4672 1158 4575 934 4382 
C 710 4189 550 3917 448 3562 
C 339 3207 288 2794 288 2317 
C 288 1840 339 1419 448 1065 
C 550 710 710 432 934 232 
C 1158 32 1440 -64 1792 -64 
z
M 1792 284 
C 1478 284 1261 464 1139 820 
C 1018 1174 954 1671 954 2310 
C 954 2950 1018 3446 1139 3794 
C 1267 4150 1485 4324 1798 4324 
C 2106 4324 2317 4150 2445 3794 
C 2560 3446 2624 2950 2624 2310 
C 2624 1671 2560 1174 2445 820 
C 2317 464 2106 284 1792 284 
z
" transform="scale(0.015625)"/>
       </defs>
       <use xlink:href="#NotoSerif-Regular-38" transform="scale(0.913673)"/>
       <use xlink:href="#NotoSerif-Regular-30" transform="translate(51.074295 0) scale(0.913673)"/>
      </g>
      <!-- {\scalefont{.88}$(0.82)$} -->
      <g transform="translate(31.764153 160.596619) scale(0.09 -0.09)">
       <defs>
        <path id="txsys-b9" d="M 1888 4589 
C 960 3987 307 2950 307 1645 
C 307 454 986 -749 1869 -1293 
L 1946 -1190 
C 1101 -525 858 250 858 1664 
C 858 3085 1120 3821 1946 4486 
L 1888 4589 
z
" transform="scale(0.015625)"/>
        <path id="NotoMathMI-93" d="M 717 -64 
C 813 -64 896 -39 973 19 
C 1050 76 1082 185 1082 326 
C 1082 473 1050 582 973 633 
C 896 691 813 716 717 716 
C 621 716 538 691 461 633 
C 390 582 358 473 358 326 
C 358 185 390 76 461 19 
C 538 -39 621 -64 717 -64 
z
" transform="scale(0.015625)"/>
        <path id="NotoSerif-Regular-32" d="M 390 0 
L 3142 0 
L 3174 1116 
L 2906 1116 
L 2880 1000 
C 2848 878 2803 761 2733 664 
C 2662 567 2534 516 2342 516 
L 864 516 
L 1946 1723 
C 2285 2097 2547 2426 2733 2710 
C 2918 3000 3014 3291 3014 3594 
C 3014 3923 2899 4182 2669 4375 
C 2438 4575 2118 4672 1715 4672 
C 1299 4672 986 4588 781 4427 
C 563 4266 461 4060 461 3807 
C 461 3646 512 3536 621 3472 
C 730 3420 858 3388 1011 3388 
C 1011 3562 1030 3717 1062 3859 
C 1101 4008 1171 4124 1274 4214 
C 1376 4305 1523 4350 1715 4350 
C 1939 4350 2106 4272 2214 4124 
C 2317 3976 2368 3775 2368 3530 
C 2368 3330 2342 3143 2278 2969 
C 2227 2794 2131 2607 1997 2413 
C 1862 2214 1683 1981 1459 1716 
L 390 471 
L 390 0 
z
" transform="scale(0.015625)"/>
        <path id="txsys-ba" d="M 243 4589 
L 186 4486 
C 1011 3821 1274 3085 1274 1664 
C 1274 250 1030 -525 186 -1190 
L 262 -1293 
C 1146 -749 1824 454 1824 1645 
C 1824 2950 1171 3987 243 4589 
z
" transform="scale(0.015625)"/>
       </defs>
       <use xlink:href="#txsys-b9" transform="scale(0.893372)"/>
       <use xlink:href="#NotoSerif-Regular-30" transform="translate(33.322793 0) scale(0.804036)"/>
       <use xlink:href="#NotoMathMI-93" transform="translate(79.697792 0) scale(0.893372)"/>
       <use xlink:href="#NotoSerif-Regular-38" transform="translate(101.317462 0) scale(0.804036)"/>
       <use xlink:href="#NotoSerif-Regular-32" transform="translate(146.263098 0) scale(0.804036)"/>
       <use xlink:href="#txsys-ba" transform="translate(191.208733 0) scale(0.893372)"/>
      </g>
     </g>
    </g>
    <g id="xtick_2">
     <g id="text_2">
      <!-- $95$ -->
      <g transform="translate(74.575774 152.759712) scale(0.09 -0.09)">
       <defs>
        <path id="NotoSerif-Regular-39" d="M 1453 -64 
C 1766 -64 2029 7 2253 149 
C 2470 284 2650 478 2790 716 
C 2925 954 3027 1231 3091 1541 
C 3155 1844 3187 2166 3187 2507 
C 3187 3016 3123 3429 2995 3745 
C 2867 4060 2688 4298 2470 4446 
C 2240 4595 1984 4672 1696 4672 
C 1408 4672 1165 4608 960 4467 
C 755 4339 602 4146 486 3915 
C 384 3671 326 3402 326 3094 
C 326 2664 442 2337 678 2119 
C 915 1901 1216 1792 1587 1792 
C 1811 1792 2003 1837 2157 1927 
C 2310 2018 2432 2121 2528 2231 
C 2509 1575 2413 1089 2240 771 
C 2074 453 1811 291 1459 291 
C 1261 291 1101 342 986 446 
C 864 551 774 668 717 804 
C 672 785 627 752 589 693 
C 544 642 525 577 525 494 
C 525 402 550 318 602 227 
C 659 150 755 79 890 20 
C 1024 -38 1216 -64 1453 -64 
z
M 1728 2173 
C 1478 2173 1293 2249 1171 2403 
C 1050 2556 986 2807 986 3158 
C 986 3536 1050 3824 1178 4016 
C 1299 4222 1472 4317 1696 4317 
C 1946 4317 2144 4190 2291 3934 
C 2445 3677 2528 3261 2534 2691 
C 2477 2556 2381 2435 2246 2326 
C 2112 2224 1939 2173 1728 2173 
z
" transform="scale(0.015625)"/>
        <path id="NotoSerif-Regular-35" d="M 1562 -64 
C 1888 -64 2170 0 2400 115 
C 2630 243 2803 411 2931 629 
C 3046 853 3110 1109 3110 1399 
C 3110 1700 3046 1950 2918 2155 
C 2790 2348 2618 2502 2394 2605 
C 2176 2700 1926 2752 1651 2752 
C 1466 2752 1306 2739 1184 2720 
C 1062 2694 966 2668 902 2649 
L 1024 4092 
L 2266 4092 
C 2400 4092 2490 4072 2534 4026 
C 2573 3981 2598 3916 2611 3824 
L 2637 3628 
L 2906 3628 
L 2874 4608 
L 736 4608 
L 531 2301 
L 685 2256 
C 768 2288 864 2320 973 2352 
C 1082 2385 1248 2397 1472 2397 
C 1766 2397 2003 2315 2176 2154 
C 2355 1988 2445 1737 2445 1399 
C 2445 1130 2406 918 2330 758 
C 2246 598 2138 489 1997 418 
C 1862 348 1702 316 1530 316 
C 1267 316 1075 380 947 502 
C 819 623 755 777 755 963 
C 621 963 518 931 448 860 
C 384 797 352 706 352 584 
C 352 488 384 391 461 296 
C 525 192 653 109 826 39 
C 998 -32 1248 -64 1562 -64 
z
" transform="scale(0.015625)"/>
       </defs>
       <use xlink:href="#NotoSerif-Regular-39" transform="scale(0.913673)"/>
       <use xlink:href="#NotoSerif-Regular-35" transform="translate(51.074295 0) scale(0.913673)"/>
      </g>
      <!-- {\scalefont{.88}$(0.96)$} -->
      <g transform="translate(68.988153 160.596619) scale(0.09 -0.09)">
       <defs>
        <path id="NotoSerif-Regular-36" d="M 1875 -64 
C 2163 -64 2413 0 2618 130 
C 2822 266 2982 448 3085 682 
C 3200 915 3251 1181 3251 1487 
C 3251 1901 3136 2226 2906 2466 
C 2669 2699 2355 2816 1965 2816 
C 1754 2816 1574 2784 1434 2713 
C 1280 2642 1158 2565 1050 2481 
C 1069 3101 1165 3569 1331 3889 
C 1498 4202 1741 4363 2061 4363 
C 2266 4363 2413 4293 2496 4145 
C 2579 3998 2624 3826 2624 3615 
C 2950 3615 3117 3743 3117 3999 
C 3117 4172 3027 4332 2854 4467 
C 2682 4601 2413 4672 2061 4672 
C 1779 4672 1536 4608 1318 4479 
C 1114 4356 934 4182 800 3962 
C 666 3736 563 3485 493 3201 
C 422 2924 390 2626 390 2323 
C 390 1756 454 1297 589 942 
C 717 594 896 335 1114 181 
C 1344 13 1594 -64 1875 -64 
z
M 1894 290 
C 1638 290 1434 433 1280 712 
C 1133 992 1050 1461 1043 2110 
C 1126 2202 1242 2286 1382 2364 
C 1517 2449 1670 2487 1837 2487 
C 2086 2487 2272 2403 2406 2234 
C 2534 2065 2598 1792 2598 1421 
C 2598 1025 2534 739 2419 556 
C 2291 381 2118 290 1894 290 
z
" transform="scale(0.015625)"/>
       </defs>
       <use xlink:href="#txsys-b9" transform="scale(0.893372)"/>
       <use xlink:href="#NotoSerif-Regular-30" transform="translate(33.322793 0) scale(0.804036)"/>
       <use xlink:href="#NotoMathMI-93" transform="translate(79.697792 0) scale(0.893372)"/>
       <use xlink:href="#NotoSerif-Regular-39" transform="translate(101.317462 0) scale(0.804036)"/>
       <use xlink:href="#NotoSerif-Regular-36" transform="translate(146.263098 0) scale(0.804036)"/>
       <use xlink:href="#txsys-ba" transform="translate(191.208733 0) scale(0.893372)"/>
      </g>
     </g>
    </g>
    <g id="xtick_3">
     <g id="text_3">
      <!-- $110$ -->
      <g transform="translate(109.501432 152.759712) scale(0.09 -0.09)">
       <defs>
        <path id="NotoSerif-Regular-31" d="M 614 0 
L 3053 0 
L 3053 271 
L 2739 271 
C 2592 271 2470 297 2368 348 
C 2266 406 2214 536 2214 736 
L 2214 4640 
L 1805 4640 
L 1357 4303 
C 1146 4142 973 4031 832 3960 
C 685 3888 550 3837 422 3805 
C 422 3701 454 3618 512 3553 
C 570 3489 646 3456 742 3456 
C 870 3456 998 3521 1126 3644 
C 1261 3767 1408 3928 1568 4129 
L 1568 736 
C 1568 536 1517 406 1414 348 
C 1312 297 1190 271 1043 271 
L 614 271 
L 614 0 
z
" transform="scale(0.015625)"/>
       </defs>
       <use xlink:href="#NotoSerif-Regular-31" transform="scale(0.913673)"/>
       <use xlink:href="#NotoSerif-Regular-31" transform="translate(51.074295 0) scale(0.913673)"/>
       <use xlink:href="#NotoSerif-Regular-30" transform="translate(102.14859 0) scale(0.913673)"/>
      </g>
      <!-- {\scalefont{.88}$(1.05)$} -->
      <g transform="translate(106.212153 160.596619) scale(0.09 -0.09)">
       <use xlink:href="#txsys-b9" transform="scale(0.893372)"/>
       <use xlink:href="#NotoSerif-Regular-31" transform="translate(33.322793 0) scale(0.804036)"/>
       <use xlink:href="#NotoMathMI-93" transform="translate(79.697792 0) scale(0.893372)"/>
       <use xlink:href="#NotoSerif-Regular-30" transform="translate(101.317462 0) scale(0.804036)"/>
       <use xlink:href="#NotoSerif-Regular-35" transform="translate(146.263098 0) scale(0.804036)"/>
       <use xlink:href="#txsys-ba" transform="translate(191.208733 0) scale(0.893372)"/>
      </g>
     </g>
    </g>
    <g id="text_4">
     <!-- $\sss$ -->
     <g transform="translate(74.234091 172.768383) scale(0.09 -0.09)">
      <defs>
       <path id="txsys-6a" d="M 819 -1280 
L 819 4480 
L 461 4480 
L 461 -1280 
L 819 -1280 
z
" transform="scale(0.015625)"/>
       <path id="NotoMathMI-1b" d="M -122 0 
L 1670 0 
L 1715 243 
L 1523 243 
C 1414 243 1318 262 1242 288 
C 1165 315 1126 391 1126 514 
C 1126 552 1133 611 1146 662 
L 1408 1888 
L 2790 1888 
L 2854 2176 
L 1466 2176 
L 1818 3840 
L 2765 3840 
C 2925 3840 3040 3802 3098 3725 
C 3168 3648 3200 3559 3200 3450 
C 3200 3431 3194 3399 3194 3322 
C 3181 3251 3174 3181 3168 3117 
L 3469 3117 
L 3654 4128 
L 749 4128 
L 698 3885 
L 774 3885 
C 896 3885 992 3866 1069 3840 
C 1146 3815 1184 3751 1184 3654 
C 1184 3609 1184 3558 1165 3494 
L 557 628 
C 518 462 442 352 346 314 
C 243 269 128 243 0 243 
L -77 243 
L -122 0 
z
" transform="scale(0.015625)"/>
      </defs>
      <use xlink:href="#txsys-6a" transform="scale(1.01519)"/>
      <use xlink:href="#NotoMathMI-1b" transform="translate(25.379756 0) scale(1.01519)"/>
      <use xlink:href="#txsys-6a" transform="translate(89.438197 0) scale(1.01519)"/>
     </g>
     <!-- {\scalefont{.88}(network load $[\unit{\percent}]$)} -->
     <g transform="translate(50.01053 180.920886) scale(0.09 -0.09)">
      <defs>
       <path id="RobotoCondensed-Regular-28" d="M 403 1857 
C 403 809 653 -84 1146 -835 
C 1344 -1131 1536 -1343 1728 -1471 
L 1837 -1118 
C 1613 -887 1427 -559 1267 -135 
C 1056 430 954 1079 954 1818 
L 960 2069 
C 973 2660 1062 3199 1222 3687 
C 1382 4169 1587 4535 1837 4773 
L 1728 5152 
C 1581 5049 1421 4889 1254 4670 
C 979 4304 774 3887 627 3405 
C 480 2923 403 2403 403 1857 
z
" transform="scale(0.015625)"/>
       <path id="RobotoCondensed-Regular-6e" d="M 934 3392 
L 410 3392 
L 410 0 
L 966 0 
L 966 2467 
C 1037 2615 1126 2730 1235 2827 
C 1344 2917 1466 2962 1600 2962 
C 1779 2962 1914 2904 2003 2795 
C 2086 2685 2131 2493 2131 2229 
L 2131 0 
L 2682 0 
L 2682 2255 
C 2675 3058 2368 3456 1773 3456 
C 1434 3456 1158 3315 947 3026 
L 934 3392 
z
" transform="scale(0.015625)"/>
       <path id="RobotoCondensed-Regular-65" d="M 1619 -64 
C 2112 -64 2477 103 2720 443 
L 2432 799 
C 2323 663 2202 566 2080 509 
C 1958 443 1811 411 1651 411 
C 1395 411 1197 496 1062 664 
C 928 825 858 1090 858 1459 
L 858 1536 
L 2746 1536 
L 2746 1901 
C 2739 2432 2643 2829 2451 3078 
C 2253 3328 1958 3456 1562 3456 
C 1165 3456 858 3315 640 3026 
C 416 2737 307 2345 307 1837 
L 307 1426 
C 314 938 429 565 653 315 
C 877 64 1197 -64 1619 -64 
z
M 1562 2981 
C 1766 2981 1920 2911 2022 2776 
C 2125 2636 2182 2407 2195 2087 
L 2195 2011 
L 864 2011 
C 877 2343 941 2586 1050 2745 
C 1158 2905 1331 2981 1562 2981 
z
" transform="scale(0.015625)"/>
       <path id="RobotoCondensed-Regular-74" d="M 1139 4224 
L 589 4224 
L 589 3392 
L 70 3392 
L 70 2942 
L 589 2942 
L 589 835 
C 589 546 646 328 762 173 
C 877 13 1043 -64 1261 -64 
C 1395 -64 1523 -45 1645 0 
L 1651 469 
C 1574 443 1498 430 1427 430 
C 1318 430 1248 469 1203 540 
C 1158 610 1139 707 1139 842 
L 1139 2942 
L 1645 2942 
L 1645 3392 
L 1139 3392 
L 1139 4224 
z
" transform="scale(0.015625)"/>
       <path id="RobotoCondensed-Regular-77" d="M 2931 976 
L 2291 3392 
L 1856 3392 
L 1222 1034 
L 698 3392 
L 154 3392 
L 979 0 
L 1421 0 
L 2067 2428 
L 2726 0 
L 3168 0 
L 3994 3392 
L 3450 3392 
L 2931 976 
z
" transform="scale(0.015625)"/>
       <path id="RobotoCondensed-Regular-6f" d="M 294 1857 
L 294 1484 
C 301 1009 429 630 666 353 
C 902 77 1216 -64 1606 -64 
C 2003 -64 2323 77 2560 366 
C 2797 655 2912 1041 2912 1535 
L 2912 1889 
C 2906 2371 2784 2756 2547 3039 
C 2310 3315 1990 3456 1600 3456 
C 1210 3456 890 3315 653 3026 
C 416 2737 294 2351 294 1857 
z
M 851 1535 
L 851 1857 
C 851 2203 922 2480 1056 2679 
C 1190 2878 1376 2981 1600 2981 
C 1830 2981 2016 2878 2157 2679 
C 2291 2480 2362 2203 2362 1857 
L 2362 1471 
C 2342 764 2093 411 1606 411 
C 1376 411 1190 514 1056 713 
C 922 912 851 1182 851 1535 
z
" transform="scale(0.015625)"/>
       <path id="RobotoCondensed-Regular-72" d="M 1811 2871 
L 1805 3411 
C 1747 3443 1677 3456 1587 3456 
C 1318 3456 1107 3321 960 3051 
L 947 3392 
L 410 3392 
L 410 0 
L 966 0 
L 966 2428 
C 1082 2743 1280 2897 1562 2897 
C 1651 2891 1734 2883 1811 2871 
z
" transform="scale(0.015625)"/>
       <path id="RobotoCondensed-Regular-6b" d="M 1261 1555 
L 2182 0 
L 2822 0 
L 1606 1979 
L 2682 3392 
L 2022 3392 
L 966 1934 
L 966 4818 
L 416 4818 
L 416 0 
L 966 0 
L 966 1214 
L 1261 1555 
z
" transform="scale(0.015625)"/>
       <path id="RobotoCondensed-Regular-6c" d="M 1011 0 
L 1011 4818 
L 454 4818 
L 454 0 
L 1011 0 
z
" transform="scale(0.015625)"/>
       <path id="RobotoCondensed-Regular-61" d="M 2150 0 
L 2726 0 
L 2726 51 
C 2656 244 2624 469 2624 732 
L 2624 2441 
C 2618 2775 2528 3026 2349 3199 
C 2163 3373 1901 3456 1555 3456 
C 1344 3456 1152 3411 979 3321 
C 806 3231 666 3109 563 2954 
C 461 2794 410 2626 410 2453 
L 966 2453 
C 966 2601 1018 2730 1126 2833 
C 1229 2929 1363 2981 1530 2981 
C 1715 2981 1850 2936 1939 2851 
C 2029 2760 2074 2612 2074 2410 
L 2074 2048 
L 1664 2048 
C 1261 2048 941 1946 710 1746 
C 474 1547 358 1271 358 925 
C 358 610 442 373 614 199 
C 787 26 1024 -64 1331 -64 
C 1632 -64 1882 80 2080 372 
C 2093 198 2118 71 2150 0 
z
M 1414 443 
C 1229 443 1101 488 1024 572 
C 947 655 909 797 909 989 
C 909 1194 986 1354 1139 1470 
C 1286 1579 1498 1637 1760 1637 
L 2074 1637 
L 2074 835 
C 2016 726 1926 630 1805 559 
C 1683 482 1549 443 1414 443 
z
" transform="scale(0.015625)"/>
       <path id="RobotoCondensed-Regular-64" d="M 294 1850 
L 294 1503 
C 301 1009 403 623 602 347 
C 800 71 1075 -64 1427 -64 
C 1766 -64 2022 80 2202 366 
L 2234 0 
L 2739 0 
L 2739 4818 
L 2182 4818 
L 2182 3065 
C 2003 3328 1754 3456 1427 3456 
C 1062 3456 787 3321 589 3045 
C 390 2769 294 2371 294 1850 
z
M 851 1535 
L 851 1876 
C 851 2242 909 2518 1024 2698 
C 1133 2872 1318 2962 1574 2962 
C 1837 2962 2042 2827 2182 2557 
L 2182 842 
C 2048 565 1843 424 1568 424 
C 1318 424 1133 514 1024 694 
C 909 874 851 1156 851 1535 
z
" transform="scale(0.015625)"/>
       <path id="txsys-bb" d="M 1914 -1120 
L 1363 -1120 
C 1152 -1120 1050 -1011 1050 -787 
L 1050 4038 
C 1050 4237 1133 4320 1338 4320 
L 1914 4320 
L 1914 4480 
L 563 4480 
L 563 -1280 
L 1914 -1280 
L 1914 -1120 
z
" transform="scale(0.015625)"/>
       <path id="NotoSerif-Regular-25" d="M 1338 1792 
C 1690 1792 1958 1922 2125 2194 
C 2304 2454 2387 2804 2387 3239 
C 2387 3673 2304 4023 2125 4283 
C 1958 4542 1696 4672 1344 4672 
C 973 4672 704 4542 538 4283 
C 371 4023 288 3673 288 3239 
C 288 2804 371 2454 538 2194 
C 704 1922 973 1792 1338 1792 
z
M 1504 0 
L 1926 0 
L 4205 4608 
L 3789 4608 
L 1504 0 
z
M 1338 2057 
C 1165 2057 1043 2161 973 2368 
C 902 2576 864 2869 864 3239 
C 864 3609 902 3894 973 4096 
C 1043 4297 1171 4401 1344 4401 
C 1517 4401 1638 4297 1702 4096 
C 1773 3894 1805 3609 1805 3239 
C 1805 2869 1773 2576 1702 2368 
C 1632 2161 1510 2057 1338 2057 
z
M 4397 -64 
C 4749 -64 5018 65 5184 338 
C 5363 597 5446 947 5446 1382 
C 5446 1817 5363 2168 5184 2427 
C 5018 2686 4755 2816 4403 2816 
C 4032 2816 3763 2686 3597 2427 
C 3430 2168 3347 1817 3347 1382 
C 3347 947 3430 597 3597 338 
C 3763 65 4032 -64 4397 -64 
z
M 4397 200 
C 4224 200 4102 304 4032 511 
C 3962 720 3923 1012 3923 1382 
C 3923 1753 3962 2039 4032 2240 
C 4102 2441 4230 2545 4403 2545 
C 4576 2545 4698 2441 4762 2240 
C 4832 2039 4864 1753 4864 1382 
C 4864 1012 4832 720 4762 511 
C 4691 304 4570 200 4397 200 
z
" transform="scale(0.015625)"/>
       <path id="txsys-bc" d="M 218 -1120 
L 218 -1280 
L 1568 -1280 
L 1568 4480 
L 218 4480 
L 218 4320 
L 768 4320 
C 979 4320 1082 4211 1082 3987 
L 1082 -839 
C 1082 -1037 992 -1120 794 -1120 
L 218 -1120 
z
" transform="scale(0.015625)"/>
       <path id="RobotoCondensed-Regular-29" d="M 1600 1824 
C 1600 2807 1382 3668 941 4394 
C 730 4747 506 4998 275 5152 
L 166 4799 
C 352 4606 512 4336 659 3996 
C 922 3373 1050 2660 1050 1863 
L 1050 1747 
C 1043 1124 966 559 806 39 
C 646 -482 429 -867 166 -1118 
L 275 -1471 
C 518 -1311 755 -1041 979 -655 
C 1395 64 1600 893 1600 1824 
z
" transform="scale(0.015625)"/>
      </defs>
      <use xlink:href="#RobotoCondensed-Regular-28" transform="scale(0.832879)"/>
      <use xlink:href="#RobotoCondensed-Regular-6e" transform="translate(26.069065 0) scale(0.832879)"/>
      <use xlink:href="#RobotoCondensed-Regular-65" transform="translate(66.297071 0) scale(0.832879)"/>
      <use xlink:href="#RobotoCondensed-Regular-74" transform="translate(105.275809 0) scale(0.832879)"/>
      <use xlink:href="#RobotoCondensed-Regular-77" transform="translate(129.84572 0) scale(0.832879)"/>
      <use xlink:href="#RobotoCondensed-Regular-6f" transform="translate(183.899549 0) scale(0.832879)"/>
      <use xlink:href="#RobotoCondensed-Regular-72" transform="translate(225.6268 0) scale(0.832879)"/>
      <use xlink:href="#RobotoCondensed-Regular-6b" transform="translate(250.946296 0) scale(0.832879)"/>
      <use xlink:href="#RobotoCondensed-Regular-6c" transform="translate(307.49872 0) scale(0.832879)"/>
      <use xlink:href="#RobotoCondensed-Regular-6f" transform="translate(326.571636 0) scale(0.832879)"/>
      <use xlink:href="#RobotoCondensed-Regular-61" transform="translate(368.298887 0) scale(0.832879)"/>
      <use xlink:href="#RobotoCondensed-Regular-64" transform="translate(408.193776 0) scale(0.832879)"/>
      <use xlink:href="#txsys-bb" transform="translate(473.93776 0) scale(0.893372)"/>
      <use xlink:href="#NotoSerif-Regular-25" transform="translate(506.367069 0) scale(0.804036)"/>
      <use xlink:href="#txsys-bc" transform="translate(578.408711 0) scale(0.893372)"/>
      <use xlink:href="#RobotoCondensed-Regular-29" transform="translate(613.5182 0) scale(0.832879)"/>
     </g>
    </g>
   </g>
   <g id="matplotlib.axis_2">
    <g id="ytick_1">
     <g id="line2d_1">
      <path d="M 34.875898 142.879722 
L 123.469018 142.879722 
" clip-path="url(#p73d33d15b1)" style="fill: none; stroke: #ffffff; stroke-width: 0.8; stroke-linecap: round"/>
     </g>
     <g id="text_5">
      <!-- $0$ -->
      <g transform="translate(26.779214 146.069717) scale(0.09 -0.09)">
       <use xlink:href="#NotoSerif-Regular-30" transform="scale(0.913673)"/>
      </g>
     </g>
    </g>
    <g id="ytick_2">
     <g id="line2d_2">
      <path d="M 34.875898 118.311542 
L 123.469018 118.311542 
" clip-path="url(#p73d33d15b1)" style="fill: none; stroke: #ffffff; stroke-width: 0.8; stroke-linecap: round"/>
     </g>
     <g id="text_6">
      <!-- $50$ -->
      <g transform="translate(22.182529 121.501537) scale(0.09 -0.09)">
       <use xlink:href="#NotoSerif-Regular-35" transform="scale(0.913673)"/>
       <use xlink:href="#NotoSerif-Regular-30" transform="translate(51.074295 0) scale(0.913673)"/>
      </g>
     </g>
    </g>
    <g id="ytick_3">
     <g id="line2d_3">
      <path d="M 34.875898 93.743362 
L 123.469018 93.743362 
" clip-path="url(#p73d33d15b1)" style="fill: none; stroke: #ffffff; stroke-width: 0.8; stroke-linecap: round"/>
     </g>
     <g id="text_7">
      <!-- $100$ -->
      <g transform="translate(17.585845 96.933357) scale(0.09 -0.09)">
       <use xlink:href="#NotoSerif-Regular-31" transform="scale(0.913673)"/>
       <use xlink:href="#NotoSerif-Regular-30" transform="translate(51.074295 0) scale(0.913673)"/>
       <use xlink:href="#NotoSerif-Regular-30" transform="translate(102.14859 0) scale(0.913673)"/>
      </g>
     </g>
    </g>
    <g id="ytick_4">
     <g id="line2d_4">
      <path d="M 34.875898 69.175182 
L 123.469018 69.175182 
" clip-path="url(#p73d33d15b1)" style="fill: none; stroke: #ffffff; stroke-width: 0.8; stroke-linecap: round"/>
     </g>
     <g id="text_8">
      <!-- $150$ -->
      <g transform="translate(17.585845 72.365177) scale(0.09 -0.09)">
       <use xlink:href="#NotoSerif-Regular-31" transform="scale(0.913673)"/>
       <use xlink:href="#NotoSerif-Regular-35" transform="translate(51.074295 0) scale(0.913673)"/>
       <use xlink:href="#NotoSerif-Regular-30" transform="translate(102.14859 0) scale(0.913673)"/>
      </g>
     </g>
    </g>
    <g id="ytick_5">
     <g id="line2d_5">
      <path d="M 34.875898 44.607001 
L 123.469018 44.607001 
" clip-path="url(#p73d33d15b1)" style="fill: none; stroke: #ffffff; stroke-width: 0.8; stroke-linecap: round"/>
     </g>
     <g id="text_9">
      <!-- $200$ -->
      <g transform="translate(17.585845 47.796997) scale(0.09 -0.09)">
       <use xlink:href="#NotoSerif-Regular-32" transform="scale(0.913673)"/>
       <use xlink:href="#NotoSerif-Regular-30" transform="translate(51.074295 0) scale(0.913673)"/>
       <use xlink:href="#NotoSerif-Regular-30" transform="translate(102.14859 0) scale(0.913673)"/>
      </g>
     </g>
    </g>
    <g id="ytick_6">
     <g id="line2d_6">
      <path d="M 34.875898 20.038821 
L 123.469018 20.038821 
" clip-path="url(#p73d33d15b1)" style="fill: none; stroke: #ffffff; stroke-width: 0.8; stroke-linecap: round"/>
     </g>
     <g id="text_10">
      <!-- $250$ -->
      <g transform="translate(17.585845 23.228817) scale(0.09 -0.09)">
       <use xlink:href="#NotoSerif-Regular-32" transform="scale(0.913673)"/>
       <use xlink:href="#NotoSerif-Regular-35" transform="translate(51.074295 0) scale(0.913673)"/>
       <use xlink:href="#NotoSerif-Regular-30" transform="translate(102.14859 0) scale(0.913673)"/>
      </g>
     </g>
    </g>
    <g id="ytick_7">
     <g id="line2d_7">
      <path d="M 34.875898 130.595632 
L 123.469018 130.595632 
" clip-path="url(#p73d33d15b1)" style="fill: none; stroke: #ffffff; stroke-width: 0.8; stroke-linecap: round"/>
     </g>
    </g>
    <g id="ytick_8">
     <g id="line2d_8">
      <path d="M 34.875898 106.027452 
L 123.469018 106.027452 
" clip-path="url(#p73d33d15b1)" style="fill: none; stroke: #ffffff; stroke-width: 0.8; stroke-linecap: round"/>
     </g>
    </g>
    <g id="ytick_9">
     <g id="line2d_9">
      <path d="M 34.875898 81.459272 
L 123.469018 81.459272 
" clip-path="url(#p73d33d15b1)" style="fill: none; stroke: #ffffff; stroke-width: 0.8; stroke-linecap: round"/>
     </g>
    </g>
    <g id="ytick_10">
     <g id="line2d_10">
      <path d="M 34.875898 56.891092 
L 123.469018 56.891092 
" clip-path="url(#p73d33d15b1)" style="fill: none; stroke: #ffffff; stroke-width: 0.8; stroke-linecap: round"/>
     </g>
    </g>
    <g id="ytick_11">
     <g id="line2d_11">
      <path d="M 34.875898 32.322911 
L 123.469018 32.322911 
" clip-path="url(#p73d33d15b1)" style="fill: none; stroke: #ffffff; stroke-width: 0.8; stroke-linecap: round"/>
     </g>
    </g>
    <g id="ytick_12">
     <g id="line2d_12">
      <path d="M 34.875898 7.754731 
L 123.469018 7.754731 
" clip-path="url(#p73d33d15b1)" style="fill: none; stroke: #ffffff; stroke-width: 0.8; stroke-linecap: round"/>
     </g>
    </g>
    <g id="text_11">
     <!-- {\bfseries\mathversion{bold}avg. total runtime $[\unit{\second}]$} -->
     <g transform="translate(7.785923 109.136787) rotate(-90) scale(0.09 -0.09)">
      <defs>
       <path id="RobotoCondensed-Bold-61" d="M 1926 0 
L 2816 0 
L 2816 51 
C 2739 218 2701 450 2694 739 
L 2694 2338 
C 2694 2698 2592 2974 2394 3167 
C 2189 3360 1901 3456 1530 3456 
C 1171 3456 877 3353 640 3153 
C 403 2948 288 2690 288 2374 
L 1171 2374 
C 1171 2633 1280 2762 1504 2762 
C 1600 2762 1677 2729 1734 2670 
C 1786 2605 1811 2494 1811 2338 
L 1811 2063 
L 1542 2063 
C 1114 2063 787 1966 563 1774 
C 339 1575 224 1300 224 948 
C 224 647 320 404 506 217 
C 691 32 928 -64 1210 -64 
C 1485 -64 1696 45 1856 263 
C 1875 141 1901 51 1926 0 
z
M 1408 636 
C 1210 636 1114 757 1114 1007 
C 1114 1165 1158 1300 1248 1395 
C 1331 1491 1453 1536 1600 1536 
L 1811 1536 
L 1811 834 
C 1779 776 1728 732 1658 694 
C 1587 655 1504 636 1408 636 
z
" transform="scale(0.015625)"/>
       <path id="RobotoCondensed-Bold-76" d="M 1434 1253 
L 1005 3392 
L 77 3392 
L 1011 0 
L 1856 0 
L 2784 3392 
L 1862 3392 
L 1434 1253 
z
" transform="scale(0.015625)"/>
       <path id="RobotoCondensed-Bold-67" d="M 218 1799 
L 218 1548 
C 224 1041 320 642 518 360 
C 717 77 992 -64 1350 -64 
C 1619 -64 1837 45 2010 270 
L 2010 -22 
C 2010 -235 1965 -391 1882 -489 
C 1792 -586 1651 -631 1453 -631 
C 1331 -631 1210 -605 1075 -547 
C 941 -494 832 -423 749 -331 
L 454 -946 
C 550 -1062 704 -1158 909 -1229 
C 1114 -1306 1306 -1344 1491 -1344 
C 1946 -1344 2291 -1229 2534 -996 
C 2778 -771 2899 -436 2899 -6 
L 2899 3392 
L 2099 3392 
L 2067 3090 
C 1901 3334 1664 3456 1357 3456 
C 992 3456 717 3321 518 3045 
C 320 2769 218 2358 218 1799 
z
M 1101 1580 
L 1101 1799 
C 1101 2120 1146 2351 1229 2499 
C 1312 2640 1440 2711 1613 2711 
C 1786 2711 1920 2643 2010 2499 
L 2010 874 
C 1920 739 1786 675 1606 675 
C 1434 675 1306 745 1222 893 
C 1139 1041 1101 1266 1101 1580 
z
" transform="scale(0.015625)"/>
       <path id="RobotoCondensed-Bold-2e" d="M 397 482 
C 397 334 448 218 544 135 
C 640 45 762 0 909 0 
C 1056 0 1178 45 1274 135 
C 1370 218 1421 334 1421 482 
C 1421 629 1376 745 1280 835 
C 1184 925 1056 970 909 970 
C 755 970 634 925 538 835 
C 442 739 397 623 397 482 
z
" transform="scale(0.015625)"/>
       <path id="RobotoCondensed-Bold-74" d="M 1350 4256 
L 467 4256 
L 467 3420 
L 77 3420 
L 77 2752 
L 467 2752 
L 467 956 
C 474 295 762 -32 1331 -32 
C 1504 -32 1670 -7 1818 51 
L 1824 744 
C 1766 725 1696 718 1613 718 
C 1510 718 1440 744 1408 795 
C 1370 847 1350 937 1350 1071 
L 1350 2752 
L 1805 2752 
L 1805 3420 
L 1350 3420 
L 1350 4256 
z
" transform="scale(0.015625)"/>
       <path id="RobotoCondensed-Bold-6f" d="M 218 1805 
L 218 1593 
C 218 1073 339 662 582 373 
C 819 84 1158 -64 1594 -64 
C 2022 -64 2362 84 2598 373 
C 2835 662 2957 1066 2957 1587 
L 2957 1799 
C 2957 2319 2835 2724 2598 3019 
C 2355 3308 2016 3456 1587 3456 
C 1158 3456 819 3308 582 3019 
C 339 2724 218 2319 218 1805 
z
M 1107 1587 
L 1107 1805 
C 1107 2120 1152 2351 1235 2499 
C 1318 2647 1440 2717 1587 2717 
C 1741 2717 1862 2640 1946 2493 
C 2029 2345 2074 2114 2074 1805 
L 2074 1433 
C 2054 925 1894 675 1594 675 
C 1267 675 1107 976 1107 1587 
z
" transform="scale(0.015625)"/>
       <path id="RobotoCondensed-Bold-6c" d="M 1248 0 
L 1248 4818 
L 365 4818 
L 365 0 
L 1248 0 
z
" transform="scale(0.015625)"/>
       <path id="RobotoCondensed-Bold-72" d="M 1990 2537 
L 1997 3418 
C 1926 3443 1850 3456 1754 3456 
C 1510 3456 1318 3315 1178 3026 
L 1152 3392 
L 320 3392 
L 320 0 
L 1203 0 
L 1203 2242 
C 1286 2454 1453 2563 1696 2563 
L 1990 2537 
z
" transform="scale(0.015625)"/>
       <path id="RobotoCondensed-Bold-75" d="M 1984 308 
L 2010 0 
L 2842 0 
L 2842 3392 
L 1952 3392 
L 1952 938 
C 1856 764 1709 675 1510 675 
C 1299 675 1190 842 1184 1171 
L 1184 3392 
L 301 3392 
L 301 1195 
C 301 784 384 469 544 257 
C 704 45 934 -64 1248 -64 
C 1555 -64 1798 58 1984 308 
z
" transform="scale(0.015625)"/>
       <path id="RobotoCondensed-Bold-6e" d="M 1133 3392 
L 301 3392 
L 301 0 
L 1190 0 
L 1190 2467 
C 1274 2627 1402 2711 1562 2711 
C 1709 2711 1811 2666 1869 2583 
C 1926 2499 1952 2358 1952 2165 
L 1952 0 
L 2835 0 
L 2835 2229 
C 2816 3045 2522 3456 1939 3456 
C 1619 3456 1357 3321 1158 3058 
L 1133 3392 
z
" transform="scale(0.015625)"/>
       <path id="RobotoCondensed-Bold-69" d="M 1248 0 
L 1248 3392 
L 365 3392 
L 365 0 
L 1248 0 
z
M 320 4267 
C 320 4132 365 4017 454 3927 
C 538 3837 659 3792 806 3792 
C 954 3792 1069 3837 1158 3927 
C 1242 4017 1286 4132 1286 4267 
C 1286 4402 1242 4518 1158 4608 
C 1069 4691 954 4736 806 4736 
C 659 4736 538 4691 454 4608 
C 365 4518 320 4402 320 4267 
z
" transform="scale(0.015625)"/>
       <path id="RobotoCondensed-Bold-6d" d="M 1152 3392 
L 326 3392 
L 326 0 
L 1210 0 
L 1210 2467 
C 1299 2627 1421 2711 1574 2711 
C 1709 2711 1798 2666 1850 2583 
C 1901 2493 1926 2351 1926 2159 
L 1926 0 
L 2810 0 
L 2810 2300 
L 2803 2409 
C 2886 2608 3008 2711 3174 2711 
C 3302 2711 3392 2672 3450 2589 
C 3507 2505 3533 2364 3533 2165 
L 3533 0 
L 4416 0 
L 4416 2223 
C 4403 3045 4102 3456 3507 3456 
C 3142 3456 2867 3302 2675 3000 
C 2541 3302 2304 3456 1965 3456 
C 1638 3456 1376 3328 1178 3077 
L 1152 3392 
z
" transform="scale(0.015625)"/>
       <path id="RobotoCondensed-Bold-65" d="M 1690 -64 
C 1933 -64 2157 -19 2362 77 
C 2566 173 2720 297 2829 444 
L 2483 980 
C 2285 778 2035 675 1741 675 
C 1542 675 1389 733 1293 850 
C 1197 967 1139 1155 1126 1408 
L 2886 1408 
L 2886 1843 
C 2880 2375 2771 2778 2560 3053 
C 2349 3322 2029 3456 1600 3456 
C 1158 3456 826 3308 595 3019 
C 358 2730 243 2313 243 1779 
L 243 1510 
C 243 1002 371 617 627 347 
C 883 71 1235 -64 1690 -64 
z
M 1133 2025 
C 1146 2266 1184 2444 1254 2552 
C 1325 2661 1434 2717 1594 2717 
C 1747 2717 1856 2667 1920 2565 
C 1978 2457 2010 2305 2016 2108 
L 2016 2025 
L 1133 2025 
z
" transform="scale(0.015625)"/>
       <path id="txbsys-bb" d="M 1914 -928 
L 1555 -928 
C 1344 -928 1242 -819 1242 -595 
L 1242 3974 
C 1242 4173 1325 4256 1530 4256 
L 1914 4256 
L 1914 4544 
L 563 4544 
L 563 -1216 
L 1914 -1216 
L 1914 -928 
z
" transform="scale(0.015625)"/>
       <path id="NotoSerif-Bold-73" d="M 1478 -64 
C 1920 -64 2266 38 2509 232 
C 2746 437 2867 714 2867 1066 
C 2867 1336 2778 1555 2598 1709 
C 2413 1876 2182 2005 1894 2101 
C 1664 2185 1485 2255 1357 2319 
C 1229 2383 1139 2448 1088 2519 
C 1043 2590 1018 2667 1018 2756 
C 1018 2891 1069 2988 1178 3059 
C 1280 3123 1402 3155 1536 3155 
C 1722 3155 1862 3097 1958 2981 
C 2054 2859 2099 2692 2099 2480 
C 2336 2480 2502 2518 2598 2595 
C 2701 2666 2752 2776 2752 2923 
C 2752 3019 2714 3115 2637 3211 
C 2566 3302 2445 3379 2278 3430 
C 2118 3495 1901 3520 1632 3520 
C 1216 3520 883 3437 634 3263 
C 384 3096 256 2839 256 2499 
C 256 2209 346 1985 531 1824 
C 717 1657 979 1516 1325 1393 
C 1626 1284 1837 1188 1946 1098 
C 2054 1009 2112 892 2112 751 
C 2112 629 2061 526 1958 442 
C 1862 359 1702 314 1478 314 
C 1267 314 1101 391 973 546 
C 851 700 787 911 787 1175 
C 717 1175 634 1162 538 1143 
C 442 1117 365 1073 294 1002 
C 224 932 192 828 192 687 
C 192 475 288 296 486 154 
C 685 6 1011 -64 1478 -64 
z
" transform="scale(0.015625)"/>
       <path id="txbsys-bc" d="M 256 -928 
L 256 -1216 
L 1606 -1216 
L 1606 4544 
L 256 4544 
L 256 4256 
L 640 4256 
C 845 4256 928 4173 928 3974 
L 928 -595 
C 928 -819 826 -928 614 -928 
L 256 -928 
z
" transform="scale(0.015625)"/>
      </defs>
      <use xlink:href="#RobotoCondensed-Bold-61" transform="scale(0.946448)"/>
      <use xlink:href="#RobotoCondensed-Bold-76" transform="translate(43.820536 0) scale(0.946448)"/>
      <use xlink:href="#RobotoCondensed-Bold-67" transform="translate(85.748238 0) scale(0.946448)"/>
      <use xlink:href="#RobotoCondensed-Bold-2e" transform="translate(133.259888 0) scale(0.946448)"/>
      <use xlink:href="#RobotoCondensed-Bold-74" transform="translate(186.194653 0) scale(0.946448)"/>
      <use xlink:href="#RobotoCondensed-Bold-6f" transform="translate(213.830901 0) scale(0.946448)"/>
      <use xlink:href="#RobotoCondensed-Bold-74" transform="translate(260.86932 0) scale(0.946448)"/>
      <use xlink:href="#RobotoCondensed-Bold-61" transform="translate(289.925277 0) scale(0.946448)"/>
      <use xlink:href="#RobotoCondensed-Bold-6c" transform="translate(334.408338 0) scale(0.946448)"/>
      <use xlink:href="#RobotoCondensed-Bold-72" transform="translate(379.932462 0) scale(0.946448)"/>
      <use xlink:href="#RobotoCondensed-Bold-75" transform="translate(411.259899 0) scale(0.946448)"/>
      <use xlink:href="#RobotoCondensed-Bold-6e" transform="translate(457.825087 0) scale(0.946448)"/>
      <use xlink:href="#RobotoCondensed-Bold-74" transform="translate(504.390275 0) scale(0.946448)"/>
      <use xlink:href="#RobotoCondensed-Bold-69" transform="translate(533.446232 0) scale(0.946448)"/>
      <use xlink:href="#RobotoCondensed-Bold-6d" transform="translate(557.202103 0) scale(0.946448)"/>
      <use xlink:href="#RobotoCondensed-Bold-65" transform="translate(627.333884 0) scale(0.946448)"/>
      <use xlink:href="#txbsys-bb" transform="translate(694.342307 0) scale(1.01519)"/>
      <use xlink:href="#NotoSerif-Bold-73" transform="translate(728.757227 0) scale(0.913673)"/>
      <use xlink:href="#txbsys-bc" transform="translate(773.344435 0) scale(1.01519)"/>
     </g>
    </g>
   </g>
   <g id="LineCollection_1">
    <path d="M 41.948458 138.661201 
L 41.948458 136.859803 
" clip-path="url(#p73d33d15b1)" style="fill: none; stroke: #00346b; stroke-linecap: round"/>
    <path d="M 79.172458 114.395627 
L 79.172458 70.617249 
" clip-path="url(#p73d33d15b1)" style="fill: none; stroke: #00346b; stroke-linecap: round"/>
    <path d="M 116.396458 81.483415 
L 116.396458 9.704922 
" clip-path="url(#p73d33d15b1)" style="fill: none; stroke: #00346b; stroke-linecap: round"/>
   </g>
   <g id="LineCollection_2">
    <path d="M 41.948458 137.584157 
L 41.948458 136.247517 
" clip-path="url(#p73d33d15b1)" style="fill: none; stroke: #8b9397; stroke-linecap: round"/>
    <path d="M 79.172458 129.354177 
L 79.172458 127.526322 
" clip-path="url(#p73d33d15b1)" style="fill: none; stroke: #8b9397; stroke-linecap: round"/>
    <path d="M 116.396458 127.114335 
L 116.396458 123.681481 
" clip-path="url(#p73d33d15b1)" style="fill: none; stroke: #8b9397; stroke-linecap: round"/>
   </g>
   <g id="LineCollection_3">
    <path d="M 41.948458 141.528236 
L 41.948458 141.260938 
" clip-path="url(#p73d33d15b1)" style="fill: none; stroke: #d9e482; stroke-linecap: round"/>
    <path d="M 79.172458 140.430513 
L 79.172458 139.674956 
" clip-path="url(#p73d33d15b1)" style="fill: none; stroke: #d9e482; stroke-linecap: round"/>
    <path d="M 116.396458 139.410322 
L 116.396458 138.705555 
" clip-path="url(#p73d33d15b1)" style="fill: none; stroke: #d9e482; stroke-linecap: round"/>
   </g>
   <g id="LineCollection_4">
    <path d="M 41.948458 141.643033 
L 41.948458 141.485315 
" clip-path="url(#p73d33d15b1)" style="fill: none; stroke: #2e3d00; stroke-linecap: round"/>
    <path d="M 79.172458 140.708652 
L 79.172458 140.327796 
" clip-path="url(#p73d33d15b1)" style="fill: none; stroke: #2e3d00; stroke-linecap: round"/>
    <path d="M 116.396458 140.060064 
L 116.396458 139.432163 
" clip-path="url(#p73d33d15b1)" style="fill: none; stroke: #2e3d00; stroke-linecap: round"/>
   </g>
   <g id="LineCollection_5">
    <path d="M 41.948458 137.791582 
L 41.948458 135.900737 
" clip-path="url(#p73d33d15b1)" style="fill: none; stroke: #6692c2; stroke-linecap: round"/>
    <path d="M 79.172458 128.94264 
L 79.172458 125.174957 
" clip-path="url(#p73d33d15b1)" style="fill: none; stroke: #6692c2; stroke-linecap: round"/>
    <path d="M 116.396458 126.198734 
L 116.396458 119.815849 
" clip-path="url(#p73d33d15b1)" style="fill: none; stroke: #6692c2; stroke-linecap: round"/>
   </g>
   <g id="LineCollection_6">
    <path d="M 41.948458 136.644473 
L 41.948458 135.903259 
" clip-path="url(#p73d33d15b1)" style="fill: none; stroke: #f8c2ce; stroke-linecap: round"/>
    <path d="M 79.172458 131.127664 
L 79.172458 129.654871 
" clip-path="url(#p73d33d15b1)" style="fill: none; stroke: #f8c2ce; stroke-linecap: round"/>
    <path d="M 116.396458 126.261573 
L 116.396458 122.644196 
" clip-path="url(#p73d33d15b1)" style="fill: none; stroke: #f8c2ce; stroke-linecap: round"/>
   </g>
   <g id="LineCollection_7">
    <path d="M 41.948458 141.398013 
L 41.948458 141.146345 
" clip-path="url(#p73d33d15b1)" style="fill: none; stroke: #592140; stroke-linecap: round"/>
    <path d="M 79.172458 140.314948 
L 79.172458 139.775663 
" clip-path="url(#p73d33d15b1)" style="fill: none; stroke: #592140; stroke-linecap: round"/>
    <path d="M 116.396458 139.020199 
L 116.396458 138.504078 
" clip-path="url(#p73d33d15b1)" style="fill: none; stroke: #592140; stroke-linecap: round"/>
   </g>
   <g id="LineCollection_8">
    <path d="M 41.948458 141.502408 
L 41.948458 141.31519 
" clip-path="url(#p73d33d15b1)" style="fill: none; stroke: #d87160; stroke-linecap: round"/>
    <path d="M 79.172458 140.384172 
L 79.172458 139.944088 
" clip-path="url(#p73d33d15b1)" style="fill: none; stroke: #d87160; stroke-linecap: round"/>
    <path d="M 116.396458 139.673331 
L 116.396458 139.189581 
" clip-path="url(#p73d33d15b1)" style="fill: none; stroke: #d87160; stroke-linecap: round"/>
   </g>
   <g id="line2d_13">
    <path d="M 41.948458 137.760502 
L 79.172458 92.506438 
L 116.396458 45.594169 
" clip-path="url(#p73d33d15b1)" style="fill: none; stroke: #00346b; stroke-linecap: round"/>
    <defs>
     <path id="m1f1894368d" d="M 0 -3.15 
L -0.538682 -1.480016 
L -2.024781 -2.41304 
L -1.36399 -0.7875 
L -3.102144 -0.546992 
L -1.551072 0.273496 
L -2.72798 1.575 
L -1.01239 1.20652 
L -1.077363 2.960032 
L -0 1.575 
L 1.077363 2.960032 
L 1.01239 1.20652 
L 2.72798 1.575 
L 1.551072 0.273496 
L 3.102144 -0.546992 
L 1.36399 -0.7875 
L 2.024781 -2.41304 
L 0.538682 -1.480016 
z
" style="stroke: #00346b; stroke-linejoin: bevel"/>
    </defs>
    <g clip-path="url(#p73d33d15b1)">
     <use xlink:href="#m1f1894368d" x="41.948458" y="137.760502" style="fill: #00346b; stroke: #00346b; stroke-linejoin: bevel"/>
     <use xlink:href="#m1f1894368d" x="79.172458" y="92.506438" style="fill: #00346b; stroke: #00346b; stroke-linejoin: bevel"/>
     <use xlink:href="#m1f1894368d" x="116.396458" y="45.594169" style="fill: #00346b; stroke: #00346b; stroke-linejoin: bevel"/>
    </g>
   </g>
   <g id="line2d_14">
    <path d="M 41.948458 136.915837 
L 79.172458 128.440249 
L 116.396458 125.397908 
" clip-path="url(#p73d33d15b1)" style="fill: none; stroke: #8b9397; stroke-linecap: round"/>
    <defs>
     <path id="m398557b07f" d="M 0 -2.7 
L -2.7 2.7 
L 2.7 2.7 
z
" style="stroke: #8b9397; stroke-linejoin: miter"/>
    </defs>
    <g clip-path="url(#p73d33d15b1)">
     <use xlink:href="#m398557b07f" x="41.948458" y="136.915837" style="fill: #8b9397; stroke: #8b9397; stroke-linejoin: miter"/>
     <use xlink:href="#m398557b07f" x="79.172458" y="128.440249" style="fill: #8b9397; stroke: #8b9397; stroke-linejoin: miter"/>
     <use xlink:href="#m398557b07f" x="116.396458" y="125.397908" style="fill: #8b9397; stroke: #8b9397; stroke-linejoin: miter"/>
    </g>
   </g>
   <g id="line2d_15">
    <path d="M 41.948458 141.394587 
L 79.172458 140.052734 
L 116.396458 139.057939 
" clip-path="url(#p73d33d15b1)" style="fill: none; stroke: #d9e482; stroke-linecap: round"/>
    <defs>
     <path id="m84b05828d1" d="M 0 2.7 
C 0.716048 2.7 1.402866 2.415511 1.909188 1.909188 
C 2.415511 1.402866 2.7 0.716048 2.7 0 
C 2.7 -0.716048 2.415511 -1.402866 1.909188 -1.909188 
C 1.402866 -2.415511 0.716048 -2.7 0 -2.7 
C -0.716048 -2.7 -1.402866 -2.415511 -1.909188 -1.909188 
C -2.415511 -1.402866 -2.7 -0.716048 -2.7 0 
C -2.7 0.716048 -2.415511 1.402866 -1.909188 1.909188 
C -1.402866 2.415511 -0.716048 2.7 0 2.7 
z
" style="stroke: #d9e482"/>
    </defs>
    <g clip-path="url(#p73d33d15b1)">
     <use xlink:href="#m84b05828d1" x="41.948458" y="141.394587" style="fill: #d9e482; stroke: #d9e482"/>
     <use xlink:href="#m84b05828d1" x="79.172458" y="140.052734" style="fill: #d9e482; stroke: #d9e482"/>
     <use xlink:href="#m84b05828d1" x="116.396458" y="139.057939" style="fill: #d9e482; stroke: #d9e482"/>
    </g>
   </g>
   <g id="line2d_16">
    <path d="M 41.948458 141.564174 
L 79.172458 140.518224 
L 116.396458 139.746113 
" clip-path="url(#p73d33d15b1)" style="fill: none; stroke: #2e3d00; stroke-linecap: round"/>
    <defs>
     <path id="m4ee82aea4c" d="M 0 -3.15 
L -0.707219 -0.973404 
L -2.995828 -0.973404 
L -1.144304 0.371807 
L -1.851524 2.548404 
L -0 1.203193 
L 1.851524 2.548404 
L 1.144304 0.371807 
L 2.995828 -0.973404 
L 0.707219 -0.973404 
z
" style="stroke: #2e3d00; stroke-linejoin: bevel"/>
    </defs>
    <g clip-path="url(#p73d33d15b1)">
     <use xlink:href="#m4ee82aea4c" x="41.948458" y="141.564174" style="fill: #2e3d00; stroke: #2e3d00; stroke-linejoin: bevel"/>
     <use xlink:href="#m4ee82aea4c" x="79.172458" y="140.518224" style="fill: #2e3d00; stroke: #2e3d00; stroke-linejoin: bevel"/>
     <use xlink:href="#m4ee82aea4c" x="116.396458" y="139.746113" style="fill: #2e3d00; stroke: #2e3d00; stroke-linejoin: bevel"/>
    </g>
   </g>
   <g id="line2d_17">
    <path d="M 41.948458 136.846159 
L 79.172458 127.058798 
L 116.396458 123.007292 
" clip-path="url(#p73d33d15b1)" style="fill: none; stroke: #6692c2; stroke-linecap: round"/>
    <defs>
     <path id="m3e63db7211" d="M -0 2.7 
L 2.7 -2.7 
L -2.7 -2.7 
z
" style="stroke: #6692c2; stroke-linejoin: miter"/>
    </defs>
    <g clip-path="url(#p73d33d15b1)">
     <use xlink:href="#m3e63db7211" x="41.948458" y="136.846159" style="fill: #6692c2; stroke: #6692c2; stroke-linejoin: miter"/>
     <use xlink:href="#m3e63db7211" x="79.172458" y="127.058798" style="fill: #6692c2; stroke: #6692c2; stroke-linejoin: miter"/>
     <use xlink:href="#m3e63db7211" x="116.396458" y="123.007292" style="fill: #6692c2; stroke: #6692c2; stroke-linejoin: miter"/>
    </g>
   </g>
   <g id="line2d_18">
    <path d="M 41.948458 136.273866 
L 79.172458 130.391268 
L 116.396458 124.452885 
" clip-path="url(#p73d33d15b1)" style="fill: none; stroke: #f8c2ce; stroke-linecap: round"/>
    <defs>
     <path id="m8ece14013a" d="M -1.35 2.7 
L 0 1.35 
L 1.35 2.7 
L 2.7 1.35 
L 1.35 0 
L 2.7 -1.35 
L 1.35 -2.7 
L 0 -1.35 
L -1.35 -2.7 
L -2.7 -1.35 
L -1.35 0 
L -2.7 1.35 
z
" style="stroke: #f8c2ce; stroke-linejoin: miter"/>
    </defs>
    <g clip-path="url(#p73d33d15b1)">
     <use xlink:href="#m8ece14013a" x="41.948458" y="136.273866" style="fill: #f8c2ce; stroke: #f8c2ce; stroke-linejoin: miter"/>
     <use xlink:href="#m8ece14013a" x="79.172458" y="130.391268" style="fill: #f8c2ce; stroke: #f8c2ce; stroke-linejoin: miter"/>
     <use xlink:href="#m8ece14013a" x="116.396458" y="124.452885" style="fill: #f8c2ce; stroke: #f8c2ce; stroke-linejoin: miter"/>
    </g>
   </g>
   <g id="line2d_19">
    <path d="M 41.948458 141.272179 
L 79.172458 140.045305 
L 116.396458 138.762138 
" clip-path="url(#p73d33d15b1)" style="fill: none; stroke: #592140; stroke-linecap: round"/>
    <defs>
     <path id="mf3d1dd6565" d="M 0 -3.15 
L -0.683367 -1.419026 
L -2.462769 -1.963993 
L -1.535511 -0.35047 
L -3.071023 0.700941 
L -1.231385 0.981996 
L -1.366734 2.838052 
L -0 1.575 
L 1.366734 2.838052 
L 1.231385 0.981996 
L 3.071023 0.700941 
L 1.535511 -0.35047 
L 2.462769 -1.963993 
L 0.683367 -1.419026 
z
" style="stroke: #592140; stroke-linejoin: bevel"/>
    </defs>
    <g clip-path="url(#p73d33d15b1)">
     <use xlink:href="#mf3d1dd6565" x="41.948458" y="141.272179" style="fill: #592140; stroke: #592140; stroke-linejoin: bevel"/>
     <use xlink:href="#mf3d1dd6565" x="79.172458" y="140.045305" style="fill: #592140; stroke: #592140; stroke-linejoin: bevel"/>
     <use xlink:href="#mf3d1dd6565" x="116.396458" y="138.762138" style="fill: #592140; stroke: #592140; stroke-linejoin: bevel"/>
    </g>
   </g>
   <g id="line2d_20">
    <path d="M 41.948458 141.408799 
L 79.172458 140.16413 
L 116.396458 139.431456 
" clip-path="url(#p73d33d15b1)" style="fill: none; stroke: #d87160; stroke-linecap: round"/>
    <defs>
     <path id="mc12fff01af" d="M -0 3.818377 
L 2.291026 0 
L 0 -3.818377 
L -2.291026 -0 
z
" style="stroke: #d87160; stroke-linejoin: miter"/>
    </defs>
    <g clip-path="url(#p73d33d15b1)">
     <use xlink:href="#mc12fff01af" x="41.948458" y="141.408799" style="fill: #d87160; stroke: #d87160; stroke-linejoin: miter"/>
     <use xlink:href="#mc12fff01af" x="79.172458" y="140.16413" style="fill: #d87160; stroke: #d87160; stroke-linejoin: miter"/>
     <use xlink:href="#mc12fff01af" x="116.396458" y="139.431456" style="fill: #d87160; stroke: #d87160; stroke-linejoin: miter"/>
    </g>
   </g>
   <g id="patch_3">
    <path d="M 34.875898 142.879722 
L 123.469018 142.879722 
" style="fill: none; stroke: #000000; stroke-width: 0.8; stroke-linejoin: miter; stroke-linecap: square"/>
   </g>
   <g id="legend_1">
    <g id="LineCollection_9">
     <path d="M 139.669018 12.632379 
L 139.669018 3.632379 
" style="fill: none; stroke: #00346b"/>
    </g>
    <g id="line2d_21">
     <path d="M 132.019018 8.132379 
L 147.319018 8.132379 
" style="fill: none; stroke: #00346b; stroke-linecap: round"/>
    </g>
    <g id="line2d_22">
     <g>
      <use xlink:href="#m1f1894368d" x="139.669018" y="8.132379" style="fill: #00346b; stroke: #00346b; stroke-linejoin: bevel"/>
     </g>
    </g>
    <g id="text_12">
     <!-- \schedulermoobj[1]{MCS}{o1,stl}{1SP} -->
     <g transform="translate(152.719018 10.582379) scale(0.09 -0.09)">
      <defs>
       <path id="RobotoCondensed-Italic-4d" d="M 1645 4544 
L 934 4544 
L 147 0 
L 710 0 
L 1011 1739 
L 1274 3560 
L 1811 0 
L 2240 0 
L 3987 3483 
L 3642 1795 
L 3328 0 
L 3885 0 
L 4678 4544 
L 3949 4544 
L 2150 844 
L 1645 4544 
z
" transform="scale(0.015625)"/>
       <path id="RobotoCondensed-Italic-43" d="M 3149 1443 
L 2598 1443 
C 2515 1068 2394 803 2227 650 
C 2061 497 1843 428 1568 428 
C 1376 428 1222 498 1114 640 
C 998 775 934 981 915 1258 
C 902 1437 909 1634 941 1851 
L 1069 2658 
C 1146 3148 1286 3511 1491 3760 
C 1696 4002 1952 4116 2266 4116 
C 2426 4116 2554 4078 2650 4001 
C 2746 3917 2810 3814 2854 3679 
C 2893 3545 2906 3345 2899 3082 
L 3462 3082 
C 3482 3563 3386 3935 3187 4204 
C 2982 4474 2688 4608 2298 4608 
C 1830 4608 1440 4441 1126 4097 
C 813 3751 602 3266 506 2646 
L 378 1847 
C 358 1706 352 1560 352 1413 
C 358 1131 410 876 506 646 
C 602 415 736 244 909 122 
C 1082 0 1293 -64 1536 -64 
C 1971 -64 2330 63 2618 335 
C 2906 608 3078 975 3149 1443 
z
" transform="scale(0.015625)"/>
       <path id="RobotoCondensed-Italic-53" d="M 2291 1181 
C 2259 946 2170 760 2010 627 
C 1850 493 1658 429 1434 429 
C 1190 429 1011 512 890 673 
C 768 834 717 1047 736 1317 
L 173 1317 
C 154 915 256 588 486 332 
C 717 71 1024 -64 1402 -64 
C 1805 -64 2138 44 2406 280 
C 2675 516 2822 815 2854 1185 
C 2886 1618 2752 1962 2438 2217 
C 2298 2332 2106 2440 1856 2549 
C 1606 2650 1427 2765 1331 2899 
C 1229 3027 1190 3173 1210 3345 
C 1235 3580 1325 3766 1478 3906 
C 1626 4046 1818 4116 2042 4116 
C 2266 4116 2426 4039 2534 3891 
C 2643 3737 2682 3518 2662 3228 
L 3219 3228 
C 3251 3619 3155 3947 2944 4210 
C 2733 4474 2438 4608 2074 4608 
C 1696 4608 1370 4494 1101 4251 
C 832 4009 685 3703 653 3340 
C 621 2952 755 2633 1056 2379 
C 1197 2257 1402 2137 1670 2021 
C 1939 1901 2118 1780 2202 1652 
C 2285 1525 2310 1366 2291 1181 
z
" transform="scale(0.015625)"/>
       <path id="RobotoCondensed-Italic-6f" d="M 294 1840 
L 256 1527 
C 224 1231 243 962 314 718 
C 384 475 506 283 672 148 
C 838 7 1050 -64 1299 -64 
C 1696 -64 2029 77 2298 373 
C 2560 668 2726 1060 2797 1542 
L 2829 1863 
C 2861 2152 2848 2421 2778 2672 
C 2707 2916 2586 3109 2419 3250 
C 2253 3385 2042 3456 1792 3456 
C 1389 3456 1056 3315 794 3020 
C 531 2719 365 2328 294 1840 
z
M 781 1302 
L 787 1471 
L 826 1784 
C 870 2163 979 2464 1139 2676 
C 1299 2887 1504 2983 1754 2983 
C 1939 2983 2080 2899 2176 2743 
C 2272 2588 2317 2367 2310 2082 
L 2291 1858 
L 2246 1492 
C 2189 1127 2086 852 1933 672 
C 1773 486 1574 403 1331 403 
C 1146 403 1005 487 915 649 
C 819 804 774 1024 781 1302 
z
" transform="scale(0.015625)"/>
       <path id="RobotoCondensed-Italic-31" d="M 1395 0 
L 2176 4570 
L 2080 4570 
L 614 3968 
L 518 3411 
L 1523 3834 
L 851 0 
L 1395 0 
z
" transform="scale(0.015625)"/>
       <path id="RobotoCondensed-Italic-2c" d="M -26 -890 
C 365 -583 595 -192 666 281 
L 730 704 
L 179 704 
L 96 230 
C 38 -58 -109 -352 -352 -653 
L -26 -890 
z
" transform="scale(0.015625)"/>
       <path id="RobotoCondensed-Italic-73" d="M 1837 892 
C 1818 744 1754 628 1638 545 
C 1523 454 1376 410 1203 410 
C 1043 410 915 461 826 564 
C 736 667 691 815 698 1014 
L 154 1014 
C 141 698 230 440 429 240 
C 621 40 870 -64 1184 -64 
C 1504 -64 1779 19 2003 204 
C 2227 390 2355 633 2374 940 
C 2394 1292 2208 1581 1818 1799 
L 1293 2068 
C 1101 2177 1018 2311 1043 2484 
C 1062 2631 1126 2746 1229 2836 
C 1331 2925 1466 2970 1626 2970 
C 1773 2970 1882 2925 1965 2828 
C 2042 2732 2080 2597 2074 2423 
L 2605 2423 
C 2618 2727 2541 2972 2368 3165 
C 2195 3352 1958 3456 1658 3456 
C 1344 3456 1082 3360 870 3175 
C 653 2990 538 2755 518 2468 
C 506 2287 544 2126 627 1992 
C 710 1857 864 1728 1082 1606 
L 1504 1387 
C 1754 1252 1862 1091 1837 892 
z
" transform="scale(0.015625)"/>
       <path id="RobotoCondensed-Italic-74" d="M 1510 4192 
L 973 4192 
L 826 3392 
L 333 3392 
L 250 2944 
L 755 2944 
L 410 838 
C 384 548 422 329 518 175 
C 614 13 755 -64 941 -64 
C 1062 -64 1184 -45 1299 0 
L 1344 474 
C 1248 450 1171 435 1120 435 
C 986 435 922 525 928 705 
L 934 834 
L 1293 2944 
L 1786 2944 
L 1862 3392 
L 1363 3392 
L 1510 4192 
z
" transform="scale(0.015625)"/>
       <path id="RobotoCondensed-Italic-6c" d="M 659 0 
L 1491 4800 
L 947 4800 
L 115 0 
L 659 0 
z
" transform="scale(0.015625)"/>
       <path id="RobotoCondensed-Italic-50" d="M 1018 1792 
L 1901 1792 
C 2330 1792 2682 1920 2957 2170 
C 3232 2419 3386 2765 3424 3200 
C 3456 3591 3373 3917 3174 4167 
C 2970 4416 2682 4544 2310 4544 
L 934 4544 
L 147 0 
L 710 0 
L 1018 1792 
z
M 1101 2279 
L 1414 4057 
L 2298 4057 
C 2458 4057 2592 3999 2688 3903 
C 2784 3807 2848 3673 2867 3500 
C 2893 3302 2867 3098 2797 2899 
C 2726 2701 2611 2547 2464 2439 
C 2310 2330 2131 2279 1926 2279 
L 1101 2279 
z
" transform="scale(0.015625)"/>
      </defs>
      <use xlink:href="#RobotoCondensed-Italic-4d" transform="scale(0.946448)"/>
      <use xlink:href="#RobotoCondensed-Italic-43" transform="translate(69.753242 0) scale(0.946448)"/>
      <use xlink:href="#RobotoCondensed-Italic-53" transform="translate(122.186424 0) scale(0.946448)"/>
      <use xlink:href="#RobotoCondensed-Italic-6f" transform="translate(180.464144 46.038492) scale(0.746176)"/>
      <use xlink:href="#RobotoCondensed-Italic-31" transform="translate(217.101397 46.038492) scale(0.746176)"/>
      <use xlink:href="#RobotoCondensed-Italic-2c" transform="translate(245.082999 46.038492) scale(0.746176)"/>
      <use xlink:href="#RobotoCondensed-Italic-73" transform="translate(259.6334 46.038492) scale(0.746176)"/>
      <use xlink:href="#RobotoCondensed-Italic-74" transform="translate(292.912853 46.038492) scale(0.746176)"/>
      <use xlink:href="#RobotoCondensed-Italic-6c" transform="translate(314.626593 46.038492) scale(0.746176)"/>
      <use xlink:href="#RobotoCondensed-Italic-31" transform="translate(170.171321 -36.289178) scale(0.690903)"/>
      <use xlink:href="#RobotoCondensed-Italic-53" transform="translate(196.080175 -36.289178) scale(0.690903)"/>
      <use xlink:href="#RobotoCondensed-Italic-50" transform="translate(231.108943 -36.289178) scale(0.690903)"/>
     </g>
    </g>
    <g id="LineCollection_10">
     <path d="M 139.669018 30.775872 
L 139.669018 21.775872 
" style="fill: none; stroke: #8b9397"/>
    </g>
    <g id="line2d_23">
     <path d="M 132.019018 26.275872 
L 147.319018 26.275872 
" style="fill: none; stroke: #8b9397; stroke-linecap: round"/>
    </g>
    <g id="line2d_24">
     <g>
      <use xlink:href="#m398557b07f" x="139.669018" y="26.275872" style="fill: #8b9397; stroke: #8b9397; stroke-linejoin: miter"/>
     </g>
    </g>
    <g id="text_13">
     <!-- \schedulermoobj[1]{MCT}{o1,stl}{1SP} -->
     <g transform="translate(152.719018 28.725872) scale(0.09 -0.09)">
      <defs>
       <path id="RobotoCondensed-Italic-54" d="M 3437 4032 
L 3520 4524 
L 646 4524 
L 557 4032 
L 1715 4032 
L 1011 -32 
L 1574 -32 
L 2272 4032 
L 3437 4032 
z
" transform="scale(0.015625)"/>
      </defs>
      <use xlink:href="#RobotoCondensed-Italic-4d" transform="scale(0.946448)"/>
      <use xlink:href="#RobotoCondensed-Italic-43" transform="translate(69.753242 0) scale(0.946448)"/>
      <use xlink:href="#RobotoCondensed-Italic-54" transform="translate(120.861391 0) scale(0.946448)"/>
      <use xlink:href="#RobotoCondensed-Italic-6f" transform="translate(179.328388 46.038492) scale(0.746176)"/>
      <use xlink:href="#RobotoCondensed-Italic-31" transform="translate(215.965642 46.038492) scale(0.746176)"/>
      <use xlink:href="#RobotoCondensed-Italic-2c" transform="translate(243.947243 46.038492) scale(0.746176)"/>
      <use xlink:href="#RobotoCondensed-Italic-73" transform="translate(258.497644 46.038492) scale(0.746176)"/>
      <use xlink:href="#RobotoCondensed-Italic-74" transform="translate(291.777097 46.038492) scale(0.746176)"/>
      <use xlink:href="#RobotoCondensed-Italic-6c" transform="translate(313.490837 46.038492) scale(0.746176)"/>
      <use xlink:href="#RobotoCondensed-Italic-31" transform="translate(169.035565 -36.289178) scale(0.690903)"/>
      <use xlink:href="#RobotoCondensed-Italic-53" transform="translate(194.944419 -36.289178) scale(0.690903)"/>
      <use xlink:href="#RobotoCondensed-Italic-50" transform="translate(229.973187 -36.289178) scale(0.690903)"/>
     </g>
    </g>
    <g id="LineCollection_11">
     <path d="M 139.669018 49.43124 
L 139.669018 40.43124 
" style="fill: none; stroke: #d9e482"/>
    </g>
    <g id="line2d_25">
     <path d="M 132.019018 44.93124 
L 147.319018 44.93124 
" style="fill: none; stroke: #d9e482; stroke-linecap: round"/>
    </g>
    <g id="line2d_26">
     <g>
      <use xlink:href="#m84b05828d1" x="139.669018" y="44.93124" style="fill: #d9e482; stroke: #d9e482"/>
     </g>
    </g>
    <g id="text_14">
     <!-- \schedulermoobj[1]{MCS}{o1,stl,\textbf{rpp-lbsp}}{1SP} -->
     <g transform="translate(152.719018 47.38124) scale(0.09 -0.09)">
      <defs>
       <path id="RobotoCondensed-BoldItalic-72" d="M 2074 2534 
L 2189 3405 
C 2080 3437 1997 3456 1926 3456 
C 1811 3456 1709 3424 1613 3360 
C 1517 3290 1414 3174 1312 3014 
L 1376 3379 
L 570 3379 
L -19 0 
L 845 0 
L 1235 2229 
C 1382 2452 1568 2560 1798 2560 
L 2074 2534 
z
" transform="scale(0.015625)"/>
       <path id="RobotoCondensed-BoldItalic-70" d="M 1542 -64 
C 1805 -64 2035 12 2234 179 
C 2432 340 2579 589 2688 930 
C 2797 1270 2854 1679 2874 2167 
C 2893 2584 2829 2898 2682 3122 
C 2534 3347 2310 3456 2016 3456 
C 1754 3456 1517 3330 1312 3078 
L 1357 3385 
L 570 3385 
L -243 -1312 
L 621 -1312 
L 922 275 
C 1069 54 1280 -64 1542 -64 
z
M 2016 2175 
L 2010 2058 
L 1946 1422 
C 1869 907 1670 659 1350 659 
C 1184 659 1069 741 998 884 
L 1280 2476 
C 1408 2636 1549 2713 1702 2713 
C 1811 2713 1894 2674 1946 2597 
C 1990 2512 2016 2376 2016 2175 
z
" transform="scale(0.015625)"/>
       <path id="RobotoCondensed-BoldItalic-2d" d="M 1805 1600 
L 1939 2336 
L 448 2336 
L 320 1600 
L 1805 1600 
z
" transform="scale(0.015625)"/>
       <path id="RobotoCondensed-BoldItalic-6c" d="M 890 0 
L 1728 4800 
L 858 4800 
L 26 0 
L 890 0 
z
" transform="scale(0.015625)"/>
       <path id="RobotoCondensed-BoldItalic-62" d="M 1549 -64 
C 1818 -64 2048 12 2246 172 
C 2438 333 2586 583 2694 936 
C 2797 1283 2854 1700 2874 2180 
C 2893 2597 2829 2911 2682 3129 
C 2534 3347 2310 3456 2016 3456 
C 1766 3456 1549 3343 1350 3110 
L 1683 4800 
L 819 4800 
L -13 0 
L 787 0 
L 896 339 
C 1043 74 1261 -64 1549 -64 
z
M 2022 2168 
L 1965 1589 
L 1939 1359 
C 1875 889 1683 659 1357 659 
C 1184 659 1069 743 1005 890 
L 1274 2449 
C 1402 2623 1549 2707 1709 2707 
C 1818 2707 1901 2668 1952 2584 
C 2003 2500 2029 2363 2022 2168 
z
" transform="scale(0.015625)"/>
       <path id="RobotoCondensed-BoldItalic-73" d="M 1613 928 
C 1594 819 1549 736 1472 678 
C 1395 621 1306 589 1197 589 
C 1075 589 986 627 928 698 
C 870 768 838 891 845 1051 
L 19 1051 
C 13 729 115 464 326 258 
C 538 46 806 -64 1133 -64 
C 1363 -64 1574 -20 1773 64 
C 1971 147 2125 262 2246 422 
C 2362 582 2426 761 2438 972 
C 2458 1331 2317 1612 2003 1817 
C 1901 1888 1734 1977 1498 2086 
C 1261 2188 1152 2310 1178 2444 
C 1197 2540 1242 2624 1312 2694 
C 1382 2764 1466 2796 1562 2796 
C 1658 2796 1728 2764 1773 2707 
C 1818 2643 1837 2533 1830 2386 
L 2694 2386 
C 2701 2701 2605 2959 2406 3160 
C 2208 3353 1946 3456 1606 3456 
C 1267 3456 979 3360 742 3162 
C 506 2963 378 2707 365 2400 
C 358 2240 390 2099 448 1978 
C 506 1856 595 1741 717 1645 
C 838 1542 1024 1434 1274 1318 
C 1523 1203 1632 1075 1613 928 
z
" transform="scale(0.015625)"/>
      </defs>
      <use xlink:href="#RobotoCondensed-Italic-4d" transform="scale(0.946448)"/>
      <use xlink:href="#RobotoCondensed-Italic-43" transform="translate(69.753242 0) scale(0.946448)"/>
      <use xlink:href="#RobotoCondensed-Italic-53" transform="translate(122.186424 0) scale(0.946448)"/>
      <use xlink:href="#RobotoCondensed-Italic-6f" transform="translate(180.464144 51.157251) scale(0.746176)"/>
      <use xlink:href="#RobotoCondensed-Italic-31" transform="translate(217.101397 51.157251) scale(0.746176)"/>
      <use xlink:href="#RobotoCondensed-Italic-2c" transform="translate(245.082999 51.157251) scale(0.746176)"/>
      <use xlink:href="#RobotoCondensed-Italic-73" transform="translate(259.6334 51.157251) scale(0.746176)"/>
      <use xlink:href="#RobotoCondensed-Italic-74" transform="translate(292.912853 51.157251) scale(0.746176)"/>
      <use xlink:href="#RobotoCondensed-Italic-6c" transform="translate(314.626593 51.157251) scale(0.746176)"/>
      <use xlink:href="#RobotoCondensed-Italic-2c" transform="translate(331.564799 51.157251) scale(0.746176)"/>
      <use xlink:href="#RobotoCondensed-BoldItalic-72" transform="translate(346.1152 51.157251) scale(0.746176)"/>
      <use xlink:href="#RobotoCondensed-BoldItalic-70" transform="translate(370.440545 51.157251) scale(0.746176)"/>
      <use xlink:href="#RobotoCondensed-BoldItalic-70" transform="translate(406.63006 51.157251) scale(0.746176)"/>
      <use xlink:href="#RobotoCondensed-BoldItalic-2d" transform="translate(442.819575 51.157251) scale(0.746176)"/>
      <use xlink:href="#RobotoCondensed-BoldItalic-6c" transform="translate(469.458084 51.157251) scale(0.746176)"/>
      <use xlink:href="#RobotoCondensed-BoldItalic-62" transform="translate(488.037839 51.157251) scale(0.746176)"/>
      <use xlink:href="#RobotoCondensed-BoldItalic-73" transform="translate(524.227354 51.157251) scale(0.746176)"/>
      <use xlink:href="#RobotoCondensed-BoldItalic-70" transform="translate(557.432167 51.157251) scale(0.746176)"/>
      <use xlink:href="#RobotoCondensed-Italic-31" transform="translate(170.171321 -36.289178) scale(0.690903)"/>
      <use xlink:href="#RobotoCondensed-Italic-53" transform="translate(196.080175 -36.289178) scale(0.690903)"/>
      <use xlink:href="#RobotoCondensed-Italic-50" transform="translate(231.108943 -36.289178) scale(0.690903)"/>
     </g>
    </g>
    <g id="LineCollection_12">
     <path d="M 139.669018 68.086607 
L 139.669018 59.086607 
" style="fill: none; stroke: #2e3d00"/>
    </g>
    <g id="line2d_27">
     <path d="M 132.019018 63.586607 
L 147.319018 63.586607 
" style="fill: none; stroke: #2e3d00; stroke-linecap: round"/>
    </g>
    <g id="line2d_28">
     <g>
      <use xlink:href="#m4ee82aea4c" x="139.669018" y="63.586607" style="fill: #2e3d00; stroke: #2e3d00; stroke-linejoin: bevel"/>
     </g>
    </g>
    <g id="text_15">
     <!-- \schedulermoobj[1]{MCT}{o1,stl,\textbf{rpp-lbsp}}{1SP} -->
     <g transform="translate(152.719018 66.036607) scale(0.09 -0.09)">
      <use xlink:href="#RobotoCondensed-Italic-4d" transform="scale(0.946448)"/>
      <use xlink:href="#RobotoCondensed-Italic-43" transform="translate(69.753242 0) scale(0.946448)"/>
      <use xlink:href="#RobotoCondensed-Italic-54" transform="translate(120.861391 0) scale(0.946448)"/>
      <use xlink:href="#RobotoCondensed-Italic-6f" transform="translate(179.328388 51.157251) scale(0.746176)"/>
      <use xlink:href="#RobotoCondensed-Italic-31" transform="translate(215.965642 51.157251) scale(0.746176)"/>
      <use xlink:href="#RobotoCondensed-Italic-2c" transform="translate(243.947243 51.157251) scale(0.746176)"/>
      <use xlink:href="#RobotoCondensed-Italic-73" transform="translate(258.497644 51.157251) scale(0.746176)"/>
      <use xlink:href="#RobotoCondensed-Italic-74" transform="translate(291.777097 51.157251) scale(0.746176)"/>
      <use xlink:href="#RobotoCondensed-Italic-6c" transform="translate(313.490837 51.157251) scale(0.746176)"/>
      <use xlink:href="#RobotoCondensed-Italic-2c" transform="translate(330.429043 51.157251) scale(0.746176)"/>
      <use xlink:href="#RobotoCondensed-BoldItalic-72" transform="translate(344.979444 51.157251) scale(0.746176)"/>
      <use xlink:href="#RobotoCondensed-BoldItalic-70" transform="translate(369.304789 51.157251) scale(0.746176)"/>
      <use xlink:href="#RobotoCondensed-BoldItalic-70" transform="translate(405.494304 51.157251) scale(0.746176)"/>
      <use xlink:href="#RobotoCondensed-BoldItalic-2d" transform="translate(441.683819 51.157251) scale(0.746176)"/>
      <use xlink:href="#RobotoCondensed-BoldItalic-6c" transform="translate(468.322328 51.157251) scale(0.746176)"/>
      <use xlink:href="#RobotoCondensed-BoldItalic-62" transform="translate(486.902083 51.157251) scale(0.746176)"/>
      <use xlink:href="#RobotoCondensed-BoldItalic-73" transform="translate(523.091599 51.157251) scale(0.746176)"/>
      <use xlink:href="#RobotoCondensed-BoldItalic-70" transform="translate(556.296411 51.157251) scale(0.746176)"/>
      <use xlink:href="#RobotoCondensed-Italic-31" transform="translate(169.035565 -36.289178) scale(0.690903)"/>
      <use xlink:href="#RobotoCondensed-Italic-53" transform="translate(194.944419 -36.289178) scale(0.690903)"/>
      <use xlink:href="#RobotoCondensed-Italic-50" transform="translate(229.973187 -36.289178) scale(0.690903)"/>
     </g>
    </g>
    <g id="LineCollection_13">
     <path d="M 139.669018 86.230101 
L 139.669018 77.230101 
" style="fill: none; stroke: #6692c2"/>
    </g>
    <g id="line2d_29">
     <path d="M 132.019018 81.730101 
L 147.319018 81.730101 
" style="fill: none; stroke: #6692c2; stroke-linecap: round"/>
    </g>
    <g id="line2d_30">
     <g>
      <use xlink:href="#m3e63db7211" x="139.669018" y="81.730101" style="fill: #6692c2; stroke: #6692c2; stroke-linejoin: miter"/>
     </g>
    </g>
    <g id="text_16">
     <!-- \schedulermoobj[1]{MCS}{o1,\textbf{modv},stl}{1SP} -->
     <g transform="translate(152.719018 84.180101) scale(0.09 -0.09)">
      <defs>
       <path id="RobotoCondensed-BoldItalic-6d" d="M 1376 3379 
L 576 3379 
L -13 0 
L 851 0 
L 1280 2463 
C 1331 2534 1389 2592 1446 2643 
C 1504 2688 1581 2713 1670 2713 
C 1856 2713 1939 2585 1920 2328 
L 1901 2155 
L 1542 0 
L 2406 0 
L 2797 2258 
L 2816 2405 
C 2938 2611 3072 2713 3219 2713 
C 3405 2713 3488 2585 3469 2335 
L 3456 2162 
L 3098 0 
L 3962 0 
L 4320 2155 
L 4333 2445 
C 4339 2767 4275 3018 4154 3192 
C 4026 3366 3840 3456 3603 3456 
C 3290 3456 3002 3303 2746 2992 
C 2650 3297 2445 3456 2118 3456 
C 1818 3456 1555 3333 1318 3068 
L 1376 3379 
z
" transform="scale(0.015625)"/>
       <path id="RobotoCondensed-BoldItalic-6f" d="M 1766 3456 
C 1344 3456 992 3307 717 3006 
C 435 2704 262 2280 205 1747 
L 186 1581 
C 154 1260 173 977 250 733 
C 326 482 454 289 627 149 
C 800 7 1024 -64 1293 -64 
C 1754 -64 2125 109 2413 475 
C 2701 834 2854 1340 2880 1995 
L 2880 2219 
C 2861 2597 2758 2892 2566 3116 
C 2374 3341 2106 3456 1766 3456 
z
M 1037 1212 
C 1037 1290 1050 1483 1082 1786 
C 1107 2089 1171 2328 1280 2489 
C 1389 2650 1523 2720 1690 2720 
C 1914 2720 2029 2534 2029 2176 
C 2029 2093 2016 1901 1984 1600 
L 1952 1369 
C 1856 896 1664 665 1363 665 
C 1146 665 1037 852 1037 1212 
z
" transform="scale(0.015625)"/>
       <path id="RobotoCondensed-BoldItalic-64" d="M 1485 3456 
C 1088 3456 774 3290 550 2950 
C 326 2611 186 2093 141 1408 
L 134 1210 
C 128 800 198 486 346 269 
C 493 45 710 -64 998 -64 
C 1261 -64 1498 72 1715 352 
L 1670 6 
L 2445 6 
L 3277 4800 
L 2406 4800 
L 2086 3104 
C 1933 3333 1734 3456 1485 3456 
z
M 992 1229 
L 1050 1800 
L 1082 2035 
C 1165 2498 1357 2720 1664 2720 
C 1811 2720 1920 2636 1997 2475 
L 1728 917 
C 1594 756 1453 672 1306 672 
C 1197 672 1114 718 1062 815 
C 1005 912 986 1048 992 1229 
z
" transform="scale(0.015625)"/>
       <path id="RobotoCondensed-BoldItalic-76" d="M 1286 1267 
L 1203 3379 
L 320 3379 
L 698 0 
L 1517 0 
L 2944 3379 
L 2029 3379 
L 1286 1267 
z
" transform="scale(0.015625)"/>
      </defs>
      <use xlink:href="#RobotoCondensed-Italic-4d" transform="scale(0.946448)"/>
      <use xlink:href="#RobotoCondensed-Italic-43" transform="translate(69.753242 0) scale(0.946448)"/>
      <use xlink:href="#RobotoCondensed-Italic-53" transform="translate(122.186424 0) scale(0.946448)"/>
      <use xlink:href="#RobotoCondensed-Italic-6f" transform="translate(180.464144 46.038492) scale(0.746176)"/>
      <use xlink:href="#RobotoCondensed-Italic-31" transform="translate(217.101397 46.038492) scale(0.746176)"/>
      <use xlink:href="#RobotoCondensed-Italic-2c" transform="translate(245.082999 46.038492) scale(0.746176)"/>
      <use xlink:href="#RobotoCondensed-BoldItalic-6d" transform="translate(259.6334 46.038492) scale(0.746176)"/>
      <use xlink:href="#RobotoCondensed-BoldItalic-6f" transform="translate(313.656536 46.038492) scale(0.746176)"/>
      <use xlink:href="#RobotoCondensed-BoldItalic-64" transform="translate(349.995348 46.038492) scale(0.746176)"/>
      <use xlink:href="#RobotoCondensed-BoldItalic-76" transform="translate(386.184863 46.038492) scale(0.746176)"/>
      <use xlink:href="#RobotoCondensed-Italic-2c" transform="translate(419.016578 46.038492) scale(0.746176)"/>
      <use xlink:href="#RobotoCondensed-Italic-73" transform="translate(433.56698 46.038492) scale(0.746176)"/>
      <use xlink:href="#RobotoCondensed-Italic-74" transform="translate(466.846433 46.038492) scale(0.746176)"/>
      <use xlink:href="#RobotoCondensed-Italic-6c" transform="translate(488.560172 46.038492) scale(0.746176)"/>
      <use xlink:href="#RobotoCondensed-Italic-31" transform="translate(170.171321 -36.289178) scale(0.690903)"/>
      <use xlink:href="#RobotoCondensed-Italic-53" transform="translate(196.080175 -36.289178) scale(0.690903)"/>
      <use xlink:href="#RobotoCondensed-Italic-50" transform="translate(231.108943 -36.289178) scale(0.690903)"/>
     </g>
    </g>
    <g id="LineCollection_14">
     <path d="M 139.669018 104.373594 
L 139.669018 95.373594 
" style="fill: none; stroke: #f8c2ce"/>
    </g>
    <g id="line2d_31">
     <path d="M 132.019018 99.873594 
L 147.319018 99.873594 
" style="fill: none; stroke: #f8c2ce; stroke-linecap: round"/>
    </g>
    <g id="line2d_32">
     <g>
      <use xlink:href="#m8ece14013a" x="139.669018" y="99.873594" style="fill: #f8c2ce; stroke: #f8c2ce; stroke-linejoin: miter"/>
     </g>
    </g>
    <g id="text_17">
     <!-- \schedulermoobj[1]{MCT}{o1,\textbf{modv},stl}{1SP} -->
     <g transform="translate(152.719018 102.323594) scale(0.09 -0.09)">
      <use xlink:href="#RobotoCondensed-Italic-4d" transform="scale(0.946448)"/>
      <use xlink:href="#RobotoCondensed-Italic-43" transform="translate(69.753242 0) scale(0.946448)"/>
      <use xlink:href="#RobotoCondensed-Italic-54" transform="translate(120.861391 0) scale(0.946448)"/>
      <use xlink:href="#RobotoCondensed-Italic-6f" transform="translate(179.328388 46.038492) scale(0.746176)"/>
      <use xlink:href="#RobotoCondensed-Italic-31" transform="translate(215.965642 46.038492) scale(0.746176)"/>
      <use xlink:href="#RobotoCondensed-Italic-2c" transform="translate(243.947243 46.038492) scale(0.746176)"/>
      <use xlink:href="#RobotoCondensed-BoldItalic-6d" transform="translate(258.497644 46.038492) scale(0.746176)"/>
      <use xlink:href="#RobotoCondensed-BoldItalic-6f" transform="translate(312.520781 46.038492) scale(0.746176)"/>
      <use xlink:href="#RobotoCondensed-BoldItalic-64" transform="translate(348.859593 46.038492) scale(0.746176)"/>
      <use xlink:href="#RobotoCondensed-BoldItalic-76" transform="translate(385.049108 46.038492) scale(0.746176)"/>
      <use xlink:href="#RobotoCondensed-Italic-2c" transform="translate(417.880823 46.038492) scale(0.746176)"/>
      <use xlink:href="#RobotoCondensed-Italic-73" transform="translate(432.431224 46.038492) scale(0.746176)"/>
      <use xlink:href="#RobotoCondensed-Italic-74" transform="translate(465.710677 46.038492) scale(0.746176)"/>
      <use xlink:href="#RobotoCondensed-Italic-6c" transform="translate(487.424417 46.038492) scale(0.746176)"/>
      <use xlink:href="#RobotoCondensed-Italic-31" transform="translate(169.035565 -36.289178) scale(0.690903)"/>
      <use xlink:href="#RobotoCondensed-Italic-53" transform="translate(194.944419 -36.289178) scale(0.690903)"/>
      <use xlink:href="#RobotoCondensed-Italic-50" transform="translate(229.973187 -36.289178) scale(0.690903)"/>
     </g>
    </g>
    <g id="LineCollection_15">
     <path d="M 139.669018 123.028962 
L 139.669018 114.028962 
" style="fill: none; stroke: #592140"/>
    </g>
    <g id="line2d_33">
     <path d="M 132.019018 118.528962 
L 147.319018 118.528962 
" style="fill: none; stroke: #592140; stroke-linecap: round"/>
    </g>
    <g id="line2d_34">
     <g>
      <use xlink:href="#mf3d1dd6565" x="139.669018" y="118.528962" style="fill: #592140; stroke: #592140; stroke-linejoin: bevel"/>
     </g>
    </g>
    <g id="text_18">
     <!-- \schedulermoobj[1]{MCS}{o1,\textbf{modv},stl,\textbf{rpp-lbsp}}{1SP} -->
     <g transform="translate(152.719018 120.978962) scale(0.09 -0.09)">
      <use xlink:href="#RobotoCondensed-Italic-4d" transform="scale(0.946448)"/>
      <use xlink:href="#RobotoCondensed-Italic-43" transform="translate(69.753242 0) scale(0.946448)"/>
      <use xlink:href="#RobotoCondensed-Italic-53" transform="translate(122.186424 0) scale(0.946448)"/>
      <use xlink:href="#RobotoCondensed-Italic-6f" transform="translate(180.464144 51.157251) scale(0.746176)"/>
      <use xlink:href="#RobotoCondensed-Italic-31" transform="translate(217.101397 51.157251) scale(0.746176)"/>
      <use xlink:href="#RobotoCondensed-Italic-2c" transform="translate(245.082999 51.157251) scale(0.746176)"/>
      <use xlink:href="#RobotoCondensed-BoldItalic-6d" transform="translate(259.6334 51.157251) scale(0.746176)"/>
      <use xlink:href="#RobotoCondensed-BoldItalic-6f" transform="translate(313.656536 51.157251) scale(0.746176)"/>
      <use xlink:href="#RobotoCondensed-BoldItalic-64" transform="translate(349.995348 51.157251) scale(0.746176)"/>
      <use xlink:href="#RobotoCondensed-BoldItalic-76" transform="translate(386.184863 51.157251) scale(0.746176)"/>
      <use xlink:href="#RobotoCondensed-Italic-2c" transform="translate(419.016578 51.157251) scale(0.746176)"/>
      <use xlink:href="#RobotoCondensed-Italic-73" transform="translate(433.56698 51.157251) scale(0.746176)"/>
      <use xlink:href="#RobotoCondensed-Italic-74" transform="translate(466.846433 51.157251) scale(0.746176)"/>
      <use xlink:href="#RobotoCondensed-Italic-6c" transform="translate(488.560172 51.157251) scale(0.746176)"/>
      <use xlink:href="#RobotoCondensed-Italic-2c" transform="translate(505.498378 51.157251) scale(0.746176)"/>
      <use xlink:href="#RobotoCondensed-BoldItalic-72" transform="translate(520.048779 51.157251) scale(0.746176)"/>
      <use xlink:href="#RobotoCondensed-BoldItalic-70" transform="translate(544.374124 51.157251) scale(0.746176)"/>
      <use xlink:href="#RobotoCondensed-BoldItalic-70" transform="translate(580.56364 51.157251) scale(0.746176)"/>
      <use xlink:href="#RobotoCondensed-BoldItalic-2d" transform="translate(616.753155 51.157251) scale(0.746176)"/>
      <use xlink:href="#RobotoCondensed-BoldItalic-6c" transform="translate(643.391664 51.157251) scale(0.746176)"/>
      <use xlink:href="#RobotoCondensed-BoldItalic-62" transform="translate(661.971419 51.157251) scale(0.746176)"/>
      <use xlink:href="#RobotoCondensed-BoldItalic-73" transform="translate(698.160934 51.157251) scale(0.746176)"/>
      <use xlink:href="#RobotoCondensed-BoldItalic-70" transform="translate(731.365746 51.157251) scale(0.746176)"/>
      <use xlink:href="#RobotoCondensed-Italic-31" transform="translate(170.171321 -36.289178) scale(0.690903)"/>
      <use xlink:href="#RobotoCondensed-Italic-53" transform="translate(196.080175 -36.289178) scale(0.690903)"/>
      <use xlink:href="#RobotoCondensed-Italic-50" transform="translate(231.108943 -36.289178) scale(0.690903)"/>
     </g>
    </g>
    <g id="LineCollection_16">
     <path d="M 139.669018 141.684329 
L 139.669018 132.684329 
" style="fill: none; stroke: #d87160"/>
    </g>
    <g id="line2d_35">
     <path d="M 132.019018 137.184329 
L 147.319018 137.184329 
" style="fill: none; stroke: #d87160; stroke-linecap: round"/>
    </g>
    <g id="line2d_36">
     <g>
      <use xlink:href="#mc12fff01af" x="139.669018" y="137.184329" style="fill: #d87160; stroke: #d87160; stroke-linejoin: miter"/>
     </g>
    </g>
    <g id="text_19">
     <!-- \schedulermoobj[1]{MCT}{o1,\textbf{modv},stl,\textbf{rpp-lbsp}}{1SP} -->
     <g transform="translate(152.719018 139.634329) scale(0.09 -0.09)">
      <use xlink:href="#RobotoCondensed-Italic-4d" transform="scale(0.946448)"/>
      <use xlink:href="#RobotoCondensed-Italic-43" transform="translate(69.753242 0) scale(0.946448)"/>
      <use xlink:href="#RobotoCondensed-Italic-54" transform="translate(120.861391 0) scale(0.946448)"/>
      <use xlink:href="#RobotoCondensed-Italic-6f" transform="translate(179.328388 51.157251) scale(0.746176)"/>
      <use xlink:href="#RobotoCondensed-Italic-31" transform="translate(215.965642 51.157251) scale(0.746176)"/>
      <use xlink:href="#RobotoCondensed-Italic-2c" transform="translate(243.947243 51.157251) scale(0.746176)"/>
      <use xlink:href="#RobotoCondensed-BoldItalic-6d" transform="translate(258.497644 51.157251) scale(0.746176)"/>
      <use xlink:href="#RobotoCondensed-BoldItalic-6f" transform="translate(312.520781 51.157251) scale(0.746176)"/>
      <use xlink:href="#RobotoCondensed-BoldItalic-64" transform="translate(348.859593 51.157251) scale(0.746176)"/>
      <use xlink:href="#RobotoCondensed-BoldItalic-76" transform="translate(385.049108 51.157251) scale(0.746176)"/>
      <use xlink:href="#RobotoCondensed-Italic-2c" transform="translate(417.880823 51.157251) scale(0.746176)"/>
      <use xlink:href="#RobotoCondensed-Italic-73" transform="translate(432.431224 51.157251) scale(0.746176)"/>
      <use xlink:href="#RobotoCondensed-Italic-74" transform="translate(465.710677 51.157251) scale(0.746176)"/>
      <use xlink:href="#RobotoCondensed-Italic-6c" transform="translate(487.424417 51.157251) scale(0.746176)"/>
      <use xlink:href="#RobotoCondensed-Italic-2c" transform="translate(504.362623 51.157251) scale(0.746176)"/>
      <use xlink:href="#RobotoCondensed-BoldItalic-72" transform="translate(518.913024 51.157251) scale(0.746176)"/>
      <use xlink:href="#RobotoCondensed-BoldItalic-70" transform="translate(543.238369 51.157251) scale(0.746176)"/>
      <use xlink:href="#RobotoCondensed-BoldItalic-70" transform="translate(579.427884 51.157251) scale(0.746176)"/>
      <use xlink:href="#RobotoCondensed-BoldItalic-2d" transform="translate(615.617399 51.157251) scale(0.746176)"/>
      <use xlink:href="#RobotoCondensed-BoldItalic-6c" transform="translate(642.255908 51.157251) scale(0.746176)"/>
      <use xlink:href="#RobotoCondensed-BoldItalic-62" transform="translate(660.835663 51.157251) scale(0.746176)"/>
      <use xlink:href="#RobotoCondensed-BoldItalic-73" transform="translate(697.025178 51.157251) scale(0.746176)"/>
      <use xlink:href="#RobotoCondensed-BoldItalic-70" transform="translate(730.229991 51.157251) scale(0.746176)"/>
      <use xlink:href="#RobotoCondensed-Italic-31" transform="translate(169.035565 -36.289178) scale(0.690903)"/>
      <use xlink:href="#RobotoCondensed-Italic-53" transform="translate(194.944419 -36.289178) scale(0.690903)"/>
      <use xlink:href="#RobotoCondensed-Italic-50" transform="translate(229.973187 -36.289178) scale(0.690903)"/>
     </g>
    </g>
   </g>
  </g>
 </g>
 <defs>
  <clipPath id="p73d33d15b1">
   <rect x="34.875898" y="2.695722" width="88.59312" height="140.184"/>
  </clipPath>
 </defs>
</svg>
